<svg width="36" height="27" viewBox="0 0 36 27" fill="none" xmlns="http://www.w3.org/2000/svg">
<g clip-path="url(#clip0_1384_5606)">
<path fill-rule="evenodd" clip-rule="evenodd" d="M0.39603 8.00231L8.37019 0.418457C8.65265 0.149813 9.02756 0 9.41738 0H26.3414C26.7242 0 27.0928 0.144471 27.3737 0.404532L35.6022 8.02299C36.1348 8.55794 36.1323 9.4196 35.5966 9.95152L32.7947 12.7338C32.2668 13.2581 31.4142 13.2691 30.8727 12.7586L26.9368 9V25.4805C26.9368 26.3197 26.2565 27 25.4173 27H10.3297C9.4905 27 8.81018 26.3197 8.81018 25.4805V9L5.12912 12.7379C4.58761 13.2484 3.73504 13.2374 3.20706 12.7131L0.403377 9.92903C-0.131581 9.39781 -0.134861 8.53754 0.39603 8.00231Z" fill="#E1CD18"/>
<rect x="14.4004" width="3.6" height="27" fill="#369CFA"/>
</g>
<defs>
<clipPath id="clip0_1384_5606">
<rect width="36" height="27" fill="white"/>
</clipPath>
</defs>
</svg>
