<svg width="26" height="26" viewBox="0 0 26 26" fill="none" xmlns="http://www.w3.org/2000/svg">
<path d="M15.333 0C15.333 1.65685 16.6762 3 18.333 3C19.9899 3 21.333 1.65685 21.333 0H23.428C24.4801 0 25.333 0.852909 25.333 1.90503V12L23.333 12.0211V14L25.333 13.9789V17.095C25.333 18.1471 24.4801 19 23.428 19H21.333C21.333 17.3431 19.9899 16 18.333 16C18.1898 16 18.049 16.01 17.9112 16.0294L17.3656 13.9934L20.333 13.9789V12L16.8361 12.0171L14.8076 4.44669C14.5217 3.37975 13.425 2.74659 12.3581 3.03247L11.333 3.30715V1.90503C11.333 0.852909 12.1859 0 13.238 0H15.333Z" fill="#DAD4ED"/>
<path fill-rule="evenodd" clip-rule="evenodd" d="M7.11027 9.03819C5.50987 9.46701 3.86486 8.51726 3.43603 6.91687L1.41244 7.45909C0.396174 7.73139 -0.206923 8.77599 0.0653851 9.79226L2.67816 19.5433L4.61001 19.0256L5.1222 20.9371L3.19034 21.4548L3.99683 24.4646C4.26914 25.4809 5.31374 26.084 6.33 25.8117L8.35359 25.2695C7.92477 23.6691 8.87451 22.024 10.4749 21.5952C12.0753 21.1664 13.7203 22.1161 14.1491 23.7165L16.1727 23.1743C17.189 22.902 17.7921 21.8574 17.5198 20.8412L16.7133 17.8313L14.7869 18.3693L14.2747 16.4578L16.2011 15.9198L13.5883 6.16879C13.316 5.15252 12.2714 4.54942 11.2552 4.82173L9.23159 5.36395C9.66041 6.96435 8.71066 8.60936 7.11027 9.03819ZM7.51284 18.268L8.02503 20.1795L11.8837 19.1254L11.3715 17.2139L7.51284 18.268Z" fill="#DAD4ED"/>
</svg>
