<svg width="174" height="124" viewBox="0 0 174 124" fill="none" xmlns="http://www.w3.org/2000/svg">
<path d="M174 119C174 121.761 171.761 124 169 124L5 124C2.23858 124 -2.41411e-07 121.761 0 119L9.9662e-06 5C1.02076e-05 2.23858 2.23859 -2.41404e-07 5.00001 0L169 1.43373e-05C171.761 1.45788e-05 174 2.23859 174 5.00001L174 119Z" fill="#623CEA" fill-opacity="0.1"/>
<path fill-rule="evenodd" clip-rule="evenodd" d="M174 9.07144H170V5.00001C170 4.44773 169.552 4.00001 169 4.00001L164.9 4.00001V1.39789e-05L169 1.43373e-05C171.761 1.45788e-05 174 2.23859 174 5.00001V9.07144ZM174 17.2143H170V25.3572H174V17.2143ZM174 33.5H170V41.6429H174V33.5ZM174 49.7857H170V57.9286H174V49.7857ZM174 66.0714H170V74.2143H174V66.0714ZM174 82.3572H170V90.5H174V82.3572ZM174 98.6429H170V106.786H174V98.6429ZM174 114.929H170V119C170 119.552 169.552 120 169 120H164.9V124H169C171.761 124 174 121.761 174 119V114.929ZM156.7 124V120H148.5V124H156.7ZM140.3 124V120L132.1 120V124L140.3 124ZM123.9 124V120H115.7V124H123.9ZM107.5 124V120H99.3V124H107.5ZM91.1 124V120H82.9V124H91.1ZM74.7 124V120H66.5V124H74.7ZM58.3 124V120H50.1V124H58.3ZM41.9 124V120H33.7V124H41.9ZM25.5 124V120H17.3V124H25.5ZM9.10002 124V120H5C4.44771 120 4 119.552 4 119L4 114.929H3.55935e-07L0 119C-2.41411e-07 121.761 2.23858 124 5 124H9.10002ZM1.06781e-06 106.786H4L4 98.6429H1.77968e-06L1.06781e-06 106.786ZM2.49155e-06 90.5H4L4 82.3571H3.20342e-06L2.49155e-06 90.5ZM3.91529e-06 74.2143H4L4 66.0714H4.62716e-06L3.91529e-06 74.2143ZM5.33903e-06 57.9286H4.00001L4.00001 49.7857H6.05091e-06L5.33903e-06 57.9286ZM6.76278e-06 41.6429H4.00001L4.00001 33.5H7.47465e-06L6.76278e-06 41.6429ZM8.18652e-06 25.3571H4.00001L4.00001 17.2143H8.89839e-06L8.18652e-06 25.3571ZM9.61026e-06 9.07142H4.00001L4.00001 5C4.00001 4.44772 4.44773 4 5.00001 4L9.10002 4V3.58443e-07L5.00001 0C2.23859 -2.41404e-07 1.02076e-05 2.23858 9.9662e-06 5L9.61026e-06 9.07142ZM17.3 1.07531e-06V4L25.5 4V1.79218e-06L17.3 1.07531e-06ZM33.7 2.50904e-06V4L41.9 4V3.2259e-06L33.7 2.50904e-06ZM50.1 3.94278e-06V4L58.3 4V4.65964e-06L50.1 3.94278e-06ZM66.5 5.37651e-06V4.00001L74.7 4.00001V6.09337e-06L66.5 5.37651e-06ZM82.9 6.81025e-06V4.00001L91.1 4.00001V7.52711e-06L82.9 6.81025e-06ZM99.3 8.24397e-06V4.00001L107.5 4.00001V8.96084e-06L99.3 8.24397e-06ZM115.7 9.67771e-06V4.00001L123.9 4.00001V1.03946e-05L115.7 9.67771e-06ZM132.1 1.11114e-05V4.00001L140.3 4.00001V1.18283e-05L132.1 1.11114e-05ZM148.5 1.25452e-05V4.00001L156.7 4.00001V1.3262e-05L148.5 1.25452e-05Z" fill="#623CEA"/>
<path d="M61 33.5C61 32.3955 61.8954 31.5 63 31.5H137C138.105 31.5 139 32.3955 139 33.5C139 34.6046 138.105 35.5 137 35.5H63C61.8954 35.5 61 34.6046 61 33.5Z" fill="#442D91"/>
<path fill-rule="evenodd" clip-rule="evenodd" d="M52.9142 27.4143L40.5 39.8285L33.5858 32.9143L36.4142 30.0858L40.5 34.1716L50.0858 24.5858L52.9142 27.4143Z" fill="#442D91"/>
<path d="M61 60.5C61 59.3955 61.8954 58.5 63 58.5H137C138.105 58.5 139 59.3955 139 60.5C139 61.6046 138.105 62.5 137 62.5H63C61.8954 62.5 61 61.6046 61 60.5Z" fill="#442D91"/>
<path fill-rule="evenodd" clip-rule="evenodd" d="M52.9142 54.4143L40.5 66.8285L33.5858 59.9143L36.4142 57.0858L40.5 61.1716L50.0858 51.5858L52.9142 54.4143Z" fill="#442D91"/>
<path d="M61 90C61 88.8954 61.8954 88 63 88H137C138.105 88 139 88.8954 139 90C139 91.1046 138.105 92 137 92H63C61.8954 92 61 91.1046 61 90Z" fill="#442D91"/>
<path fill-rule="evenodd" clip-rule="evenodd" d="M48 84H38V94H48V84ZM34 80V98H52V80H34Z" fill="#442D91"/>
</svg>
