<svg width="36" height="27" viewBox="0 0 36 27" fill="none" xmlns="http://www.w3.org/2000/svg">
<g clip-path="url(#clip0_1395_16974)">
<path fill-rule="evenodd" clip-rule="evenodd" d="M0.39603 8.00231L8.01819 0.753222C8.52664 0.269663 9.20147 0 9.90315 0H25.865C26.554 0 27.2177 0.260048 27.7233 0.728158L35.6022 8.02299C36.1348 8.55794 36.1323 9.4196 35.5966 9.95152L32.7947 12.7338C32.2668 13.2581 31.4142 13.2691 30.8727 12.7586L26.9368 9V24.2648C26.9368 25.7754 25.7122 27 24.2016 27H11.5454C10.0348 27 8.81018 25.7754 8.81018 24.2648V9L5.12912 12.7379C4.58761 13.2484 3.73504 13.2374 3.20706 12.7131L0.403377 9.92903C-0.131581 9.39781 -0.134861 8.53754 0.39603 8.00231Z" fill="#FF1313"/>
<rect x="26.9365" y="9" width="5.4" height="18.1266" transform="rotate(90 26.9365 9)" fill="white"/>
</g>
<defs>
<clipPath id="clip0_1395_16974">
<rect width="36" height="27" fill="white"/>
</clipPath>
</defs>
</svg>
