<svg width="19" height="22" viewBox="0 0 19 22" fill="none" xmlns="http://www.w3.org/2000/svg">
<rect x="4" width="3" height="6" rx="1.5" fill="#CAC2E5"/>
<rect x="12" width="3" height="6" rx="1.5" fill="#CAC2E5"/>
<path fill-rule="evenodd" clip-rule="evenodd" d="M3 3H2C0.895431 3 0 3.89543 0 5V20C0 21.1046 0.895431 22 2 22H17C18.1046 22 19 21.1046 19 20V5C19 3.89543 18.1046 3 17 3H16V4.5C16 5.88071 14.8807 7 13.5 7C12.1193 7 11 5.88071 11 4.5V3H8V4.5C8 5.88071 6.88071 7 5.5 7C4.11929 7 3 5.88071 3 4.5V3ZM16 9C16.5523 9 17 9.44772 17 10V19C17 19.5523 16.5523 20 16 20H3C2.44772 20 2 19.5523 2 19L2 10C2 9.44771 2.44772 9 3 9H16Z" fill="#CAC2E5"/>
</svg>
