<svg width="170" height="50" viewBox="0 0 170 50" fill="none" xmlns="http://www.w3.org/2000/svg">
<g clip-path="url(#clip0_4811_45875)">
<path d="M165.696 0H4.02844C1.80359 0 0 2.23858 0 5V45C0 47.7614 1.80359 50 4.02844 50H165.696C167.921 50 169.724 47.7614 169.724 45V5C169.724 2.23858 167.921 0 165.696 0Z" fill="url(#paint0_linear_4811_45875)" fill-opacity="0.4"/>
<path d="M165.696 1H4.02841C2.24854 1 0.805664 2.79086 0.805664 5V45C0.805664 47.2091 2.24854 49 4.02841 49H165.696C167.476 49 168.919 47.2091 168.919 45V5C168.919 2.79086 167.476 1 165.696 1Z" stroke="url(#paint1_linear_4811_45875)" stroke-opacity="0.75" stroke-width="2"/>
</g>
<defs>
<linearGradient id="paint0_linear_4811_45875" x1="0" y1="25" x2="169.724" y2="25" gradientUnits="userSpaceOnUse">
<stop stop-color="#545B6D"/>
<stop offset="0.16" stop-color="#191D26"/>
<stop offset="1" stop-color="#1F2432"/>
</linearGradient>
<linearGradient id="paint1_linear_4811_45875" x1="-2.31662e-05" y1="25" x2="169.724" y2="25" gradientUnits="userSpaceOnUse">
<stop stop-color="white" stop-opacity="0.33"/>
<stop offset="0.174382" stop-color="white"/>
<stop offset="0.45" stop-color="white" stop-opacity="0.26"/>
<stop offset="0.85" stop-color="white" stop-opacity="0.57"/>
</linearGradient>
<clipPath id="clip0_4811_45875">
<rect width="170" height="50" fill="white"/>
</clipPath>
</defs>
</svg>
