<svg width="373" height="350" viewBox="0 0 373 350" fill="none" xmlns="http://www.w3.org/2000/svg">
<g clip-path="url(#clip0_4807_45810)">
<path d="M1.03397e-05 -0.000100492L-0.000148997 201.999C44.5853 182.691 252.262 73.4742 338.999 24.9993L372.5 -0.0014019L1.03397e-05 -0.000100492Z" fill="#1F47DD"/>
<path d="M228.957 117.273C194.699 140.565 158.947 161.508 122.024 180.154C84.4134 199.408 45.5631 215.962 5.80445 229.958C-65.7715 255.538 -140.204 273.348 -215.557 283.439C-241.948 287.28 -271.943 290.084 -298.621 292.19C-340.072 295.003 -382.459 296.096 -424.131 295.523L-429 324.908C-356.92 324.982 -284.767 320.265 -213.608 308.636C-65.117 285.227 78.7926 230.159 202.4 144.322C264.044 102.038 320.614 52.8254 372.966 -0.361837C328.541 42.7589 280.264 82.4914 228.957 117.273Z" fill="#2A2734"/>
<path d="M-424.121 295.539C-382.45 296.112 -340.062 295.019 -298.612 292.206C-271.946 290.097 -241.95 287.294 -215.547 283.454C-140.194 273.364 -65.7618 255.554 5.81419 229.974C45.5449 215.778 84.3912 199.174 122.034 180.17C158.957 161.524 194.709 140.581 228.967 117.288C280.264 82.4933 328.54 42.7609 372.966 -0.359904C328.307 41.072 279.501 78.6144 227.706 110.809C158.393 154.011 83.4995 187.072 5.67751 211.25C-45.6487 227.412 -98.2357 239.527 -151.522 247.896C-177.445 252.084 -203.499 255.443 -229.579 258.003C-252.038 260.173 -275.259 261.924 -297.777 263.192C-337.848 265.207 -378.803 265.767 -419.063 265.012L-424.119 295.527L-424.121 295.539Z" fill="#D6E2EC"/>
<path d="M372.965 -0.361865C370.047 2.12491 367.108 4.59585 364.158 7.05292C362.767 8.21595 361.369 9.35323 359.968 10.5024C358.382 11.8163 356.783 13.1282 355.188 14.4163C353.705 15.625 352.225 16.81 350.731 18.0048C349.152 19.2711 347.586 20.5394 345.997 21.7918C344.604 22.8934 343.2 23.993 341.807 25.0946C340.038 26.476 338.269 27.8575 336.502 29.2271C335.323 30.1441 334.135 31.0472 332.956 31.9642C330.815 33.6018 328.675 35.2274 326.524 36.8511C325.713 37.4625 324.889 38.0838 324.067 38.6932C321.29 40.7754 318.504 42.8319 315.695 44.8844C315.501 45.0233 315.319 45.1642 315.125 45.3032C289.759 63.8354 263.486 81.1294 236.381 96.9533C235.785 97.3067 235.178 97.6463 234.582 97.9997C232.945 98.9509 231.307 99.9139 229.658 100.863C228.467 101.558 227.257 102.225 226.066 102.92C225.985 102.968 225.892 103.014 225.81 103.061C192.48 122.156 158.128 138.857 122.949 153.319C-14.4623 210.258 -162.854 233.585 -322.37 236.112C-342.959 236.514 -368.977 236.554 -389.468 236.361C-395.473 236.308 -405.225 236.073 -414.221 235.854L-419.055 265.024C-378.782 265.781 -337.839 265.219 -297.768 263.204C-275.25 261.936 -252.03 260.185 -229.571 258.015C-203.49 255.455 -177.448 252.094 -151.513 247.908C-98.3499 239.323 -45.6936 227.232 5.68629 211.262C83.5083 187.084 158.414 154.025 227.715 110.821C279.5 78.6124 328.306 41.0701 372.965 -0.361865Z" fill="#04BD65"/>
<path d="M236.515 89.0689C193.007 112.785 148.089 132.172 102.111 147.851C0.987903 182.897 -106.001 201.412 -212.685 207.534C-278.209 211.345 -343.92 210.675 -409.428 206.862L-414.232 235.854C-405.235 236.073 -395.484 236.308 -389.479 236.361C-368.976 236.556 -342.958 236.516 -322.381 236.112C-162.865 233.585 -14.4731 210.258 122.938 153.319C157.94 138.816 192.215 122.139 225.8 103.061C225.881 103.014 225.974 102.968 226.055 102.92C228.902 101.302 231.742 99.6577 234.583 98.0017C235.179 97.6483 235.786 97.3087 236.382 96.9552C263.079 81.3082 289.332 64.1332 315.126 45.3052C315.32 45.1662 315.502 45.0253 315.696 44.8863C318.492 42.8437 321.279 40.7754 324.068 38.6951C324.89 38.0857 325.703 37.4625 326.525 36.8531C328.674 35.2413 330.816 33.6038 332.957 31.9662C334.146 31.0631 335.324 30.146 336.503 29.229C338.27 27.8595 340.039 26.478 341.808 25.0965C343.213 23.9969 344.603 22.9073 345.998 21.7938C347.575 20.5394 349.154 19.2731 350.732 18.0068C352.214 16.8099 353.706 15.627 355.19 14.4183C356.786 13.1183 358.373 11.8044 359.969 10.5044C361.37 9.35519 362.77 8.20602 364.159 7.05488C367.107 4.6097 370.034 2.1368 372.966 -0.359904C372.966 -0.359904 372.938 -0.340057 372.936 -0.32816C330.145 33.2971 284.506 63.3091 236.527 89.0709L236.515 89.0689Z" fill="#FA2126"/>
<path d="M152.827 116.789C36.9462 160.489 -87.1593 183.379 -210.724 187.291C-275.415 189.321 -340.326 186.254 -404.753 178.647L-409.428 206.865C-343.92 210.679 -278.209 211.348 -212.685 207.537C-105.987 201.406 0.987959 182.901 102.111 147.855C133.727 136.898 164.79 124.333 195.068 110.013C209.072 103.398 222.883 96.3969 236.515 89.0727C284.494 63.3108 330.133 33.2989 372.924 -0.326393C372.924 -0.326393 372.938 -0.336315 372.952 -0.34624C372.839 -0.25494 372.716 -0.17751 372.594 -0.100078C305.116 48.7718 230.862 87.9282 152.817 116.775L152.827 116.789Z" fill="#1F47DD"/>
<path d="M-404.754 178.639C-340.327 186.246 -275.43 189.323 -210.725 187.283C-87.1464 183.361 36.9571 160.483 152.826 116.781C230.688 87.4148 304.829 48.6432 372.603 -0.0942108C372.715 -0.185511 372.838 -0.262941 372.961 -0.340373C147.322 147.417 -135.81 186.922 -398.948 143.603L-404.754 178.639Z" fill="#FAD75F"/>
</g>
<defs>
<clipPath id="clip0_4807_45810">
<rect width="373" height="350" fill="white"/>
</clipPath>
</defs>
</svg>
