<svg width="995" height="289" viewBox="0 0 995 289" fill="none" xmlns="http://www.w3.org/2000/svg">
<path d="M0 0H812C776.148 64.5261 752.5 95 708 144C641.017 211.653 574.771 239.597 451.5 289H0V0Z" fill="#1F47DD"/>
<path fill-rule="evenodd" clip-rule="evenodd" d="M810.5 0C747.781 81.881 703.557 144.17 624.245 192.379C567.902 227.539 506.358 257.636 407 289H453.5C533.09 262.037 585.876 234.891 635.378 204C717.694 152.633 763.666 90.6904 812.342 0H810.5Z" fill="#2A2734"/>
<path fill-rule="evenodd" clip-rule="evenodd" d="M809.5 0C765.798 72.5814 700.298 127.193 624.99 175.061C561.194 215.612 476.074 251.526 352.953 289H407C504.968 257.64 580.376 226.366 635.378 191.404C717.403 139.266 766.051 79.2421 812.557 0H809.5Z" fill="#D7E3ED"/>
<path fill-rule="evenodd" clip-rule="evenodd" d="M810.721 0C765.961 71.8748 692.056 124.815 609.16 171.099C534.329 212.88 435.41 249.293 296.918 289H365.038C472.336 256 553.958 224.099 618.601 188.007C708.384 137.878 765.278 79.7436 812.95 0H810.721Z" fill="#04BD65"/>
<path fill-rule="evenodd" clip-rule="evenodd" d="M810 0C719.437 137.243 566.976 200.731 245.88 289H317.38C599.241 207.571 724.604 140.642 813 0H810Z" fill="#FA2126"/>
<path fill-rule="evenodd" clip-rule="evenodd" d="M809 0C716 132 549.245 195.741 201.974 289H256C563.475 204.624 719.16 146.309 812.298 0H809Z" fill="#1E44D8"/>
<path fill-rule="evenodd" clip-rule="evenodd" d="M811.739 0C761.473 69.8728 662.141 124.202 545.966 171.458C436.454 216.004 297.717 248.227 130.179 289H191.309C333.406 254.754 456.304 222.836 553.263 183.396C673.377 134.537 760.71 77.4371 812.169 0H811.739Z" fill="#FAD75F"/>
</svg>
