<svg width="70" height="91" viewBox="0 0 70 91" fill="none" xmlns="http://www.w3.org/2000/svg">
<g clip-path="url(#clip0)">
<path d="M40.3793 85.6472C37.7159 89.2855 32.2841 89.2855 29.6207 85.6472L8.15416 56.323C-8.272 33.8842 7.48382 2.0048 35 2.0048C62.5162 2.00481 78.272 33.8841 61.8459 56.323L40.3793 85.6472Z" fill="#272842"/>
<path d="M46.3536 63.6792L53.3932 69.8997C58.8899 62.3335 67.5 52 69.1012 42.9387H59.582C57.4874 49.7738 50.9263 56.9492 46.3536 63.6792Z" fill="#692E71"/>
<path fill-rule="evenodd" clip-rule="evenodd" d="M59.6094 42.9571C63.1094 31.2904 57.4382 19.73 50.0208 14.2917L54.0221 5.62378C64.5 12.5 73 26.5 69.0905 42.9571H59.6094Z" fill="#2F457B"/>
<path d="M19.9882 14.3008L15.9988 5.60531C21.0467 2.07852 27.9867 0.0273438 35.0075 0.0273438C42.0282 0.0273438 47.9812 1.89324 54.0221 5.63281L50.0299 14.3008C41.3528 7.57124 28.2783 7.87161 19.9882 14.3008Z" fill="#205D85"/>
<path fill-rule="evenodd" clip-rule="evenodd" d="M19.9974 14.2734C12.8082 19.7726 7.05006 29.6442 10.3743 42.9605H0.774776C-2.39257 27.6367 4.62807 12.8229 15.9961 5.6145L19.9974 14.2734Z" fill="#3A9E86"/>
<path d="M16.388 69.5624L22.5768 62.2252C15.2385 52.2659 11.7578 47.7786 10.3724 42.9387H0.774719C2.27716 51.3386 6.95281 57.1127 16.388 69.5624Z" fill="#E6B135"/>
<path d="M35.6357 29.1758C39.0822 29.1758 41.9386 30.3288 43.5438 32.3614V32.7893L40.9235 35.1547H40.5104C39.2711 33.9304 37.6068 33.241 35.8835 33.2172C34.2783 33.2172 33.4521 33.8234 33.4521 34.7387C33.4521 35.654 34.2783 36.0106 36.4737 36.8664C39.3891 37.9599 44.0159 39.1724 44.0159 43.5347C44.0159 47.3503 40.4632 49.6801 35.6475 49.6801C31.7878 49.6801 28.6954 48.1111 26.8423 45.8764V45.4485L29.5098 42.9642H29.9229C30.5957 43.7606 31.4219 44.4025 32.3662 44.8542C33.2986 45.3058 34.3137 45.5555 35.3524 45.5911C37.0166 45.5911 38.0199 44.866 38.0199 43.7725C38.0199 42.4412 36.5917 41.9538 34.6914 41.2882C31.4337 40.1946 27.5623 38.9703 27.5623 35.0359C27.6213 31.4223 30.8908 29.1758 35.6357 29.1758Z" fill="white"/>
<path opacity="0.5" fill-rule="evenodd" clip-rule="evenodd" d="M35 91.0569C36.6488 91.0579 38.2981 90.3302 39.4053 88.8738L41.1109 86.6305L41.3357 86.3242H35V91.0569Z" fill="#C4C4C4"/>
<path fill-rule="evenodd" clip-rule="evenodd" d="M53.4024 69.8817L41.3357 86.3241H41.3438L41.1108 86.6305L40.6964 87.1953L40.678 87.1999L39.4054 88.8737C38.2981 90.3301 36.6488 91.0578 35 91.0568V86.3241H35V79.3335L46.3695 63.6636L53.4024 69.8817Z" fill="#B45294"/>
<path fill-rule="evenodd" clip-rule="evenodd" d="M35 79.3607L22.5768 62.207L16.3698 69.5625L28.7019 86.3242H28.6653L29.8517 87.8869L30.6695 88.9985C30.7088 89.0348 30.748 89.0706 30.7871 89.1059C31.8867 90.4057 33.4432 91.056 35 91.0569V84.8254H35V79.3607Z" fill="#D98B6A"/>
</g>
<defs>
<clipPath id="clip0">
<rect width="70" height="91" fill="white"/>
</clipPath>
</defs>
</svg>
