<svg width="70" height="91" viewBox="0 0 70 91" fill="none" xmlns="http://www.w3.org/2000/svg">
<path d="M40.4037 78.8544C37.7426 82.5374 32.2574 82.5374 29.5963 78.8544L12.577 55.2995C-1.14292 36.3108 12.0171 9.33326 35 9.33326C57.9829 9.33326 71.1429 36.3108 57.423 55.2994L40.4037 78.8544Z" fill="#2E447B"/>
<path d="M35.6357 29.1758C39.0822 29.1758 41.9386 30.3288 43.5438 32.3614V32.7893L40.9235 35.1547H40.5104C39.2711 33.9304 37.6068 33.241 35.8835 33.2172C34.2783 33.2172 33.4521 33.8234 33.4521 34.7387C33.4521 35.654 34.2783 36.0106 36.4737 36.8664C39.3891 37.9599 44.0159 39.1724 44.0159 43.5347C44.0159 47.3503 40.4632 49.6801 35.6475 49.6801C31.7878 49.6801 28.6954 48.1111 26.8423 45.8764V45.4485L29.5098 42.9642H29.9229C30.5957 43.7606 31.4219 44.4025 32.3662 44.8542C33.2986 45.3058 34.3137 45.5555 35.3524 45.5911C37.0166 45.5911 38.0199 44.866 38.0199 43.7725C38.0199 42.4412 36.5917 41.9538 34.6914 41.2882C31.4337 40.1946 27.5623 38.9703 27.5623 35.0359C27.6213 31.4223 30.8908 29.1758 35.6357 29.1758Z" fill="white"/>
</svg>
