<svg width="41" height="41" viewBox="0 0 41 41" fill="none" xmlns="http://www.w3.org/2000/svg">
<circle cx="20.5" cy="20.5" r="20.5" fill="#D9D9D9"/>
<circle cx="20.5" cy="20.5" r="20.5" fill="url(#paint0_linear_4876_46811)"/>
<g filter="url(#filter0_i_4876_46811)">
<circle cx="20.4988" cy="20.5008" r="19.7039" fill="#D9D9D9"/>
<circle cx="20.4988" cy="20.5008" r="19.7039" fill="url(#paint1_linear_4876_46811)"/>
</g>
<g filter="url(#filter1_i_4876_46811)">
<circle cx="20.5007" cy="20.4987" r="17.7136" fill="#D9D9D9"/>
<circle cx="20.5007" cy="20.4987" r="17.7136" fill="url(#paint2_linear_4876_46811)"/>
</g>
<g filter="url(#filter2_d_4876_46811)">
<path d="M27.07 13.6439L23.0458 18.8308C24.5362 19.268 25.7187 20.0231 26.5931 21.0963C27.4873 22.1694 27.9345 23.4512 27.9345 24.9417C27.9345 27.1277 27.1992 28.8467 25.7286 30.0987C24.2779 31.3308 22.4694 31.9469 20.3033 31.9469C18.6141 31.9469 17.1137 31.5693 15.8021 30.8141C14.5103 30.0391 13.5763 28.9163 13 27.4457L16.5771 25.359C17.0938 27.0085 18.3359 27.8332 20.3033 27.8332C21.3764 27.8332 22.2111 27.5848 22.8073 27.088C23.4233 26.5713 23.7314 25.8558 23.7314 24.9417C23.7314 24.0673 23.4233 23.3717 22.8073 22.855C22.2111 22.3185 21.3764 22.0502 20.3033 22.0502H19.409L17.7695 19.6058L22.0024 14.0911H13.626V10.1562H27.07V13.6439Z" fill="white"/>
</g>
<defs>
<filter id="filter0_i_4876_46811" x="0.794922" y="0.796875" width="40.2043" height="40.9985" filterUnits="userSpaceOnUse" color-interpolation-filters="sRGB">
<feFlood flood-opacity="0" result="BackgroundImageFix"/>
<feBlend mode="normal" in="SourceGraphic" in2="BackgroundImageFix" result="shape"/>
<feColorMatrix in="SourceAlpha" type="matrix" values="0 0 0 0 0 0 0 0 0 0 0 0 0 0 0 0 0 0 127 0" result="hardAlpha"/>
<feOffset dx="0.796117" dy="1.59223"/>
<feGaussianBlur stdDeviation="2.18932"/>
<feComposite in2="hardAlpha" operator="arithmetic" k2="-1" k3="1"/>
<feColorMatrix type="matrix" values="0 0 0 0 0.8 0 0 0 0 0.505882 0 0 0 0 0 0 0 0 0.7 0"/>
<feBlend mode="normal" in2="shape" result="effect1_innerShadow_4876_46811"/>
</filter>
<filter id="filter1_i_4876_46811" x="2.78711" y="2.78516" width="36.2239" height="37.018" filterUnits="userSpaceOnUse" color-interpolation-filters="sRGB">
<feFlood flood-opacity="0" result="BackgroundImageFix"/>
<feBlend mode="normal" in="SourceGraphic" in2="BackgroundImageFix" result="shape"/>
<feColorMatrix in="SourceAlpha" type="matrix" values="0 0 0 0 0 0 0 0 0 0 0 0 0 0 0 0 0 0 127 0" result="hardAlpha"/>
<feOffset dx="0.796117" dy="1.59223"/>
<feGaussianBlur stdDeviation="2.18932"/>
<feComposite in2="hardAlpha" operator="arithmetic" k2="-1" k3="1"/>
<feColorMatrix type="matrix" values="0 0 0 0 0.366667 0 0 0 0 0.336336 0 0 0 0 0.284167 0 0 0 0.7 0"/>
<feBlend mode="normal" in2="shape" result="effect1_innerShadow_4876_46811"/>
</filter>
<filter id="filter2_d_4876_46811" x="10.2136" y="7.36984" width="20.5064" height="27.3619" filterUnits="userSpaceOnUse" color-interpolation-filters="sRGB">
<feFlood flood-opacity="0" result="BackgroundImageFix"/>
<feColorMatrix in="SourceAlpha" type="matrix" values="0 0 0 0 0 0 0 0 0 0 0 0 0 0 0 0 0 0 127 0" result="hardAlpha"/>
<feOffset/>
<feGaussianBlur stdDeviation="1.3932"/>
<feComposite in2="hardAlpha" operator="out"/>
<feColorMatrix type="matrix" values="0 0 0 0 0 0 0 0 0 0 0 0 0 0 0 0 0 0 0.27 0"/>
<feBlend mode="normal" in2="BackgroundImageFix" result="effect1_dropShadow_4876_46811"/>
<feBlend mode="normal" in="SourceGraphic" in2="effect1_dropShadow_4876_46811" result="shape"/>
</filter>
<linearGradient id="paint0_linear_4876_46811" x1="6.76699" y1="5.97087" x2="15.21" y2="40.1372" gradientUnits="userSpaceOnUse">
<stop stop-color="#C88E59"/>
<stop offset="1" stop-color="#D0875E"/>
</linearGradient>
<linearGradient id="paint1_linear_4876_46811" x1="11.3539" y1="8.40396" x2="16.9842" y2="34.2057" gradientUnits="userSpaceOnUse">
<stop stop-color="#BE977A"/>
<stop offset="1" stop-color="#BB7B4D"/>
</linearGradient>
<linearGradient id="paint2_linear_4876_46811" x1="12.2796" y1="9.62385" x2="17.3411" y2="32.8194" gradientUnits="userSpaceOnUse">
<stop stop-color="#C28144"/>
<stop offset="1" stop-color="#856C48"/>
</linearGradient>
</defs>
</svg>
