<svg width="41" height="41" viewBox="0 0 41 41" fill="none" xmlns="http://www.w3.org/2000/svg">
<g clip-path="url(#clip0_4887_46628)">
<g filter="url(#filter0_d_4887_46628)">
<path d="M20.5 41C31.8218 41 41 31.8218 41 20.5C41 9.1782 31.8218 0 20.5 0C9.1782 0 0 9.1782 0 20.5C0 31.8218 9.1782 41 20.5 41Z" fill="#D9D9D9"/>
<path d="M20.5 41C31.8218 41 41 31.8218 41 20.5C41 9.1782 31.8218 0 20.5 0C9.1782 0 0 9.1782 0 20.5C0 31.8218 9.1782 41 20.5 41Z" fill="url(#paint0_linear_4887_46628)"/>
<g filter="url(#filter1_i_4887_46628)">
<path d="M20.4988 40.205C31.381 40.205 40.203 31.3829 40.203 20.5008C40.203 9.61857 31.381 0.796875 20.4988 0.796875C9.61672 0.796875 0.794922 9.61857 0.794922 20.5008C0.794922 31.3829 9.61672 40.205 20.4988 40.205Z" fill="#D9D9D9"/>
<path d="M20.4988 40.205C31.381 40.205 40.203 31.3829 40.203 20.5008C40.203 9.61857 31.381 0.796875 20.4988 0.796875C9.61672 0.796875 0.794922 9.61857 0.794922 20.5008C0.794922 31.3829 9.61672 40.205 20.4988 40.205Z" fill="url(#paint1_linear_4887_46628)"/>
</g>
<g filter="url(#filter2_i_4887_46628)">
<path d="M20.5007 38.2124C30.2837 38.2124 38.214 30.2817 38.214 20.4988C38.214 10.7158 30.2837 2.78516 20.5007 2.78516C10.7178 2.78516 2.78711 10.7158 2.78711 20.4988C2.78711 30.2817 10.7178 38.2124 20.5007 38.2124Z" fill="#D9D9D9"/>
<path d="M20.5007 38.2124C30.2837 38.2124 38.214 30.2817 38.214 20.4988C38.214 10.7158 30.2837 2.78516 20.5007 2.78516C10.7178 2.78516 2.78711 10.7158 2.78711 20.4988C2.78711 30.2817 10.7178 38.2124 20.5007 38.2124Z" fill="url(#paint2_linear_4887_46628)"/>
</g>
<g filter="url(#filter3_d_4887_46628)">
<path d="M28.0351 31.1578H13.7564V28.0279L21.0299 20.5159C22.6595 18.8068 23.4743 17.376 23.4743 16.2234C23.4743 15.3887 23.2159 14.723 22.6992 14.2261C22.1825 13.7094 21.5168 13.4511 20.702 13.4511C19.0724 13.4511 17.8801 14.2858 17.1249 15.9551L13.6074 13.8684C14.2632 12.4177 15.2071 11.3048 16.4393 10.5298C17.6913 9.75469 19.0923 9.36719 20.6424 9.36719C22.5899 9.36719 24.2493 9.97329 25.6206 11.1856C27.0117 12.378 27.7072 14.0075 27.7072 16.0743C27.7072 18.3001 26.5347 20.5855 24.1897 22.9305L20.0164 27.1038H28.0351V31.1578Z" fill="white"/>
</g>
</g>
</g>
<defs>
<filter id="filter0_d_4887_46628" x="-64" y="-60" width="169" height="169" filterUnits="userSpaceOnUse" color-interpolation-filters="sRGB">
<feFlood flood-opacity="0" result="BackgroundImageFix"/>
<feColorMatrix in="SourceAlpha" type="matrix" values="0 0 0 0 0 0 0 0 0 0 0 0 0 0 0 0 0 0 127 0" result="hardAlpha"/>
<feOffset dy="4"/>
<feGaussianBlur stdDeviation="32"/>
<feComposite in2="hardAlpha" operator="out"/>
<feColorMatrix type="matrix" values="0 0 0 0 0.758333 0 0 0 0 0.758333 0 0 0 0 0.758333 0 0 0 0.6 0"/>
<feBlend mode="normal" in2="BackgroundImageFix" result="effect1_dropShadow_4887_46628"/>
<feBlend mode="normal" in="SourceGraphic" in2="effect1_dropShadow_4887_46628" result="shape"/>
</filter>
<filter id="filter1_i_4887_46628" x="0.794922" y="0.796875" width="40.2043" height="40.9985" filterUnits="userSpaceOnUse" color-interpolation-filters="sRGB">
<feFlood flood-opacity="0" result="BackgroundImageFix"/>
<feBlend mode="normal" in="SourceGraphic" in2="BackgroundImageFix" result="shape"/>
<feColorMatrix in="SourceAlpha" type="matrix" values="0 0 0 0 0 0 0 0 0 0 0 0 0 0 0 0 0 0 127 0" result="hardAlpha"/>
<feOffset dx="0.796117" dy="1.59223"/>
<feGaussianBlur stdDeviation="2.18932"/>
<feComposite in2="hardAlpha" operator="arithmetic" k2="-1" k3="1"/>
<feColorMatrix type="matrix" values="0 0 0 0 0.841667 0 0 0 0 0.841667 0 0 0 0 0.841667 0 0 0 0.7 0"/>
<feBlend mode="normal" in2="shape" result="effect1_innerShadow_4887_46628"/>
</filter>
<filter id="filter2_i_4887_46628" x="2.78711" y="2.78516" width="36.2239" height="37.018" filterUnits="userSpaceOnUse" color-interpolation-filters="sRGB">
<feFlood flood-opacity="0" result="BackgroundImageFix"/>
<feBlend mode="normal" in="SourceGraphic" in2="BackgroundImageFix" result="shape"/>
<feColorMatrix in="SourceAlpha" type="matrix" values="0 0 0 0 0 0 0 0 0 0 0 0 0 0 0 0 0 0 127 0" result="hardAlpha"/>
<feOffset dx="0.796117" dy="1.59223"/>
<feGaussianBlur stdDeviation="2.18932"/>
<feComposite in2="hardAlpha" operator="arithmetic" k2="-1" k3="1"/>
<feColorMatrix type="matrix" values="0 0 0 0 0.65 0 0 0 0 0.65 0 0 0 0 0.65 0 0 0 0.7 0"/>
<feBlend mode="normal" in2="shape" result="effect1_innerShadow_4887_46628"/>
</filter>
<filter id="filter3_d_4887_46628" x="10.8174" y="6.57719" width="22.0077" height="29.3691" filterUnits="userSpaceOnUse" color-interpolation-filters="sRGB">
<feFlood flood-opacity="0" result="BackgroundImageFix"/>
<feColorMatrix in="SourceAlpha" type="matrix" values="0 0 0 0 0 0 0 0 0 0 0 0 0 0 0 0 0 0 127 0" result="hardAlpha"/>
<feOffset dx="1" dy="1"/>
<feGaussianBlur stdDeviation="1.895"/>
<feComposite in2="hardAlpha" operator="out"/>
<feColorMatrix type="matrix" values="0 0 0 0 0 0 0 0 0 0 0 0 0 0 0 0 0 0 0.27 0"/>
<feBlend mode="normal" in2="BackgroundImageFix" result="effect1_dropShadow_4887_46628"/>
<feBlend mode="normal" in="SourceGraphic" in2="effect1_dropShadow_4887_46628" result="shape"/>
</filter>
<linearGradient id="paint0_linear_4887_46628" x1="6.767" y1="5.9709" x2="15.21" y2="40.137" gradientUnits="userSpaceOnUse">
<stop stop-color="#BFBFBF"/>
<stop offset="1" stop-color="#8F8F8F"/>
</linearGradient>
<linearGradient id="paint1_linear_4887_46628" x1="11.3539" y1="8.40398" x2="16.9842" y2="34.2057" gradientUnits="userSpaceOnUse">
<stop stop-color="#E6E6E6"/>
<stop offset="1" stop-color="#C4C4C4"/>
</linearGradient>
<linearGradient id="paint2_linear_4887_46628" x1="12.2796" y1="9.62396" x2="17.3411" y2="32.8195" gradientUnits="userSpaceOnUse">
<stop stop-color="#DDDDDD"/>
<stop offset="1" stop-color="#A6A6A6"/>
</linearGradient>
<clipPath id="clip0_4887_46628">
<rect width="41" height="41" fill="white"/>
</clipPath>
</defs>
</svg>
