<svg width="27" height="26" viewBox="0 0 27 26" fill="none" xmlns="http://www.w3.org/2000/svg">
<path d="M3.75237 1.79028C3.91205 0.76003 4.79895 0 5.84151 0H24.533C25.8297 0 26.8207 1.15654 26.6221 2.43789L23.2476 24.2097C23.0879 25.24 22.201 26 21.1585 26H2.467C1.17035 26 0.179257 24.8435 0.377859 23.5621L3.75237 1.79028Z" fill="#1D49C7"/>
<path d="M17.0269 20.4097L17.5131 17.5979H12.1434L15.547 14.7016C17.344 13.1584 18.2954 11.8688 18.6125 10.1775C18.8662 8.76107 18.5702 7.59832 17.7246 6.68926C16.9001 5.78021 15.8219 5.31511 14.5323 5.31511C12.3548 5.31511 10.4098 6.39329 9.12023 8.44395L11.4457 9.94495C12.2068 8.73993 13.1158 8.14798 14.1518 8.14798C15.2299 8.14798 15.8853 8.90905 15.695 10.0718C15.547 10.8963 14.8071 11.8688 13.4752 13.0315L7.49239 18.2322L7.11185 20.4097H17.0269Z" fill="white"/>
</svg>
