<svg width="27" height="26" viewBox="0 0 27 26" fill="none" xmlns="http://www.w3.org/2000/svg">
<path d="M3.75237 1.79028C3.91205 0.76003 4.79895 0 5.84151 0H24.533C25.8297 0 26.8207 1.15654 26.6221 2.43789L23.2476 24.2097C23.0879 25.24 22.201 26 21.1585 26H2.467C1.17035 26 0.179257 24.8435 0.377859 23.5621L3.75237 1.79028Z" fill="#D5D5D5"/>
<path d="M10.3404 4.61108L9.87535 7.33825H15.5411L12.0529 11.1436L12.8773 12.8349H13.5327C15.0337 12.8349 15.7102 13.6382 15.52 14.8432C15.2874 16.0906 14.3149 16.8516 12.8139 16.8516C11.5455 16.8516 10.7421 16.2808 10.425 15.1604L7.78241 16.5768C8.43777 18.6275 10.2136 19.7056 12.4968 19.7056C13.9767 19.7056 15.2663 19.304 16.3656 18.5006C17.4649 17.6973 18.1414 16.5345 18.4162 15.0335C18.7545 13.004 17.6975 11.3761 15.8582 10.6785L19.2407 7.02114L19.6424 4.61108H10.3404Z" fill="#3E3E3E"/>
</svg>
