<svg width="27" height="26" viewBox="0 0 27 26" fill="none" xmlns="http://www.w3.org/2000/svg">
<path d="M3.75237 1.79028C3.91205 0.76003 4.79895 0 5.84151 0H24.533C25.8297 0 26.8207 1.15654 26.6221 2.43789L23.2476 24.2097C23.0879 25.24 22.201 26 21.1585 26H2.467C1.17035 26 0.179257 24.8435 0.377859 23.5621L3.75237 1.79028Z" fill="#E6B135"/>
<path d="M19.899 5.03735H11.485L9.45545 13.2611H13.9373C15.3749 13.2611 16.0725 14.0645 15.84 15.2695C15.6497 16.4745 14.6561 17.2779 13.2185 17.2779C11.8655 17.2779 11.041 16.7071 10.7239 15.5655L8.03901 16.9608C8.77894 19.0537 10.5336 20.1319 12.9014 20.1319C14.3601 20.1319 15.6286 19.7302 16.7068 18.948C17.8061 18.1447 18.4826 16.9819 18.7574 15.4598C19.0322 13.9588 18.7363 12.7326 17.8695 11.8236C17.0027 10.8934 15.9245 10.4283 14.5927 10.4283H13.1128L13.7893 7.76452H19.4128L19.899 5.03735Z" fill="#3E3E3E"/>
</svg>
