<svg width="27" height="26" viewBox="0 0 27 26" fill="none" xmlns="http://www.w3.org/2000/svg">
<path d="M3.75237 1.79028C3.91205 0.76003 4.79895 0 5.84151 0H24.533C25.8297 0 26.8207 1.15654 26.6221 2.43789L23.2476 24.2097C23.0879 25.24 22.201 26 21.1585 26H2.467C1.17035 26 0.179257 24.8435 0.377859 23.5621L3.75237 1.79028Z" fill="#1D1D1D"/>
<path fill-rule="evenodd" clip-rule="evenodd" d="M0.527832 22.5905L0.990274 19.6069H23.9604L23.498 22.5905H0.527832Z" fill="#D5D5D5"/>
<path fill-rule="evenodd" clip-rule="evenodd" d="M3.104 5.967L3.56645 2.9834H26.5366L26.0742 5.967H3.104Z" fill="#D5D5D5"/>
<path fill-rule="evenodd" clip-rule="evenodd" d="M2.24561 11.5083L2.70805 8.52466H25.6782L25.2158 11.5083H2.24561Z" fill="#D5D5D5"/>
<path fill-rule="evenodd" clip-rule="evenodd" d="M1.38818 17.0492L1.85063 14.0656H24.8208L24.3583 17.0492H1.38818Z" fill="#D5D5D5"/>
<path d="M19.1672 5.64658L20.2809 4.26923H18.5096H15.185H14.7798L14.5259 4.58508L9.29065 11.0982C8.34633 12.0851 7.7641 13.3259 7.52045 14.7994C7.22448 16.5363 7.56355 18.0649 8.55764 19.3215L8.5576 19.3215L8.56295 19.3281C9.57475 20.581 11.003 21.1769 12.7268 21.1769C14.4144 21.1769 15.912 20.6725 17.1149 19.6012C18.3247 18.5418 19.0525 17.145 19.3429 15.4673L19.3434 15.4643C19.6176 13.8452 19.3267 12.3619 18.3956 11.1439C17.7835 10.3431 17.0123 9.76871 16.1007 9.4388L19.1672 5.64658ZM14.8969 14.9809L14.8968 14.9808L14.8946 14.9941C14.7144 16.0903 13.9311 16.7151 13.029 16.7151C12.5585 16.7151 12.2841 16.5545 12.1345 16.3681C11.9808 16.1767 11.8579 15.8315 11.9484 15.274C12.1462 14.1758 12.9105 13.5687 13.835 13.5687C14.3066 13.5687 14.5803 13.7301 14.7268 13.9127C14.8763 14.0992 14.9954 14.436 14.8969 14.9809Z" fill="#B43D3D" stroke="#D5D5D5" stroke-width="1.69127"/>
</svg>
