<svg width="20" height="15" viewBox="0 0 20 15" fill="none" xmlns="http://www.w3.org/2000/svg">
<path fill-rule="evenodd" clip-rule="evenodd" d="M0.220017 4.44573L4.56254 0.406866C4.84371 0.145364 5.21344 0 5.59742 0H14.4014C14.7861 0 15.1564 0.145916 15.4378 0.408307L19.779 4.45722C20.0749 4.75441 20.0735 5.23311 19.7759 5.52862L18.2193 7.07435C17.926 7.36562 17.4523 7.37173 17.1515 7.08811L15 5V13.4805C15 14.3197 14.3197 15 13.4805 15H6.51955C5.68033 15 5 14.3197 5 13.4805V5L2.84951 7.07661C2.54867 7.36023 2.07502 7.35413 1.7817 7.06285L0.224098 5.51613C-0.0731008 5.22101 -0.0749228 4.74308 0.220017 4.44573Z" fill="white"/>
</svg>
