<svg width="29" height="27" viewBox="0 0 29 27" fill="none" xmlns="http://www.w3.org/2000/svg">
<path d="M26.5741 12.3651C27.755 12.6815 28.456 13.896 28.1395 15.077L25.4657 25.0555C25.1491 26.236 23.9354 26.937 22.7548 26.6209L12.7762 23.9471C11.5953 23.6307 10.8944 22.4161 11.2108 21.2352L12.2635 17.3035L17.702 15.8475C17.9582 15.7788 18.1899 15.6649 18.3954 15.5213L20.5565 16.1004L15.7723 19.7215C14.9899 20.3145 15.2314 21.5489 16.1796 21.8035L21.0233 23.1014C21.6137 23.2595 22.2215 22.9085 22.3798 22.3182C22.5376 21.728 22.1867 21.121 21.5966 20.9627L18.7938 20.2117L23.576 16.5906C24.3593 15.9977 24.1185 14.7641 23.1698 14.5096L19.328 13.4803C19.316 13.3661 19.2981 13.251 19.2675 13.1365L18.4794 10.1971L26.5741 12.3651Z" fill="#DAD4ED"/>
<path d="M12.1165 0.572999C13.2974 0.256571 14.5115 0.957516 14.8279 2.13844L17.5016 12.1165C17.818 13.2975 17.117 14.5115 15.9361 14.828L5.95803 17.5016C4.77711 17.818 3.56304 17.1171 3.24661 15.9361L0.572991 5.95804C0.256564 4.77712 0.957508 3.56305 2.13843 3.24662L12.1165 0.572999ZM9.56152 4.65865C8.5298 3.51203 6.57891 4.08237 6.36828 5.65683L5.70279 10.6364L5.33156 13.409C5.25064 14.0148 5.67586 14.5716 6.28155 14.6528C6.88734 14.7338 7.44417 14.3086 7.52532 13.7028L7.79821 11.6613L11.4223 10.6902L12.6794 12.3218C13.0526 12.8058 13.7474 12.8956 14.2316 12.5226C14.7155 12.1495 14.8053 11.4546 14.4324 10.9705L12.7246 8.75495L9.65847 4.77523L9.56152 4.65865ZM9.95793 8.7906L8.11663 9.28397L8.44533 6.82811L9.95793 8.7906Z" fill="#DAD4ED"/>
</svg>
