<svg width="25" height="25" viewBox="0 0 25 25" fill="none" xmlns="http://www.w3.org/2000/svg">
<path d="M16.5 3C21.1944 3 25 6.80558 25 11.5C25 14.0963 23.8347 16.4193 22 17.9785V11.5C22 8.46243 19.5376 6 16.5 6H8.5C5.46243 6 3 8.46243 3 11.5V17.9785C1.16535 16.4193 0 14.0963 0 11.5C0 6.80558 3.80558 3 8.5 3H16.5Z" fill="#DAD4ED"/>
<path d="M14 10H13L13.1213 10.1213C13.6839 10.6839 14 11.447 14 12.2426V19.7574C14 20.553 13.6839 21.3161 13.1213 21.8787L13 22H14C15.1046 22 16 21.1046 16 20V12C16 10.8954 15.1046 10 14 10Z" fill="#DAD4ED"/>
<path d="M18 20V12C18 10.8954 17.1046 10 16 10L16.1213 10.1213C16.6839 10.6839 17 11.447 17 12.2426V19.7574C17 20.553 16.6839 21.3161 16.1213 21.8787L16 22C17.1046 22 18 21.1046 18 20Z" fill="#DAD4ED"/>
<path d="M20 20V12C20 10.8954 19.1046 10 18 10L18.1213 10.1213C18.6839 10.6839 19 11.447 19 12.2426V19.7574C19 20.553 18.6839 21.3161 18.1213 21.8787L18 22C19.1046 22 20 21.1046 20 20Z" fill="#DAD4ED"/>
<path d="M11 10C12.1046 10 13 10.8954 13 12V20C13 21.1046 12.1046 22 11 22H7C5.89543 22 5 21.1046 5 20V12C5 10.8954 5.89543 10 7 10H11ZM9.46875 13.2676C9.30767 12.8323 8.69233 12.8323 8.53125 13.2676L7.99902 14.7041C7.94837 14.8408 7.8408 14.9484 7.7041 14.999L6.26758 15.5312C5.83227 15.6923 5.83227 16.3077 6.26758 16.4688L7.7041 17.001C7.8408 17.0516 7.94837 17.1592 7.99902 17.2959L8.53125 18.7324C8.69233 19.1677 9.30767 19.1677 9.46875 18.7324L10.001 17.2959C10.0516 17.1592 10.1592 17.0516 10.2959 17.001L11.7324 16.4688C12.1677 16.3077 12.1677 15.6923 11.7324 15.5312L10.2959 14.999C10.1592 14.9484 10.0516 14.8408 10.001 14.7041L9.46875 13.2676Z" fill="#DAD4ED"/>
</svg>
