<svg width="26" height="27" viewBox="0 0 26 27" fill="none" xmlns="http://www.w3.org/2000/svg">
<path d="M10.2228 15.7565V20.8291M10.2228 15.7565C10.2228 17.1399 13.1741 18.0622 15.7565 18.0622C18.3389 18.0622 21.7514 17.6011 21.7514 15.7565M10.2228 15.7565C10.2228 13.9119 12.0674 13.4508 15.7565 13.4508C19.4457 13.4508 21.7514 13.9119 21.7514 15.7565M21.7514 15.7565V20.8291M21.7514 20.8291V24.057C21.2902 24.6719 19.4457 25.9016 15.7565 25.9016C12.0674 25.9016 10.5303 24.9793 10.2228 24.5182V20.8291M21.7514 20.8291C20.8291 21.2902 18.3389 22.2125 15.7565 22.2125C13.1741 22.2125 10.9914 21.2902 10.2228 20.8291" stroke="#DBD4EF" stroke-width="1.84456"/>
<path d="M7.10926 19.3483C4.6493 17.148 3.34627 15.3336 1.60013 12.2291C1.23298 11.5763 1.30376 10.7645 1.80828 10.2109C4.13058 7.66306 8.78504 3.5121 14.2235 1.38809C14.8743 1.13392 15.6097 1.31029 16.0699 1.83597C17.1558 3.07635 18.7557 5.15393 19.9068 7.45597M19.9068 7.45597C16.783 8.05097 9.77255 9.74 5.97993 11.8544C5.74391 11.986 5.58167 12.2199 5.55945 12.4892C5.37056 14.7796 6.53463 17.8761 7.68803 20.8695C8.06631 21.8513 9.18668 22.3271 10.1537 21.9127L11.6062 21.2902M19.9068 7.45597C20.6753 7.14854 22.3969 7.08706 23.1347 9.30053C23.8726 11.514 24.8256 14.3731 24.9793 15.7565C25.1475 17.2704 23.1347 17.6011 22.2125 18.0622" stroke="#DBD4EF" stroke-width="1.84456"/>
</svg>
