<svg width="25" height="21" viewBox="0 0 25 21" fill="none" xmlns="http://www.w3.org/2000/svg">
<g clip-path="url(#clip0_723_8906)">
<path d="M5 10C6.10457 10 7 10.8954 7 12V19C7 20.1046 6.10457 21 5 21H2C0.895431 21 3.22133e-08 20.1046 0 19V12C3.22133e-08 10.8954 0.895431 10 2 10H5ZM2.5 13C2.22386 13 2 13.2239 2 13.5C2 13.7761 2.22386 14 2.5 14H4V15H3.5C3.22386 15 3 15.2239 3 15.5C3 15.7761 3.22386 16 3.5 16H4V17H2.5C2.22386 17 2 17.2239 2 17.5C2 17.7761 2.22386 18 2.5 18H4.5C4.77614 18 5 17.7761 5 17.5V13.5C5 13.2239 4.77614 13 4.5 13H2.5Z" fill="#DAD4ED"/>
<path d="M14 0C15.1046 0 16 0.895431 16 2V19C16 20.1046 15.1046 21 14 21H11C9.89543 21 9 20.1046 9 19V2C9 0.895431 9.89543 4.83192e-08 11 0H14ZM11.5 3C11.2239 3.00003 11 3.22388 11 3.5C11 3.77612 11.2239 3.99997 11.5 4H12V7H11.5C11.2239 7.00003 11 7.22388 11 7.5C11 7.77612 11.2239 7.99997 11.5 8H13.5C13.7761 8 14 7.77614 14 7.5C14 7.22386 13.7761 7 13.5 7H13V3.5C13 3.25829 12.8286 3.05629 12.6006 3.00977L12.5 3H11.5Z" fill="#DAD4ED"/>
<path d="M23 7C24.1046 7 25 7.89543 25 9V19C25 20.1046 24.1046 21 23 21H20C18.8954 21 18 20.1046 18 19V9C18 7.89543 18.8954 7 20 7H23ZM20.5 9C20.2239 9 20 9.22386 20 9.5C20 9.77614 20.2239 10 20.5 10H22V11H20.5C20.2239 11 20 11.2239 20 11.5V13.5C20 13.7761 20.2239 14 20.5 14H22.5C22.7761 14 23 13.7761 23 13.5C23 13.2239 22.7761 13 22.5 13H21V12H22.5C22.7761 12 23 11.7761 23 11.5V9.5C23 9.22386 22.7761 9 22.5 9H20.5Z" fill="#DAD4ED"/>
</g>
<defs>
<clipPath id="clip0_723_8906">
<rect width="25" height="21" fill="white"/>
</clipPath>
</defs>
</svg>
