<svg width="25" height="25" viewBox="0 0 25 25" fill="none" xmlns="http://www.w3.org/2000/svg">
<path d="M14 6C15.1046 6 16 6.89543 16 8V21C16 22.1046 15.1046 23 14 23H6C4.89543 23 4 22.1046 4 21V8C4 6.89543 4.89543 6 6 6H14ZM13.4854 11.9658C12.7043 11.1848 11.4373 11.1848 10.6562 11.9658L9.94922 12.6719L9.24219 11.9658C8.46114 11.1848 7.1951 11.1848 6.41406 11.9658C5.63321 12.7469 5.63312 14.013 6.41406 14.7939L9.94922 18.3291L12.7783 15.501L12.7773 15.5L13.4854 14.7939C14.2662 14.013 14.266 12.7469 13.4854 11.9658Z" fill="#DAD4ED"/>
<path d="M16.6572 2.06787C17.7242 1.78201 18.8206 2.41599 19.1064 3.48291L22.7305 17.0054C23.0163 18.0722 22.3831 19.1685 21.3164 19.4546L18 20.3433V5.99951C17.9997 4.89516 17.1044 3.99951 16 3.99951H9.45117L16.6572 2.06787Z" fill="#DAD4ED"/>
</svg>
