<svg width="24" height="24" viewBox="0 0 24 24" fill="none" xmlns="http://www.w3.org/2000/svg">
<path d="M22.2 10H1.8C0.805887 10 0 10.6716 0 11.5C0 12.3284 0.805887 13 1.8 13H22.2C23.1941 13 24 12.3284 24 11.5C24 10.6716 23.1941 10 22.2 10Z" fill="white"/>
<path d="M22.2 4H1.8C0.805887 4 0 4.67157 0 5.5C0 6.32843 0.805887 7 1.8 7H22.2C23.1941 7 24 6.32843 24 5.5C24 4.67157 23.1941 4 22.2 4Z" fill="white"/>
<path d="M16.2 16H1.8C0.805887 16 0 16.6716 0 17.5C0 18.3284 0.805887 19 1.8 19H16.2C17.1941 19 18 18.3284 18 17.5C18 16.6716 17.1941 16 16.2 16Z" fill="white"/>
</svg>
