<svg width="701" height="701" viewBox="0 0 701 701" fill="none" xmlns="http://www.w3.org/2000/svg">
<path fill-rule="evenodd" clip-rule="evenodd" d="M92.0001 0H20C8.95431 0 0 8.9543 0 20V100H15V20C15 17.2386 17.2386 15 20 15H92.0001V0ZM92 686H20C17.2386 686 15 683.761 15 681V617H0V681C0 692.046 8.9543 701 20 701H92V686ZM609 701V686H681C683.761 686 686 683.761 686 681V617H701V681C701 692.046 692.046 701 681 701H609ZM609 15V0H681C692.046 0 701 8.95431 701 20V100H686V20C686 17.2386 683.761 15 681 15H609Z" fill="white"/>
</svg>
