<svg width="234" height="189" viewBox="0 0 234 189" fill="none" xmlns="http://www.w3.org/2000/svg">
<path fill-rule="evenodd" clip-rule="evenodd" d="M70.5868 0C60.8414 0 52.9401 7.9003 52.9401 17.6467V35.2934H17.6467C7.90138 35.2934 0 43.1936 0 52.9401V141.174C0 150.92 7.90138 158.82 17.6467 158.82H176.467C186.211 158.82 194.114 150.92 194.114 141.174V52.9401C194.114 43.1936 186.211 35.2934 176.467 35.2934H141.174V17.6467C141.174 7.9003 133.272 0 123.527 0H70.5868ZM97.0568 52.9401C72.6934 52.9401 52.9401 72.6913 52.9401 97.0568C52.9401 121.422 72.6934 141.174 97.0568 141.174C121.42 141.174 141.174 121.422 141.174 97.0568C141.174 72.6913 121.42 52.9401 97.0568 52.9401Z" fill="white"/>
<path d="M195.444 188.794C216.738 188.794 234.001 171.531 234.001 150.237C234.001 128.943 216.738 111.68 195.444 111.68C174.15 111.68 156.887 128.943 156.887 150.237C156.887 171.531 174.15 188.794 195.444 188.794Z" fill="#623CEA"/>
<path d="M195.444 164.863C191.772 164.863 188.796 167.839 188.796 171.511C188.796 175.182 191.772 178.158 195.444 178.158C199.115 178.158 202.092 175.182 202.092 171.511C202.092 167.839 199.115 164.863 195.444 164.863Z" fill="white"/>
<path d="M199.738 155.566C199.566 157.81 197.694 159.543 195.444 159.543C193.193 159.543 191.322 157.81 191.149 155.566L189.236 130.701C188.999 127.612 191.441 124.975 194.539 124.975H196.348C199.446 124.975 201.888 127.612 201.651 130.701L199.738 155.566Z" fill="white"/>
</svg>
