<svg width="20" height="20" viewBox="0 0 20 20" fill="none" xmlns="http://www.w3.org/2000/svg">
<path fill-rule="evenodd" clip-rule="evenodd" d="M1.37349 3.44171C1.16092 2.64841 1.63171 1.83299 2.42501 1.62042L6.73422 0.465774C7.5275 0.253209 8.34293 0.723992 8.55549 1.51729L11.2468 11.5613C11.4593 12.3546 10.9886 13.17 10.1953 13.3826L5.88606 14.5372C5.09275 14.7498 4.27734 14.279 4.06477 13.4857L1.37349 3.44171ZM4.93613 2.37381L6.45852 4.01436L5.96036 6.19631L4.43796 4.55576L4.93613 2.37381ZM7.99133 9.83861L6.50805 8.24019L6.02268 10.3661L7.50598 11.9645L7.99133 9.83861Z" fill="#B4B4B4"/>
<path fill-rule="evenodd" clip-rule="evenodd" d="M10.7251 9.61443L11.2468 11.5613C11.4593 12.3546 10.9885 13.17 10.1953 13.3826L9.67832 13.5211L10.7251 9.61443ZM11.3272 7.36753L11.4445 6.9298C11.657 6.13653 12.4724 5.66575 13.2657 5.87831L17.5749 7.03297C18.3683 7.24552 18.839 8.06096 18.6265 8.85424L16.0465 18.4827C15.834 19.276 15.0185 19.7468 14.2253 19.5342L9.91605 18.3796C9.12272 18.167 8.65196 17.3516 8.86451 16.5582L9.33073 14.8183L10.4963 14.506C11.91 14.1272 12.749 12.674 12.3702 11.2603L11.3272 7.36753ZM13.5314 9.43043C13.3428 9.10366 13.4547 8.68582 13.7815 8.49717C14.1083 8.30846 14.5262 8.42047 14.7148 8.74723L15.5532 10.1994L14.3698 10.8826L13.5314 9.43043ZM14.8701 9.01602L15.1057 8.88006C15.4324 8.6914 15.8503 8.80335 16.039 9.13012C16.2276 9.45689 16.1157 9.87472 15.7889 10.0634L15.5533 10.1994L14.8701 9.01602ZM12.1384 14.6297C11.8116 14.8184 11.6996 15.2362 11.8882 15.563L12.7267 17.0152L13.91 16.332L13.0716 14.8798C12.883 14.553 12.4651 14.441 12.1384 14.6297ZM13.4625 15.0126L13.2269 15.1486L13.9101 16.332L14.1457 16.1959C14.4725 16.0073 14.5844 15.5895 14.3958 15.2627C14.2071 14.9359 13.7892 14.824 13.4625 15.0126Z" fill="#B4B4B4"/>
</svg>
