<svg width="100" height="100" viewBox="0 0 100 100" fill="none" xmlns="http://www.w3.org/2000/svg">
<path d="M11.7426 24.7574C9.39949 22.4142 5.60051 22.4142 3.25736 24.7574C0.914214 27.1005 0.914214 30.8995 3.25736 33.2426L11.7426 24.7574ZM50 71.5L45.7574 75.7426C48.1005 78.0858 51.8995 78.0858 54.2426 75.7426L50 71.5ZM96.7426 33.2426C99.0858 30.8995 99.0858 27.1005 96.7426 24.7574C94.3995 22.4142 90.6005 22.4142 88.2574 24.7574L96.7426 33.2426ZM3.25736 33.2426L45.7574 75.7426L54.2426 67.2574L11.7426 24.7574L3.25736 33.2426ZM54.2426 75.7426L96.7426 33.2426L88.2574 24.7574L45.7574 67.2574L54.2426 75.7426Z" fill="#828B95"/>
</svg>
