<svg width="25" height="17" viewBox="0 0 25 17" fill="none" xmlns="http://www.w3.org/2000/svg">
<path fill-rule="evenodd" clip-rule="evenodd" d="M5.32873 1.68787C6.08016 0.927764 7.10454 0.5 8.17337 0.5H20.0673C22.2764 0.5 24.0673 2.29086 24.0673 4.5V13C24.0673 15.2091 22.2764 17 20.0673 17H8.23451C7.11781 17 6.05194 16.5332 5.29469 15.7125L1.20863 11.2839C-0.240987 9.71282 -0.199065 7.27958 1.30381 5.75933L5.32873 1.68787ZM8.17337 2.5C7.63895 2.5 7.12676 2.71388 6.75105 3.09394L2.72612 7.1654C1.97469 7.92552 1.95373 9.14214 2.67853 9.92769L6.7646 14.3562C7.14323 14.7666 7.67616 15 8.23451 15H20.0673C21.1719 15 22.0673 14.1046 22.0673 13V4.5C22.0673 3.39543 21.1719 2.5 20.0673 2.5H8.17337Z" fill="#D8CFF8"/>
<path fill-rule="evenodd" clip-rule="evenodd" d="M17.2848 5.76505C17.6907 6.13957 17.7162 6.77222 17.3416 7.17812L13.651 11.1781C13.2765 11.584 12.6438 11.6095 12.2379 11.235C11.832 10.8604 11.8066 10.2278 12.1811 9.82189L15.8717 5.82189C16.2462 5.41598 16.8789 5.39054 17.2848 5.76505Z" fill="#D8CFF8"/>
<path fill-rule="evenodd" clip-rule="evenodd" d="M17.2855 11.235C16.8796 11.6095 16.247 11.584 15.8725 11.1781L12.1818 7.17812C11.8073 6.77222 11.8327 6.13956 12.2386 5.76505C12.6445 5.39054 13.2772 5.41598 13.6517 5.82189L17.3424 9.82189C17.7169 10.2278 17.6914 10.8604 17.2855 11.235Z" fill="#D8CFF8"/>
</svg>
