<svg width="30" height="30" viewBox="0 0 30 30" fill="none" xmlns="http://www.w3.org/2000/svg">
<path fill-rule="evenodd" clip-rule="evenodd" d="M13.9698 1.34222C14.624 0.688009 15.6847 0.68801 16.3389 1.34222L28.9723 13.9756C29.6265 14.6298 29.6265 15.6905 28.9723 16.3447L16.3389 28.9782C15.6847 29.6324 14.624 29.6324 13.9698 28.9782L1.33636 16.3447C0.682149 15.6905 0.68215 14.6298 1.33636 13.9756L13.9698 1.34222ZM12.3453 16.1406C11.6023 16.1406 11 16.7429 11 17.4859V18.1406C11 18.6929 10.5523 19.1406 10 19.1406C9.44771 19.1406 9 18.6929 9 18.1406V17.4859C9 15.6384 10.4977 14.1406 12.3453 14.1406H16V11.5548C16 10.6639 17.0771 10.2178 17.7071 10.8477L21.2929 14.4335C21.6834 14.824 21.6834 15.4572 21.2929 15.8477L17.7071 19.4335C17.0771 20.0635 16 19.6173 16 18.7264V16.1406H12.3453Z" fill="#DAD4ED"/>
</svg>
