<svg width="13" height="19" viewBox="0 0 13 19" fill="none" xmlns="http://www.w3.org/2000/svg">
<path fill-rule="evenodd" clip-rule="evenodd" d="M12.96 11.9631C12.96 15.5309 10.0678 18.4231 6.50004 18.4231C2.93228 18.4231 0.0400391 15.5309 0.0400391 11.9631C0.0400391 10.0836 0.745179 7.93006 1.99747 6.61276C2.32845 6.2646 2.87278 6.42213 3.04112 6.87205C3.04667 6.88689 3.05219 6.90165 3.05769 6.91635C3.52386 8.16282 3.80825 8.92325 5.36004 8.92325C4.02068 6.57939 4.74664 1.87516 8.31785 0.79011C8.93438 0.602789 9.32332 1.34963 9.0902 1.95034C8.38155 3.77637 9.09371 5.47957 9.76546 6.00693C11.06 7.02326 12.96 9.28379 12.96 11.9631ZM8.04256 15.7633C10.653 16.1414 10.3646 12.3961 8.71288 10.0615C8.62732 9.94061 8.42421 10.0125 8.40152 10.1589C8.28153 10.9329 7.77578 11.7587 7.3006 12.5345C6.36311 14.0651 5.54465 15.4014 8.04256 15.7633Z" fill="#FF4D97"/>
</svg>
