<svg width="28" height="28" viewBox="0 0 28 28" fill="none" xmlns="http://www.w3.org/2000/svg">
<path fill-rule="evenodd" clip-rule="evenodd" d="M8.41227 10.133C7.99052 11.6355 9.1198 13.1254 10.6804 13.1254C11.9814 13.1254 13.0361 12.0707 13.0361 10.7696V1.94995H10.7092L8.41227 10.133ZM8.71939 1.94995H7.86455C6.7187 1.94995 5.66072 2.56391 5.09228 3.55878L2.3554 8.34825C1.76579 9.38012 1.95583 10.5342 2.58747 11.4494C3.81596 13.2296 6.08494 11.6758 6.65042 9.58812L8.71939 1.94995ZM25.459 11.4404C24.2805 13.2347 22.0047 11.6971 21.4246 9.63029L19.2687 1.94995H20.1235C21.2694 1.94995 22.3274 2.56391 22.8958 3.55878L25.6327 8.34825C26.2204 9.37673 26.0591 10.5266 25.459 11.4404ZM14.9519 1.94995H17.2789L19.5758 10.133C19.9976 11.6355 18.8683 13.1254 17.3077 13.1254C16.0067 13.1254 14.9519 12.0707 14.9519 10.7696V1.94995Z" fill="#DAD4ED"/>
<path d="M22.0202 13.6394C22.5446 13.9176 23.5783 14.138 24.2857 14.1794V23.3496C24.2857 24.4542 23.3903 25.3496 22.2857 25.3496H19.4285C18.324 25.3496 17.4285 24.4542 17.4285 23.3496V19.4925C17.4285 18.9402 16.9808 18.4925 16.4285 18.4925H11.5714C11.0191 18.4925 10.5714 18.9402 10.5714 19.4925V23.3496C10.5714 24.4542 9.67595 25.3496 8.57138 25.3496H5.71423C4.60966 25.3496 3.71423 24.4542 3.71423 23.3496V14.1794C4.59185 14.213 5.44858 13.9577 6.0801 13.6171C6.32632 13.4843 6.56238 13.3313 6.78689 13.161C7.67307 14.3145 9.06598 15.0794 10.6803 15.0794C11.9574 15.0794 13.1206 14.5919 13.994 13.7927C14.8674 14.5919 16.0306 15.0794 17.3077 15.0794C18.9386 15.0794 20.3435 14.2987 21.2282 13.1254C21.4784 13.3197 21.7431 13.4923 22.0202 13.6394Z" fill="#DAD4ED"/>
</svg>
