<svg width="178" height="208" viewBox="0 0 178 208" fill="none" xmlns="http://www.w3.org/2000/svg">
<path fill-rule="evenodd" clip-rule="evenodd" d="M89 0C88.9667 0 88.9393 0.0269294 88.9379 0.0602268C87.6327 32.0142 65.9635 52.0513 44.3435 72.0428C43.1557 73.1412 41.9681 74.2393 40.784 75.3394C19.8392 94.7968 0 113.227 0 138.663C0 183.757 52 182.726 78 176.574C78 197.325 65.6667 206.171 59.5 208H89H118.5C112.333 206.171 100 197.325 100 176.574C126 182.726 178 183.757 178 138.663C178 113.227 158.161 94.7968 137.216 75.3394C136.032 74.2393 134.844 73.1412 133.656 72.0428C112.036 52.0513 90.3673 32.0142 89.0621 0.0602241C89.0607 0.0269267 89.0333 0 89 0V0ZM61.2391 151.551C58.2445 125.023 58.2447 106.996 61.2937 80.3456C61.7974 75.943 66.2679 73.161 70.4434 74.6446C95.9539 83.7085 112.327 91.5714 133.892 109.989C137.145 112.767 137.024 117.815 133.667 120.467C111.96 137.613 95.8816 146.453 70.7594 157.104C66.5217 158.901 61.7554 156.124 61.2391 151.551Z" fill="#225AE9"/>
</svg>
