<svg width="76" height="75" viewBox="0 0 76 75" fill="none" xmlns="http://www.w3.org/2000/svg">
<path fill-rule="evenodd" clip-rule="evenodd" d="M35 0C15.67 0 0 15.67 0 35C0 54.33 15.67 70 35 70C54.33 70 70 54.33 70 35C70 15.67 54.33 0 35 0ZM20.7056 7.48516C24.4876 5.51635 28.7265 4.30441 33.2215 4.05016C32.4471 5.47761 31.6851 7.13567 31.1751 8.80297C30.7342 10.2444 30.4394 11.8264 30.5754 13.3347C30.7155 14.8882 31.3297 16.4572 32.7722 17.5792C33.7061 18.3055 34.8133 18.6592 35.997 18.4382C37.0695 18.238 37.9254 17.6138 38.5651 17.0125C39.6172 16.0237 40.6522 14.5224 41.5933 13.1572C41.7577 12.9188 41.9192 12.6845 42.0775 12.4578C43.2413 10.7906 44.3577 9.31916 45.5741 8.36013C46.7158 7.46011 47.7806 7.13217 49.0149 7.44075L49.0369 7.35265C52.8354 9.285 56.1824 11.9771 58.8779 15.2289C56.5692 15.4915 53.9174 15.9895 51.5845 16.8298C49.8582 17.4516 48.1346 18.3208 46.8745 19.5646C45.5507 20.8712 44.7132 22.6355 45.0199 24.7818C45.1813 25.9121 45.5448 26.9022 46.1467 27.7259C46.7531 28.5557 47.5218 29.1072 48.3245 29.4742C49.6758 30.0919 51.2852 30.2319 52.4908 30.3368L52.4926 30.337C52.605 30.3467 52.7139 30.3562 52.8187 30.3657C54.2579 30.4966 55.1936 30.6409 55.8512 31.0167C56.3103 31.2791 56.8297 31.7637 57.0152 33.247C57.2282 34.951 57.0486 36.5932 56.73 38.2752C56.6236 38.8367 56.4871 39.4608 56.3459 40.1063C56.1032 41.2159 55.8466 42.3888 55.7058 43.4145C55.4637 45.1788 55.4449 47.0961 56.2363 49.0183C56.913 50.6616 58.1068 52.1302 59.8978 53.4721C54.2483 61.0744 45.1994 66 35 66C18.4411 66 4.91457 53.0169 4.04448 36.6749C4.15144 36.7209 4.25962 36.764 4.36906 36.8045C5.11148 37.079 5.83373 37.2004 6.46255 37.2792C6.8043 37.322 7.05919 37.3477 7.29642 37.3716C7.58717 37.401 7.85201 37.4277 8.21732 37.4799C10.6008 37.8204 11.9439 38.4705 12.7472 39.1229C13.5325 39.7606 13.9707 40.5362 14.3008 41.4755C14.4719 41.9626 14.6052 42.467 14.7522 43.0362L14.7762 43.1292C14.9098 43.6473 15.0633 44.2427 15.2602 44.8072C15.6922 46.0455 16.4404 47.4562 18.1058 48.2889C21.1606 49.8163 23.0642 51.1475 24.1996 52.2771C25.3143 53.3862 25.5916 54.199 25.6324 54.7501C25.6732 55.3017 25.7882 56.0134 26.1119 56.6909C26.451 57.4007 27.071 58.1635 28.1091 58.5201C30.3932 59.3047 32.6166 58.7796 34.2639 57.7581C35.8481 56.7757 37.1938 55.144 37.4769 53.3041C38.052 49.5662 36.5615 47.2664 35.5331 45.6797C35.4356 45.5293 35.3421 45.3851 35.2551 45.2469C34.7452 44.4371 34.5175 43.9446 34.4663 43.4448C34.4201 42.9933 34.4965 42.2613 35.2277 41.0078C36.7802 38.3463 37.5399 36.0182 37.5195 34.045C37.4981 31.9755 36.5988 30.3013 35.0107 29.3757C33.5249 28.5098 31.747 28.4796 30.1965 28.9138C28.6208 29.355 27.0818 30.3215 25.9385 31.7506C25.3536 32.4818 24.4406 32.9209 23.3173 33.024C22.1789 33.1286 20.9851 32.8654 20.089 32.3726C19.1659 31.8649 18.8443 31.2953 18.7969 30.9207C18.7571 30.6064 18.8326 29.7779 20.3018 28.5185C25.7314 23.8647 27.4076 19.3253 26.1897 15.0461C25.3188 11.9858 23.0476 9.47351 20.7056 7.48516ZM62.0781 50.1038C64.5762 45.6348 66 40.4837 66 35C66 29.1536 64.3816 23.6851 61.5683 19.0183C59.1192 19.1395 55.6862 19.6039 52.94 20.5931C51.4621 21.1255 50.3545 21.7501 49.6844 22.4114C49.0779 23.01 48.8863 23.5624 48.9797 24.2161C49.0682 24.8358 49.236 25.1738 49.3763 25.3658C49.512 25.5516 49.6965 25.7032 49.9875 25.8363C50.6858 26.1555 51.6298 26.2412 53.1087 26.3756L53.1808 26.3822C54.4915 26.5013 56.3058 26.6695 57.8358 27.5437C59.5641 28.5314 60.6697 30.2342 60.9843 32.7509C61.2713 35.0469 61.0133 37.1548 60.6601 39.0196C60.502 39.8545 60.3419 40.5755 60.1933 41.2447C59.9824 42.1947 59.7947 43.0403 59.6687 43.9584C59.4733 45.3816 59.5234 46.4956 59.935 47.4953C60.2601 48.2848 60.8764 49.1597 62.0781 50.1038ZM35.0002 9.97295C35.6493 7.85095 36.8479 5.63316 37.8209 4.12662C39.6799 4.29431 41.4917 4.62613 43.2415 5.10747C43.1932 5.14425 43.1453 5.18141 43.0977 5.21891C41.3611 6.58802 39.9462 8.52278 38.7976 10.1681C38.6056 10.4432 38.4223 10.7078 38.2465 10.9617L38.2448 10.9641C37.2783 12.3595 36.538 13.4283 35.8257 14.0978C35.5618 14.3458 35.394 14.4457 35.3151 14.484C35.2937 14.4704 35.265 14.4505 35.228 14.4218C34.8706 14.1438 34.6265 13.7211 34.5592 12.9756C34.488 12.1849 34.6369 11.1607 35.0002 9.97295ZM17.0852 9.69753C10.012 14.7146 5.13393 22.6231 4.17353 31.7004C4.80017 32.5908 5.32608 32.8937 5.75626 33.0527C6.07634 33.1711 6.44784 33.2461 6.95964 33.3102C7.0989 33.3276 7.30237 33.3492 7.53315 33.3737L7.53419 33.3738L7.53526 33.374C7.93336 33.4163 8.41229 33.4672 8.783 33.5201C11.6496 33.9296 13.744 34.7795 15.2688 36.0178C16.8117 37.2707 17.5921 38.7764 18.0746 40.1495C18.3097 40.8187 18.4811 41.4783 18.6251 42.0361L18.6319 42.0624C18.7805 42.6375 18.8964 43.0866 19.037 43.4897C19.3082 44.267 19.5601 44.5439 19.8946 44.7112C23.1362 46.3319 25.4599 47.8886 27.0208 49.4415C28.6024 51.0151 29.4902 52.6794 29.6215 54.4551C29.6314 54.589 29.6482 54.7046 29.6693 54.799L29.6728 54.8144C30.5274 55.0216 31.4008 54.8269 32.1558 54.3587C33.052 53.8029 33.4663 53.0671 33.5234 52.6959C33.8618 50.4962 33.1367 49.3617 32.1547 47.8256C32.062 47.6805 31.9669 47.5317 31.8702 47.3781C31.3176 46.5005 30.6391 45.3367 30.4871 43.8521C30.3302 42.3192 30.7538 40.7387 31.7726 38.9923C33.1413 36.646 33.5297 35.0484 33.5197 34.0865C33.5107 33.221 33.2011 32.9508 32.9965 32.8316C32.6894 32.6526 32.0907 32.5372 31.2752 32.7656C30.4849 32.9869 29.6686 33.4911 29.062 34.2494C27.6468 36.0183 25.6223 36.8292 23.6831 37.0073C21.759 37.184 19.7653 36.7596 18.1614 35.8774C16.5845 35.0102 15.0936 33.5173 14.8285 31.423C14.5558 29.2686 15.6679 27.2222 17.6987 25.4815C22.4782 21.3848 22.9686 18.3408 22.3425 16.141C21.6863 13.8352 19.636 11.6903 17.0852 9.69753Z" fill="white"/>
<path d="M76 60.5C76 68.5081 69.5081 75 61.5 75C53.4919 75 47 68.5081 47 60.5C47 52.4919 53.4919 46 61.5 46C69.5081 46 76 52.4919 76 60.5Z" fill="#623CEA"/>
<path d="M59 68.5C59 67.1193 60.1193 66 61.5 66C62.8807 66 64 67.1193 64 68.5C64 69.8807 62.8807 71 61.5 71C60.1193 71 59 69.8807 59 68.5Z" fill="white"/>
<path d="M63.115 62.5044C63.0501 63.3483 62.3464 64 61.5 64C60.6536 64 59.9499 63.3483 59.885 62.5044L59.1656 53.1534C59.0763 51.9918 59.9947 51 61.1598 51H61.8402C63.0053 51 63.9237 51.9918 63.8344 53.1534L63.115 62.5044Z" fill="white"/>
</svg>
