<svg width="20" height="20" viewBox="0 0 20 20" fill="none" xmlns="http://www.w3.org/2000/svg">
<path d="M1.98718 10C1.98718 9.4548 1.5452 9.01282 1 9.01282C0.454796 9.01282 0.0128205 9.4548 0.0128205 10H1.98718ZM3.40104 3.88L2.41521 3.9317C2.44283 4.45831 2.87945 4.87023 3.40678 4.86716L3.40104 3.88ZM6.22165 4.8508C6.76684 4.84763 7.20624 4.40309 7.20307 3.8579C7.1999 3.3127 6.75537 2.8733 6.21017 2.87647L6.22165 4.8508ZM4.23582 0.9483C4.20727 0.403844 3.74276 -0.014378 3.1983 0.0141752C2.65384 0.0427284 2.23562 0.507244 2.26418 1.0517L4.23582 0.9483ZM18.0128 10C18.0128 14.4254 14.4254 18.0128 10 18.0128V19.9872C15.5158 19.9872 19.9872 15.5158 19.9872 10H18.0128ZM10 18.0128C5.57464 18.0128 1.98718 14.4254 1.98718 10H0.0128205C0.0128205 15.5158 4.48423 19.9872 10 19.9872V18.0128ZM10 1.98718C14.4254 1.98718 18.0128 5.57464 18.0128 10H19.9872C19.9872 4.48423 15.5158 0.0128205 10 0.0128205V1.98718ZM4.1247 4.55145C5.58937 2.97288 7.67882 1.98718 10 1.98718V0.0128205C7.10694 0.0128205 4.49999 1.24421 2.67738 3.20855L4.1247 4.55145ZM3.40678 4.86716L6.22165 4.8508L6.21017 2.87647L3.3953 2.89284L3.40678 4.86716ZM4.38686 3.8283L4.23582 0.9483L2.26418 1.0517L2.41521 3.9317L4.38686 3.8283Z" fill="white"/>
<path d="M10 6.0769V9.99998L13.3462 13.3461" stroke="white" stroke-width="1.97436" stroke-linecap="round"/>
</svg>
