<svg width="28" height="28" viewBox="0 0 28 28" fill="none" xmlns="http://www.w3.org/2000/svg">
<path d="M12.2038 2.57742C13.2474 1.75992 14.7529 1.75992 15.7965 2.57742L16.0133 2.76482L26.4445 12.7803L26.5746 12.9197C27.1821 13.6355 27.1391 14.692 26.4445 15.3591C25.7498 16.0262 24.6496 16.0675 23.9042 15.484L23.7592 15.3591L14.0002 5.98587L4.24117 15.3591C3.50008 16.0708 2.29693 16.0708 1.55583 15.3591C0.814722 14.6474 0.814722 13.492 1.55583 12.7803L11.987 2.76482L12.2038 2.57742Z" fill="#DAD4ED"/>
<path fill-rule="evenodd" clip-rule="evenodd" d="M14.0001 3.82144L3.78577 13.7704L5.43217 25.683C5.58313 26.4673 6.28617 27.0356 7.1054 27.0356L9.2857 27.0357C9.77391 27.0357 10.2858 26.6502 10.2858 26.1748V19.408C10.2858 18.5838 10.8789 17.75 11.725 17.75H16.3215C17.1677 17.75 17.7143 18.5838 17.7143 19.408V26.1748C17.7143 26.6502 18.2262 27.0357 18.7143 27.0357L20.8947 27.0356C21.7139 27.0356 22.417 26.4673 22.5679 25.683L24.2143 13.7704L14.0001 3.82144Z" fill="#DAD4ED"/>
</svg>
