<svg width="32" height="32" viewBox="0 0 32 32" fill="none" xmlns="http://www.w3.org/2000/svg">
<path d="M16 0C24.8366 0 32 7.16344 32 16C32 24.8366 24.8366 32 16 32C7.16344 32 0 24.8366 0 16C0 7.16344 7.16344 0 16 0ZM16 12.4443C14.3637 12.4443 13.0372 13.7709 13.0371 15.4072V25.4814C13.0371 27.1178 14.3636 28.4443 16 28.4443C17.6364 28.4443 18.9629 27.1178 18.9629 25.4814V15.4072C18.9628 13.7709 17.6363 12.4443 16 12.4443ZM16 4.14844C14.3636 4.14844 13.0371 5.47493 13.0371 7.11133C13.0372 8.74763 14.3637 10.0742 16 10.0742C17.6363 10.0742 18.9628 8.74763 18.9629 7.11133C18.9629 5.47493 17.6364 4.14844 16 4.14844Z" fill="#DAD4ED"/>
</svg>
