<svg width="100" height="100" viewBox="0 0 100 100" fill="none" xmlns="http://www.w3.org/2000/svg">
<path d="M14.7617 21.2855C14.7617 17.1302 18.1302 13.7617 22.2855 13.7617H37.3331C41.4884 13.7617 44.857 17.1302 44.857 21.2855V43.857H22.2855C18.1302 43.857 14.7617 40.4884 14.7617 36.3331V21.2855Z" fill="#B4B4B4"/>
<path d="M56.1431 17.5238C56.1431 13.3685 59.5116 10 63.6669 10H82.4764C86.6317 10 90.0002 13.3685 90.0002 17.5238V36.3333C90.0002 40.4886 86.6317 43.8571 82.4764 43.8571H56.1431V17.5238Z" fill="#B4B4B4"/>
<path d="M56.1431 55.1445H78.7145C82.8698 55.1445 86.2383 58.5131 86.2383 62.6683V77.716C86.2383 81.8712 82.8698 85.2398 78.7145 85.2398H63.6669C59.5116 85.2398 56.1431 81.8712 56.1431 77.716V55.1445Z" fill="#B4B4B4"/>
<path d="M11 62.6683C11 58.5131 14.3685 55.1445 18.5238 55.1445H44.8571V81.4779C44.8571 85.6331 41.4886 89.0017 37.3333 89.0017H18.5238C14.3685 89.0017 11 85.6331 11 81.4779V62.6683Z" fill="#B4B4B4"/>
</svg>
