<svg width="37" height="45" viewBox="0 0 37 45" fill="none" xmlns="http://www.w3.org/2000/svg">
<path d="M33.9988 18.9674H30.8218V12.7081C30.8218 5.69026 25.1317 0 18.1137 0C11.0958 0 5.40567 5.69009 5.40567 12.7081V18.9674H2.22865C0.995865 18.9674 0 19.9634 0 21.1961V42.7713C0 44.0041 0.99595 45 2.22865 45H33.9988C35.2316 45 36.2275 44.004 36.2275 42.7713V21.1961C36.2271 19.9633 35.2312 18.9674 33.9985 18.9674H33.9988ZM20.864 36.9389C21.0535 37.65 20.4846 38.3615 19.7735 38.3615H16.4543C15.6955 38.3615 15.1739 37.6504 15.3637 36.9389L16.4069 32.9082C15.1741 32.2917 14.3205 31.0116 14.3205 29.4941C14.3205 27.3604 16.0275 25.6533 18.1612 25.6533C20.295 25.6533 22.002 27.3604 22.002 29.4941C22.002 31.0116 21.1487 32.2917 19.9155 32.9082L20.864 36.9389ZM24.4677 18.9674H11.7596V12.7081C11.7596 9.19904 14.6049 6.35412 18.1136 6.35412C21.6226 6.35412 24.4675 9.19938 24.4675 12.7081L24.4677 18.9674Z" fill="white"/>
</svg>
