<svg width="24" height="24" viewBox="0 0 24 24" fill="none" xmlns="http://www.w3.org/2000/svg">
<path d="M1.30117 2.56138C0.503728 2.9601 0 3.77515 0 4.66672V19.0647C0 19.9563 0.503728 20.7713 1.30117 21.17L5.78748 23.4132C6.30918 23.674 6.92299 23.2947 6.92299 22.7114V20.5184H12.1844C13.4844 20.5184 14.5382 19.4646 14.5382 18.1646V14.75H12.5382V18.1646C12.5382 18.36 12.3798 18.5184 12.1844 18.5184H7.53833V5.21094H12.1844C12.3798 5.21094 12.5382 5.36936 12.5382 5.56478V11.0772H10.3845C9.95114 11.0772 9.59985 11.4285 9.59985 11.8618C9.59985 12.2951 9.95114 12.6464 10.3845 12.6464H20.6055L18.1373 15.1146C17.8308 15.421 17.8308 15.9178 18.1373 16.2242C18.4437 16.5307 18.9405 16.5307 19.2469 16.2242L23.6093 11.8618L19.2469 7.49934C18.9405 7.19293 18.4437 7.19293 18.1373 7.49934C17.8308 7.80575 17.8308 8.30254 18.1373 8.60895L20.6055 11.0772H14.5382V5.56478C14.5382 4.26479 13.4844 3.21094 12.1844 3.21094H6.92299V1.02C6.92299 0.436734 6.30918 0.0573755 5.78749 0.318221L1.30117 2.56138Z" fill="#B4B4B4"/>
</svg>
