<svg width="85" height="98" viewBox="0 0 85 98" fill="none" xmlns="http://www.w3.org/2000/svg">
<path fill-rule="evenodd" clip-rule="evenodd" d="M7 0.851562C3.13401 0.851562 0 3.98557 0 7.85156V78.8289C0 82.6949 3.134 85.8289 7 85.8289H43.1872C43.8097 85.8289 44.2797 85.2662 44.2005 84.6487C44.0682 83.6178 44 82.5669 44 81.5C44 68.4723 54.1689 57.8191 67.0021 57.045C67.5453 57.0123 67.9818 56.5701 67.9818 56.0259V7.85156C67.9818 3.98557 64.8478 0.851562 60.9818 0.851562H7ZM10.1973 39.3754C10.1973 38.1239 11.2118 37.1094 12.4633 37.1094H56.6515C57.903 37.1094 58.9176 38.1239 58.9176 39.3754C58.9176 40.6269 57.903 41.6415 56.6515 41.6415H12.4633C11.2118 41.6415 10.1973 40.6269 10.1973 39.3754ZM12.4633 47.3086C11.2118 47.3086 10.1973 48.3231 10.1973 49.5747C10.1973 50.8262 11.2118 51.8407 12.4633 51.8407H29.4588C30.7103 51.8407 31.7248 50.8262 31.7248 49.5747C31.7248 48.3231 30.7103 47.3086 29.4588 47.3086H12.4633ZM10.1973 59.7661C10.1973 58.5145 11.2118 57.5 12.4633 57.5H38.523C39.7745 57.5 40.7891 58.5145 40.7891 59.7661C40.7891 61.0176 39.7745 62.0321 38.523 62.0321H12.4633C11.2118 62.0321 10.1973 61.0176 10.1973 59.7661ZM12 68C10.8954 68 10 68.8954 10 70C10 71.1046 10.8954 72 12 72H19C20.1046 72 21 71.1046 21 70C21 68.8954 20.1046 68 19 68H12ZM24 69.9653C24 68.7138 25.0145 67.6992 26.2661 67.6992H34.1973C35.4488 67.6992 36.4633 68.7138 36.4633 69.9653C36.4633 71.2168 35.4488 72.2313 34.1973 72.2313H26.2661C25.0145 72.2313 24 71.2168 24 69.9653ZM31.9997 13.7053C31.1148 12.8203 29.68 12.8203 28.795 13.7053C27.9101 14.5903 27.9101 16.025 28.795 16.91L31.2919 19.4069C31.6825 19.7974 31.6825 20.4306 31.2919 20.8211L28.795 23.318C27.9101 24.2029 27.9101 25.6377 28.795 26.5227C29.68 27.4076 31.1148 27.4076 31.9997 26.5227L34.4966 24.0258C34.8872 23.6353 35.5203 23.6353 35.9108 24.0258L38.4091 26.5241C39.2941 27.409 40.7289 27.409 41.6138 26.5241C42.4988 25.6391 42.4988 24.2043 41.6138 23.3194L39.1155 20.8211C38.725 20.4306 38.725 19.7974 39.1155 19.4069L41.6138 16.9086C42.4988 16.0237 42.4988 14.5889 41.6138 13.7039C40.7289 12.819 39.2941 12.819 38.4091 13.7039L35.9108 16.2022C35.5203 16.5927 34.8872 16.5927 34.4966 16.2022L31.9997 13.7053ZM38.523 47.3086C37.2715 47.3086 36.257 48.3231 36.257 49.5747C36.257 50.8262 37.2715 51.8407 38.523 51.8407H49.8534C51.1049 51.8407 52.1194 50.8262 52.1194 49.5747C52.1194 48.3231 51.1049 47.3086 49.8534 47.3086H38.523Z" fill="white"/>
<path d="M68.443 97.886C77.524 97.886 84.886 90.524 84.886 81.443C84.886 72.362 77.524 65 68.443 65C59.362 65 52 72.362 52 81.443C52 90.524 59.362 97.886 68.443 97.886Z" fill="#8953FF"/>
<path d="M68.443 87.6797C66.8771 87.6797 65.6079 88.9488 65.6079 90.5148C65.6079 92.0803 66.8771 93.3495 68.443 93.3495C70.0085 93.3495 71.2781 92.0803 71.2781 90.5148C71.2781 88.9488 70.0085 87.6797 68.443 87.6797Z" fill="white"/>
<path d="M70.2742 83.7177C70.2009 84.6747 69.4025 85.4137 68.443 85.4137C67.483 85.4137 66.6851 84.6747 66.6114 83.7177L65.7955 73.1138C65.6945 71.7965 66.7359 70.6719 68.0571 70.6719H68.8285C70.1497 70.6719 71.1911 71.7965 71.09 73.1138L70.2742 83.7177Z" fill="white"/>
</svg>
