<svg width="28" height="27" viewBox="0 0 28 27" fill="none" xmlns="http://www.w3.org/2000/svg">
<path d="M14.7108 3.00232C15.5927 1.47525 17.513 0.920166 19.0653 1.71424L19.2147 1.79627L26.3515 5.91639C27.9277 6.82673 28.4675 8.84286 27.5575 10.4193L19.1112 25.0502L19.0214 25.1947C18.1045 26.6114 16.259 27.106 14.7567 26.3373L14.6073 26.2572L7.47158 22.1371L7.32607 22.0472C5.90959 21.1305 5.41433 19.2848 6.18252 17.7826L6.26455 17.6332L6.62197 17.014C7.34706 17.6534 7.79732 17.952 8.71963 18.3246L8.40615 18.8695C8.17864 19.2636 8.31393 19.7679 8.70791 19.9955L15.8437 24.1156C16.2378 24.3431 16.742 24.2079 16.9696 23.8138L25.4159 9.18299C25.6433 8.78903 25.5088 8.28567 25.1151 8.05799L17.9784 3.93787C17.5844 3.71055 17.0801 3.84481 16.8524 4.23865L12.9763 10.9516C12.7722 11.305 12.3648 11.5174 11.9894 11.3575C11.616 11.1985 11.2733 10.944 10.9647 10.5786C10.7274 10.2976 10.7308 9.89546 10.9148 9.57689L14.7108 3.00232Z" fill="white"/>
<path d="M4.19912 1.06678C4.59901 0.533587 5.3996 0.533874 5.79971 1.06678L9.79971 6.39978C10.2939 7.05892 9.82368 7.99911 8.9999 7.99939H7.4999C7.47057 8.14481 7.44911 8.2887 7.4374 8.43689C7.37882 9.11936 7.54804 9.8963 8.00479 10.6478C9.34128 12.8228 12.3301 14.4943 15.2929 14.9291C15.5159 14.9606 15.743 14.9849 15.9647 15.0004C16.2068 15.0148 16.4438 15.1321 16.621 15.3129C16.7979 15.4944 16.9014 15.7255 16.9101 15.9672C16.9185 16.2093 16.8309 16.4473 16.6669 16.641C16.5028 16.8338 16.2755 16.967 16.0351 16.9984C15.7636 17.0312 15.4855 17.0542 15.2118 17.0668C11.5686 17.1448 7.84093 16.1209 4.88369 13.1508C3.88169 12.0938 3.00925 10.6895 2.65811 9.05701C2.5821 8.70836 2.52939 8.35836 2.4999 7.99939H0.999903C0.176233 7.99905 -0.294938 7.05889 0.199121 6.39978L4.19912 1.06678Z" fill="white"/>
</svg>
