<svg width="26" height="25" viewBox="0 0 26 25" fill="none" xmlns="http://www.w3.org/2000/svg">
<path opacity="0.75" d="M20.2917 15.8345C20.457 15.3877 21.0889 15.3877 21.2543 15.8345L22.1464 18.2456C22.1984 18.3861 22.3092 18.4968 22.4496 18.5488L24.8607 19.441C25.3075 19.6063 25.3075 20.2383 24.8607 20.4036L22.4496 21.2958C22.3092 21.3478 22.1984 21.4585 22.1464 21.599L21.2543 24.0101C21.0889 24.4568 20.457 24.4568 20.2917 24.0101L19.3995 21.599C19.3475 21.4585 19.2368 21.3478 19.0963 21.2958L16.6852 20.4036C16.2384 20.2383 16.2384 19.6063 16.6852 19.441L19.0963 18.5488C19.2368 18.4968 19.3475 18.3861 19.3995 18.2456L20.2917 15.8345Z" fill="#DAD4ED"/>
<path d="M8.52273 4.57724C8.88019 3.61116 10.2466 3.61116 10.6041 4.57724L12.5332 9.79067C12.6456 10.0944 12.8851 10.3339 13.1888 10.4462L18.4022 12.3754C19.3683 12.7329 19.3683 14.0993 18.4022 14.4567L13.1888 16.3859C12.8851 16.4983 12.6456 16.7378 12.5332 17.0415L10.6041 22.2549C10.2466 23.221 8.88019 23.221 8.52273 22.2549L6.59356 17.0415C6.48119 16.7378 6.2417 16.4983 5.93799 16.3859L0.724555 14.4567C-0.241519 14.0993 -0.241518 12.7329 0.724555 12.3754L5.93799 10.4462C6.2417 10.3339 6.48119 10.0944 6.59356 9.79067L8.52273 4.57724Z" fill="#DAD4ED"/>
<path opacity="0.75" d="M20.2042 0.396018C20.3996 -0.132006 21.1464 -0.132006 21.3418 0.396018L22.3962 3.2455C22.4576 3.41152 22.5885 3.54239 22.7545 3.60382L25.604 4.65824C26.132 4.85362 26.132 5.60044 25.604 5.79582L22.7545 6.85023C22.5885 6.91166 22.4576 7.04254 22.3962 7.20856L21.3418 10.058C21.1464 10.5861 20.3996 10.5861 20.2042 10.058L19.1498 7.20856C19.0884 7.04254 18.9575 6.91166 18.7915 6.85023L15.942 5.79582C15.414 5.60044 15.414 4.85362 15.942 4.65824L18.7915 3.60382C18.9575 3.54239 19.0884 3.41152 19.1498 3.2455L20.2042 0.396018Z" fill="#DAD4ED"/>
</svg>
