<svg width="15" height="15" viewBox="0 0 15 15" fill="none" xmlns="http://www.w3.org/2000/svg">
<path d="M6.99682 0.774707C7.2334 0.410466 7.7666 0.410466 8.00318 0.774707L9.00319 2.31436C9.14898 2.53881 9.4258 2.63957 9.68176 2.56133L11.4375 2.02469C11.8528 1.89773 12.2613 2.24047 12.2084 2.67156L11.9848 4.4938C11.9522 4.75945 12.0995 5.01457 12.3458 5.11917L14.0357 5.83663C14.4355 6.00636 14.5281 6.53147 14.2105 6.8277L12.8679 8.07988C12.6722 8.26243 12.621 8.55254 12.7425 8.79102L13.5759 10.4269C13.773 10.8139 13.5064 11.2757 13.0727 11.2984L11.2393 11.3946C10.972 11.4087 10.7464 11.598 10.6861 11.8588L10.273 13.6476C10.1753 14.0708 9.67424 14.2532 9.32735 13.9918L7.86105 12.887C7.64729 12.726 7.35271 12.726 7.13895 12.887L5.67265 13.9918C5.32576 14.2532 4.82471 14.0708 4.72698 13.6476L4.31387 11.8588C4.25364 11.598 4.02797 11.4087 3.7607 11.3946L1.92732 11.2984C1.49358 11.2757 1.22698 10.8139 1.42414 10.4269L2.2575 8.79102C2.37899 8.55254 2.32784 8.26243 2.13211 8.07988L0.789504 6.8277C0.471877 6.53147 0.564467 6.00636 0.964256 5.83663L2.65416 5.11917C2.90052 5.01457 3.04782 4.75945 3.01522 4.4938L2.79161 2.67156C2.73871 2.24047 3.14716 1.89773 3.56252 2.02469L5.31824 2.56133C5.5742 2.63957 5.85102 2.53881 5.99681 2.31436L6.99682 0.774707Z" fill="#FEEE5D"/>
</svg>
