<svg width="100" height="100" viewBox="0 0 100 100" fill="none" xmlns="http://www.w3.org/2000/svg">
<g clip-path="url(#clip0)">
<path fill-rule="evenodd" clip-rule="evenodd" d="M96.7129 70.2706L87.5488 55.9654C84.4941 50.7635 82.3122 45.1281 81.8758 39.0593L81.0031 28.6555C79.6939 12.6163 66.1711 0 50.0249 0C33.8788 0 20.3459 12.6163 19.0367 28.6555L18.164 39.0593C17.7276 45.1281 15.5457 50.7635 12.491 55.9654L3.32694 70.2706C-0.164117 75.906 3.62017 83 10.1659 83H32.0273C32.5462 92.476 40.3944 100 50 100C59.6056 100 67.4538 92.476 67.9727 83H90.0239C96.1333 83 100.204 75.906 96.7129 70.2706ZM40.9455 83H59.0545C58.5565 87.5601 54.6927 91.1087 50 91.1087C45.3073 91.1087 41.4435 87.5601 40.9455 83Z" fill="#828B95"/>
</g>
<defs>
<clipPath id="clip0">
<rect width="100" height="100" fill="white"/>
</clipPath>
</defs>
</svg>
