<svg width="100" height="100" viewBox="0 0 100 100" fill="none" xmlns="http://www.w3.org/2000/svg">
<path fill-rule="evenodd" clip-rule="evenodd" d="M16.6671 21H83.3336C87.0154 21 90.0002 23.9847 90.0002 27.6666V61.3334C90.0002 65.0153 87.0154 68 83.3336 68H78.3336C75.5722 68 73.3336 70.2386 73.3336 73C73.3336 75.7614 75.5722 78 78.3336 78H83.3336C92.5383 78 100 70.5381 100 61.3334V27.6666C100 18.4619 92.5383 11 83.3336 11H16.6671C7.46239 11 0.000488281 18.4619 0.000488281 27.6666L0.000488281 61.3334C0.000488281 70.5381 7.46239 78 16.6671 78H21.6671C24.4285 78 26.6671 75.7614 26.6671 73C26.6671 70.2386 24.4285 68 21.6671 68H16.6671C12.9852 68 10.0005 65.0153 10.0005 61.3334V27.6666C10.0005 23.9847 12.9852 21 16.6671 21Z" fill="#828B95"/>
<path fill-rule="evenodd" clip-rule="evenodd" d="M54.6881 69.2258L59.1568 52.6757C59.8615 50.5001 59.0745 46.1489 54.3763 46.1489C49.5393 46.1489 37.2246 55.1926 39.0956 57.6874C39.7611 58.5747 41.419 57.801 42.9223 57.0994C44.1234 56.5389 45.2258 56.0245 45.6445 56.44C46.5873 57.3755 43.1497 69.2258 43.1497 69.2258L39.632 83.2811C38.9273 85.4567 39.7143 89.8079 44.4125 89.8079C49.2495 89.8079 61.5642 80.7643 59.6931 78.2695C59.0277 77.3822 57.3698 78.1559 55.8665 78.8574C54.6654 79.4179 53.563 79.9324 53.1443 79.5169C52.4787 78.8564 53.7382 72.7561 54.6881 69.2258Z" fill="#828B95"/>
<path d="M54.824 39.3416C53.6033 39.3406 52.4103 38.9776 51.396 38.2985C50.3817 37.6194 49.5915 36.6547 49.1255 35.5265C48.6595 34.3982 48.5386 33.1571 48.7781 31.9602C49.0176 30.7632 49.6067 29.6642 50.4709 28.8021C51.3351 27.94 52.4356 27.3536 53.6331 27.117C54.8307 26.8804 56.0715 27.0044 57.1986 27.4731C58.3257 27.9418 59.2884 28.7343 59.9651 29.7503C60.6417 30.7663 61.0018 31.9601 60.9998 33.1808C61.0005 33.9913 60.8411 34.794 60.5308 35.5427C60.2204 36.2914 59.7653 36.9715 59.1915 37.5439C58.6177 38.1163 57.9365 38.5698 57.187 38.8783C56.4375 39.1868 55.6345 39.3442 54.824 39.3416Z" fill="#828B95"/>
</svg>
