<svg width="254" height="382" viewBox="0 0 254 382" fill="none" xmlns="http://www.w3.org/2000/svg">
<path d="M2.50002 25.298L2.50002 19.9985C2.50001 10.3337 10.3348 2.5 20 2.5H234C243.665 2.5 251.5 10.3337 251.5 19.9985V20.0085V20.0185V20.0285V20.0385V20.0486V20.0586V20.0686V20.0786V20.0886V20.0987V20.1087V20.1187V20.1288V20.1388V20.1488V20.1589V20.1689V20.1789V20.189V20.199V20.2091V20.2191V20.2292V20.2392V20.2493V20.2593V20.2694V20.2794V20.2895V20.2995V20.3096V20.3196V20.3297V20.3398V20.3498V20.3599V20.37V20.38V20.3901V20.4002V20.4102V20.4203V20.4304V20.4405V20.4506V20.4606V20.4707V20.4808V20.4909V20.501V20.511V20.5211V20.5312V20.5413V20.5514V20.5615V20.5716V20.5817V20.5918V20.6019V20.612V20.6221V20.6322V20.6423V20.6524V20.6625V20.6726V20.6827V20.6928V20.703V20.7131V20.7232V20.7333V20.7434V20.7535V20.7637V20.7738V20.7839V20.794V20.8042V20.8143V20.8244V20.8346V20.8447V20.8548V20.865V20.8751V20.8852V20.8954V20.9055V20.9157V20.9258V20.9359V20.9461V20.9562V20.9664V20.9765V20.9867V20.9968V21.007V21.0172V21.0273V21.0375V21.0476V21.0578V21.068V21.0781V21.0883V21.0985V21.1086V21.1188V21.129V21.1391V21.1493V21.1595V21.1697V21.1798V21.19V21.2002V21.2104V21.2206V21.2308V21.2409V21.2511V21.2613V21.2715V21.2817V21.2919V21.3021V21.3123V21.3225V21.3327V21.3429V21.3531V21.3633V21.3735V21.3837V21.3939V21.4041V21.4143V21.4245V21.4347V21.445V21.4552V21.4654V21.4756V21.4858V21.496V21.5063V21.5165V21.5267V21.5369V21.5472V21.5574V21.5676V21.5779V21.5881V21.5983V21.6086V21.6188V21.629V21.6393V21.6495V21.6597V21.67V21.6802V21.6905V21.7007V21.711V21.7212V21.7315V21.7417V21.752V21.7622V21.7725V21.7827V21.793V21.8033V21.8135V21.8238V21.834V21.8443V21.8546V21.8648V21.8751V21.8854V21.8957V21.9059V21.9162V21.9265V21.9368V21.947V21.9573V21.9676V21.9779V21.9882V21.9984V22.0087V22.019V22.0293V22.0396V22.0499V22.0602V22.0705V22.0808V22.0911V22.1014V22.1117V22.122V22.1323V22.1426V22.1529V22.1632V22.1735V22.1838V22.1941V22.2044V22.2147V22.225V22.2353V22.2457V22.256V22.2663V22.2766V22.2869V22.2973V22.3076V22.3179V22.3282V22.3386V22.3489V22.3592V22.3695V22.3799V22.3902V22.4005V22.4109V22.4212V22.4316V22.4419V22.4522V22.4626V22.4729V22.4833V22.4936V22.504V22.5143V22.5247V22.535V22.5454V22.5557V22.5661V22.5764V22.5868V22.5971V22.6075V22.6179V22.6282V22.6386V22.6489V22.6593V22.6697V22.68V22.6904V22.7008V22.7112V22.7215V22.7319V22.7423V22.7527V22.763V22.7734V22.7838V22.7942V22.8046V22.8149V22.8253V22.8357V22.8461V22.8565V22.8669V22.8773V22.8877V22.8981V22.9085V22.9188V22.9292V22.9396V22.95V22.9604V22.9708V22.9813V22.9917V23.0021V23.0125V23.0229V23.0333V23.0437V23.0541V23.0645V23.0749V23.0854V23.0958V23.1062V23.1166V23.127V23.1375V23.1479V23.1583V23.1687V23.1791V23.1896V23.2V23.2104V23.2209V23.2313V23.2417V23.2522V23.2626V23.273V23.2835V23.2939V23.3044V23.3148V23.3252V23.3357V23.3461V23.3566V23.367V23.3775V23.3879V23.3984V23.4088V23.4193V23.4297V23.4402V23.4507V23.4611V23.4716V23.482V23.4925V23.503V23.5134V23.5239V23.5344V23.5448V23.5553V23.5658V23.5762V23.5867V23.5972V23.6077V23.6181V23.6286V23.6391V23.6496V23.66V23.6705V23.681V23.6915V23.702V23.7125V23.723V23.7334V23.7439V23.7544V23.7649V23.7754V23.7859V23.7964V23.8069V23.8174V23.8279V23.8384V23.8489V23.8594V23.8699V23.8804V23.8909V23.9014V23.9119V23.9224V23.933V23.9435V23.954V23.9645V23.975V23.9855V23.996V24.0066V24.0171V24.0276V24.0381V24.0486V24.0592V24.0697V24.0802V24.0907V24.1013V24.1118V24.1223V24.1329V24.1434V24.1539V24.1645V24.175V24.1855V24.1961V24.2066V24.2172V24.2277V24.2382V24.2488V24.2593V24.2699V24.2804V24.291V24.3015V24.3121V24.3226V24.3332V24.3437V24.3543V24.3648V24.3754V24.386V24.3965V24.4071V24.4176V24.4282V24.4388V24.4493V24.4599V24.4705V24.481V24.4916V24.5022V24.5128V24.5233V24.5339V24.5445V24.555V24.5656V24.5762V24.5868V24.5974V24.6079V24.6185V24.6291V24.6397V24.6503V24.6609V24.6715V24.682V24.6926V24.7032V24.7138V24.7244V24.735V24.7456V24.7562V24.7668V24.7774V24.788V24.7986V24.8092V24.8198V24.8304V24.841V24.8516V24.8622V24.8728V24.8834V24.894V24.9047V24.9153V24.9259V24.9365V24.9471V24.9577V24.9683V24.979V24.9896V25.0002V25.0108V25.0215V25.0321V25.0427V25.0533V25.064V25.0746V25.0852V25.0958V25.1065V25.1171V25.1277V25.1384V25.149V25.1596V25.1703V25.1809V25.1916V25.2022V25.2128V25.2235V25.2341V25.2448V25.2554V25.2661V25.2767V25.2874V25.298V356.702C251.5 363.427 250.305 369.396 248.474 373.59C247.557 375.691 246.53 377.234 245.516 378.216C244.513 379.188 243.652 379.5 242.957 379.5H11.0435C10.3478 379.5 9.48671 379.188 8.48451 378.216C7.4704 377.234 6.44288 375.691 5.52578 373.59C3.69489 369.396 2.50002 363.427 2.50002 356.702V25.298Z" stroke="url(#paint0_linear_226_6373)" stroke-width="5"/>
<rect opacity="0.25" x="26" y="27" width="21" height="11" rx="5.5" fill="#7E5DF5"/>
<rect opacity="0.25" x="26" y="52" width="48" height="12" rx="6" fill="#7E5DF5"/>
<rect opacity="0.25" x="96" y="52" width="21" height="12" rx="6" fill="#7E5DF5"/>
<rect opacity="0.25" x="137" y="52" width="21" height="12" rx="6" fill="#7E5DF5"/>
<rect opacity="0.25" x="42" y="77" width="32" height="12" rx="6" fill="#7E5DF5"/>
<rect opacity="0.25" x="96" y="77" width="62" height="12" rx="6" fill="#7E5DF5"/>
<rect opacity="0.25" x="96" y="27" width="62" height="12" rx="6" fill="#7E5DF5"/>
<rect opacity="0.25" x="53" y="27" width="21" height="11" rx="5.5" fill="#7E5DF5"/>
<rect opacity="0.25" x="178" y="27" width="21" height="11" rx="5.5" fill="#7E5DF5"/>
<rect opacity="0.25" x="178" y="52" width="48" height="12" rx="6" fill="#7E5DF5"/>
<rect opacity="0.25" x="194" y="77" width="32" height="12" rx="6" fill="#7E5DF5"/>
<rect opacity="0.25" x="205" y="27" width="21" height="11" rx="5.5" fill="#7E5DF5"/>
<defs>
<linearGradient id="paint0_linear_226_6373" x1="127" y1="-1.51676e-07" x2="127" y2="382" gradientUnits="userSpaceOnUse">
<stop stop-color="#7E5DF5"/>
<stop offset="1" stop-color="#4A368F" stop-opacity="0"/>
</linearGradient>
</defs>
</svg>
