<svg width="100" height="100" viewBox="0 0 100 100" fill="none" xmlns="http://www.w3.org/2000/svg">
<path d="M48.9386 0C48.1425 0 47.3464 0 46.5502 0C37.118 0.707778 28.3021 5.04252 21.8874 12.1266C15.4728 19.2106 11.9387 28.5146 12.0008 38.1547C12.2479 63.3393 32.8375 87.1807 43.1941 97.5484C44.7381 99.1183 46.8299 100 49.0107 100C51.1915 100 53.2833 99.1183 54.8273 97.5484C65.2456 87.1178 86 63.1294 86 37.714C85.9836 27.7058 82.0718 18.1133 75.1232 11.0423C68.1746 3.9714 58.7572 -1.39002e-05 48.9386 0ZM48.9386 52.8037C46.0107 52.8037 43.1485 51.9187 40.714 50.2606C38.2795 48.6026 36.382 46.2459 35.2616 43.4886C34.1411 40.7313 33.8479 37.6972 34.4191 34.7701C34.9903 31.843 36.4003 29.1542 38.4707 27.0439C40.541 24.9335 43.1788 23.4964 46.0505 22.9141C48.9222 22.3319 51.8988 22.6307 54.6039 23.7728C57.3089 24.9149 59.621 26.849 61.2477 29.3305C62.8743 31.812 63.7426 34.7295 63.7426 37.714C63.7426 41.716 62.1829 45.5542 59.4066 48.384C56.6303 51.2139 52.8649 52.8037 48.9386 52.8037Z" fill="#828B95"/>
</svg>
