<svg width="100" height="100" viewBox="0 0 100 100" fill="none" xmlns="http://www.w3.org/2000/svg">
<path fill-rule="evenodd" clip-rule="evenodd" d="M81 60.8084C81 77.6531 67.3447 91.3084 50.5 91.3084C33.6553 91.3084 20 77.6531 20 60.8084C20 51.9348 23.3292 41.7669 29.2418 35.5475C30.8044 33.9037 33.3744 34.6475 34.1692 36.7717C34.1954 36.8417 34.2215 36.9114 34.2474 36.9808C36.4484 42.8659 37.7911 46.4562 45.1176 46.4562C38.7941 35.3899 42.2216 13.1795 59.0825 8.05663C61.9934 7.17221 63.8297 10.6983 62.7291 13.5345C59.3833 22.1558 62.7457 30.1972 65.9172 32.6871C72.0294 37.4856 81 48.1584 81 60.8084ZM54.0881 78.7503C73.321 78.7503 73.8102 52.3796 60.5386 47.7155C60.0467 47.5427 59.5754 47.986 59.6392 48.5035C60.7856 57.7896 54.902 65.2065 50.8047 70.3715C46.4916 75.8086 44.1581 78.7503 54.0881 78.7503Z" fill="#B4B4B4"/>
</svg>
