<svg width="24" height="24" viewBox="0 0 24 24" fill="none" xmlns="http://www.w3.org/2000/svg">
<path d="M5.13379 5H9.86621C9.94005 5 10 5.05995 10 5.13379V9.86621C10 9.94005 9.94005 10 9.86621 10H5.13379C5.05995 10 5 9.94005 5 9.86621V5.13379C5 5.05995 5.05995 5 5.13379 5Z" stroke="white" stroke-width="2"/>
<path d="M5.13379 14H9.86621C9.94005 14 10 14.06 10 14.1338V18.8662C10 18.94 9.94005 19 9.86621 19H5.13379C5.05995 19 5 18.94 5 18.8662V14.1338C5 14.06 5.05995 14 5.13379 14Z" stroke="white" stroke-width="2"/>
<path d="M14.1338 5H18.8662C18.94 5 19 5.05995 19 5.13379V9.86621C19 9.94005 18.94 10 18.8662 10H14.1338C14.06 10 14 9.94005 14 9.86621V5.13379C14 5.05995 14.06 5 14.1338 5Z" stroke="white" stroke-width="2"/>
<path d="M1 15C1.55228 15 2 15.4477 2 16V20C2 21.1046 2.89543 22 4 22H8C8.55229 22 9 22.4477 9 23C9 23.5523 8.55229 24 8 24H4C1.85996 24 0.112115 22.3194 0.00488281 20.2061L0 20V16C0 15.4477 0.447715 15 1 15ZM24 20L23.9951 20.2061C23.8913 22.2512 22.2512 23.8913 20.2061 23.9951L20 24H16C15.4477 24 15 23.5523 15 23C15 22.4477 15.4477 22 16 22H20C21.1046 22 22 21.1046 22 20V16C22 15.4477 22.4477 15 23 15C23.5523 15 24 15.4477 24 16V20ZM20.2061 0.00488281C22.3194 0.112115 24 1.85996 24 4V8C24 8.55229 23.5523 9 23 9C22.4477 9 22 8.55229 22 8V4C22 2.96435 21.2128 2.113 20.2041 2.01074L20 2H16C15.4477 2 15 1.55228 15 1C15 0.447715 15.4477 0 16 0H20L20.2061 0.00488281ZM9 1C9 1.55228 8.55229 2 8 2H4C2.96435 2 2.113 2.78722 2.01074 3.7959L2 4V8C2 8.55229 1.55228 9 1 9C0.447715 9 0 8.55229 0 8V4C2.57706e-07 1.79086 1.79086 6.44256e-08 4 0H8C8.55229 0 9 0.447715 9 1Z" fill="white"/>
<rect x="17" y="13" width="3" height="2" rx="0.2" fill="white"/>
<rect x="18" y="17" width="2" height="3" rx="0.2" fill="white"/>
<rect x="13" y="17" width="3" height="3" rx="0.2" fill="white"/>
<rect x="13" y="13" width="2" height="2" rx="0.2" fill="white"/>
<rect x="15" y="23" width="4" height="1" rx="0.2" fill="white"/>
</svg>
