<svg width="100" height="100" viewBox="0 0 100 100" fill="none" xmlns="http://www.w3.org/2000/svg">
<g clip-path="url(#clip0_1301_164)">
<path d="M84.53 12.3459C85.8626 10.4896 88.792 11.4231 88.805 13.7081L88.8417 20.1655C88.8475 21.1874 89.5106 22.0894 90.4843 22.3996L96.637 24.3602C98.8142 25.054 98.8316 28.1285 96.6624 28.8469L90.5324 30.8772C89.5623 31.1985 88.9094 32.108 88.9152 33.1298L88.9519 39.5872C88.9649 41.8723 86.0462 42.8389 84.6926 40.9979L80.8674 35.7953C80.2621 34.972 79.1954 34.6321 78.2253 34.9534L72.0953 36.9837C69.9261 37.7022 68.1049 35.2251 69.4375 33.3689L73.2034 28.1232C73.7994 27.293 73.793 26.1736 73.1877 25.3502L69.3625 20.1476C68.0089 18.3066 69.8019 15.8091 71.9791 16.5028L78.1317 18.4634C79.1054 18.7737 80.1681 18.4217 80.7641 17.5916L84.53 12.3459Z" fill="#B4B4B4"/>
<path d="M8.23743 13.3432C8.31639 11.8364 10.2774 11.3109 11.0992 12.5764L13.4215 16.1525C13.789 16.7184 14.4792 16.9833 15.131 16.8086L19.2497 15.705C20.7071 15.3145 21.8128 17.0172 20.8633 18.1898L18.1799 21.5035C17.7552 22.0279 17.7165 22.7662 18.084 23.3321L20.4064 26.9082C21.2282 28.1736 19.9505 29.7514 18.5419 29.2106L14.5611 27.6825C13.9311 27.4407 13.2171 27.6321 12.7924 28.1565L10.109 31.4702C9.15943 32.6428 7.2641 31.9153 7.34307 30.4085L7.56623 26.1503C7.60155 25.4764 7.19894 24.8565 6.56897 24.6147L2.58818 23.0866C1.17952 22.5458 1.28577 20.5185 2.74323 20.1279L6.86195 19.0243C7.51374 18.8497 7.97895 18.2752 8.01426 17.6013L8.23743 13.3432Z" fill="#B4B4B4"/>
<path d="M49.4233 28.6609C52.0616 24.5983 58.3573 26.2852 58.6108 31.1227L59.3273 44.7933C59.4406 46.9567 60.9342 48.801 63.0267 49.3617L76.2496 52.9048C80.9286 54.1585 81.2698 60.6673 76.7474 62.4033L63.9673 67.3091C61.9448 68.0855 60.6523 70.0758 60.7656 72.2392L61.4821 85.9098C61.7356 90.7473 55.6508 93.083 52.6023 89.3184L43.9873 78.6798C42.624 76.9962 40.3316 76.382 38.3091 77.1584L25.5291 82.0642C21.0067 83.8002 16.9049 78.7349 19.5432 74.6723L26.999 63.1915C28.1788 61.3746 28.0546 59.0046 26.6913 57.321L18.0763 46.6825C15.0278 42.9179 18.5776 37.4516 23.2567 38.7054L36.4796 42.2484C38.5721 42.8091 40.7877 41.9586 41.9676 40.1418L49.4233 28.6609Z" fill="#B4B4B4"/>
</g>
<defs>
<clipPath id="clip0_1301_164">
<rect width="100" height="100" fill="white"/>
</clipPath>
</defs>
</svg>
