<svg width="100" height="100" viewBox="0 0 100 100" fill="none" xmlns="http://www.w3.org/2000/svg">
<path fill-rule="evenodd" clip-rule="evenodd" d="M82.8 27.1719C82.8 25.878 81.7507 24.835 80.4585 24.7683C71.1732 24.2887 61.6058 20.9838 54.3642 15.2783L51.4499 12.9822C50.5994 12.3121 49.4006 12.3121 48.5501 12.9822L45.6358 15.2783C38.3942 20.9838 28.8268 24.2887 19.5415 24.7683C18.2493 24.835 17.2 25.878 17.2 27.1719V56.4576C17.2 74.5726 31.8851 89.2576 50 89.2576C68.1149 89.2576 82.8 74.5726 82.8 56.4576V27.1719ZM12.849 16.6291C10.7232 16.6291 9 18.3523 9 20.478V56.4576C9 79.1013 27.3563 97.4576 50 97.4576C72.6437 97.4576 91 79.1013 91 56.4576V20.478C91 18.3523 89.2768 16.6291 87.151 16.6291H81.919C73.7634 16.6291 65.8451 13.8845 59.4389 8.83722L53.6248 4.25641C51.4986 2.5812 48.5014 2.5812 46.3752 4.2564L40.5611 8.83722C34.1549 13.8845 26.2366 16.6291 18.081 16.6291H12.849Z" fill="#B4B4B4"/>
<path fill-rule="evenodd" clip-rule="evenodd" d="M29.3412 32.6399C28.0502 32.7278 27 33.7685 27 35.0624V55.7308C27 68.582 37.2975 79 50 79C62.7025 79 73 68.582 73 55.7308V35.0624C73 33.7685 71.9498 32.7278 70.6588 32.6399C63.6227 32.1605 56.8753 29.5289 51.3259 25.0663C50.5516 24.4436 49.4484 24.4436 48.6741 25.0663C43.1248 29.5289 36.3773 32.1605 29.3412 32.6399ZM65.62 45.6771C66.0105 45.2865 66.0105 44.6534 65.62 44.2628L62.0643 40.7071C61.6737 40.3166 61.0406 40.3166 60.65 40.7071L45.8064 55.5508C45.4158 55.9413 44.7827 55.9413 44.3922 55.5508L40.6771 51.8357C40.2865 51.4452 39.6534 51.4452 39.2628 51.8357L35.7071 55.3914C35.3166 55.7819 35.3166 56.4151 35.7071 56.8056L44.3922 65.4907C44.7827 65.8812 45.4158 65.8812 45.8064 65.4907L65.62 45.6771Z" fill="#B4B4B4"/>
</svg>
