<svg width="25" height="25" viewBox="0 0 25 25" fill="none" xmlns="http://www.w3.org/2000/svg">
<path d="M23.9994 16.5343C24.0224 17.746 23.382 18.7104 22.5096 19.4645C21.0231 20.5093 20.0659 20.9649 18.222 21.6341C16.3658 22.1876 14.4361 22.4548 12.4994 22.4266C10.3597 22.4213 8.23374 22.0838 6.19763 21.4261C5.12655 21.086 4.10875 20.5967 3.17428 19.9725C2.38287 19.4284 1.59584 18.6655 1.23025 17.7515C1.07208 17.3655 0.993878 16.9514 1.00037 16.5343C1.04087 15.0861 2.14534 14.0068 3.31658 13.3172C4.26484 12.7795 5.28199 12.3737 6.33993 12.1109C7.51817 11.7997 8.72135 11.592 9.93574 11.4903C9.9248 11.8723 9.9237 12.2466 9.93247 12.6101C9.93561 12.7188 9.916 12.8269 9.87491 12.9275C9.83382 13.0282 9.77214 13.1192 9.69384 13.1946L9.56027 13.3106C8.65543 13.4508 7.76412 13.6676 6.89598 13.9586C6.03934 14.2356 5.22578 14.6313 4.47908 15.1342C4.06969 15.433 3.40196 15.9026 3.4348 16.4828C3.46765 17.0618 4.17805 17.457 4.62026 17.7121C5.77617 18.3776 7.07991 18.7191 8.38796 18.9315C9.74646 19.158 11.1222 19.2653 12.4994 19.2522C14.3363 19.2509 16.1671 19.0394 17.956 18.6217C18.8022 18.4315 19.6191 18.1288 20.385 17.7219C20.8086 17.4844 21.5081 17.0739 21.5606 16.5321C21.6174 15.9379 20.9386 15.4495 20.5169 15.1461L20.5142 15.1441C19.7712 14.6346 18.9616 14.2298 18.1082 13.9411C17.2243 13.6307 16.3132 13.4042 15.3869 13.2647L15.3027 13.1913C15.2251 13.1178 15.1638 13.0289 15.1225 12.9303C15.0812 12.8317 15.0609 12.7256 15.0629 12.6188C15.0717 12.2653 15.0706 11.8986 15.0607 11.5231C16.2728 11.6295 17.4745 11.8323 18.6544 12.1295C19.1727 12.2574 19.6833 12.4149 20.1836 12.6013C21.8736 13.234 23.9512 14.4983 23.9994 16.5343Z" fill="#DAD4ED"/>
<path d="M5.12923 6.08942C5.40168 6.0894 5.66801 6.00858 5.89452 5.85719C6.12103 5.70579 6.29756 5.49061 6.40177 5.23888C7.02651 5.39609 7.66229 5.50562 8.30362 5.56654C8.80784 5.62223 9.31544 5.6412 9.82241 5.62328C10.1592 5.61422 10.4949 5.58072 10.8268 5.52305C10.9787 5.83762 11.2163 6.10298 11.5122 6.28867C11.8081 6.47436 12.1503 6.57286 12.4997 6.57286C12.849 6.57286 13.1912 6.47436 13.4871 6.28867C13.783 6.10298 14.0206 5.83762 14.1725 5.52305C14.5044 5.58072 14.8401 5.61422 15.1769 5.62328C15.6839 5.6412 16.1915 5.62223 16.6957 5.56654C17.337 5.50562 17.9728 5.39609 18.5976 5.23888C18.7195 5.53336 18.9397 5.77645 19.2208 5.92672C19.5019 6.07698 19.8263 6.12513 20.1389 6.06295C20.4515 6.00077 20.7329 5.83211 20.935 5.58572C21.1372 5.33933 21.2477 5.03045 21.2476 4.71174C21.2475 4.39302 21.1369 4.0842 20.9347 3.83789C20.7324 3.59158 20.451 3.42304 20.1384 3.361C19.8257 3.29895 19.5013 3.34723 19.2203 3.49762C18.9393 3.64801 18.7191 3.89119 18.5973 4.18572C17.9726 4.02879 17.3369 3.91907 16.6957 3.85751C16.1915 3.80182 15.6839 3.78287 15.1769 3.8008C14.8403 3.81171 14.5049 3.84542 14.1729 3.90169C14.021 3.58694 13.7835 3.32141 13.4875 3.13559C13.1915 2.94977 12.8491 2.8512 12.4997 2.8512C12.1502 2.8512 11.8078 2.94977 11.5119 3.13559C11.2159 3.32141 10.9783 3.58694 10.8265 3.90169C10.4945 3.84542 10.159 3.81171 9.82242 3.8008C9.31545 3.78287 8.80785 3.80182 8.30363 3.85751C7.66241 3.91907 7.02673 4.02879 6.40198 4.18572C6.30664 3.9552 6.1505 3.7549 5.9502 3.6062C5.74991 3.4575 5.513 3.36599 5.26476 3.34144C5.01651 3.31688 4.76626 3.36021 4.54072 3.46679C4.31518 3.57337 4.12282 3.7392 3.98417 3.94657C3.84553 4.15395 3.76581 4.39509 3.75352 4.64424C3.74123 4.89339 3.79684 5.1412 3.91441 5.36122C4.03197 5.58123 4.20708 5.76518 4.42104 5.89344C4.635 6.02169 4.87978 6.08943 5.12923 6.08942Z" fill="#DAD4ED"/>
<path d="M6.8719 17.2217C10.5482 18.2878 14.4516 18.2878 18.1279 17.2217L14.5036 14.078C14.2982 13.8894 14.1356 13.6591 14.0264 13.4026C13.9173 13.146 13.8643 12.8691 13.8709 12.5904C13.8877 11.7512 13.8577 10.9118 13.7812 10.076C13.7089 9.25616 13.606 8.43629 13.4604 7.6252C12.8365 7.82803 12.1644 7.82803 11.5405 7.6252C11.396 8.4363 11.2942 9.25725 11.2176 10.076C11.1381 10.9083 11.1074 11.7446 11.1256 12.5805C11.1326 12.8612 11.0799 13.1402 10.9708 13.399C10.8617 13.6577 10.6988 13.8903 10.4929 14.0813L6.8719 17.2217Z" fill="#DAD4ED"/>
</svg>
