<svg width="100" height="100" viewBox="0 0 100 100" fill="none" xmlns="http://www.w3.org/2000/svg">
<path d="M37.0944 13.2869C37.0944 11.8259 35.9101 10.6416 34.4491 10.6416H23.868C16.5633 10.6416 10.6416 16.5633 10.6416 23.868V37.0944C10.6416 38.5554 11.8259 39.7397 13.2869 39.7397C14.7478 39.7397 15.9322 38.5554 15.9322 37.0944V23.868C15.9322 19.4852 19.4852 15.9322 23.868 15.9322H34.4491C35.9101 15.9322 37.0944 14.7478 37.0944 13.2869Z" fill="#828B95"/>
<path d="M66.1925 15.9322C64.7316 15.9322 63.5473 14.7478 63.5473 13.2869C63.5473 11.8259 64.7316 10.6416 66.1925 10.6416H76.7737C84.0784 10.6416 90.0001 16.5633 90.0001 23.868V37.0944C90.0001 38.5554 88.8158 39.7397 87.3548 39.7397C85.8939 39.7397 84.7095 38.5554 84.7095 37.0944V23.868C84.7095 19.4852 81.1565 15.9322 76.7737 15.9322H66.1925Z" fill="#828B95"/>
<path d="M63.5473 87.3548C63.5473 85.8939 64.7316 84.7095 66.1925 84.7095H76.7737C81.1565 84.7095 84.7095 81.1565 84.7095 76.7737V68.8378C84.7095 67.3769 85.8939 66.1925 87.3548 66.1925C88.8158 66.1925 90.0001 67.3769 90.0001 68.8378V76.7737C90.0001 84.0784 84.0784 90.0001 76.7737 90.0001H66.1925C64.7316 90.0001 63.5473 88.8158 63.5473 87.3548Z" fill="#828B95"/>
<path d="M13.2869 66.1925C14.7478 66.1925 15.9322 67.3769 15.9322 68.8378V76.7737C15.9322 81.1565 19.4852 84.7095 23.868 84.7095H34.4491C35.9101 84.7095 37.0944 85.8939 37.0944 87.3548C37.0944 88.8158 35.9101 90.0001 34.4491 90.0001H23.868C16.5633 90.0001 10.6416 84.0784 10.6416 76.7737V68.8378C10.6416 67.3769 11.8259 66.1925 13.2869 66.1925Z" fill="#828B95"/>
<path d="M26 33.9358C26 29.553 29.553 26 33.9358 26H67.0642C71.447 26 75 29.553 75 33.9358V67.0642C75 71.447 71.447 75 67.0642 75H33.9358C29.553 75 26 71.447 26 67.0642V33.9358Z" fill="#828B95"/>
</svg>
