<svg width="100" height="100" viewBox="0 0 100 100" fill="none" xmlns="http://www.w3.org/2000/svg">
<path fill-rule="evenodd" clip-rule="evenodd" d="M26.7178 35.036C24.9605 41.2964 29.6658 47.5044 36.1682 47.5044C41.5893 47.5044 45.9839 43.1098 45.9839 37.6887V0.940125H36.2884L26.7178 35.036ZM27.9974 0.940125H24.4356C19.6612 0.940125 15.253 3.4983 12.8845 7.64357L1.48085 27.5997C-0.975883 31.8991 -0.184028 36.7076 2.4478 40.5213C7.5665 47.9385 17.0205 41.4644 19.3767 32.7658L27.9974 0.940125ZM97.7455 40.4837C92.8355 47.9598 83.3528 41.553 80.9356 32.9415L71.9528 0.940125H75.5147C80.289 0.940125 84.6973 3.4983 87.0658 7.64357L98.4694 27.5997C100.918 31.885 100.246 36.676 97.7455 40.4837ZM53.9663 0.940125H63.6618L73.2325 35.036C74.9898 41.2964 70.2844 47.5044 63.782 47.5044C58.361 47.5044 53.9663 43.1098 53.9663 37.6887V0.940125Z" fill="#B4B4B4"/>
<path fill-rule="evenodd" clip-rule="evenodd" d="M91.2177 54.3978C88.2701 54.2253 85.6026 53.3066 83.4177 52.1475C82.263 51.5348 81.1601 50.8154 80.1177 50.0059C76.4314 54.8946 70.5775 58.1476 63.7821 58.1476C58.4609 58.1476 53.6142 56.1161 49.9752 52.7864C46.3362 56.1161 41.4894 58.1476 36.1682 58.1476C29.4418 58.1476 23.638 54.9604 19.9456 50.1544C19.0102 50.8639 18.0266 51.5012 17.0006 52.0545C14.3693 53.4737 11.0587 54.5345 7.40198 54.3949V91.4078C7.40198 95.0816 10.3802 98.0599 14.054 98.0599H27.3581C31.0319 98.0599 34.0101 95.0816 34.0101 91.4078V85.421C34.0101 76.9712 40.86 70.1213 49.3098 70.1213C57.7596 70.1213 64.6095 76.9712 64.6095 85.421V91.4078C64.6095 95.0816 67.5877 98.0599 71.2616 98.0599H84.5656C88.2395 98.0599 91.2177 95.0816 91.2177 91.4078V54.3978Z" fill="#B4B4B4"/>
</svg>
