<svg width="11" height="11" viewBox="0 0 11 11" fill="none" xmlns="http://www.w3.org/2000/svg">
<path d="M1 5.5L5.2643 1.2357C5.39447 1.10553 5.60553 1.10553 5.7357 1.2357L10 5.5" stroke="white" stroke-width="1.33333" stroke-linecap="round"/>
<path fill-rule="evenodd" clip-rule="evenodd" d="M5.5 1.33337L1.5 5.3334L2.14475 10.1229C2.20387 10.4382 2.47918 10.6667 2.79999 10.6667L3.90709 10.6668C4.07278 10.6668 4.20711 10.5324 4.20711 10.3668V7.60002C4.20711 7.26865 4.47574 7.00001 4.80711 7.00001H6.10158C6.43296 7.00001 6.70158 7.26865 6.70158 7.60002V10.3668C6.70158 10.5324 6.83591 10.6668 7.0016 10.6668L8.19999 10.6667C8.5208 10.6667 8.79612 10.4382 8.85524 10.1229L9.50001 5.3334L5.5 1.33337Z" fill="white"/>
</svg>
