<svg width="38" height="20" viewBox="0 0 38 20" fill="none" xmlns="http://www.w3.org/2000/svg">
<path fill-rule="evenodd" clip-rule="evenodd" d="M11.1339 11C10.5816 11 10.1339 11.4477 10.1339 12V19C10.1339 19.5523 10.5816 20 11.1339 20H26.1339C26.6862 20 27.1339 19.5523 27.1339 19V12C27.1339 11.4477 26.6862 11 26.1339 11H11.1339ZM17.1339 12.5C16.8578 12.5 16.6339 12.7239 16.6339 13V18C16.6339 18.2761 16.8578 18.5 17.1339 18.5H20.1339C20.4101 18.5 20.6339 18.2761 20.6339 18V13C20.6339 12.7239 20.4101 12.5 20.1339 12.5H17.1339ZM21.6339 13C21.6339 12.7239 21.8578 12.5 22.1339 12.5H25.1339C25.4101 12.5 25.6339 12.7239 25.6339 13V18C25.6339 18.2761 25.4101 18.5 25.1339 18.5H22.1339C21.8578 18.5 21.6339 18.2761 21.6339 18V13ZM12.1339 12.5C11.8578 12.5 11.6339 12.7239 11.6339 13V18C11.6339 18.2761 11.8578 18.5 12.1339 18.5H15.1339C15.4101 18.5 15.6339 18.2761 15.6339 18V13C15.6339 12.7239 15.4101 12.5 15.1339 12.5H12.1339Z" fill="#B4B4B4"/>
<path d="M16.1339 10C16.1339 8.89543 17.0293 8 18.1339 8H19.1339C20.2385 8 21.1339 8.89543 21.1339 10H16.1339Z" fill="#B4B4B4"/>
<path d="M27.1339 14H27.6339C28.1862 14 28.6339 14.4477 28.6339 15V16C28.6339 16.5523 28.1862 17 27.6339 17H27.1339V14Z" fill="#B4B4B4"/>
<path fill-rule="evenodd" clip-rule="evenodd" d="M30.1339 15V8.5H29.1339V14.5C29.1339 14.7761 28.9101 15 28.6339 15V15V16H29.1339C29.6862 16 30.1339 15.5523 30.1339 15V15Z" fill="#B4B4B4"/>
<circle cx="29.6339" cy="8.5" r="1.5" fill="#B4B4B4"/>
<path d="M13.4912 13.939C13.5361 13.8008 13.7317 13.8008 13.7766 13.939L14.0493 14.7783C14.0693 14.8401 14.1269 14.8819 14.1919 14.8819H15.0744C15.2197 14.8819 15.2801 15.0679 15.1625 15.1533L14.4486 15.672C14.396 15.7102 14.374 15.7779 14.3941 15.8397L14.6668 16.679C14.7117 16.8172 14.5535 16.9321 14.436 16.8467L13.7221 16.328C13.6695 16.2898 13.5983 16.2898 13.5457 16.328L12.8318 16.8467C12.7143 16.9321 12.5561 16.8172 12.601 16.679L12.8737 15.8397C12.8938 15.7779 12.8718 15.7102 12.8192 15.672L12.1053 15.1533C11.9877 15.0679 12.0481 14.8819 12.1934 14.8819H13.0759C13.1409 14.8819 13.1985 14.8401 13.2185 14.7783L13.4912 13.939Z" fill="#B4B4B4"/>
<path d="M4.34954 4.74472C4.09434 4.33304 4.51503 3.83531 4.96347 4.01836L6.22939 4.53511C6.42994 4.61697 6.66039 4.56039 6.80022 4.39495L7.68287 3.35067C7.99553 2.98074 8.59891 3.22704 8.56339 3.71009L8.46313 5.07374C8.44725 5.28977 8.57227 5.49146 8.77282 5.57332L10.0387 6.09007C10.4872 6.27312 10.4394 6.92307 9.96901 7.03856L8.64112 7.3646C8.43076 7.41625 8.27757 7.59748 8.26169 7.81351L8.16143 9.17716C8.12591 9.66022 7.49301 9.81562 7.2378 9.40394L6.51739 8.24179C6.40326 8.05769 6.18356 7.96801 5.97319 8.01966L4.6453 8.34569C4.17491 8.46119 3.83154 7.90728 4.14421 7.53735L5.02685 6.49307C5.16668 6.32763 5.18408 6.09097 5.06996 5.90687L4.34954 4.74472Z" fill="#B4B4B4"/>
<path d="M18.4912 13.939C18.5361 13.8008 18.7317 13.8008 18.7766 13.939L19.0493 14.7783C19.0693 14.8401 19.1269 14.8819 19.1919 14.8819H20.0744C20.2197 14.8819 20.2801 15.0679 20.1625 15.1533L19.4486 15.672C19.396 15.7102 19.374 15.7779 19.3941 15.8397L19.6668 16.679C19.7117 16.8172 19.5535 16.9321 19.436 16.8467L18.7221 16.328C18.6695 16.2898 18.5983 16.2898 18.5457 16.328L17.8318 16.8467C17.7143 16.9321 17.5561 16.8172 17.601 16.679L17.8737 15.8397C17.8938 15.7779 17.8718 15.7102 17.8192 15.672L17.1053 15.1533C16.9877 15.0679 17.0481 14.8819 17.1934 14.8819H18.0759C18.1409 14.8819 18.1985 14.8401 18.2185 14.7783L18.4912 13.939Z" fill="#B4B4B4"/>
<path d="M23.4912 13.939C23.5361 13.8008 23.7317 13.8008 23.7766 13.939L24.0493 14.7783C24.0693 14.8401 24.1269 14.8819 24.1919 14.8819H25.0744C25.2197 14.8819 25.2801 15.0679 25.1625 15.1533L24.4486 15.672C24.396 15.7102 24.374 15.7779 24.3941 15.8397L24.6668 16.679C24.7117 16.8172 24.5535 16.9321 24.436 16.8467L23.7221 16.328C23.6695 16.2898 23.5983 16.2898 23.5457 16.328L22.8318 16.8467C22.7143 16.9321 22.5561 16.8172 22.601 16.679L22.8737 15.8397C22.8938 15.7779 22.8718 15.7102 22.8192 15.672L22.1053 15.1533C21.9877 15.0679 22.0481 14.8819 22.1934 14.8819H23.0759C23.1409 14.8819 23.1985 14.8401 23.2185 14.7783L23.4912 13.939Z" fill="#B4B4B4"/>
<path opacity="0.46" fill-rule="evenodd" clip-rule="evenodd" d="M11.1733 11H13.9305C12.0736 8.84091 9.58778 6.94837 6.96669 5.47058L5.98444 7.21276C7.89017 8.28723 9.68561 9.57631 11.1733 11Z" fill="#B4B4B4"/>
<path d="M2.13212 14.2426C1.76652 14.0052 1.91833 13.4386 2.35366 13.4158L3.36491 13.3628C3.55959 13.3526 3.72556 13.2182 3.77602 13.0299L4.03811 12.0517C4.15094 11.6307 4.73667 11.6 4.89289 12.0069L5.25579 12.9523C5.32565 13.1343 5.50476 13.2506 5.69945 13.2404L6.7107 13.1874C7.14603 13.1646 7.35622 13.7122 7.01744 13.9865L6.23048 14.6238C6.07897 14.7465 6.0237 14.9528 6.09356 15.1348L6.45646 16.0802C6.61268 16.4872 6.15686 16.8563 5.79126 16.6188L4.94199 16.0673C4.77849 15.9611 4.56521 15.9723 4.41371 16.095L3.62674 16.7323C3.28796 17.0066 2.79605 16.6872 2.90888 16.2661L3.17097 15.288C3.22143 15.0997 3.14489 14.9003 2.98139 14.7941L2.13212 14.2426Z" fill="#B4B4B4"/>
<path opacity="0.46" fill-rule="evenodd" clip-rule="evenodd" d="M10.1339 16.246V14.6862C8.45173 14.2181 6.53257 13.8285 4.17682 13.6936L4.09106 15.1912C6.50387 15.3293 8.42973 15.7482 10.1339 16.246Z" fill="#B4B4B4"/>
<path opacity="0.5" fill-rule="evenodd" clip-rule="evenodd" d="M34.5339 18.2C34.2025 18.2 33.9339 17.9314 33.9339 17.6V17.3C33.9339 17.1343 33.7996 17 33.6339 17V17C33.4682 17 33.3339 17.1343 33.3339 17.3V17.6C33.3339 17.9314 33.0653 18.2 32.7339 18.2H32.4339C32.2682 18.2 32.1339 18.3343 32.1339 18.5V18.5C32.1339 18.6657 32.2682 18.8 32.4339 18.8H32.7339C33.0653 18.8 33.3339 19.0686 33.3339 19.4V19.7C33.3339 19.8657 33.4682 20 33.6339 20V20C33.7996 20 33.9339 19.8657 33.9339 19.7V19.4C33.9339 19.0686 34.2025 18.8 34.5339 18.8H34.8339C34.9996 18.8 35.1339 18.6657 35.1339 18.5V18.5C35.1339 18.3343 34.9996 18.2 34.8339 18.2H34.5339Z" fill="#B4B4B4"/>
<path fill-rule="evenodd" clip-rule="evenodd" d="M37.2 14.1C36.7582 14.1 36.4 13.7418 36.4 13.3V12.9C36.4 12.6791 36.2209 12.5 36 12.5V12.5C35.7791 12.5 35.6 12.6791 35.6 12.9L35.6 13.3C35.6 13.7418 35.2418 14.1 34.8 14.1H34.4C34.1791 14.1 34 14.2791 34 14.5V14.5C34 14.7209 34.1791 14.9 34.4 14.9H34.8C35.2418 14.9 35.6 15.2582 35.6 15.7L35.6 16.1C35.6 16.3209 35.7791 16.5 36 16.5V16.5C36.2209 16.5 36.4 16.3209 36.4 16.1V15.7C36.4 15.2582 36.7582 14.9 37.2 14.9H37.6C37.8209 14.9 38 14.7209 38 14.5V14.5C38 14.2791 37.8209 14.1 37.6 14.1H37.2Z" fill="#B4B4B4"/>
</svg>
