<svg width="35" height="18" viewBox="0 0 35 18" fill="none" xmlns="http://www.w3.org/2000/svg">
<path fill-rule="evenodd" clip-rule="evenodd" d="M2.26758 0C1.16301 0 0.267578 0.89543 0.267578 2V16C0.267578 17.1046 1.16301 18 2.26758 18H32.2676C33.3721 18 34.2676 17.1046 34.2676 16V2C34.2676 0.895431 33.3721 0 32.2676 0H2.26758ZM14.2676 3C13.7153 3 13.2676 3.44772 13.2676 4V14C13.2676 14.5523 13.7153 15 14.2676 15H20.2676C20.8199 15 21.2676 14.5523 21.2676 14V4C21.2676 3.44772 20.8199 3 20.2676 3H14.2676ZM23 4C23 3.44772 23.4477 3 24 3H30C30.5523 3 31 3.44772 31 4V14C31 14.5523 30.5523 15 30 15H24C23.4477 15 23 14.5523 23 14V4ZM4.26758 3C3.71529 3 3.26758 3.44772 3.26758 4V14C3.26758 14.5523 3.71529 15 4.26758 15H10.2676C10.8199 15 11.2676 14.5523 11.2676 14V4C11.2676 3.44772 10.8199 3 10.2676 3H4.26758Z" fill="#828B95"/>
<path d="M6.98226 5.87811C7.07207 5.60172 7.46309 5.60172 7.5529 5.87812L8.09828 7.55664C8.13844 7.68024 8.25363 7.76393 8.3836 7.76393H10.1485C10.4391 7.76393 10.5599 8.13582 10.3248 8.30664L8.897 9.34402C8.79185 9.42041 8.74785 9.55582 8.78802 9.67943L9.3334 11.358C9.42321 11.6343 9.10686 11.8642 8.87175 11.6934L7.44391 10.656C7.33877 10.5796 7.19639 10.5796 7.09124 10.656L5.66341 11.6934C5.42829 11.8642 5.11195 11.6343 5.20175 11.358L5.74714 9.67943C5.7873 9.55582 5.7433 9.42041 5.63816 9.34402L4.21032 8.30664C3.97521 8.13582 4.09604 7.76393 4.38666 7.76393H6.15156C6.28153 7.76393 6.39671 7.68024 6.43688 7.55664L6.98226 5.87811Z" fill="#828B95"/>
<path d="M16.9823 5.87811C17.0721 5.60172 17.4631 5.60172 17.5529 5.87812L18.0983 7.55664C18.1384 7.68024 18.2536 7.76393 18.3836 7.76393H20.1485C20.4391 7.76393 20.5599 8.13582 20.3248 8.30664L18.897 9.34402C18.7919 9.42041 18.7479 9.55582 18.788 9.67943L19.3334 11.358C19.4232 11.6343 19.1069 11.8642 18.8717 11.6934L17.4439 10.656C17.3388 10.5796 17.1964 10.5796 17.0912 10.656L15.6634 11.6934C15.4283 11.8642 15.1119 11.6343 15.2018 11.358L15.7471 9.67943C15.7873 9.55582 15.7433 9.42041 15.6382 9.34402L14.2103 8.30664C13.9752 8.13582 14.096 7.76393 14.3867 7.76393H16.1516C16.2815 7.76393 16.3967 7.68024 16.4369 7.55664L16.9823 5.87811Z" fill="#828B95"/>
<path d="M26.9823 5.87811C27.0721 5.60172 27.4631 5.60172 27.5529 5.87812L28.0983 7.55664C28.1385 7.68024 28.2537 7.76393 28.3836 7.76393H30.1485C30.4391 7.76393 30.56 8.13582 30.3249 8.30664L28.897 9.34402C28.7919 9.42041 28.7479 9.55582 28.788 9.67943L29.3334 11.358C29.4232 11.6343 29.1069 11.8642 28.8718 11.6934L27.4439 10.656C27.3388 10.5796 27.1964 10.5796 27.0913 10.656L25.6634 11.6934C25.4283 11.8642 25.112 11.6343 25.2018 11.358L25.7472 9.67943C25.7873 9.55582 25.7433 9.42041 25.6382 9.34402L24.2103 8.30664C23.9752 8.13582 24.0961 7.76393 24.3867 7.76393H26.1516C26.2816 7.76393 26.3967 7.68024 26.4369 7.55664L26.9823 5.87811Z" fill="#828B95"/>
</svg>
