<svg width="100" height="100" viewBox="0 0 100 100" fill="none" xmlns="http://www.w3.org/2000/svg">
<path d="M50.0998 15.8682C68.9762 15.8682 84.3315 31.2235 84.3315 50.0998C84.3315 68.9762 68.9762 84.3315 50.0998 84.3315C31.2235 84.3315 15.8682 68.9762 15.8682 50.0998C15.8682 31.2235 31.2235 15.8682 50.0998 15.8682Z" fill="white"/>
<path d="M50.0998 15.8682C31.2235 15.8682 15.8682 31.2235 15.8682 50.0998C15.8682 50.1194 15.8682 50.139 15.8682 50.1585H23.6534C23.6534 35.566 35.5269 23.7121 50.0998 23.7121C64.6923 23.7121 76.5462 35.5856 76.5462 50.1585H84.3315C84.3315 50.139 84.3315 50.1194 84.3315 50.0998C84.3315 31.2235 68.9762 15.8682 50.0998 15.8682Z" fill="#C0D2EA"/>
<path d="M76.5462 50.1587C76.5462 64.7512 64.6727 76.6051 50.0998 76.6051C35.5074 76.6051 23.6534 64.7316 23.6534 50.1587H15.8682C15.9073 69.0155 31.2431 84.3317 50.0998 84.3317C68.9566 84.3317 84.3119 68.9959 84.3315 50.1587H76.5462Z" fill="#96B4DC"/>
<path d="M50.1002 15.8685C68.9765 15.8685 84.3319 31.2239 84.3319 50.1002C84.3319 68.9765 68.9765 84.3319 50.1002 84.3319C31.2239 84.3319 15.8685 68.9765 15.8685 50.1002C15.8685 31.2239 31.2239 15.8685 50.1002 15.8685ZM50.1002 0.200195C22.5388 0.200195 0.200195 22.5388 0.200195 50.1002C0.200195 77.6616 22.5388 100 50.1002 100C77.6616 100 100 77.6616 100 50.1002C100 22.5388 77.6616 0.200195 50.1002 0.200195Z" fill="#14143C"/>
<path d="M37.4049 56.2029H39.2437C39.2828 55.3031 39.6153 53.6404 39.1067 52.7015C38.5395 51.6452 37.2093 50.6476 35.9966 49.4935C35.5075 48.9849 34.3926 48.2024 34.3926 46.8136C34.3926 44.9749 35.7618 44.4663 36.7008 44.4467C37.0333 44.4272 37.3658 44.4859 37.6788 44.5837C37.8157 43.9773 38.07 43.3513 38.4612 42.8232C37.9135 42.6276 37.3267 42.5298 36.7399 42.5493C34.9598 42.5885 32.4756 43.8012 32.4756 46.8136C32.4756 48.8088 33.747 50.0021 34.8816 51.1562C36.1726 52.4472 37.2289 53.66 37.4049 56.2029Z" fill="#14143C"/>
<path d="M62.7949 57.6699H37.4048V59.4891H62.7949V57.6699Z" fill="#14143C"/>
<path d="M62.7949 60.9561H37.4048V62.7752H62.7949V60.9561Z" fill="#14143C"/>
<path d="M42.7647 56.2028H44.7599C44.9359 54.6771 45.5228 53.3665 45.1707 52.232C44.7599 50.9605 43.0972 49.6108 42.0996 48.535C41.2976 47.6547 40.789 46.8723 40.789 45.7769C40.789 44.5641 41.7671 43.4491 43.2146 43.4491C44.8773 43.4491 45.8553 44.9944 47.8701 44.9944V43.1557C46.6964 43.0383 45.5423 41.5908 43.2146 41.5908C41.9822 41.5908 40.8477 42.0407 40.0653 42.8623C39.3024 43.6447 38.8916 44.701 38.8916 45.8551C38.8916 47.596 39.7327 48.6719 40.5738 49.7086C41.6301 51.0583 42.8234 52.6232 42.7647 56.2028Z" fill="#14143C"/>
<path d="M63.499 44.4468C64.4379 44.4859 65.8072 44.9749 65.8072 46.8137C65.8072 48.2025 64.6922 48.9849 64.2032 49.4935C62.9904 50.6476 61.6603 51.6452 61.093 52.7015C60.5844 53.6404 60.8974 55.3031 60.9561 56.2029H62.7948C62.9904 53.66 64.0272 52.4276 65.3182 51.1366C66.4723 49.9825 67.7242 48.7893 67.7242 46.7941C67.7242 43.7817 65.2399 42.5494 63.4599 42.5298C62.8926 42.5102 62.2862 42.608 61.7385 42.8037C62.1298 43.3122 62.384 43.9578 62.521 44.5641C62.8535 44.4663 63.186 44.4272 63.499 44.4468Z" fill="#14143C"/>
<path d="M52.3301 44.9944C54.3449 44.9944 55.3229 43.4491 56.9856 43.4491C58.4527 43.4491 59.4111 44.5641 59.4111 45.7769C59.4111 46.8723 58.9026 47.6547 58.1006 48.535C57.1225 49.6108 55.4598 50.9605 55.0295 52.232C54.6578 53.3665 55.2447 54.6771 55.4403 56.2028H57.4355C57.3768 52.6232 58.57 51.0388 59.6263 49.7086C60.4479 48.6719 61.3086 47.596 61.3086 45.8551C61.3086 44.7206 60.8978 43.6447 60.1349 42.8623C59.3329 42.0407 58.2179 41.5908 56.9856 41.5908C54.6578 41.5908 53.5233 43.0383 52.3301 43.1557V44.9944Z" fill="#14143C"/>
<path d="M49.122 41.6885V47.1264C49.122 50.5887 48.2026 51.4494 48.2026 52.6035C48.2026 54.051 48.7895 54.5205 49.122 56.1245H51.0781C51.3911 54.5205 51.9975 54.051 51.9975 52.6035C51.9975 51.4494 51.0781 50.5887 51.0781 47.1264C51.0781 47.1264 51.0781 47.1264 51.0781 47.146V41.6885H49.122Z" fill="#14143C"/>
<path d="M49.2393 35.5856C48.2025 35.9377 47.4592 36.9158 47.4592 38.0503C47.4592 39.4978 48.6329 40.6715 50.0804 40.6715C51.5279 40.6715 52.7016 39.4978 52.7016 38.0503C52.7016 36.8962 51.9582 35.9377 50.9215 35.5856V33.6687H52.8385V31.9669H50.9215V29.9912H49.2197V31.9669H47.3027V33.6687H49.2197V35.5856H49.2393ZM50.1 37.0527C50.6477 37.0527 51.1171 37.5026 51.1171 38.0699C51.1171 38.6176 50.6672 39.0871 50.1 39.0871C49.5327 39.0871 49.0828 38.6372 49.0828 38.0699C49.0828 37.5026 49.5327 37.0527 50.1 37.0527Z" fill="#14143C"/>
<path d="M25.1986 19.389L22.7926 16.357L21.7363 17.1981L21.1299 16.4157L24.1227 14.0488L24.7291 14.8313L23.6728 15.6528L26.0788 18.6848L25.1986 19.389Z" fill="white"/>
<path d="M27.8395 17.4329L25.1597 13.3838L26.1182 12.7578L28.798 16.8069L27.8395 17.4329Z" fill="white"/>
<path d="M29.7365 16.1811L27.3892 11.9364L28.3868 11.3887L30.2646 14.7727L31.986 13.8142L32.4554 14.6749L29.7365 16.1811Z" fill="white"/>
<path d="M33.1601 14.3424L31.2432 9.88252L32.2995 9.43262L33.8252 12.9927L35.6248 12.2103L36.016 13.1101L33.1601 14.3424Z" fill="white"/>
<path d="M39.6738 11.9362L39.0282 10.8994L37.659 11.3102L37.6981 12.523L36.5636 12.8751L36.5049 7.82835L38.0502 7.35889L40.7887 11.6036L39.6738 11.9362ZM37.5807 8.51298L37.5221 8.53254L37.6003 10.4104L38.5588 10.117L37.5807 8.51298Z" fill="white"/>
<path d="M43.0187 11.1928L41.4929 11.4471L40.6909 6.67419L42.2754 6.40034C43.8989 6.12648 44.7205 6.67419 44.9943 8.29775C45.3073 10.0778 44.7792 10.8994 43.0187 11.1928ZM42.4905 7.35882L41.9819 7.43707L42.471 10.2734L42.9991 10.1756C44.0163 9.99955 44.0358 9.35404 43.8989 8.49336C43.7424 7.63268 43.449 7.20234 42.4905 7.35882Z" fill="white"/>
<path d="M46.3441 10.7039L46.0898 5.85281L49.4934 5.67676L49.5521 6.65481L47.2831 6.77217L47.3222 7.67198L49.1609 7.57417L49.2196 8.5131L47.3809 8.6109L47.4395 9.64763L49.7477 9.53027L49.8064 10.5083L46.3441 10.7039Z" fill="white"/>
<path d="M50.7061 10.5474L50.9408 5.69629L52.0753 5.75497L51.8797 9.62804L53.8358 9.72585L53.7771 10.7039L50.7061 10.5474Z" fill="white"/>
<path d="M56.6919 9.15884L55.9877 8.92411C55.3422 8.70894 54.9314 8.25904 55.0683 7.43748C55.2248 6.43987 56.1051 6.02909 57.1614 6.20514C57.9438 6.3225 58.4915 6.63548 58.8045 7.1245L57.8851 7.65265C57.6308 7.33967 57.2005 7.20275 56.9462 7.16362C56.4963 7.08538 56.242 7.28099 56.2029 7.53528C56.1637 7.78958 56.3398 7.96562 56.731 8.08299L57.2005 8.21992C58.0807 8.47421 58.5893 8.92411 58.4328 9.8826C58.2763 10.8998 57.2983 11.2714 56.2811 11.1149C55.4204 10.978 54.7749 10.7042 54.4424 10.1369L55.3813 9.58918C55.5965 9.8826 55.9877 10.0586 56.4376 10.1369C56.8875 10.2151 57.2005 10.0978 57.2396 9.76523C57.2983 9.41313 57.1222 9.29577 56.6919 9.15884Z" fill="white"/>
<path d="M58.9805 11.5257L60.2715 6.85059L63.5577 7.75039L63.3034 8.70888L61.1126 8.10249L60.8779 8.98273L62.6579 9.47175L62.4036 10.3716L60.6236 9.88253L60.3497 10.8801L62.5797 11.4865L62.3254 12.445L58.9805 11.5257Z" fill="white"/>
<path d="M64.7314 13.3251L66.7071 8.88477L69.9738 10.3518L69.563 11.2516L67.3526 10.254L66.9614 11.1343L68.7414 11.9363L68.3502 12.8165L66.5702 12.0145L65.7877 13.775L64.7314 13.3251Z" fill="white"/>
<path d="M71.0495 16.5524L71.1669 14.5768L70.5409 14.2051L69.6411 15.7113L68.6631 15.1245L71.1278 10.958L72.7904 11.9361C73.9445 12.6207 74.1206 13.364 73.6511 14.1464C73.3186 14.6942 72.8296 14.9289 72.2623 14.8898L72.1841 17.2371L71.0495 16.5524ZM72.2232 12.7576L71.6168 12.386L71.0104 13.4031L71.5972 13.7552C72.1645 14.0878 72.4384 13.9508 72.6144 13.6379C72.81 13.3053 72.7318 13.0706 72.2232 12.7576Z" fill="white"/>
<path d="M75.1572 19.5065L75.6267 18.3915L74.5117 17.5113L73.5336 18.2546L72.5947 17.5309L76.7025 14.5771L77.974 15.5748L76.0961 20.2694L75.1572 19.5065ZM76.7612 15.8486L76.7221 15.8095L75.2355 16.9636L76.0375 17.5895L76.7612 15.8486Z" fill="white"/>
<path d="M8.78759 66.3746C8.59198 65.866 8.47461 65.1618 8.47461 64.9075L9.60914 64.4381L9.68739 64.6337C9.21793 65.0445 8.88539 65.6704 9.13968 66.2768C9.41354 66.981 10.0786 67.294 10.8024 67.0006C12.1716 66.4529 11.487 63.6165 12.9736 63.0297C13.9321 62.6385 14.7341 63.0688 15.1645 64.1251C15.3796 64.6532 15.4774 65.3574 15.497 65.6117L14.4994 66.0225L14.4211 65.8269C14.7928 65.3183 15.0667 64.8293 14.8124 64.2033C14.5581 63.5578 14.1082 63.3818 13.58 63.597C12.3672 64.086 13.0519 66.981 11.4674 67.6265C10.2351 68.1351 9.23749 67.47 8.78759 66.3746Z" fill="white"/>
<path d="M13.5607 71.2843L13.0912 70.4432L12.0154 71.0691C11.8785 71.1474 11.8002 71.2843 11.8198 71.4408L11.9371 72.1254L11.8198 72.2037L10.5679 70.0324L10.6852 69.9542L11.1351 70.3454C11.2525 70.4432 11.409 70.4432 11.5459 70.3649L14.4801 68.6827C14.617 68.6045 14.6952 68.4675 14.6757 68.3306L14.5779 67.7438L14.6952 67.6655L16.0254 69.9933C16.5731 70.9713 16.8078 71.7342 15.8689 72.2819C14.7344 72.9274 14.0888 72.2232 13.5607 71.2843ZM15.6537 70.0324L15.2038 69.2304L13.3651 70.2867L13.8345 71.1083C14.0888 71.5582 14.4409 72.1645 15.3994 71.6168C16.0841 71.2256 16.0449 70.717 15.6537 70.0324Z" fill="white"/>
<path d="M13.8735 75.4511L13.9909 75.3728L14.4799 75.7053C14.5973 75.7836 14.7733 75.764 14.8907 75.6662L17.6097 73.6514C17.7466 73.5536 17.7857 73.4167 17.7466 73.2798L17.5706 72.7125L17.6879 72.6343L19.1159 74.5513L18.9985 74.6295L18.5095 74.297C18.3921 74.2187 18.2356 74.2187 18.0987 74.3165L15.3797 76.3313C15.2428 76.4291 15.1841 76.566 15.2232 76.7225L15.3993 77.2898L15.2819 77.368L13.8735 75.4511Z" fill="white"/>
<path d="M19.0961 81.6712L16.2793 78.6197L16.3771 78.5219L16.9052 78.7957C17.0422 78.874 17.1987 78.8348 17.316 78.7175L19.8003 76.4093C19.9176 76.2919 19.9568 76.155 19.8981 76.0181L19.6633 75.4704L19.7611 75.3726L21.3847 77.1135L21.2869 77.2113L20.7588 76.9374C20.6218 76.8592 20.4849 76.8983 20.3675 77.0157L17.6094 79.5782L18.3723 80.3997C18.7635 80.8105 18.9005 80.9474 19.409 80.8692L20.0741 80.7518L20.1915 80.8887L19.0961 81.6712Z" fill="white"/>
<path d="M23.5952 85.5247L20.3872 82.884L20.485 82.7666L21.0327 82.9818C21.1696 83.0405 21.3261 82.9818 21.4239 82.8449L23.5756 80.2433C23.6734 80.1259 23.693 79.9694 23.6148 79.8325L23.3018 79.3239L23.3996 79.2065L25.2383 80.7323L25.1405 80.8497L24.5733 80.6541C24.4363 80.5954 24.2798 80.6541 24.182 80.7714L21.8152 83.6469L22.6954 84.3706C23.1453 84.7423 23.2822 84.8401 23.7908 84.7032L24.4363 84.5076L24.5733 84.6249L23.5952 85.5247Z" fill="white"/>
<path d="M29.0916 89.0653L25.3555 86.7962L25.4337 86.6789L26.0205 86.8158C26.1575 86.8549 26.314 86.7767 26.3922 86.6202L28.1331 83.7251C28.2114 83.5882 28.2114 83.4317 28.1136 83.3144L27.7419 82.8449L27.8201 82.7275L31.3802 84.8792L30.7543 85.8964L30.5978 85.7986V85.1922C30.5978 84.8597 30.4609 84.7228 30.0305 84.4489L29.0134 83.8425L28.0353 85.4661L28.9351 86.0138C29.0329 86.0725 29.3068 86.2094 29.4828 86.092L29.9132 85.8573L30.0501 85.9355L29.2677 87.2461L29.1307 87.1679L29.0916 86.6984C29.072 86.5224 28.9156 86.3659 28.7786 86.2681L27.8788 85.7204L26.9203 87.3244L28.1136 88.0481C28.6026 88.3415 28.7004 88.3807 29.209 88.2046L29.7371 88.009L29.8936 88.1068L29.0916 89.0653Z" fill="white"/>
<path d="M35.4098 91.8236L35.4685 91.6867L36.0944 91.7063C36.2509 91.7063 36.3487 91.6085 36.4074 91.4715L37.5615 88.4396L37.6789 88.1657L37.6593 88.1462C37.6202 88.2244 37.5224 88.3222 37.4637 88.3809L34.3339 91.4911L34.0405 91.3737L33.7276 86.9725C33.7276 86.8943 33.7276 86.7573 33.7471 86.6987H33.7276L33.6493 86.953L32.4757 89.9849C32.417 90.1414 32.4365 90.2783 32.5539 90.3761L33.0234 90.7673L32.9647 90.9043L31.1455 90.2196L31.2042 90.0827L31.8301 90.1023C31.9866 90.1023 32.0844 90.0045 32.1431 89.848L33.3168 86.7573C33.3755 86.5813 33.4146 86.4444 33.2777 86.3466L32.7886 85.9162L32.8473 85.7793L34.4709 86.4052L34.7252 90.6304L37.7375 87.6376L39.322 88.244L39.2633 88.3809H38.6569C38.4613 88.3809 38.3635 88.557 38.2657 88.8112L37.1703 91.7454C37.1116 91.9019 37.1312 92.0388 37.2485 92.1366L37.6984 92.5278L37.6397 92.6648L35.4098 91.8236Z" fill="white"/>
<path d="M44.4278 89.5154C44.2713 89.5545 44.1148 89.7502 43.9974 89.8675L42.2565 91.6476L42.0022 92.8799C41.9631 93.0364 42.0218 93.1929 42.1587 93.2711L42.6477 93.5645L42.6282 93.7015L40.32 93.2516L40.3395 93.1146L40.9068 93.0364C41.0633 93.0168 41.1611 92.8995 41.2002 92.743L41.4349 91.5302L40.5351 89.222C40.496 89.0851 40.3982 88.8699 40.2808 88.7917L39.9092 88.4983L39.9287 88.3613L42.1 88.7917L42.0804 88.9286L41.611 88.9873C41.4936 89.0068 41.4349 89.0655 41.4154 89.1438C41.3958 89.222 41.3958 89.3198 41.4349 89.4176L42.1587 91.3346H42.1783L43.5084 89.848C43.5866 89.7502 43.6453 89.6523 43.6649 89.5545C43.6844 89.4567 43.6453 89.3981 43.5671 89.3589L43.1563 89.1438L43.1759 89.0068L44.8777 89.3394L44.8581 89.4763L44.4278 89.5154Z" fill="white"/>
<path d="M51.2937 89.9456C51.1372 89.9847 51.0589 90.1216 51.0589 90.2781L50.9416 94.3468L50.4525 94.3273L47.3032 90.239L47.2054 93.5448C47.2054 93.7013 47.2837 93.8382 47.4206 93.8969L47.9683 94.1121V94.249L46.0122 94.1903V94.0534L46.5795 93.8773C46.7164 93.8382 46.8142 93.7013 46.8142 93.5252L46.912 90.1412C46.912 89.9847 46.8338 89.8478 46.6968 89.7891L46.1491 89.5739V89.437L47.7336 89.4761L50.5895 93.1145L50.6677 90.239C50.6677 90.0825 50.5895 89.9456 50.4525 89.8869L49.9048 89.6717V89.5348L51.8609 89.5935V89.7304L51.2937 89.9456Z" fill="white"/>
<path d="M56.2619 93.8775L53.9537 94.21L53.9341 94.0731L54.4623 93.7992C54.5992 93.721 54.6579 93.5841 54.6383 93.4276L54.1493 90.0827C54.1297 89.9262 54.0319 89.8088 53.8754 89.7697L53.2886 89.6523L53.269 89.5154L55.5577 89.1829C57.5138 88.8894 58.5701 89.4176 58.8048 91.0803C59.0395 92.7234 58.081 93.6232 56.2619 93.8775ZM55.2056 89.5545L54.9122 89.5936L55.499 93.6623L55.9685 93.6036C57.6703 93.3493 58.1984 92.5865 57.9832 91.1976C57.7681 89.6523 56.9856 89.3002 55.2056 89.5545Z" fill="white"/>
<path d="M60.8979 92.9972L60.8588 92.8602L61.3478 92.5277C61.4652 92.4495 61.5043 92.293 61.4652 92.1365L60.5654 88.8894C60.5263 88.7329 60.4089 88.6351 60.2524 88.6155L59.6656 88.5764L59.6265 88.4395L61.9347 87.7939L61.9738 87.9309L61.4848 88.283C61.3674 88.3612 61.3283 88.5177 61.3674 88.6742L62.2672 91.9213C62.3063 92.0778 62.4237 92.1952 62.5802 92.1952L63.167 92.2343L63.2061 92.3712L60.8979 92.9972Z" fill="white"/>
<path d="M68.4288 88.2438C68.331 88.3807 68.331 88.4394 68.3701 88.5372L69.0156 90.0825L68.8787 90.1412L68.4288 90.1608C68.2919 90.4346 67.8615 90.7672 67.2747 91.0019C66.0815 91.4909 64.7318 91.3149 64.0276 89.6131C63.3234 87.9308 64.3014 86.7963 65.5142 86.2877C66.0619 86.053 66.9226 85.916 67.1769 85.8965L67.6072 86.9528L67.4312 87.031C66.8444 86.5224 66.4336 86.3073 65.5338 86.6789C64.6144 87.0701 64.2623 87.8526 64.8491 89.2414C65.4751 90.7476 66.2771 91.041 67.3138 90.6107C67.6855 90.4542 68.0571 90.2195 68.1941 90.0434L67.6855 88.8306C67.6464 88.7328 67.4899 88.6546 67.3334 88.6741L66.9617 88.6937L66.903 88.5372L68.6244 87.833L68.6831 87.9895L68.4288 88.2438Z" fill="white"/>
<path d="M74.1605 87.2072L74.0822 87.0899L74.4539 86.6204C74.5517 86.503 74.5321 86.3466 74.4539 86.2096L73.6128 84.8795L71.5198 86.2096L72.3609 87.5398C72.4391 87.6767 72.5956 87.7549 72.7325 87.7158L73.2998 87.5789L73.378 87.6963L71.3633 88.9677L71.285 88.8504L71.6567 88.3809C71.7545 88.2635 71.7349 88.107 71.6567 87.9701L69.8375 85.1142C69.7593 84.9773 69.6223 84.9186 69.4659 84.9382L68.879 85.0751L68.8008 84.9577L70.8156 83.6863L70.8938 83.8036L70.5221 84.2731C70.4243 84.3905 70.4243 84.547 70.5221 84.6839L71.3241 85.9553L73.4172 84.6252L72.6152 83.3537C72.5369 83.2168 72.4 83.1581 72.2435 83.1777L71.6567 83.3146L71.5784 83.1972L73.5932 81.9258L73.6715 82.0431L73.2998 82.5126C73.202 82.63 73.202 82.7865 73.2998 82.9234L75.119 85.7793C75.1972 85.9162 75.3537 85.9945 75.4906 85.9553L76.0579 85.8184L76.1361 85.9358L74.1605 87.2072Z" fill="white"/>
<path d="M81.1436 81.6321L77.8769 84.5467L77.7791 84.4489L78.0725 83.9403C78.1507 83.8034 78.1116 83.6469 77.9943 83.5295L75.7447 81.0061C75.6469 80.8888 75.4904 80.8497 75.3535 80.9083L74.8058 81.1235L74.708 81.0257L77.8182 78.248L78.6202 79.1283L78.4833 79.2457L77.8964 79.0696C77.5639 78.9718 77.4074 79.05 77.0162 79.4021L76.136 80.1846L77.4074 81.593L78.1899 80.8888C78.2681 80.8105 78.4833 80.5954 78.4246 80.3998L78.3268 79.9107L78.4442 79.8129L79.4613 80.9475L79.344 81.0453L78.8941 80.9475C78.718 80.9083 78.5224 81.0061 78.405 81.1235L77.6226 81.8277L78.8745 83.2165L79.9112 82.2972C80.3416 81.9255 80.4002 81.8277 80.3807 81.28L80.3611 80.7127L80.4981 80.5954L81.1436 81.6321Z" fill="white"/>
<path d="M84.2144 78.2284L82.7473 80.028L82.6299 79.9302L82.8451 79.3825C82.9038 79.2455 82.8451 79.089 82.7082 78.9912L80.087 76.8591C79.9697 76.7613 79.8132 76.7417 79.6762 76.82L79.1677 77.1329L79.0503 77.0351L80.4978 75.2551C81.7497 73.7293 82.8647 73.3968 84.1753 74.4531C85.4858 75.5094 85.3685 76.82 84.2144 78.2284ZM80.4978 75.7637L80.3022 75.9984L83.4906 78.6L83.784 78.2284C84.8599 76.8982 84.723 75.9789 83.6471 75.0986C82.4539 74.101 81.6323 74.3749 80.4978 75.7637Z" fill="white"/>
<path d="M89.3396 70.6191L87.1293 74.3944L87.0119 74.3161L87.1293 73.7293C87.1488 73.5924 87.0706 73.4359 86.9336 73.3576L84.0191 71.6363C83.8821 71.558 83.7256 71.558 83.6083 71.6558L83.1584 72.0471L83.041 71.9688L85.1536 68.3892L86.1903 68.9956L86.0925 69.152L85.4861 69.1716C85.1536 69.1716 85.0167 69.3085 84.7624 69.7584L84.156 70.7756L85.7991 71.7341L86.3273 70.8343C86.3859 70.7365 86.5033 70.4626 86.4055 70.2866L86.1512 69.8562L86.2294 69.7193L87.54 70.4822L87.4422 70.6191L86.9728 70.6582C86.7967 70.6778 86.6402 70.8343 86.562 70.9712L86.0338 71.871L87.6378 72.8099L88.342 71.6167C88.6354 71.1277 88.6746 71.0299 88.479 70.5017L88.2833 69.9736L88.3812 69.8171L89.3396 70.6191Z" fill="white"/>
<path d="M88.1073 62.1886C88.1073 62.3451 88.1855 62.4624 88.342 62.5211L92.1369 63.9686L91.9608 64.4185L87.0706 66.0225L90.1612 67.2157C90.3177 67.2744 90.4742 67.2549 90.572 67.1179L90.9436 66.668L91.0806 66.7267L90.3764 68.5654L90.2394 68.5068L90.259 67.9199C90.259 67.7634 90.1612 67.6461 90.0047 67.5874L86.8554 66.3746C86.6989 66.3159 86.562 66.3355 86.4642 66.4529L86.073 66.9028L85.936 66.8441L86.5033 65.3574L90.8654 63.8708L88.1855 62.8341C88.0291 62.7754 87.8921 62.795 87.7943 62.9319L87.4031 63.3818L87.2662 63.3231L87.9704 61.4844L88.1073 61.5431V62.1886Z" fill="white"/>
</svg>
