<svg width="20" height="20" viewBox="0 0 20 20" fill="none" xmlns="http://www.w3.org/2000/svg">
<path fill-rule="evenodd" clip-rule="evenodd" d="M2.8044 9.09776C3.29291 8.66306 3.80311 8.20094 4.28199 7.76269L5.02083 7.94738C5.1166 8.95328 5.27752 9.83429 5.53351 10.6819C5.75416 11.4126 6.04313 12.1107 6.41431 12.8364L5.69998 13.8363C4.49983 13.7144 3.3981 13.5153 2.12774 13.2191C1.7488 12.2939 1.52831 11.2871 1.5 10.2323C1.88494 9.90853 2.33569 9.51487 2.8044 9.09776ZM1.55944 8.96361C1.76174 8.78714 1.97348 8.60033 2.19003 8.40762C2.73831 7.91972 3.31472 7.39649 3.84281 6.91188L4.28493 5.53667L3.46508 4.56085C2.44458 5.78485 1.7617 7.3001 1.55944 8.96361ZM2.65374 14.2835C3.55962 15.8328 4.94186 17.0698 6.59959 17.7935C6.63106 17.6301 6.66577 17.4537 6.70335 17.2682C6.7884 16.8483 6.88877 16.3785 7.00012 15.9054L6.02819 14.7949C4.85779 14.6947 3.80239 14.5287 2.65374 14.2835ZM7.47795 18.1202C8.27436 18.367 9.12087 18.5 9.99844 18.5C11.218 18.5 12.3776 18.2433 13.4261 17.7809L13.5689 16.5666C12.8346 16.5554 12.1619 16.4883 11.5046 16.3549C10.816 16.215 10.1529 16.004 9.46079 15.7162L7.87416 16.2261C7.77626 16.648 7.68672 17.068 7.60904 17.4516C7.56014 17.693 7.51615 17.9189 7.47795 18.1202ZM4.92373 4.86055L4.09932 3.8793C5.21047 2.80848 6.61251 2.03733 8.17524 1.69592C8.04722 1.86928 7.91426 2.0481 7.77792 2.23045C7.21983 2.97686 6.60796 3.77846 6.05168 4.49967L4.92373 4.86055ZM9.44944 1.51744C9.17327 1.90129 8.85474 2.33333 8.51806 2.78365C8.00164 3.47429 7.44002 4.21122 6.91845 4.88869L7.12584 5.71807C8.8331 5.83918 10.2338 6.12964 11.3359 6.47568C11.5789 6.55199 11.8081 6.63123 12.0235 6.71224L13.2834 6.05905L13.0395 2.05996C12.0953 1.69821 11.07 1.5 9.99844 1.5C9.81401 1.5 9.63095 1.50587 9.44944 1.51744ZM13.9918 2.49417L14.2114 6.09499L15.6591 7.60032L18.0805 7.3555C17.394 5.25681 15.9125 3.51779 13.9918 2.49417ZM18.3217 8.25974L15.998 8.49469L15.1686 9.97537C15.5813 11.0976 15.9712 12.52 16.1283 14.0652H17.4665C18.1255 12.8576 18.5 11.4725 18.5 10C18.5 9.40358 18.4386 8.82149 18.3217 8.25974ZM6.41815 10.4149C6.15995 9.55988 6.00271 8.65515 5.9152 7.5683L6.77234 6.6211C8.54415 6.72386 9.96911 7.01495 11.059 7.35715C11.2352 7.41245 11.4022 7.46896 11.5601 7.52607L12.2356 9.38334C11.109 10.6171 10.1572 11.5962 8.98731 12.7316L7.17564 12.2944C6.85515 11.6537 6.60826 11.0444 6.41815 10.4149ZM9.88616 14.8922C10.5068 15.1461 11.0906 15.328 11.6886 15.4494C12.4735 15.6088 13.2965 15.6668 14.2753 15.6368L15.2531 14.6982C15.1531 13.0699 14.7559 11.5503 14.3309 10.375L12.7966 10.139C11.7083 11.3264 10.7705 12.2887 9.62833 13.3971L9.88616 14.8922Z" fill="#B4B4B4"/>
</svg>
