<svg width="100" height="100" viewBox="0 0 100 100" fill="none" xmlns="http://www.w3.org/2000/svg">
<path fill-rule="evenodd" clip-rule="evenodd" d="M67.9633 16C83.5536 16 96.192 28.6384 96.192 44.2287V46.6208C96.192 60.8899 84.6246 72.4574 70.3554 72.4574C69.179 72.4574 68.3488 73.6104 68.7218 74.726L71.2768 82.3681C72.4249 85.8019 68.2743 88.5309 65.5767 86.1159L51.1696 73.2177C50.6228 72.7281 49.9145 72.4574 49.1805 72.4574H32.6774C17.0872 72.4574 4.44873 59.819 4.44873 44.2287C4.44873 28.6384 17.0871 16 32.6774 16H67.9633ZM29.1487 51.2859C33.0463 51.2859 36.2059 48.1263 36.2059 44.2288C36.2059 40.3312 33.0463 37.1716 29.1487 37.1716C25.2511 37.1716 22.0915 40.3312 22.0915 44.2288C22.0915 48.1263 25.2511 51.2859 29.1487 51.2859ZM57.3774 44.2288C57.3774 48.1263 54.2178 51.2859 50.3203 51.2859C46.4227 51.2859 43.2631 48.1263 43.2631 44.2288C43.2631 40.3312 46.4227 37.1716 50.3203 37.1716C54.2178 37.1716 57.3774 40.3312 57.3774 44.2288ZM71.4919 51.2859C75.3894 51.2859 78.549 48.1263 78.549 44.2288C78.549 40.3312 75.3894 37.1716 71.4919 37.1716C67.5943 37.1716 64.4347 40.3312 64.4347 44.2288C64.4347 48.1263 67.5943 51.2859 71.4919 51.2859Z" fill="#828B95"/>
</svg>
