<svg width="100" height="100" viewBox="0 0 100 100" fill="none" xmlns="http://www.w3.org/2000/svg">
<path fill-rule="evenodd" clip-rule="evenodd" d="M15 14C15 10.6863 17.6863 8 21 8H68C71.3137 8 74 10.6863 74 14V53.6818C74 56.0962 72.0393 58.0515 69.625 58.045C60.4506 58.0202 53 65.458 53 74.6324C53 77.0435 51.0454 79 48.6344 79H21C17.6863 79 15 76.3137 15 73V14ZM24 22C24 19.7909 25.7909 18 28 18H61C63.2091 18 65 19.7909 65 22C65 24.2091 63.2091 26 61 26H28C25.7909 26 24 24.2091 24 22ZM28 36C25.7909 36 24 37.7909 24 40C24 42.2091 25.7909 44 28 44H61C63.2091 44 65 42.2091 65 40C65 37.7909 63.2091 36 61 36H28ZM24 58C24 55.7909 25.7909 54 28 54H38C40.2091 54 42 55.7909 42 58C42 60.2091 40.2091 62 38 62H28C25.7909 62 24 60.2091 24 58Z" fill="#828B95"/>
<path fill-rule="evenodd" clip-rule="evenodd" d="M72.5 92C80.5081 92 87 85.5081 87 77.5C87 69.4919 80.5081 63 72.5 63C64.4919 63 58 69.4919 58 77.5C58 85.5081 64.4919 92 72.5 92ZM79.4678 75.3679C80.4441 74.3916 80.4441 72.8086 79.4678 71.8323C78.4915 70.856 76.9086 70.856 75.9323 71.8323L69.9 77.8646L68.6345 76.599C67.6582 75.6227 66.0752 75.6227 65.0989 76.599C64.1226 77.5753 64.1226 79.1582 65.0989 80.1345L67.5194 82.555C68.8342 83.8698 70.9659 83.8698 72.2806 82.555L79.4678 75.3679Z" fill="#828B95"/>
</svg>
