<svg width="85" height="102" viewBox="0 0 85 102" fill="none" xmlns="http://www.w3.org/2000/svg">
<path fill-rule="evenodd" clip-rule="evenodd" d="M59.1445 36.725H65.2409C67.6064 36.725 69.5169 38.6361 69.5176 41.0017V61.0208C69.1801 61.007 68.8409 61 68.5 61C54.969 61 44 71.969 44 85.5C44 85.8954 44.0094 86.2886 44.0279 86.6795H4.2766C1.91115 86.6795 0 84.7684 0 82.4028V41.0017C0 38.6363 1.91098 36.725 4.2766 36.725H10.373V24.7139C10.373 11.2469 21.2919 0.328125 34.7587 0.328125C48.2257 0.328125 59.1445 11.2473 59.1445 24.7139V36.725ZM37.9437 73.9407C39.3083 73.9407 40.4 72.5754 40.0363 71.2109L38.2162 63.4763C40.5826 62.2933 42.2201 59.8369 42.2201 56.9249C42.2201 52.8305 38.9445 49.5547 34.8499 49.5547C30.7555 49.5547 27.4799 52.8305 27.4799 56.9249C27.4799 59.8369 29.1179 62.2933 31.4835 63.4763L29.4817 71.2109C29.1175 72.5762 30.1184 73.9407 31.5745 73.9407H37.9437ZM22.5657 36.725H46.9515L46.9512 24.7139C46.9512 17.981 41.492 12.5212 34.7585 12.5212C28.0256 12.5212 22.5657 17.9803 22.5657 24.7139V36.725Z" fill="white"/>
<path d="M68.443 101.886C77.524 101.886 84.886 94.524 84.886 85.443C84.886 76.362 77.524 69 68.443 69C59.362 69 52 76.362 52 85.443C52 94.524 59.362 101.886 68.443 101.886Z" fill="#8953FF"/>
<path d="M68.443 91.6797C66.8771 91.6797 65.6079 92.9488 65.6079 94.5148C65.6079 96.0803 66.8771 97.3495 68.443 97.3495C70.0085 97.3495 71.2781 96.0803 71.2781 94.5148C71.2781 92.9488 70.0085 91.6797 68.443 91.6797Z" fill="white"/>
<path d="M70.2742 87.7177C70.2009 88.6747 69.4025 89.4137 68.443 89.4137C67.483 89.4137 66.6851 88.6747 66.6114 87.7177L65.7955 77.1138C65.6945 75.7965 66.7359 74.6719 68.0571 74.6719H68.8285C70.1497 74.6719 71.1911 75.7965 71.09 77.1138L70.2742 87.7177Z" fill="white"/>
</svg>
