<svg width="100" height="100" viewBox="0 0 100 100" fill="none" xmlns="http://www.w3.org/2000/svg">
<g clip-path="url(#clip0)">
<path fill-rule="evenodd" clip-rule="evenodd" d="M98.3906 69.7696C90.7259 64.6991 79.8773 57.7418 73.038 54.4401C72.6843 54.3222 72.3305 53.9684 72.2126 53.6147C70.3259 49.8413 69.1467 47.8367 67.1421 45.1245C67.0242 44.8887 66.7884 44.6529 66.4346 44.535C53.4636 38.4032 43.7942 35.1015 28.8185 32.1535L16.437 19.8899C15.4937 18.9466 13.9608 19.3003 13.7249 20.5974C12.7816 24.3708 12.7816 28.6159 13.9608 32.2714C9.95154 31.4459 6.64975 30.9743 3.58386 30.6205C0.753814 30.3847 -1.01497 33.5685 0.635895 35.9269L20.4463 64.2274C21.1538 65.2886 22.3329 65.7603 23.6301 65.7603C43.0867 64.6991 50.2797 68.5904 59.8311 73.7788C61.0103 74.3684 62.0716 75.0759 63.3687 75.6655C76.3398 81.5614 84.5941 82.5048 98.1547 75.7834C100.513 74.4863 100.631 71.1846 98.3906 69.7696ZM60.6566 51.8459C59.2416 53.6147 55.8219 55.8551 50.1618 53.4967C45.6809 51.2563 45.3271 47.8367 45.563 45.7141C45.6809 44.8887 46.5063 44.417 47.3318 44.6528C51.2231 45.5962 56.7652 47.8367 60.1849 49.9592C60.8924 50.4309 61.1283 51.2563 60.6566 51.8459Z" fill="#828B95"/>
</g>
<defs>
<clipPath id="clip0">
<rect width="100" height="100" fill="white"/>
</clipPath>
</defs>
</svg>
