<svg width="100" height="100" viewBox="0 0 100 100" fill="none" xmlns="http://www.w3.org/2000/svg">
<g clip-path="url(#clip0)">
<rect y="35" width="100" height="29" fill="white"/>
<path d="M0 27.0666C0 22.6115 3.61152 19 8.06655 19H91.9334C96.3885 19 100 22.6115 100 27.0666V35H0V27.0666Z" fill="#0D40C4"/>
<path d="M100 71.9335C100 76.3885 96.3885 80 91.9334 80L8.06655 80C3.61152 80 3.15729e-07 76.3885 7.05201e-07 71.9334L1.39876e-06 64L100 64L100 71.9335Z" fill="#EBAF3A"/>
<path fill-rule="evenodd" clip-rule="evenodd" d="M61 58.5L69 40.5H74L78 58.5H73.5L73 56H67L66 58.5H61ZM71 45L68.5 52H72.5L71 45Z" fill="#131972"/>
<path d="M40.5 58.5L44.5 40.5H49L45 58.5H40.5Z" fill="#131972"/>
<path d="M61.5002 44.5L62.5002 41.0001C57.5 39.5 51.8558 39.5769 50.5 45.0001C49 51 58.5 51 56.5 54.0001C55.3038 55.7945 51.1667 54.8335 49.5 54.0001L48 58C56.5 60 60.9717 57.7567 61.5002 53.0001C62.0287 48.2436 54.0002 47.0001 55.0002 45.0001C55.8002 43.4001 59.5 44 61.5002 44.5Z" fill="#131972"/>
<path d="M28.8737 40.5H20.5V41L25.0101 42.64C25.6297 42.8653 26.0985 43.3815 26.2632 44.0199L30 58.5H35L42.5 40.5H38L33 52.5L30.8317 42.0921C30.6385 41.1647 29.8211 40.5 28.8737 40.5Z" fill="#131972"/>
</g>
<defs>
<clipPath id="clip0">
<rect width="100" height="100" fill="white"/>
</clipPath>
</defs>
</svg>
