<svg width="100" height="100" viewBox="0 0 100 100" fill="none" xmlns="http://www.w3.org/2000/svg">
<path fill-rule="evenodd" clip-rule="evenodd" d="M96.4836 35.9176V77.7528C96.4836 82.0314 93.0151 85.5 88.7364 85.5H11.2639C6.98516 85.5 3.5166 82.0314 3.5166 77.7527V28.1703V22.7473C3.5166 18.4686 6.98516 15 11.2639 15H62.7831C64.7085 15 66.2693 16.5609 66.2693 18.4863C66.2693 20.4117 64.7085 21.9725 62.7831 21.9725H12.8133C11.1018 21.9725 9.7144 23.36 9.7144 25.0714C9.7144 26.7829 11.1018 28.1703 12.8133 28.1703H88.7364C93.0151 28.1703 96.4836 31.6389 96.4836 35.9176ZM70.9176 34.3681C67.0668 34.3681 63.9451 37.4898 63.9451 41.3407C63.9451 45.1915 67.0668 48.3132 70.9176 48.3132H88.7363C89.592 48.3132 90.2857 47.6195 90.2857 46.7637V35.9176C90.2857 35.0618 89.592 34.3681 88.7363 34.3681H70.9176Z" fill="#828B95"/>
<circle cx="70.9176" cy="41.3404" r="3.87363" fill="#828B95"/>
</svg>
