<svg width="14" height="14" viewBox="0 0 14 14" fill="none" xmlns="http://www.w3.org/2000/svg">
<path d="M12.5 7C12.5 3.96243 10.0376 1.5 7 1.5C3.96243 1.5 1.5 3.96243 1.5 7C1.5 10.0376 3.96243 12.5 7 12.5V14C3.13401 14 0 10.866 0 7C0 3.13401 3.13401 0 7 0C10.866 0 14 3.13401 14 7C14 10.866 10.866 14 7 14V12.5C10.0376 12.5 12.5 10.0376 12.5 7Z" fill="white"/>
<path d="M8.5 7C8.5 5.22042 8.18746 3.68069 7.74219 2.6416C7.51851 2.1197 7.29096 1.79267 7.11426 1.61816C7.0652 1.56975 7.02699 1.5391 7 1.52051C6.97301 1.5391 6.9348 1.56975 6.88574 1.61816C6.70904 1.79267 6.48149 2.1197 6.25781 2.6416C5.81254 3.68069 5.5 5.22042 5.5 7C5.5 8.77958 5.81254 10.3193 6.25781 11.3584C6.48149 11.8803 6.70904 12.2073 6.88574 12.3818C6.93452 12.43 6.97304 12.4599 7 12.4785C7.02696 12.4599 7.06548 12.43 7.11426 12.3818C7.29096 12.2073 7.51851 11.8803 7.74219 11.3584C8.18746 10.3193 8.5 8.77958 8.5 7ZM10 7C10 10.866 8.65685 14 7 14C5.34315 14 4 10.866 4 7C4 3.13401 5.34315 0 7 0C8.65685 0 10 3.13401 10 7Z" fill="white"/>
<path d="M13 4.5V6H1V4.5H13Z" fill="white"/>
<path d="M13.1367 8.00391V9.50391H1.13672V8.00391H13.1367Z" fill="white"/>
</svg>
