<svg width="100" height="100" viewBox="0 0 100 100" fill="none" xmlns="http://www.w3.org/2000/svg">
<path fill-rule="evenodd" clip-rule="evenodd" d="M50 68.6426C50.4249 68.6426 50.8479 68.6344 51.269 68.6183L59.1038 96.8883C59.2887 97.5556 60.1626 97.7064 60.5661 97.1406L66.7031 88.5354C66.9306 88.2164 67.3488 88.0997 67.7052 88.2559L77.6159 92.5981C78.2486 92.8753 78.9238 92.2915 78.7449 91.6218L70.642 61.2883C78.1766 55.1545 83 45.7359 83 35.1748C83 16.6911 68.2254 1.70703 50 1.70703C31.7746 1.70703 17 16.6911 17 35.1748C17 45.8412 21.9201 55.3422 29.5842 61.4708L21.4508 91.6278C21.2694 92.3002 21.9529 92.8754 22.5889 92.5856L32.1855 88.2112C32.542 88.0486 32.9625 88.1567 33.1931 88.4702L39.6039 97.1846C40.0134 97.7413 40.8905 97.5728 41.0699 96.9031L48.6497 68.6151C49.0975 68.6334 49.5477 68.6426 50 68.6426ZM50 59.457C63.669 59.457 74.75 48.3761 74.75 34.707C74.75 21.038 63.669 9.95703 50 9.95703C36.331 9.95703 25.25 21.038 25.25 34.707C25.25 48.3761 36.331 59.457 50 59.457ZM52.5622 18.5793C51.5212 16.9767 49.1751 16.9767 48.1342 18.5793L46.6286 20.8974C45.9871 21.885 44.7691 22.3283 43.6429 21.9841L40.9995 21.1761C39.1719 20.6175 37.3747 22.1256 37.6075 24.0224L37.9441 26.7659C38.0876 27.9348 37.4395 29.0573 36.3555 29.5175L33.8112 30.5977C32.0521 31.3446 31.6447 33.655 33.0423 34.9584L35.0637 36.8437C35.9249 37.6469 36.15 38.9234 35.6154 39.9727L34.3607 42.4357C33.4932 44.1385 34.6663 46.1702 36.5747 46.2704L39.335 46.4153C40.511 46.477 41.504 47.3101 41.769 48.4576L42.3909 51.1508C42.821 53.0128 45.0256 53.8152 46.5519 52.6653L48.7595 51.0019C49.7001 50.2933 50.9963 50.2933 51.9368 51.0019L54.1445 52.6653C55.6708 53.8152 57.8754 53.0128 58.3054 51.1508L58.9274 48.4576C59.1924 47.3101 60.1853 46.477 61.3613 46.4153L64.1216 46.2704C66.0301 46.1702 67.2031 44.1385 66.3356 42.4357L65.0809 39.9727C64.5464 38.9234 64.7714 37.6469 65.6326 36.8437L67.6541 34.9584C69.0516 33.655 68.6442 31.3446 66.8851 30.5977L64.3408 29.5175C63.2569 29.0573 62.6088 27.9348 62.7522 26.7659L63.0889 24.0224C63.3216 22.1256 61.5244 20.6175 59.6968 21.1761L57.0534 21.9841C55.9272 22.3283 54.7092 21.885 54.0678 20.8974L52.5622 18.5793Z" fill="#828B95"/>
</svg>
