<svg width="25" height="25" viewBox="0 0 25 25" fill="none" xmlns="http://www.w3.org/2000/svg">
<g clip-path="url(#clip0_149_9201)">
<path fill-rule="evenodd" clip-rule="evenodd" d="M22.0641 18.0514L14.6405 4.26471C13.8979 2.88556 11.93 2.85669 11.1472 4.21345L3.19327 18.0002C2.42404 19.3335 3.38632 20.9996 4.92564 20.9996H20.3031C21.8165 20.9996 22.7815 19.3839 22.0641 18.0514ZM16.4015 3.31651C14.9162 0.558232 10.9803 0.500479 9.41484 3.214L1.46091 17.0007C-0.0775676 19.6674 1.847 22.9996 4.92564 22.9996H20.3031C23.3298 22.9996 25.26 19.7682 23.825 17.1032L16.4015 3.31651Z" fill="#DAD4ED"/>
<path d="M12 17C12 16.4477 12.4477 16 13 16C13.5523 16 14 16.4477 14 17C14 17.5523 13.5523 18 13 18C12.4477 18 12 17.5523 12 17Z" fill="#DAD4ED"/>
<path d="M11.5 17.5C11.5 16.6716 12.1716 16 13 16C13.8284 16 14.5 16.6716 14.5 17.5C14.5 18.3284 13.8284 19 13 19C12.1716 19 11.5 18.3284 11.5 17.5Z" fill="#DAD4ED"/>
<path d="M12 7C12 6.44772 12.4477 6 13 6C13.5523 6 14 6.44772 14 7V13C14 13.5523 13.5523 14 13 14C12.4477 14 12 13.5523 12 13V7Z" fill="#DAD4ED"/>
</g>
<defs>
<clipPath id="clip0_149_9201">
<rect width="25" height="25" fill="white"/>
</clipPath>
</defs>
</svg>
