<svg width="22" height="22" viewBox="0 0 22 22" fill="none" xmlns="http://www.w3.org/2000/svg">
<path d="M18.4641 10.2417C19.2416 10.2417 19.9616 9.99543 20.5503 9.5767V19.5675C20.5503 20.4921 19.8007 21.2417 18.8761 21.2417H11.0109V14.7934C11.0109 13.7459 10.1618 12.8968 9.11432 12.8968H6.07984C5.03241 12.8968 4.18329 13.7459 4.18329 14.7934V21.2417H3.25899C2.33436 21.2417 1.58479 20.4921 1.58479 19.5675V9.57669C2.17353 9.99543 2.89351 10.2417 3.671 10.2417C4.62529 10.2417 5.49242 9.87052 6.13652 9.26602C6.78061 9.87052 7.64775 10.2417 8.60203 10.2417C9.55632 10.2417 10.4235 9.87052 11.0676 9.26602C11.7116 9.87052 12.5788 10.2417 13.5331 10.2417C14.4874 10.2417 15.3545 9.87052 15.9986 9.26602C16.6427 9.87052 17.5098 10.2417 18.4641 10.2417ZM2.72272 6.44856H4.61927V6.63822C4.61927 7.16193 4.19472 7.58649 3.671 7.58649C3.14728 7.58649 2.72272 7.16193 2.72272 6.63822V6.44856ZM15.9419 11.0003C14.4755 11.0003 13.2867 12.189 13.2867 13.6555C13.2867 15.1219 14.4755 16.3106 15.9419 16.3106C17.4083 16.3106 18.5971 15.1219 18.5971 13.6555C18.5971 12.189 17.4083 11.0003 15.9419 11.0003ZM7.65376 6.63822V6.44856H9.55031V6.63822C9.55031 7.16193 9.12575 7.58649 8.60203 7.58649C8.07832 7.58649 7.65376 7.16193 7.65376 6.63822ZM12.5848 6.44856H14.4813V6.63822C14.4813 7.16193 14.0568 7.58649 13.5331 7.58649C13.0093 7.58649 12.5848 7.16193 12.5848 6.63822V6.44856ZM17.5158 6.44856H19.4124V6.63822C19.4124 7.16193 18.9878 7.58649 18.4641 7.58649C17.9404 7.58649 17.5158 7.16193 17.5158 6.63822V6.44856Z" fill="white" stroke="white" stroke-width="1.51724"/>
<path d="M4.09024 0C3.1511 0 2.29583 0.540556 1.89281 1.38883L0.390137 4.55173H21.7449L20.2422 1.38883C19.8392 0.540554 18.9839 0 18.0448 0H4.09024Z" fill="white"/>
</svg>
