<svg width="100" height="100" viewBox="0 0 100 100" fill="none" xmlns="http://www.w3.org/2000/svg">
<path fill-rule="evenodd" clip-rule="evenodd" d="M54.7627 9.96347C57.313 9.00305 60.1476 10.3611 61.0089 12.956L62.6605 17.9317C63.4998 20.4602 66.2212 21.8267 68.739 20.9838C71.2568 20.141 72.6175 17.408 71.7783 14.8796L70.1267 9.90385C67.5427 2.11913 59.039 -1.95493 51.388 0.926326L29.9351 9.00522C23.3172 11.4974 19.4744 18.4402 20.8605 25.4002L23.8001 32.9998H16.5556C11.2782 32.9998 7 37.2851 7 42.5713V90.4284C7 95.7146 11.2782 99.9998 16.5556 99.9998H83.4444C88.7218 99.9998 93 95.7146 93 90.4284V42.5713C93 37.2851 88.7218 32.9998 83.4444 32.9998H33.9566L30.2849 23.5074C29.8229 21.1874 31.1038 18.8731 33.3098 18.0424L54.7627 9.96347ZM56 71.8002C59.5617 69.9795 62 66.2743 62 61.9996C62 55.9245 57.0751 50.9996 51 50.9996C44.9249 50.9996 40 55.9245 40 61.9996C40 66.2743 42.4383 69.9795 46 71.8002V78.9996C46 81.761 48.2386 83.9996 51 83.9996C53.7614 83.9996 56 81.761 56 78.9996V71.8002Z" fill="#828B95"/>
</svg>
