<svg width="30" height="31" viewBox="0 0 30 31" fill="none" xmlns="http://www.w3.org/2000/svg">
<path fill-rule="evenodd" clip-rule="evenodd" d="M18.2135 28.195C24.3716 28.195 29.9775 22.3987 29.9775 14.4703C29.9775 13.216 29.8372 12.0151 29.5766 10.882C28.5337 7.00624 26.0293 3.75739 22.7139 1.8063C21.3045 1.11917 19.7768 0.745625 18.2135 0.745625C12.0553 0.745625 6.44944 6.54196 6.44944 14.4703C6.44944 17.3034 7.18762 19.9177 8.4332 22.0846C10.6201 25.8889 14.2706 28.195 18.2135 28.195ZM6.79994 23.1118C9.03201 26.8909 12.6866 29.4997 16.8956 29.9542C16.426 30.001 15.95 30.025 15.4685 30.025C10.3082 30.025 5.77148 27.2716 3.16438 23.1118H6.79994ZM3.78546 5.82884C6.00908 2.79725 9.31666 0.658182 13.1135 0.0249939C10.5272 1.19889 8.32954 3.23905 6.79993 5.82884H3.78546ZM1.32566 11.0137C1.64236 9.79371 2.10355 8.63461 2.68916 7.55714H5.91541C5.4391 8.64338 5.07154 9.80168 4.82887 11.0137H1.32566ZM0.828857 14.9278C0.828857 14.1855 0.880811 13.4557 0.981173 12.742H4.57254C4.51719 13.3095 4.48877 13.8861 4.48877 14.4703C4.48877 15.0545 4.51719 15.6311 4.57254 16.1986H0.879986C0.846127 15.7796 0.828857 15.3558 0.828857 14.9278ZM2.23098 21.3835C1.73157 20.2964 1.35438 19.1379 1.11771 17.9269H4.82887C5.07154 19.139 5.4391 20.2973 5.91541 21.3835H2.23098ZM18.825 19.2624L15.3676 14.4355L18.6813 9.84753L16.5971 9.68942L13.5787 14.0352V9.35882L11.8086 9.16094V19.9602L13.5787 19.7654V14.842L16.7811 19.5027L18.825 19.2624ZM24.6121 18.1302L26.4719 17.9112L24.5308 15.6614C25.052 15.4237 25.471 15.0693 25.788 14.5981C26.1049 14.1227 26.2633 13.6524 26.2633 13.0978C26.2633 12.2806 26.1171 11.8517 25.5333 11.2679C24.9495 10.6841 24.1013 10.3529 23.2798 10.3529L19.6896 10.0759V19.0452L21.4597 18.788V15.9304L22.7922 15.827L24.6121 18.1302ZM21.4597 14.3854V11.7334C23.2458 11.7254 23.9711 11.9765 24.1608 12.1829L24.1948 12.2196C24.3715 12.4105 24.5308 12.5825 24.5308 12.9235C24.5308 13.2905 24.3985 13.552 24.1608 13.8147C23.9231 14.0732 23.6134 14.2459 23.2798 14.2459L21.4597 14.3854Z" fill="#CAC2E5"/>
</svg>
