<svg width="220" height="213" viewBox="0 0 220 213" fill="none" xmlns="http://www.w3.org/2000/svg">
<path d="M81.1333 110.625L98.7122 128.01L139.73 87.4436" stroke="white" stroke-width="16.2267"/>
<path d="M152.814 146.279L183.917 189.324L194.948 178.606L152.814 146.279Z" fill="#E6B135"/>
<path d="M128.252 186.173L126.771 212.84L139.994 210.162L128.252 186.173Z" fill="#3A9E86"/>
<path d="M175.079 84.469L219.032 71.8645L215.224 62.5804L175.079 84.469Z" fill="#205D85"/>
<path d="M102.677 44.0703L104.666 -6.83714e-05L94.6554 0.690412L102.677 44.0703Z" fill="#692E71"/>
<path d="M191.706 154.61L205.661 166.795L209.476 159.849L191.706 154.61Z" fill="#D98B6A"/>
<path d="M184.608 117.252L197.163 121.571L197.858 116.408L184.608 117.252Z" fill="#2F457B"/>
<path d="M92.7891 63.5609L90.4964 50.483L85.641 52.372L92.7891 63.5609Z" fill="#B45294"/>
<path d="M61.1756 125.087L49.5819 128.487L51.5787 132.427L61.1756 125.087Z" fill="#B45294"/>
<path d="M78.4068 173.259L58.5966 201.108L66.1769 205.172L78.4068 173.259Z" fill="#B45294"/>
<path d="M45.6523 148.035L23.439 158.837L28.0494 165.363L45.6523 148.035Z" fill="#205D85"/>
<path d="M44.6233 64.9066L31.9784 52.0198L27.9462 57.6948L44.6233 64.9066Z" fill="#E6B135"/>
<path d="M59.1206 54.9062L38.9232 26.2771L31.4016 33.4768L59.1206 54.9062Z" fill="#B45294"/>
<path d="M43.7932 108.394L-0.00019573 104.238L0.712262 117.292L43.7932 108.394Z" fill="#692E71"/>
<path d="M167.389 66.336L183.312 59.9122L180.652 55.4322L167.389 66.336Z" fill="#D98B6A"/>
<path d="M166.148 47.9644L189.113 32.5378L183.154 26.1429L166.148 47.9644Z" fill="#3A9E86"/>
</svg>
