<svg width="29" height="30" viewBox="0 0 29 30" fill="none" xmlns="http://www.w3.org/2000/svg">
<path d="M10.0885 25.9005C11.7913 26.972 13.8092 27.5922 15.9726 27.5922C22.063 27.5922 27.0002 22.6773 27.0002 16.6144C27.0002 10.5516 22.063 5.63672 15.9726 5.63672C13.2166 5.63672 10.6968 6.64317 8.76367 8.30698" stroke="#DAD4ED" stroke-width="2.96695" stroke-linecap="round"/>
<path d="M12.462 0C11.6427 0 10.9785 0.664176 10.9785 1.48348C10.9785 2.30278 11.6427 2.96695 12.462 2.96695V0ZM18.9893 2.96695C19.8086 2.96695 20.4728 2.30278 20.4728 1.48348C20.4728 0.664176 19.8086 0 18.9893 0V2.96695ZM17.2091 4.74713V1.48348H14.2422V4.74713H17.2091ZM15.7256 0H12.462V2.96695H15.7256V0ZM15.7256 2.96695H18.9893V0H15.7256V2.96695Z" fill="#DAD4ED"/>
<path d="M23.7363 8.60367L26.7033 5.63672" stroke="#DAD4ED" stroke-width="2.96695" stroke-linecap="round"/>
<path fill-rule="evenodd" clip-rule="evenodd" d="M20.9281 11.4113C21.1878 11.6711 21.2119 12.0842 20.9842 12.3724L17.8319 16.3613C17.3422 16.981 16.4216 17.0347 15.8631 16.4762C15.3047 15.9178 15.3584 14.9972 15.9781 14.5075L19.967 11.3552C20.2552 11.1275 20.6683 11.1516 20.9281 11.4113Z" fill="#DAD4ED"/>
<path d="M15.7249 19.2858C17.1997 19.2858 18.3952 18.0903 18.3952 16.6156C18.3952 15.1408 17.1997 13.9453 15.7249 13.9453C14.2502 13.9453 13.0547 15.1408 13.0547 16.6156C13.0547 18.0903 14.2502 19.2858 15.7249 19.2858Z" fill="#DAD4ED"/>
<path d="M8.01077 11.2734H1.48348C0.664175 11.2734 0 11.9376 0 12.7569C0 13.5762 0.664175 14.2404 1.48348 14.2404H8.01077C8.83008 14.2404 9.49425 13.5762 9.49425 12.7569C9.49425 11.9376 8.83008 11.2734 8.01077 11.2734Z" fill="#DAD4ED"/>
<path d="M8.01008 15.4297H3.55965C2.74035 15.4297 2.07617 16.0939 2.07617 16.9132C2.07617 17.7325 2.74035 18.3966 3.55965 18.3966H8.01008C8.82938 18.3966 9.49356 17.7325 9.49356 16.9132C9.49356 16.0939 8.82938 15.4297 8.01008 15.4297Z" fill="#DAD4ED"/>
<path d="M8.01134 19.582H5.63777C4.81847 19.582 4.1543 20.2462 4.1543 21.0655C4.1543 21.8848 4.81847 22.549 5.63777 22.549H8.01134C8.83064 22.549 9.49481 21.8848 9.49481 21.0655C9.49481 20.2462 8.83064 19.582 8.01134 19.582Z" fill="#DAD4ED"/>
</svg>
