<svg width="30" height="21" viewBox="0 0 30 21" fill="none" xmlns="http://www.w3.org/2000/svg">
<path fill-rule="evenodd" clip-rule="evenodd" d="M3 0.0249939C1.34315 0.0249939 0 1.36814 0 3.02499V17.025C0 18.6818 1.34315 20.025 3 20.025H27C28.6569 20.025 30 18.6818 30 17.025V3.02499C30 1.36814 28.6569 0.0249939 27 0.0249939H3ZM3 15.025C2.44772 15.025 2 15.4727 2 16.025C2 16.5773 2.44772 17.025 3 17.025H7C7.55228 17.025 8 16.5773 8 16.025C8 15.4727 7.55228 15.025 7 15.025H3ZM9 16.025C9 15.4727 9.44772 15.025 10 15.025H14C14.5523 15.025 15 15.4727 15 16.025C15 16.5773 14.5523 17.025 14 17.025H10C9.44772 17.025 9 16.5773 9 16.025ZM17 15.025C16.4477 15.025 16 15.4727 16 16.025C16 16.5773 16.4477 17.025 17 17.025H20C20.5523 17.025 21 16.5773 21 16.025C21 15.4727 20.5523 15.025 20 15.025H17ZM22 16.025C22 15.4727 22.4477 15.025 23 15.025H27C27.5523 15.025 28 15.4727 28 16.025C28 16.5773 27.5523 17.025 27 17.025H23C22.4477 17.025 22 16.5773 22 16.025ZM22 3.02499C21.4477 3.02499 21 3.47271 21 4.02499V5.02499C21 5.57728 21.4477 6.02499 22 6.02499H27C27.5523 6.02499 28 5.57728 28 5.02499V4.02499C28 3.47271 27.5523 3.02499 27 3.02499H22Z" fill="#CAC2E5"/>
</svg>
