<svg width="35" height="21" viewBox="0 0 35 21" fill="none" xmlns="http://www.w3.org/2000/svg">
<path d="M10.2833 0.205078C4.72615 0.205078 0.204102 4.72642 0.204102 10.2829C0.204102 15.8393 4.72544 20.362 10.2833 20.362H23.8573C29.4144 20.362 33.935 15.8407 33.935 10.2829C33.935 4.725 29.4151 0.205078 23.858 0.205078H10.2833Z" fill="white"/>
<path d="M23.8582 20.5663H10.2835C4.61286 20.5663 0 15.9535 0 10.2828C0 4.61215 4.61286 0 10.2835 0H23.8575C29.5274 0 34.1403 4.61286 34.1403 10.2828C34.1403 15.9528 29.5274 20.5663 23.8575 20.5663M10.2835 0.205032C4.72637 0.205032 0.204322 4.72637 0.204322 10.2828C0.204322 15.8392 4.72566 20.362 10.2835 20.362H23.8575C29.4146 20.362 33.9352 15.8407 33.9352 10.2828C33.9352 4.72495 29.4153 0.205032 23.8582 0.205032H10.2835Z" fill="white"/>
<path d="M26.2305 9.66818L30.744 15.0366C31.6791 13.6858 32.2282 12.0477 32.2282 10.284C32.2282 8.42238 31.6166 6.70054 30.5844 5.30859L26.2305 9.66889V9.66818Z" fill="#BC151E"/>
<path d="M13.4397 4.85421C16.8103 4.85421 19.3502 5.71194 19.6119 8.55188L23.1592 4.8535H30.2232C28.6866 3.05504 26.4028 1.91211 23.8573 1.91211H10.2834C7.73713 1.91211 5.45269 3.05433 3.91602 4.8535H13.4397V4.85421Z" fill="#BC151E"/>
<path d="M7.88656 8.43359L6.68262 11.7432H11.5395C12.9755 11.7432 13.4096 11.1487 13.731 10.0043C14.0489 8.87274 13.25 8.43359 12.2688 8.43359H7.88656V8.43359Z" fill="#BC151E"/>
<path d="M23.1896 15.4874L19.4373 10.7461C18.7435 13.9791 16.4725 15.4874 12.2151 15.4874H3.73145C5.26599 17.4157 7.63343 18.6551 10.2839 18.6551H23.8579C26.5084 18.6551 28.8744 17.4171 30.409 15.4881H23.1889L23.1896 15.4874Z" fill="#BC151E"/>
</svg>
