<svg width="100" height="100" viewBox="0 0 100 100" fill="none" xmlns="http://www.w3.org/2000/svg">
<path fill-rule="evenodd" clip-rule="evenodd" d="M19 30H82V85C82 87.7614 79.7614 90 77 90H24C21.2386 90 19 87.7614 19 85V30ZM43 40C44.6569 40 46 41.3431 46 43L46 74C46 75.6569 44.6569 77 43 77H35C33.3431 77 32 75.6569 32 74L32 43C32 41.3431 33.3431 40 35 40H43ZM69 43C69 41.3431 67.6569 40 66 40H58C56.3431 40 55 41.3431 55 43V74C55 75.6569 56.3431 77 58 77H66C67.6569 77 69 75.6569 69 74V43Z" fill="#B4B4B4"/>
<path fill-rule="evenodd" clip-rule="evenodd" d="M33.0267 13.087C33.4666 10.7182 35.5333 9 37.9426 9H63.0574C65.4667 9 67.5334 10.7182 67.9733 13.087L70 24H89C90.6569 24 92 25.3431 92 27V32C92 36.4183 88.4183 40 84 40H17C12.5817 40 9 36.4183 9 32V27C9 25.3431 10.3431 24 12 24H31L33.0267 13.087ZM45.4594 17C44.0294 17 42.7981 18.0094 42.5177 19.4117L41.4784 24.6078C41.2309 25.8454 42.1775 27 43.4396 27H57.5604C58.8225 27 59.7691 25.8454 59.5216 24.6078L58.4823 19.4117C58.2019 18.0094 56.9706 17 55.5406 17H45.4594Z" fill="#B4B4B4"/>
</svg>
