<svg width="25" height="25" viewBox="0 0 25 25" fill="none" xmlns="http://www.w3.org/2000/svg">
<path d="M5.58496 16H9.58496" stroke="#DAD4ED" stroke-width="2" stroke-linecap="round"/>
<path d="M16.585 22L23.585 15M23.585 15V18M23.585 15H20.585" stroke="#DAD4ED" stroke-width="2" stroke-linecap="round"/>
<path fill-rule="evenodd" clip-rule="evenodd" d="M1.08348 6.38197L0.321793 10C-0.162646 12.3011 -0.0993617 14.6838 0.506538 16.956L1.14993 19.3687C1.40646 20.3307 2.27768 21 3.27327 21H13.4032L15.2213 19H3.27327C3.18378 19 3.10546 18.9398 3.0824 18.8534L2.43901 16.4406C1.96533 14.6643 1.8743 12.81 2.16917 11H21.0007C21.0548 11.3321 21.0959 11.6657 21.1241 12H23.1302C23.0814 11.3296 22.9874 10.6614 22.8481 10L22.0864 6.38197C21.7942 4.99374 20.5694 4 19.1508 4H4.01913C2.60047 4 1.37574 4.99374 1.08348 6.38197ZM20.1293 6.79399L20.5937 9H2.57616L3.04058 6.79399C3.138 6.33125 3.54625 6 4.01913 6H19.1508C19.6237 6 20.0319 6.33124 20.1293 6.79399Z" fill="#DAD4ED"/>
</svg>
