<svg width="25" height="25" viewBox="0 0 25 25" fill="none" xmlns="http://www.w3.org/2000/svg">
<g clip-path="url(#clip0_149_9114)">
<path fill-rule="evenodd" clip-rule="evenodd" d="M9.58898 9.44354L11.4114 6.84018C12.253 5.63786 12.11 4.00484 11.0722 2.96708C9.8911 1.78593 7.97609 1.78593 6.79495 2.96708C5.75718 4.00484 5.6142 5.63786 6.45584 6.84018L8.27821 9.44354C8.59669 9.8985 9.27049 9.8985 9.58898 9.44354ZM12.4865 1.55286C10.5243 -0.40933 7.34292 -0.40933 5.38073 1.55286C3.65673 3.27687 3.4192 5.98975 4.81738 7.98712L6.63976 10.5905C7.75444 12.1829 10.1127 12.1829 11.2274 10.5905L13.0498 7.98712C14.448 5.98975 14.2105 3.27687 12.4865 1.55286Z" fill="#DAD4ED"/>
<path fill-rule="evenodd" clip-rule="evenodd" d="M14.2257 12.9998C15.0067 12.2188 16.2731 12.2188 17.0541 12.9998L18.6399 14.5856C19.4209 15.3667 19.4209 16.633 18.6399 17.4141L12.2257 23.8283C11.4755 24.5784 10.4581 24.9998 9.39725 24.9998H6.63989V22.2425C6.63989 21.1816 7.06132 20.1642 7.81146 19.4141L14.2257 12.9998ZM15.6399 14.4141L9.22568 20.8283C8.85061 21.2033 8.63989 21.7121 8.63989 22.2425V22.9998H9.39725C9.92768 22.9998 10.4364 22.7891 10.8115 22.4141L17.2257 15.9998L15.6399 14.4141Z" fill="#DAD4ED"/>
<path fill-rule="evenodd" clip-rule="evenodd" d="M0.639893 19.1852C0.639893 15.7692 3.40909 13 6.82508 13H11L9 15H6.82508C4.51366 15 2.63989 16.8738 2.63989 19.1852C2.63989 19.6352 3.0047 20 3.45471 20H5L4.63989 22H3.45471C1.90013 22 0.639893 20.7398 0.639893 19.1852Z" fill="#DAD4ED"/>
<path fill-rule="evenodd" clip-rule="evenodd" d="M19.2256 7.99985C20.0067 7.2188 21.273 7.2188 22.0541 7.99985L23.6399 9.58564C24.4209 10.3667 24.4209 11.633 23.6399 12.4141L22.5541 13.4998C21.773 14.2809 20.5067 14.2809 19.7256 13.4998L18.1399 11.9141C17.3588 11.133 17.3588 9.86668 18.1399 9.08563L21.1399 12.0856L22.2256 10.9998L20.6399 9.41406L19.5541 10.4998L18.1399 9.08563L19.2256 7.99985Z" fill="#DAD4ED"/>
</g>
<defs>
<clipPath id="clip0_149_9114">
<rect width="25" height="25" fill="white"/>
</clipPath>
</defs>
</svg>
