<svg width="100" height="100" viewBox="0 0 100 100" fill="none" xmlns="http://www.w3.org/2000/svg">
<g clip-path="url(#clip0_1386_12599)">
<path fill-rule="evenodd" clip-rule="evenodd" d="M50.5 0C77.836 0 100 22.164 100 49.5C100 74.2115 81.9016 94.6907 58.2344 98.4012V63.8131H69.7689L71.9616 49.5012H71.9607L71.9609 49.5H58.2344V40.2152C58.2344 36.3031 60.1487 32.4814 66.3023 32.4814H72.5463V20.2996C72.5463 20.2996 72.5461 20.2996 72.5456 20.2995V20.2984C72.5456 20.2984 66.8793 19.3308 61.4636 19.3308C57.6413 19.3308 54.2662 20.1147 51.4729 21.6319C48.1731 23.4234 45.6854 26.2383 44.2313 29.9945C43.2756 32.4623 42.7663 35.3361 42.7663 38.592V49.5H30.1946V63.8119H30.1953V63.8131H42.7663V98.4014C19.0987 94.6842 1 74.2048 1 49.5C1 22.164 23.164 0 50.5 0Z" fill="#FEFEFE"/>
</g>
<defs>
<clipPath id="clip0_1386_12599">
<rect width="100" height="100" fill="white"/>
</clipPath>
</defs>
</svg>
