<svg width="100" height="100" viewBox="0 0 100 100" fill="none" xmlns="http://www.w3.org/2000/svg">
<path fill-rule="evenodd" clip-rule="evenodd" d="M43.1142 23.7148C42.2949 20.1173 39.9921 15.8733 36.5767 12.458C35.8354 11.7167 35.3496 11.4004 35.1278 11.2792C34.9194 11.3405 34.4848 11.5031 33.7962 11.9211C32.7339 12.566 31.2855 13.6871 29.4226 15.55C27.5597 17.4129 26.4386 18.8614 25.7937 19.9237C25.3757 20.6123 25.2131 21.0468 25.1518 21.2553C25.2729 21.477 25.5893 21.9629 26.3305 22.7041C29.8874 26.261 34.0758 28.6249 37.5296 29.4585C40.9137 30.2754 42.212 29.437 42.7608 28.8882C42.9708 28.6782 43.9615 27.4348 43.1142 23.7148ZM81.2137 30H97C98.6569 30 100 31.3431 100 33V39C100 40.6569 98.6569 42 97 42H95V93.9231C95 96.727 92.6297 99 89.7059 99H89.6105C89.5915 99.0002 89.5725 99.0003 89.5535 99.0003H73.1181L73.1178 99H61.5223L61.5226 99.0003H41.8814L41.8811 99H30.2856L30.2859 99.0003H10.6464L10.6461 99H10.2941C7.37026 99 5 96.727 5 93.9231V42H3C1.34314 42 0 40.6569 0 39V33C0 31.3431 1.34315 30 3 30H19.1363L19.0854 29.9492C12.9013 23.7651 13.1945 17.2879 22.1775 8.30489C31.1604 -0.678063 37.6377 -0.971251 43.8218 5.21284C46.3703 7.76133 48.5311 10.6975 50.175 13.7659C51.8188 10.6975 53.9797 7.76133 56.5282 5.21284C62.7122 -0.971251 69.1895 -0.678063 78.1725 8.30489C87.1554 17.2879 87.4486 23.7651 81.2645 29.9492L81.2137 30ZM13 69.7706V81.5059L22.381 91H33.9764L13 69.7706ZM53.6176 91H65.2131L16.7969 42H13V49.8926L53.6176 91ZM87 49.8255L79.2677 42H67.6722L87 61.5608V49.8255ZM87 81.438L48.0319 42H36.4364L84.8526 91H87V81.438ZM57.2357 23.7148C58.055 20.1173 60.3579 15.8733 63.7733 12.458C64.5145 11.7167 65.0004 11.4004 65.2221 11.2792C65.4306 11.3405 65.8651 11.5031 66.5537 11.9211C67.616 12.566 69.0645 13.6871 70.9274 15.55C72.7903 17.4129 73.9114 18.8614 74.5562 19.9237C74.9742 20.6123 75.1368 21.0468 75.1982 21.2553C75.077 21.477 74.7607 21.9629 74.0194 22.7041C70.4626 26.261 66.2741 28.6249 62.8204 29.4585C59.4362 30.2754 58.138 29.437 57.5892 28.8882C57.3791 28.6782 56.3885 27.4348 57.2357 23.7148Z" fill="#828B95"/>
</svg>
