<svg width="100" height="100" viewBox="0 0 100 100" fill="none" xmlns="http://www.w3.org/2000/svg">
<g clip-path="url(#clip0_1386_12598)">
<g clip-path="url(#clip1_1386_12598)">
<path d="M98.937 51.1253C98.937 47.8337 98.6453 44.7087 98.1453 41.667H51.062V60.4587H78.0203C76.812 66.6253 73.2703 71.8337 68.0203 75.3753V87.8753H84.1037C93.5203 79.167 98.937 66.3337 98.937 51.1253Z" fill="#4285F4"/>
<path d="M51.062 100C64.562 100 75.8537 95.5003 84.1037 87.8753L68.0203 75.3753C63.5203 78.3753 57.812 80.2087 51.062 80.2087C38.0203 80.2087 26.9787 71.417 23.0204 59.542H6.43701V72.417C14.6453 88.7503 31.5203 100 51.062 100Z" fill="#34A853"/>
<path d="M23.0203 59.5423C21.9787 56.5423 21.437 53.334 21.437 50.0006C21.437 46.6673 22.0203 43.459 23.0203 40.459V27.584H6.43701C3.02034 34.334 1.06201 41.9173 1.06201 50.0006C1.06201 58.084 3.02034 65.6673 6.43701 72.4173L23.0203 59.5423Z" fill="#FBBC05"/>
<path d="M51.062 19.7917C58.437 19.7917 65.0203 22.3333 70.2287 27.2917L84.4787 13.0417C75.8537 4.95834 64.562 0 51.062 0C31.5203 0 14.6453 11.25 6.43701 27.5833L23.0204 40.4583C26.9787 28.5833 38.0203 19.7917 51.062 19.7917Z" fill="#EA4335"/>
</g>
</g>
<defs>
<clipPath id="clip0_1386_12598">
<rect width="100" height="100" fill="white"/>
</clipPath>
<clipPath id="clip1_1386_12598">
<rect width="100" height="100" fill="white"/>
</clipPath>
</defs>
</svg>
