<svg width="28" height="31" viewBox="0 0 28 31" fill="none" xmlns="http://www.w3.org/2000/svg">
<path fill-rule="evenodd" clip-rule="evenodd" d="M17.6226 2.8872C18.3148 2.63214 19.0862 2.95811 19.3859 3.63229L21.1205 7.53531C21.4346 8.24186 22.262 8.56008 22.9685 8.24605C23.6751 7.93203 23.9933 7.10468 23.6793 6.39812L21.9446 2.4951C21.0456 0.472546 18.7314 -0.505312 16.6545 0.25983L8.22473 3.36558C6.1805 4.11872 5.05148 6.3099 5.6247 8.41171L6.37619 11.1672H4.2C1.88041 11.1672 0 13.0475 0 15.3672V26.5672C0 28.8868 1.88041 30.7672 4.2 30.7672H23.8C26.1197 30.7672 28 28.8868 28 26.5672V15.3672C28 13.0475 26.1197 11.1672 23.8 11.1672H9.27846L8.32604 7.67499C8.13497 6.97438 8.5113 6.24399 9.19272 5.99294L17.6226 2.8872ZM4.2 13.9672H23.8C24.5732 13.9672 25.2 14.594 25.2 15.3672V26.5672C25.2 27.3404 24.5732 27.9672 23.8 27.9672H4.2C3.42681 27.9672 2.8 27.3404 2.8 26.5672V15.3672C2.8 14.594 3.42681 13.9672 4.2 13.9672Z" fill="#DAD4ED"/>
<path fill-rule="evenodd" clip-rule="evenodd" d="M15.4012 21.991C16.2381 21.5069 16.8012 20.602 16.8012 19.5656C16.8012 18.0192 15.5476 16.7656 14.0012 16.7656C12.4547 16.7656 11.2012 18.0192 11.2012 19.5656C11.2012 20.602 11.7643 21.5069 12.6012 21.991V24.4656C12.6012 25.2388 13.228 25.8656 14.0012 25.8656C14.7744 25.8656 15.4012 25.2388 15.4012 24.4656V21.991Z" fill="#DAD4ED"/>
</svg>
