<svg width="28" height="22" viewBox="0 0 28 22" fill="none" xmlns="http://www.w3.org/2000/svg">
<path d="M4.96139 21.2131V19.8022C4.96139 19.2625 4.63264 18.909 4.06827 18.909C3.78609 18.909 3.47925 19.0022 3.2683 19.309C3.10392 19.0515 2.86831 18.909 2.5149 18.909C2.27929 18.909 2.04369 18.9803 1.85739 19.2378V18.9556H1.36426V21.2131H1.85739V19.9665C1.85739 19.5666 2.06834 19.3775 2.3971 19.3775C2.72585 19.3775 2.89023 19.5885 2.89023 19.9665V21.2131H3.38337V19.9665C3.38337 19.5666 3.61897 19.3775 3.92307 19.3775C4.25183 19.3775 4.41621 19.5885 4.41621 19.9665V21.2131H4.96139ZM12.2762 18.9556H11.4762V18.2735H10.9831V18.9556H10.5365V19.4022H10.9831V20.4378C10.9831 20.9555 11.1941 21.2596 11.7584 21.2596C11.9694 21.2596 12.205 21.1884 12.3694 21.0953L12.2269 20.6706C12.0844 20.7638 11.9201 20.7884 11.8022 20.7884C11.5666 20.7884 11.4735 20.646 11.4735 20.4131V19.4022H12.2735V18.9556H12.2762ZM16.4624 18.9063C16.1802 18.9063 15.9911 19.0488 15.8733 19.2351V18.9529H15.3802V21.2103H15.8733V19.9391C15.8733 19.5638 16.0377 19.3501 16.3446 19.3501C16.4377 19.3501 16.5555 19.3748 16.6514 19.3967L16.7939 18.9255C16.6952 18.9063 16.5555 18.9063 16.4624 18.9063ZM10.1366 19.1419C9.90095 18.9775 9.57219 18.9063 9.21878 18.9063C8.65441 18.9063 8.27908 19.1885 8.27908 19.635C8.27908 20.0104 8.56127 20.2241 9.0544 20.2926L9.29001 20.3172C9.54753 20.3638 9.68999 20.435 9.68999 20.5528C9.68999 20.7172 9.50096 20.835 9.1722 20.835C8.84345 20.835 8.58318 20.7172 8.41881 20.5994L8.1832 20.9747C8.44072 21.1638 8.79413 21.2569 9.14755 21.2569C9.80506 21.2569 10.1831 20.9501 10.1831 20.5282C10.1831 20.1282 9.87629 19.9172 9.40781 19.846L9.1722 19.8213C8.96125 19.7967 8.79687 19.7501 8.79687 19.6104C8.79687 19.446 8.96125 19.3529 9.22152 19.3529C9.5037 19.3529 9.78588 19.4707 9.92834 19.5419L10.1366 19.1419ZM23.2566 18.9063C22.9745 18.9063 22.7854 19.0488 22.6676 19.2351V18.9529H22.1745V21.2103H22.6676V19.9391C22.6676 19.5638 22.832 19.3501 23.1388 19.3501C23.232 19.3501 23.3498 19.3748 23.4457 19.3967L23.5881 18.931C23.4923 18.9063 23.3525 18.9063 23.2566 18.9063ZM16.9555 20.0843C16.9555 20.7665 17.4267 21.2596 18.1555 21.2596C18.4842 21.2596 18.7198 21.1884 18.9554 21.0021L18.7198 20.6021C18.5308 20.7446 18.3445 20.8131 18.1308 20.8131C17.7308 20.8131 17.4486 20.5309 17.4486 20.0843C17.4486 19.6597 17.7308 19.3775 18.1308 19.3556C18.3417 19.3556 18.5308 19.4268 18.7198 19.5666L18.9554 19.1666C18.7198 18.9775 18.4842 18.909 18.1555 18.909C17.4267 18.9063 16.9555 19.4022 16.9555 20.0843ZM21.517 20.0843V18.9556H21.0238V19.2378C20.8595 19.0269 20.6239 18.909 20.317 18.909C19.6814 18.909 19.1883 19.4022 19.1883 20.0843C19.1883 20.7665 19.6814 21.2596 20.317 21.2596C20.6458 21.2596 20.8814 21.1418 21.0238 20.9309V21.2131H21.517V20.0843ZM19.7061 20.0843C19.7061 19.6844 19.9636 19.3556 20.3882 19.3556C20.7882 19.3556 21.0704 19.6624 21.0704 20.0843C21.0704 20.4843 20.7882 20.8131 20.3882 20.8131C19.9663 20.7884 19.7061 20.4816 19.7061 20.0843ZM13.8049 18.9063C13.1474 18.9063 12.6762 19.3775 12.6762 20.0816C12.6762 20.7884 13.1474 21.2569 13.8296 21.2569C14.1583 21.2569 14.4871 21.1638 14.7474 20.9501L14.5117 20.5967C14.3227 20.7391 14.0871 20.8323 13.8542 20.8323C13.5474 20.8323 13.2433 20.6898 13.1721 20.2926H14.8405C14.8405 20.2213 14.8405 20.1748 14.8405 20.1035C14.8624 19.3775 14.4378 18.9063 13.8049 18.9063ZM13.8049 19.3309C14.1118 19.3309 14.3227 19.52 14.3693 19.8707H13.194C13.2406 19.5666 13.4515 19.3309 13.8049 19.3309ZM26.0565 20.0843V18.0625H25.5634V19.2378C25.399 19.0269 25.1634 18.909 24.8566 18.909C24.221 18.909 23.7279 19.4022 23.7279 20.0843C23.7279 20.7665 24.221 21.2596 24.8566 21.2596C25.1853 21.2596 25.4209 21.1418 25.5634 20.9309V21.2131H26.0565V20.0843ZM24.2456 20.0843C24.2456 19.6844 24.5032 19.3556 24.9278 19.3556C25.3278 19.3556 25.61 19.6624 25.61 20.0843C25.61 20.4843 25.3278 20.8131 24.9278 20.8131C24.5032 20.7884 24.2456 20.4816 24.2456 20.0843ZM7.73664 20.0843V18.9556H7.2435V19.2378C7.07913 19.0269 6.84352 18.909 6.53668 18.909C5.90109 18.909 5.40795 19.4022 5.40795 20.0843C5.40795 20.7665 5.90109 21.2596 6.53668 21.2596C6.86544 21.2596 7.10104 21.1418 7.2435 20.9309V21.2131H7.73664V20.0843ZM5.90382 20.0843C5.90382 19.6844 6.16135 19.3556 6.58599 19.3556C6.98598 19.3556 7.26816 19.6624 7.26816 20.0843C7.26816 20.4843 6.98598 20.8131 6.58599 20.8131C6.16135 20.7884 5.90382 20.4816 5.90382 20.0843Z" fill="white"/>
<path d="M17.3806 1.81055H9.97266V15.1197H17.3806V1.81055Z" fill="#FF5A00"/>
<path d="M10.4654 8.46546C10.4654 5.76144 11.7366 3.36153 13.6872 1.8109C12.2516 0.682168 10.4407 0 8.46546 0C3.78617 0 0 3.78617 0 8.46546C0 13.1447 3.78617 16.9309 8.46546 16.9309C10.4407 16.9309 12.2516 16.2487 13.6872 15.12C11.7338 13.5913 10.4654 11.1695 10.4654 8.46546Z" fill="#EB001B"/>
<path d="M27.3737 8.46546C27.3737 13.1447 23.5875 16.9309 18.9083 16.9309C16.933 16.9309 15.1221 16.2487 13.6865 15.12C15.6618 13.5667 16.9083 11.1695 16.9083 8.46546C16.9083 5.76144 15.6371 3.36153 13.6865 1.8109C15.1194 0.682168 16.9302 0 18.9055 0C23.5875 0 27.3737 3.81083 27.3737 8.46546Z" fill="#F79E1B"/>
</svg>
