<?xml version="1.0" encoding="UTF-8"?>
<svg width="138px" height="36px" viewBox="0 0 138 36" version="1.1" xmlns="http://www.w3.org/2000/svg" xmlns:xlink="http://www.w3.org/1999/xlink">
    <title>DA60DB2E-6FED-4B29-946B-C1CFC8998D3E@1.00x</title>
    <g id="Components" stroke="none" stroke-width="1" fill="none" fill-rule="evenodd">
        <g id="Load-screens" transform="translate(-348.000000, -1753.000000)" fill="#0060E6">
            <g id="Mitid-logo" transform="translate(348.000000, 1753.000000)">
                <path d="M60.9258308,4.3357258 L60.9258308,10.9757353 L66.3484368,10.9757353 L66.3484368,16.4637416 L60.9258308,16.4637416 L60.9258308,27.219698 C60.9258308,29.1401654 61.9770573,30.0183111 63.7479608,30.0183111 C64.7994201,30.0183111 65.9612408,29.6892662 66.7360984,29.1953526 L66.7360984,35.2319978 C65.7952332,35.7261423 64.1351567,36 62.3093054,36 C57.2738954,36 54.1197501,33.5304318 54.1197501,28.0976128 L54.1197501,16.4637416 L50.3569877,16.4637416 L50.3569877,10.9757353 L54.1197501,10.9757353 L54.1197501,4.3357258 L60.9258308,4.3357258 Z M116.698812,0.546445354 C131.136821,0.546445354 137.25,8.31328918 137.25,18.0294639 C137.25,27.7456387 131.136821,35.5124825 116.698812,35.5124825 L110.807287,35.5124825 L110.807287,0.546445354 L116.698812,0.546445354 Z M90.9753103,20.2148066 C98.9979267,20.2148066 105.520886,24.7302256 106.400284,35.5125056 L106.400284,35.5125056 L75.5503361,35.5125056 C76.4297343,24.7302256 82.9526939,20.2148066 90.9753103,20.2148066 Z M6.58489237,1.81138611 L16.8771336,17.7256112 L27.1140545,1.81138611 L33.5883528,1.81138611 L33.5883528,35.5062711 L26.6160316,35.5062711 L26.6160316,13.7749949 L16.9325471,28.2622045 L16.711126,28.2622045 L6.91690767,13.7749949 L6.91690767,35.5062711 L0,35.5062711 L0,1.81138611 L6.58489237,1.81138611 Z M46.6491732,10.975643 L46.6491732,35.5062249 L39.7879118,35.5062249 L39.7879118,10.975643 L46.6491732,10.975643 Z M90.9753103,9.23634657e-05 C95.691045,9.23634657e-05 99.5141103,3.79161263 99.5141103,8.46843671 C99.5141103,13.1454917 95.691045,16.9367811 90.9753103,16.9367811 C86.2593427,16.9367811 82.4365102,13.1454917 82.4365102,8.46843671 C82.4365102,3.79161263 86.2593427,9.23634657e-05 90.9753103,9.23634657e-05 Z M43.2184261,0 C45.464768,0 47.2857298,1.80593666 47.2857298,4.03374345 C47.2857298,6.26155024 45.464768,8.067256 43.2184261,8.067256 C40.972317,8.067256 39.1513551,6.26155024 39.1513551,4.03374345 C39.1513551,1.80593666 40.972317,0 43.2184261,0 Z" id="mitid_logo"/>
            </g>
        </g>
    </g>
</svg>