<svg width="75" height="25" viewBox="0 0 75 25" fill="none" xmlns="http://www.w3.org/2000/svg">
<defs>
<linearGradient id="paint0_linear_987_14475" x1="13.3368" y1="7.69666" x2="12.8825" y2="2.39552" gradientUnits="userSpaceOnUse">
<stop stop-color="#504678"/>
<stop offset="0.302" stop-color="#504678" stop-opacity="0.616"/>
<stop offset="0.608" stop-color="#504678" stop-opacity="0.283"/>
<stop offset="0.852" stop-color="#504678" stop-opacity="0.076"/>
<stop offset="1" stop-color="#504678" stop-opacity="0"/>
</linearGradient>
<linearGradient id="paint1_linear_987_14475" x1="14.9495" y1="11.5201" x2="15.2345" y2="17.46" gradientUnits="userSpaceOnUse">
<stop stop-color="#504678"/>
<stop offset="0.302" stop-color="#504678" stop-opacity="0.616"/>
<stop offset="0.608" stop-color="#504678" stop-opacity="0.283"/>
<stop offset="0.852" stop-color="#504678" stop-opacity="0.076"/>
<stop offset="1" stop-color="#504678" stop-opacity="0"/>
</linearGradient>
<linearGradient id="paint2_linear_987_14475" x1="9.48478" y1="12.0262" x2="15.0455" y2="8.23539" gradientUnits="userSpaceOnUse">
<stop stop-color="#504678"/>
<stop offset="0.179" stop-color="#504678" stop-opacity="0.872"/>
<stop offset="0.526" stop-color="#504678" stop-opacity="0.536"/>
<stop offset="1" stop-color="#504678" stop-opacity="0"/>
</linearGradient>
<linearGradient id="paint3_linear_987_14475" x1="14.2554" y1="8.32054" x2="14.0087" y2="6.34773" gradientUnits="userSpaceOnUse">
<stop stop-color="#504678"/>
<stop offset="0.643" stop-color="#504678" stop-opacity="0.332"/>
<stop offset="1" stop-color="#504678" stop-opacity="0"/>
</linearGradient>
</defs>
<path d="M9.06648 24.0868C8.24252 24.0869 7.49959 23.5908 7.1839 22.8297L0.15541 5.86241C-0.274594 4.82423 0.21834 3.63403 1.25646 3.2039L8.61809 0.154969C9.11659 -0.0516115 9.67674 -0.0516579 10.1753 0.15484C10.6738 0.361337 11.0698 0.757456 11.2763 1.25602L18.3047 18.224C18.7341 19.2619 18.2412 20.4513 17.2037 20.8815L9.84207 23.9318C9.59624 24.0339 9.33268 24.0866 9.06648 24.0868ZM9.39683 1.09468C9.27346 1.09489 9.15134 1.11945 9.03749 1.16697L1.67551 4.2159C1.44538 4.31122 1.26256 4.49407 1.16727 4.7242C1.07198 4.95434 1.07203 5.21291 1.16741 5.44301L8.1959 22.4113C8.39486 22.8901 8.94376 23.1175 9.42302 22.9198L16.7847 19.8688C17.0148 19.7734 17.1976 19.5906 17.2929 19.3604C17.3882 19.1303 17.3881 18.8717 17.2927 18.6416L10.2643 1.67507C10.1188 1.32425 9.77661 1.09532 9.39683 1.09468Z" fill="#5A78FF"/>
<path style="mix-blend-mode:multiply" opacity="0.7" d="M11.7406 2.37571L10.7285 2.79492L13.5113 9.51327L14.5234 9.09405L11.7406 2.37571Z" fill="url(#paint0_linear_987_14475)"/>
<path style="mix-blend-mode:multiply" opacity="0.7" d="M16.8248 17.5149L17.8369 17.0957L14.6869 9.49078L13.6748 9.91L16.8248 17.5149Z" fill="url(#paint1_linear_987_14475)"/>
<path d="M15.5473 12.4753C13.4419 13.3484 11.684 14.5517 10.533 16.0023L7.56543 8.83521C8.91906 7.26254 10.642 6.05061 12.5797 5.30822C14.6851 4.4352 16.8121 4.01266 18.6192 4.25886L21.5875 11.4256C19.5182 11.2698 17.4426 11.6305 15.5473 12.4753Z" fill="#5A78FF"/>
<g style="mix-blend-mode:multiply" opacity="0.4">
<path opacity="0.9" d="M15.5453 12.4753C13.4399 13.3484 11.682 14.5517 10.531 16.0023L7.56348 8.83521C8.91711 7.26254 10.6401 6.05061 12.5777 5.30822C14.6831 4.4352 16.8101 4.01266 18.6173 4.25886L21.5855 11.4256C19.5163 11.2698 17.4407 11.6305 15.5453 12.4753Z" fill="url(#paint2_linear_987_14475)"/>
<path opacity="0.7" d="M15.5453 12.4753C13.4399 13.3484 11.682 14.5517 10.531 16.0023L7.56348 8.83521C8.91711 7.26254 10.6401 6.05061 12.5777 5.30822C14.6831 4.4352 16.8101 4.01266 18.6173 4.25886L21.5855 11.4256C19.5163 11.2698 17.4407 11.6305 15.5453 12.4753Z" fill="url(#paint3_linear_987_14475)"/>
</g>
<path d="M16.5151 14.6575C14.2362 14.6575 12.15 15.0979 10.5332 15.9967V8.74998C12.3856 7.81524 14.441 7.35507 16.5151 7.41077C18.794 7.41077 20.9211 7.83331 22.4967 8.75172V15.9985C20.6447 15.063 18.5893 14.6022 16.5151 14.6575ZM28.157 14.6641L30.0008 8.83588C30.0201 8.75515 30.0892 8.69598 30.1719 8.68921H31.0973C31.1803 8.70085 31.2501 8.75723 31.2789 8.83588L32.7141 12.513C32.7421 12.5864 32.8154 12.5933 32.8398 12.513L34.2646 8.83588C34.2934 8.75723 34.3632 8.70085 34.4462 8.68921H35.3716C35.4543 8.69598 35.5234 8.75515 35.5427 8.83588L37.3656 14.6641C37.3868 14.709 37.3826 14.7618 37.3546 14.8027C37.3266 14.8437 37.2789 14.8667 37.2294 14.8632H36.1294C36.0514 14.8667 35.9821 14.8137 35.9652 14.7375L34.7954 10.9521C34.7779 10.8787 34.6941 10.8787 34.6697 10.9521L33.2729 14.7095C33.2491 14.8 33.1674 14.8631 33.0738 14.8632H32.4278C32.3265 14.8632 32.2741 14.8073 32.2357 14.7095L30.811 10.9521C30.783 10.8787 30.7097 10.8787 30.6922 10.9521L29.4944 14.7375C29.4758 14.8156 29.4034 14.8688 29.3233 14.8632H28.2757C28.2285 14.8625 28.185 14.8373 28.1608 14.7968C28.1366 14.7562 28.1352 14.706 28.157 14.6641ZM37.7148 12.5689C37.6949 11.576 38.2777 10.6698 39.1894 10.276C40.1011 9.88217 41.1604 10.0791 41.8697 10.7742C42.579 11.4693 42.7972 12.5244 42.4219 13.4438C42.0466 14.3633 41.1523 14.9643 40.1592 14.9645C39.5129 14.9865 38.8858 14.7428 38.424 14.2902C37.9621 13.8376 37.7058 13.2155 37.7148 12.5689ZM41.3465 12.5689C41.3027 11.9159 40.7443 11.4181 40.0906 11.4494C39.4369 11.4806 38.9285 12.0294 38.9472 12.6836C38.9659 13.3378 39.5048 13.8566 40.1592 13.8505C40.8389 13.8221 41.3671 13.2486 41.3395 12.5689H41.3465ZM44.7548 14.4861C44.664 14.4127 44.5837 14.4407 44.5837 14.5664V14.6851C44.5838 14.7769 44.5113 14.8525 44.4196 14.8562H43.5675C43.4745 14.8526 43.4 14.7781 43.3964 14.6851V8.85683C43.4 8.76385 43.4745 8.6893 43.5675 8.68572H44.4649C44.5567 8.68947 44.6292 8.76499 44.6291 8.85683V10.5191C44.6291 10.6378 44.7094 10.6727 44.8386 10.5819C45.1823 10.3244 45.6 10.1848 46.0294 10.1838C47.2726 10.1838 48.2259 11.2314 48.2259 12.5794C48.2543 13.1953 48.0332 13.7966 47.6126 14.2475C47.192 14.6983 46.6074 14.9606 45.991 14.9749C45.5327 14.97 45.0925 14.7959 44.7548 14.4861ZM46.9897 12.5794C47.0241 12.1296 46.8036 11.6985 46.4188 11.4631C46.034 11.2277 45.5498 11.2277 45.165 11.4631C44.7803 11.6985 44.5598 12.1296 44.5942 12.5794C44.5819 12.9053 44.7012 13.2224 44.9251 13.4595C45.1491 13.6966 45.4589 13.8337 45.785 13.84C46.1138 13.8327 46.4261 13.6943 46.6523 13.4556C46.8786 13.2169 47 12.8976 46.9897 12.5689V12.5794ZM48.9767 9.11175C48.9767 8.72603 49.2894 8.41334 49.6751 8.41334C50.0608 8.41334 50.3735 8.72603 50.3735 9.11175C50.3735 9.49748 50.0608 9.81017 49.6751 9.81017C49.2894 9.81017 48.9767 9.49748 48.9767 9.11175ZM49.0396 14.6991V10.4737C49.0395 10.3818 49.1119 10.3063 49.2037 10.3026H50.1012C50.1484 10.3007 50.1945 10.3176 50.2292 10.3497C50.2639 10.3818 50.2844 10.4264 50.2862 10.4737V14.6851C50.2827 14.7781 50.2081 14.8526 50.1151 14.8562H49.2037C49.1119 14.8525 49.0395 14.7769 49.0396 14.6851V14.6991ZM51.285 13.3162V8.85683C51.2849 8.76499 51.3573 8.68947 51.4491 8.68572H52.3465C52.4395 8.6893 52.5141 8.76385 52.5177 8.85683V13.3441C52.5177 13.634 52.6434 13.826 52.9612 13.826C53.0065 13.826 53.0501 13.8441 53.0822 13.8762C53.1142 13.9083 53.1323 13.9518 53.1323 13.9972V14.741C53.1285 14.8327 53.053 14.9052 52.9612 14.9051C51.7669 14.9051 51.285 14.514 51.285 13.3162ZM53.4675 12.5968C53.4706 11.7535 53.9234 10.9758 54.6554 10.5568C55.3873 10.1378 56.2872 10.1412 57.016 10.5656C57.7449 10.99 58.1919 11.7709 58.1888 12.6143C58.1888 12.7784 58.1434 12.9146 57.9793 12.9146H54.8573C54.777 12.9146 54.7491 12.96 54.7561 13.0333C54.8336 13.5804 55.3227 13.9731 55.8735 13.9308C56.205 13.9357 56.5214 13.7923 56.7361 13.5397C56.8027 13.4461 56.9111 13.3913 57.0259 13.393H57.8605C58.0072 13.393 58.0701 13.4943 58.0142 13.6375C57.5246 14.6356 56.4119 15.1649 55.3287 14.9149C54.2454 14.6649 53.4772 13.7016 53.4745 12.5899L53.4675 12.5968ZM56.7815 12.1778C56.8443 12.1778 56.8723 12.1499 56.8618 12.0765C56.7666 11.5753 56.3243 11.2155 55.8142 11.2245C55.3153 11.224 54.8816 11.5666 54.7666 12.0521C54.7491 12.1149 54.7666 12.1778 54.8399 12.1778H56.7815ZM58.9431 14.6851V8.85683C58.943 8.76499 59.0154 8.68947 59.1072 8.68572H61.9672C63.2732 8.68572 64.1637 9.44699 64.1637 10.7286C64.1637 12.0102 63.1545 12.7994 61.9043 12.7994H60.3888C60.3427 12.7946 60.297 12.8113 60.2649 12.8448C60.2328 12.8782 60.2179 12.9246 60.2247 12.9705V14.6851C60.2211 14.7781 60.1465 14.8526 60.0536 14.8562H59.1107C59.0176 14.8543 58.9431 14.7783 58.9431 14.6851ZM61.9043 11.7448C62.4455 11.7277 62.8714 11.2769 62.8577 10.7356C62.8655 10.4792 62.7673 10.2309 62.5862 10.0492C62.4052 9.8675 62.1573 9.76841 61.9009 9.77525H60.3748C60.2666 9.77525 60.2212 9.83112 60.2212 9.93938V11.5911C60.2212 11.6994 60.2666 11.7553 60.3748 11.7553L61.9043 11.7448ZM64.6037 12.5689C64.5802 11.9513 64.8053 11.3501 65.2286 10.8998C65.652 10.4495 66.2382 10.1879 66.8561 10.1733C67.302 10.1758 67.7316 10.3409 68.0644 10.6378C68.1447 10.7111 68.2355 10.7006 68.2355 10.5924V10.4737C68.2355 10.383 68.309 10.3095 68.3996 10.3095H69.2517C69.3446 10.3131 69.4192 10.3877 69.4228 10.4806V13.4768C69.4228 13.7038 69.5031 13.8051 69.6602 13.826C69.7417 13.8277 69.8085 13.8914 69.8139 13.9727V14.7619C69.8139 14.8468 69.7451 14.9156 69.6602 14.9156C69.0596 14.9156 68.7069 14.7445 68.5078 14.3987C68.452 14.308 68.3891 14.2905 68.2983 14.3813C67.9147 14.7762 67.3856 14.9959 66.8352 14.9889C66.2159 14.9709 65.63 14.7041 65.2101 14.2486C64.7901 13.7931 64.5715 13.1876 64.6037 12.5689ZM68.2355 12.5689C68.2698 12.1204 68.05 11.6905 67.6663 11.4558C67.2826 11.221 66.7998 11.221 66.4161 11.4558C66.0324 11.6905 65.8126 12.1204 65.8469 12.5689C65.8126 13.0174 66.0324 13.4473 66.4161 13.682C66.7998 13.9168 67.2826 13.9168 67.6663 13.682C68.05 13.4473 68.2698 13.0174 68.2355 12.5689ZM70.2364 16.4556V15.7118C70.2402 15.62 70.3157 15.5476 70.4075 15.5476C70.9918 15.5914 71.5306 15.2312 71.7136 14.6746C71.7442 14.5578 71.7318 14.4338 71.6787 14.3254L70.0094 10.547C69.9806 10.4956 69.9815 10.4327 70.0118 10.3822C70.0421 10.3317 70.0972 10.3013 70.1561 10.3026H71.0536C71.1444 10.3026 71.2002 10.3759 71.2352 10.4667L72.2828 12.8832C72.3561 13.0753 72.4748 13.0648 72.5552 12.8832L73.5539 10.4597C73.5888 10.3689 73.6342 10.313 73.725 10.313H74.5875C74.6413 10.3102 74.6928 10.3351 74.7239 10.379C74.7551 10.4229 74.7616 10.4797 74.7412 10.5295L73.0231 14.5943C72.398 16.0749 71.7345 16.6267 70.4075 16.6267C70.3146 16.6231 70.24 16.5486 70.2364 16.4556Z" fill="#5A78FF"/>
</svg>
