<svg width="100" height="100" viewBox="0 0 100 100" fill="none" xmlns="http://www.w3.org/2000/svg">
<g clip-path="url(#clip0_4364_39064)">
<path opacity="0.5" fill-rule="evenodd" clip-rule="evenodd" d="M40.7959 6.60537L50.2703 4.70913L47.3051 4.18082C44.7696 3.72909 42.3118 4.7382 40.7959 6.60537ZM53.7147 5.3228L69.2217 82.8019L32.0676 90.2381L73.8938 97.6901C77.6096 98.3521 81.1586 95.8765 81.8206 92.1607L94.7527 19.576C95.4147 15.8602 92.9392 12.3112 89.2233 11.6492L53.7147 5.3228Z" fill="#8953FF"/>
<path fill-rule="evenodd" clip-rule="evenodd" d="M3.57582 17.3635C2.83462 13.6589 5.17402 10.0674 8.80101 9.34178L49.7172 1.15564C53.3442 0.429989 56.8853 2.84489 57.6265 6.54949L72.1049 78.9149C72.8461 82.6194 70.5067 86.2109 66.8797 86.9365L25.9635 95.1227C22.3365 95.8483 18.7954 93.4334 18.0542 89.7288L3.57582 17.3635ZM41.7151 24.7539C42.6243 29.2968 39.6786 33.7167 35.1357 34.626C30.5928 35.5352 26.1729 32.5895 25.2636 28.0466C24.3544 23.5036 27.3001 19.0838 31.843 18.1745C36.386 17.2653 40.8059 20.211 41.7151 24.7539ZM35.6059 36.9759C29.116 38.2748 24.9079 44.5889 26.2068 51.0788L26.8482 54.2836C27.0135 55.1096 27.8171 55.6452 28.6431 55.4799L49.154 51.3747C49.98 51.2094 50.5156 50.4058 50.3503 49.5798L49.7089 46.375C48.4099 39.8851 42.0958 35.6769 35.6059 36.9759ZM20.8038 66.8258C20.544 65.5278 21.3856 64.265 22.6836 64.0052L57.9367 56.9495C59.2347 56.6897 60.4975 57.5314 60.7573 58.8294L61.2277 61.1796C61.4875 62.4776 60.6458 63.7404 59.3479 64.0002L24.0947 71.0559C22.7968 71.3156 21.5339 70.474 21.2741 69.176L20.8038 66.8258ZM28.5609 75.0507C27.263 75.3105 26.4213 76.5733 26.6811 77.8713L26.9163 79.0464C27.1761 80.3444 28.4389 81.186 29.7369 80.9263L57.9394 75.2817C59.2374 75.0219 60.079 73.7591 59.8192 72.4611L59.584 71.286C59.3242 69.988 58.0614 69.1464 56.7634 69.4062L28.5609 75.0507Z" fill="#8953FF"/>
</g>
<defs>
<clipPath id="clip0_4364_39064">
<rect width="100" height="100" fill="white"/>
</clipPath>
</defs>
</svg>
