<svg width="33" height="33" viewBox="0 0 33 33" fill="none" xmlns="http://www.w3.org/2000/svg">
<mask id="mask0_5814_52582" style="mask-type:luminance" maskUnits="userSpaceOnUse" x="0" y="0" width="33" height="33">
<path d="M33 0H0V33H33V0Z" fill="white"/>
</mask>
<g mask="url(#mask0_5814_52582)">
<path fill-rule="evenodd" clip-rule="evenodd" d="M2.63867 7.92656C2.63867 5.84059 4.41077 4.81876 6.37336 5.23671L21.3441 8.42485C23.2926 8.83981 25.0787 10.4476 25.0787 12.547V29.707C25.0787 31.793 23.3067 32.96 21.3441 32.542L6.37336 29.3539C4.41077 28.936 2.63867 27.173 2.63867 25.087V7.92656ZM6.37336 7.87671C5.66882 7.72668 5.27867 8.12511 5.27867 8.587V25.087C5.27867 25.5489 5.66882 26.5638 6.37336 26.7139L21.3441 29.902C22.0486 30.052 22.4387 29.5089 22.4387 29.047V12.547C22.4387 12.0985 22.0627 11.2179 21.3441 11.0649L6.37336 7.87671Z" fill="#DAD4ED"/>
<path fill-rule="evenodd" clip-rule="evenodd" d="M10.5879 2.36693C10.5898 1.63835 11.1694 1.1724 11.8825 1.32623L25.1797 4.19508C28.0263 4.80922 30.3586 7.65467 30.3586 10.5651V24.4251C30.3586 25.1541 29.7518 25.6385 29.0387 25.4865C28.3256 25.3347 27.7186 24.4941 27.7186 23.7651V9.90511C27.7186 8.44989 26.5959 7.14065 25.1727 6.83358L11.8754 3.96473C11.1624 3.8109 10.586 3.09553 10.5879 2.36693Z" fill="#DAD4ED"/>
<path d="M7.91797 12.38C7.91797 11.6926 8.46309 11.2511 9.13554 11.3941L18.5804 13.4016C19.2528 13.5446 19.798 14.2178 19.798 14.9052C19.798 15.5927 19.2528 16.0341 18.5804 15.8911L9.13554 13.8835C8.46309 13.7407 7.91797 13.0675 7.91797 12.38Z" fill="#DAD4ED"/>
<path d="M7.91797 17.3445C7.91797 16.6573 8.46288 16.2161 9.13505 16.3589L15.674 17.7488C16.3463 17.8917 16.8912 18.5646 16.8912 19.2518C16.8912 19.939 16.3463 20.3803 15.674 20.2374L9.13505 18.8475C8.46288 18.7046 7.91797 18.0317 7.91797 17.3445Z" fill="#DAD4ED"/>
<path d="M14.2485 22.4511L9.13505 21.3642C8.46287 21.2213 7.91797 21.6625 7.91797 22.3497C7.91797 23.0369 8.46287 23.7098 9.13505 23.8527L14.2485 24.9396C14.9207 25.0825 15.4656 24.6412 15.4656 23.954C15.4656 23.2669 14.9207 22.594 14.2485 22.4511Z" fill="#DAD4ED"/>
</g>
</svg>
