<svg width="25" height="25" viewBox="0 0 25 25" fill="none" xmlns="http://www.w3.org/2000/svg">
<path fill-rule="evenodd" clip-rule="evenodd" d="M14.5876 4.08572C15.082 3.90354 15.633 4.13637 15.8471 4.61793L17.0861 7.4058C17.3104 7.91048 17.9014 8.13778 18.4061 7.91347C18.9108 7.68917 19.1381 7.09821 18.9138 6.59352L17.6747 3.80565C17.0326 2.36097 15.3796 1.6625 13.8961 2.20903L7.87481 4.42742C6.41464 4.96538 5.6082 6.53051 6.01764 8.0318L6.55442 10H5C3.34315 10 2 11.3431 2 13V21C2 22.6569 3.34315 24 5 24H19C20.6569 24 22 22.6569 22 21V13C22 11.3431 20.6569 10 19 10H8.62747L7.94717 7.50557C7.81069 7.00514 8.0795 6.48343 8.56623 6.30411L14.5876 4.08572ZM5 12H19C19.5523 12 20 12.4477 20 13V21C20 21.5523 19.5523 22 19 22H5C4.44772 22 4 21.5523 4 21V13C4 12.4477 4.44772 12 5 12Z" fill="#DAD4ED"/>
<path fill-rule="evenodd" clip-rule="evenodd" d="M13 17.7324C13.5978 17.3866 14 16.7403 14 16C14 14.8954 13.1046 14 12 14C10.8954 14 10 14.8954 10 16C10 16.7403 10.4022 17.3866 11 17.7324V19.5C11 20.0523 11.4477 20.5 12 20.5C12.5523 20.5 13 20.0523 13 19.5V17.7324Z" fill="#DAD4ED"/>
</svg>
