<svg width="25" height="25" viewBox="0 0 25 25" fill="none" xmlns="http://www.w3.org/2000/svg">
<g clip-path="url(#clip0_149_9179)">
<path fill-rule="evenodd" clip-rule="evenodd" d="M2 5.99967C2 4.41939 3.3425 3.64527 4.82931 3.9619L16.1708 6.37716C17.6469 6.69152 19 7.90957 19 9.5V22.5C19 24.0803 17.6576 24.9644 16.1708 24.6477L4.82931 22.2325C3.3425 21.9159 2 20.5803 2 19L2 5.99967ZM4.82931 5.9619C4.29557 5.84824 4 6.15008 4 6.5V19C4 19.3499 4.29557 20.1188 4.82931 20.2325L16.1708 22.6477C16.7045 22.7614 17 22.3499 17 22V9.5C17 9.16023 16.7152 8.49311 16.1708 8.37716L4.82931 5.9619Z" fill="#DAD4ED"/>
<path fill-rule="evenodd" clip-rule="evenodd" d="M8.02222 1.78926C8.02369 1.2373 8.46278 0.884312 9.00295 1.00085L19.0766 3.17422C21.2331 3.63948 23 5.79512 23 8V18.5C23 19.0523 22.5403 19.4192 22.0001 19.3041C21.4599 19.1891 21 18.5523 21 18V7.5C21 6.39756 20.1495 5.40571 19.0713 5.17308L8.99762 2.99971C8.45745 2.88317 8.02075 2.34123 8.02222 1.78926Z" fill="#DAD4ED"/>
<path d="M6 9.37367C6 8.85286 6.41297 8.51844 6.9224 8.62673L14.0776 10.1476C14.587 10.2559 15 10.7659 15 11.2867V11.2867C15 11.8075 14.587 12.1419 14.0776 12.0336L6.9224 10.5127C6.41297 10.4045 6 9.89447 6 9.37367V9.37367Z" fill="#DAD4ED"/>
<path d="M6 13.136C6 12.6154 6.41281 12.2811 6.92203 12.3893L11.8758 13.4423C12.3851 13.5505 12.7979 14.0603 12.7979 14.5809C12.7979 15.1015 12.3851 15.4358 11.8758 15.3276L6.92203 14.2746C6.41281 14.1664 6 13.6566 6 13.136Z" fill="#DAD4ED"/>
<rect width="5.84566" height="1.88526" rx="0.94263" transform="matrix(0.978148 0.207912 0 1 6 15.9854)" fill="#DAD4ED"/>
</g>
<defs>
<clipPath id="clip0_149_9179">
<rect width="25" height="25" fill="white"/>
</clipPath>
</defs>
</svg>
