<svg width="25" height="25" viewBox="0 0 25 25" fill="none" xmlns="http://www.w3.org/2000/svg">
<path fill-rule="evenodd" clip-rule="evenodd" d="M4 4H17C18.1046 4 19 4.89543 19 6V8H12C11.4477 8 11 8.44772 11 9C11 9.55228 11.4477 10 12 10H19H21H24C24.5523 10 25 9.55228 25 9C25 8.44772 24.5523 8 24 8H21V6C21 3.79086 19.2091 2 17 2H4C1.79086 2 0 3.79086 0 6V19C0 21.2091 1.79086 23 4 23H17C19.2091 23 21 21.2091 21 19H19C19 20.1046 18.1046 21 17 21H4C2.89543 21 2 20.1046 2 19V6C2 4.89543 2.89543 4 4 4ZM21 12V15H24C24.5523 15 25 15.4477 25 16C25 16.5523 24.5523 17 24 17H21H19H12C11.4477 17 11 16.5523 11 16C11 15.4477 11.4477 15 12 15H19V12H21ZM7 11C8.10457 11 9 10.1046 9 9C9 7.89543 8.10457 7 7 7C5.89543 7 5 7.89543 5 9C5 10.1046 5.89543 11 7 11ZM9 16C9 17.1046 8.10457 18 7 18C5.89543 18 5 17.1046 5 16C5 14.8954 5.89543 14 7 14C8.10457 14 9 14.8954 9 16Z" fill="#DAD4ED"/>
</svg>
