<svg width="277" height="301" viewBox="0 0 277 301" fill="none" xmlns="http://www.w3.org/2000/svg">
<g clip-path="url(#clip0_4407_78564)">
<path d="M229.069 223.938L224.362 234.079L211.502 226.655L229.069 223.938Z" fill="#453852"/>
<path d="M97.5467 5.95274L92.8397 16.0941L79.9798 8.6701L97.5467 5.95274Z" fill="#453852"/>
<path d="M197.956 241.9L193.249 252.041L180.389 244.617L197.956 241.9Z" fill="#453852"/>
<path d="M113.103 -3.02773L108.396 7.11361L95.5365 -0.310368L113.103 -3.02773Z" fill="#453852"/>
<path d="M213.513 232.92L208.805 243.061L195.946 235.637L213.513 232.92Z" fill="#453852"/>
<path d="M244.625 214.958L239.918 225.099L227.058 217.675L244.625 214.958Z" fill="#453852"/>
<path d="M81.9901 14.9337L77.283 25.075L64.4232 17.6511L81.9901 14.9337Z" fill="#453852"/>
<path d="M182.399 250.88L177.692 261.022L164.832 253.598L182.399 250.88Z" fill="#453852"/>
<path d="M127.245 165.156L122.538 175.297L109.678 167.873L127.245 165.156Z" fill="#453852"/>
<path d="M96.1326 183.117L91.4256 193.258L78.5658 185.834L96.1326 183.117Z" fill="#453852"/>
<path d="M111.689 174.136L106.982 184.278L94.1224 176.854L111.689 174.136Z" fill="#453852"/>
<path d="M142.802 156.175L138.095 166.317L125.235 158.893L142.802 156.175Z" fill="#453852"/>
<path d="M281.394 76.1656L276.687 86.307L263.828 78.883L281.394 76.1656Z" fill="#453852"/>
<path d="M80.576 192.098L75.869 202.24L63.0091 194.816L80.576 192.098Z" fill="#453852"/>
<path d="M292.709 10.8512L288.002 20.9925L275.142 13.5685L292.709 10.8512Z" fill="#453852"/>
<path d="M91.8904 126.784L87.1834 136.925L74.3236 129.501L91.8904 126.784Z" fill="#453852"/>
<path d="M230.483 46.774L225.776 56.9154L212.916 49.4914L230.483 46.774Z" fill="#453852"/>
<path d="M29.6649 162.707L24.9578 172.848L12.098 165.424L29.6649 162.707Z" fill="#453852"/>
<path d="M261.596 28.8126L256.888 38.9539L244.029 31.53L261.596 28.8126Z" fill="#453852"/>
<path d="M60.7772 144.745L56.0701 154.886L43.2103 147.462L60.7772 144.745Z" fill="#453852"/>
<path d="M199.37 64.7355L194.663 74.8768L181.803 67.4528L199.37 64.7355Z" fill="#453852"/>
<path d="M-1.44843 180.668L-6.15545 190.809L-19.0153 183.385L-1.44843 180.668Z" fill="#453852"/>
<path d="M277.152 19.8321L272.445 29.9735L259.585 22.5495L277.152 19.8321Z" fill="#453852"/>
<path d="M76.3338 135.764L71.6268 145.906L58.767 138.482L76.3338 135.764Z" fill="#453852"/>
<path d="M214.927 55.755L210.22 65.8963L197.36 58.4723L214.927 55.755Z" fill="#453852"/>
<path d="M14.1082 171.687L9.40119 181.828L-3.45863 174.404L14.1082 171.687Z" fill="#453852"/>
<path d="M246.039 37.7936L241.332 47.9349L228.472 40.5109L246.039 37.7936Z" fill="#453852"/>
<path d="M45.2205 153.726L40.5135 163.868L27.6537 156.444L45.2205 153.726Z" fill="#453852"/>
<path d="M183.814 73.7159L179.107 83.8573L166.247 76.4333L183.814 73.7159Z" fill="#453852"/>
<path d="M7.03693 77.798L2.32991 87.9393L-10.5299 80.5153L7.03693 77.798Z" fill="#453852"/>
<path d="M145.63 -2.21132L140.923 7.93001L128.063 0.506039L145.63 -2.21132Z" fill="#453852"/>
<path d="M246.039 233.736L241.332 243.877L228.472 236.453L246.039 233.736Z" fill="#453852"/>
<path d="M114.517 15.7501L109.81 25.8914L96.9506 18.4675L114.517 15.7501Z" fill="#453852"/>
<path d="M214.927 251.697L210.22 261.838L197.36 254.414L214.927 251.697Z" fill="#453852"/>
<path d="M130.074 6.76914L125.367 16.9105L112.507 9.48651L130.074 6.76914Z" fill="#453852"/>
<path d="M230.483 242.716L225.776 252.858L212.916 245.434L230.483 242.716Z" fill="#453852"/>
<path d="M261.596 224.754L256.888 234.896L244.029 227.472L261.596 224.754Z" fill="#453852"/>
<path d="M98.9608 24.7306L94.2537 34.8719L81.3939 27.4479L98.9608 24.7306Z" fill="#453852"/>
<path d="M199.37 260.677L194.663 270.819L181.803 263.395L199.37 260.677Z" fill="#453852"/>
<path d="M144.216 174.953L139.509 185.094L126.649 177.67L144.216 174.953Z" fill="#453852"/>
<path d="M113.103 192.915L108.396 203.056L95.5365 195.632L113.103 192.915Z" fill="#453852"/>
<path d="M128.66 183.933L123.953 194.075L111.093 186.651L128.66 183.933Z" fill="#453852"/>
<path d="M159.772 165.972L155.065 176.114L142.205 168.69L159.772 165.972Z" fill="#453852"/>
<path d="M97.5467 201.895L92.8397 212.036L79.9798 204.612L97.5467 201.895Z" fill="#453852"/>
<path d="M108.86 136.581L104.153 146.722L91.2933 139.298L108.86 136.581Z" fill="#453852"/>
<path d="M247.454 56.5709L242.747 66.7122L229.887 59.2883L247.454 56.5709Z" fill="#453852"/>
<path d="M46.6356 172.504L41.9285 182.645L29.0687 175.221L46.6356 172.504Z" fill="#453852"/>
<path d="M278.566 38.61L273.859 48.7513L260.999 41.3273L278.566 38.61Z" fill="#453852"/>
<path d="M77.7479 154.543L73.0408 164.684L60.181 157.26L77.7479 154.543Z" fill="#453852"/>
<path d="M216.341 74.5328L211.634 84.6742L198.774 77.2502L216.341 74.5328Z" fill="#453852"/>
<path d="M15.5223 190.465L10.8153 200.607L-2.04456 193.183L15.5223 190.465Z" fill="#453852"/>
<path d="M294.123 29.629L289.416 39.7703L276.556 32.3464L294.123 29.629Z" fill="#453852"/>
<path d="M93.3045 145.561L88.5975 155.702L75.7377 148.278L93.3045 145.561Z" fill="#453852"/>
<path d="M231.897 65.5519L227.19 75.6932L214.33 68.2692L231.897 65.5519Z" fill="#453852"/>
<path d="M31.0789 181.484L26.3719 191.625L13.5121 184.201L31.0789 181.484Z" fill="#453852"/>
<path d="M263.01 47.5909L258.303 57.7323L245.443 50.3083L263.01 47.5909Z" fill="#453852"/>
<path d="M62.1912 163.523L57.4842 173.664L44.6244 166.24L62.1912 163.523Z" fill="#453852"/>
<path d="M200.784 83.5133L196.077 93.6546L183.217 86.2306L200.784 83.5133Z" fill="#453852"/>
<path d="M-0.0343633 199.446L-4.74138 209.587L-17.6012 202.163L-0.0343633 199.446Z" fill="#453852"/>
<path d="M212.098 214.141L207.391 224.283L194.532 216.859L212.098 214.141Z" fill="#453852"/>
<path d="M80.576 -3.84414L75.869 6.2972L63.0091 -1.12677L80.576 -3.84414Z" fill="#453852"/>
<path d="M180.985 232.103L176.278 242.244L163.418 234.82L180.985 232.103Z" fill="#453852"/>
<path d="M196.542 223.122L191.835 233.263L178.975 225.839L196.542 223.122Z" fill="#453852"/>
<path d="M227.654 205.161L222.947 215.302L210.087 207.878L227.654 205.161Z" fill="#453852"/>
<path d="M65.0203 5.13633L60.3133 15.2777L47.4535 7.85369L65.0203 5.13633Z" fill="#453852"/>
<path d="M165.43 241.084L160.722 251.225L147.863 243.801L165.43 241.084Z" fill="#453852"/>
<path d="M275.738 1.0543L271.031 11.1956L258.171 3.77166L275.738 1.0543Z" fill="#453852"/>
<path d="M74.9197 116.987L70.2127 127.128L57.3529 119.704L74.9197 116.987Z" fill="#453852"/>
<path d="M213.513 36.9772L208.805 47.1185L195.946 39.6945L213.513 36.9772Z" fill="#453852"/>
<path d="M12.6942 152.909L7.98713 163.05L-4.87269 155.626L12.6942 152.909Z" fill="#453852"/>
<path d="M244.625 19.0157L239.918 29.1571L227.058 21.7331L244.625 19.0157Z" fill="#453852"/>
<path d="M43.8065 134.948L39.0994 145.089L26.2396 137.665L43.8065 134.948Z" fill="#453852"/>
<path d="M182.399 54.9386L177.692 65.0799L164.832 57.6559L182.399 54.9386Z" fill="#453852"/>
<path d="M282.808 290.885L278.101 301.027L265.242 293.603L282.808 290.885Z" fill="#453852"/>
<path d="M260.181 10.0348L255.474 20.1761L242.615 12.7521L260.181 10.0348Z" fill="#453852"/>
<path d="M59.3631 125.967L54.6561 136.109L41.7963 128.685L59.3631 125.967Z" fill="#453852"/>
<path d="M197.956 45.9576L193.249 56.099L180.389 48.675L197.956 45.9576Z" fill="#453852"/>
<path d="M-2.86249 161.89L-7.56951 172.032L-20.4293 164.608L-2.86249 161.89Z" fill="#453852"/>
<path d="M229.069 27.9967L224.362 38.138L211.502 30.714L229.069 27.9967Z" fill="#453852"/>
<path d="M28.2508 143.929L23.5438 154.071L10.684 146.647L28.2508 143.929Z" fill="#453852"/>
<path d="M166.844 63.919L162.137 74.0604L149.277 66.6364L166.844 63.919Z" fill="#453852"/>
<path d="M267.253 299.866L262.546 310.007L249.686 302.583L267.253 299.866Z" fill="#453852"/>
<path d="M195.128 204.344L190.421 214.486L177.561 207.062L195.128 204.344Z" fill="#453852"/>
<path d="M164.014 222.306L159.307 232.448L146.448 225.024L164.014 222.306Z" fill="#453852"/>
<path d="M179.571 213.325L174.864 223.466L162.004 216.042L179.571 213.325Z" fill="#453852"/>
<path d="M210.684 195.364L205.977 205.505L193.118 198.081L210.684 195.364Z" fill="#453852"/>
<path d="M48.0496 -4.66054L43.3426 5.4808L30.4828 -1.94318L48.0496 -4.66054Z" fill="#453852"/>
<path d="M148.459 231.286L143.752 241.427L130.892 234.003L148.459 231.286Z" fill="#453852"/>
<path d="M258.767 -8.74257L254.06 1.39876L241.201 -6.02521L258.767 -8.74257Z" fill="#453852"/>
<path d="M57.949 107.19L53.242 117.331L40.3822 109.907L57.949 107.19Z" fill="#453852"/>
<path d="M196.542 27.1803L191.835 37.3216L178.975 29.8976L196.542 27.1803Z" fill="#453852"/>
<path d="M-4.27655 143.113L-8.98357 153.254L-21.8434 145.83L-4.27655 143.113Z" fill="#453852"/>
<path d="M227.654 9.21885L222.947 19.3602L210.087 11.9362L227.654 9.21885Z" fill="#453852"/>
<path d="M26.8358 125.151L22.1287 135.292L9.26891 127.868L26.8358 125.151Z" fill="#453852"/>
<path d="M165.43 45.1412L160.722 55.2826L147.863 47.8586L165.43 45.1412Z" fill="#453852"/>
<path d="M265.839 281.088L261.132 291.23L248.272 283.806L265.839 281.088Z" fill="#453852"/>
<path d="M243.211 0.237894L238.504 10.3792L225.644 2.95526L243.211 0.237894Z" fill="#453852"/>
<path d="M42.3924 116.171L37.6854 126.312L24.8256 118.888L42.3924 116.171Z" fill="#453852"/>
<path d="M180.985 36.1603L176.278 46.3016L163.418 38.8776L180.985 36.1603Z" fill="#453852"/>
<path d="M281.394 272.108L276.687 282.249L263.828 274.825L281.394 272.108Z" fill="#453852"/>
<path d="M212.098 18.1993L207.391 28.3407L194.532 20.9167L212.098 18.1993Z" fill="#453852"/>
<path d="M11.2801 134.131L6.57307 144.273L-6.28675 136.849L11.2801 134.131Z" fill="#453852"/>
<path d="M149.873 54.1222L145.166 64.2635L132.306 56.8395L149.873 54.1222Z" fill="#453852"/>
<path d="M250.282 290.069L245.575 300.21L232.715 292.786L250.282 290.069Z" fill="#453852"/>
<path d="M178.157 194.546L173.45 204.688L160.59 197.264L178.157 194.546Z" fill="#453852"/>
<path d="M147.045 212.508L142.338 222.65L129.478 215.226L147.045 212.508Z" fill="#453852"/>
<path d="M162.6 203.528L157.893 213.669L145.034 206.245L162.6 203.528Z" fill="#453852"/>
<path d="M193.714 185.567L189.007 195.708L176.147 188.284L193.714 185.567Z" fill="#453852"/>
<path d="M131.488 221.489L126.781 231.63L113.921 224.206L131.488 221.489Z" fill="#453852"/>
<path d="M40.9783 97.3927L36.2713 107.534L23.4115 100.11L40.9783 97.3927Z" fill="#453852"/>
<path d="M179.571 17.3829L174.864 27.5243L162.004 20.1003L179.571 17.3829Z" fill="#453852"/>
<path d="M279.98 253.33L275.273 263.471L262.413 256.047L279.98 253.33Z" fill="#453852"/>
<path d="M210.684 -0.578512L205.977 9.56283L193.118 2.13885L210.684 -0.578512Z" fill="#453852"/>
<path d="M9.86603 115.354L5.15901 125.495L-7.70081 118.071L9.86603 115.354Z" fill="#453852"/>
<path d="M148.459 35.3439L143.752 45.4852L130.892 38.0612L148.459 35.3439Z" fill="#453852"/>
<path d="M248.868 271.292L244.161 281.433L231.301 274.009L248.868 271.292Z" fill="#453852"/>
<path d="M226.24 -9.55947L221.533 0.58187L208.673 -6.84211L226.24 -9.55947Z" fill="#453852"/>
<path d="M25.4217 106.373L20.7147 116.514L7.85485 109.091L25.4217 106.373Z" fill="#453852"/>
<path d="M164.014 26.3639L159.307 36.5052L146.448 29.0812L164.014 26.3639Z" fill="#453852"/>
<path d="M264.424 262.31L259.717 272.451L246.857 265.028L264.424 262.31Z" fill="#453852"/>
<path d="M195.128 8.40196L190.421 18.5433L177.561 11.1193L195.128 8.40196Z" fill="#453852"/>
<path d="M-5.69061 124.335L-10.3976 134.476L-23.2575 127.052L-5.69061 124.335Z" fill="#453852"/>
<path d="M132.902 44.3248L128.195 54.4661L115.335 47.0422L132.902 44.3248Z" fill="#453852"/>
<path d="M233.311 280.272L228.604 290.413L215.744 282.989L233.311 280.272Z" fill="#453852"/>
<path d="M161.186 184.751L156.479 194.892L143.619 187.468L161.186 184.751Z" fill="#453852"/>
<path d="M130.074 202.712L125.367 212.853L112.507 205.429L130.074 202.712Z" fill="#453852"/>
<path d="M145.63 193.731L140.923 203.872L128.063 196.448L145.63 193.731Z" fill="#453852"/>
<path d="M176.743 175.769L172.036 185.91L159.176 178.487L176.743 175.769Z" fill="#453852"/>
<path d="M114.517 211.692L109.81 221.833L96.9506 214.409L114.517 211.692Z" fill="#453852"/>
<path d="M125.831 146.378L121.124 156.519L108.264 149.095L125.831 146.378Z" fill="#453852"/>
<path d="M264.424 66.3683L259.717 76.5096L246.857 69.0856L264.424 66.3683Z" fill="#453852"/>
<path d="M63.6053 182.3L58.8983 192.442L46.0384 185.018L63.6053 182.3Z" fill="#453852"/>
<path d="M94.7186 164.339L90.0115 174.481L77.1517 167.057L94.7186 164.339Z" fill="#453852"/>
<path d="M233.311 84.3302L228.604 94.4715L215.744 87.0475L233.311 84.3302Z" fill="#453852"/>
<path d="M32.493 200.262L27.786 210.404L14.9261 202.98L32.493 200.262Z" fill="#453852"/>
<path d="M110.275 155.359L105.568 165.5L92.7084 158.076L110.275 155.359Z" fill="#453852"/>
<path d="M248.868 75.3492L244.161 85.4906L231.301 78.0666L248.868 75.3492Z" fill="#453852"/>
<path d="M48.0496 191.282L43.3426 201.423L30.4828 193.999L48.0496 191.282Z" fill="#453852"/>
<path d="M279.98 57.3873L275.273 67.5286L262.413 60.1047L279.98 57.3873Z" fill="#453852"/>
<path d="M79.1619 173.32L74.4549 183.461L61.5951 176.037L79.1619 173.32Z" fill="#453852"/>
<path d="M217.755 93.3102L213.048 103.451L200.188 96.0275L217.755 93.3102Z" fill="#453852"/>
<path d="M16.9363 209.243L12.2293 219.384L-0.630502 211.96L16.9363 209.243Z" fill="#453852"/>
<path d="M24.0076 87.5953L19.3006 97.7367L6.44079 90.3127L24.0076 87.5953Z" fill="#453852"/>
<path d="M162.6 7.58555L157.893 17.7269L145.034 10.3029L162.6 7.58555Z" fill="#453852"/>
<path d="M263.01 243.533L258.303 253.674L245.443 246.25L263.01 243.533Z" fill="#453852"/>
<path d="M131.488 25.547L126.781 35.6883L113.921 28.2643L131.488 25.547Z" fill="#453852"/>
<path d="M231.897 261.494L227.19 271.635L214.33 264.211L231.897 261.494Z" fill="#453852"/>
<path d="M8.45099 96.5763L3.74397 106.718L-9.11585 99.2936L8.45099 96.5763Z" fill="#453852"/>
<path d="M147.045 16.5665L142.338 26.7078L129.478 19.2839L147.045 16.5665Z" fill="#453852"/>
<path d="M247.454 252.513L242.747 262.655L229.887 255.231L247.454 252.513Z" fill="#453852"/>
<path d="M178.157 -1.39492L173.45 8.74642L160.59 1.32244L178.157 -1.39492Z" fill="#453852"/>
<path d="M278.566 234.552L273.859 244.694L260.999 237.27L278.566 234.552Z" fill="#453852"/>
<path d="M115.931 34.5279L111.224 44.6693L98.3646 37.2453L115.931 34.5279Z" fill="#453852"/>
<path d="M216.341 270.475L211.634 280.617L198.774 273.193L216.341 270.475Z" fill="#453852"/>
<path d="M67.1414 23.506L62.4344 33.6473L49.5746 26.2233L67.1414 23.506Z" fill="#453852"/>
<path d="M167.551 259.453L162.844 269.594L149.984 262.17L167.551 259.453Z" fill="#453852"/>
<path d="M4.91583 59.4288L0.208812 69.5702L-12.651 62.1462L4.91583 59.4288Z" fill="#453852"/>
<path d="M105.325 295.376L100.618 305.517L87.7582 298.093L105.325 295.376Z" fill="#453852"/>
<path d="M36.0281 41.4674L31.3211 51.6087L18.4613 44.1847L36.0281 41.4674Z" fill="#453852"/>
<path d="M136.437 277.415L131.73 287.556L118.87 280.132L136.437 277.415Z" fill="#453852"/>
<path d="M275.031 197.405L270.324 207.546L257.464 200.122L275.031 197.405Z" fill="#453852"/>
<path d="M51.5848 32.4869L46.8778 42.6283L34.0179 35.2043L51.5848 32.4869Z" fill="#453852"/>
<path d="M151.994 268.433L147.287 278.575L134.427 271.151L151.994 268.433Z" fill="#453852"/>
<path d="M290.587 188.423L285.88 198.565L273.02 191.141L290.587 188.423Z" fill="#453852"/>
<path d="M89.7684 304.356L85.0614 314.497L72.2015 307.073L89.7684 304.356Z" fill="#453852"/>
<path d="M20.4725 50.4479L15.7655 60.5892L2.90563 53.1652L20.4725 50.4479Z" fill="#453852"/>
<path d="M120.882 286.395L116.175 296.536L103.315 289.112L120.882 286.395Z" fill="#453852"/>
<path d="M259.474 206.385L254.767 216.527L241.908 209.103L259.474 206.385Z" fill="#453852"/>
<path d="M266.546 84.7384L261.839 94.8797L248.979 87.4557L266.546 84.7384Z" fill="#453852"/>
<path d="M65.7274 200.671L61.0203 210.812L48.1605 203.388L65.7274 200.671Z" fill="#453852"/>
<path d="M204.32 120.661L199.613 130.802L186.753 123.378L204.32 120.661Z" fill="#453852"/>
<path d="M3.50177 236.592L-1.20525 246.734L-14.0651 239.31L3.50177 236.592Z" fill="#453852"/>
<path d="M235.432 102.699L230.725 112.841L217.866 105.417L235.432 102.699Z" fill="#453852"/>
<path d="M34.6141 218.631L29.9071 228.773L17.0472 221.349L34.6141 218.631Z" fill="#453852"/>
<path d="M173.207 138.622L168.5 148.763L155.64 141.339L173.207 138.622Z" fill="#453852"/>
<path d="M250.989 93.7184L246.282 103.86L233.422 96.4357L250.989 93.7184Z" fill="#453852"/>
<path d="M50.1707 209.651L45.4637 219.792L32.6039 212.368L50.1707 209.651Z" fill="#453852"/>
<path d="M188.763 129.641L184.056 139.783L171.197 132.359L188.763 129.641Z" fill="#453852"/>
<path d="M219.877 111.68L215.17 121.822L202.31 114.398L219.877 111.68Z" fill="#453852"/>
<path d="M19.0584 227.613L14.3514 237.754L1.49157 230.33L19.0584 227.613Z" fill="#453852"/>
<path d="M157.651 147.602L152.944 157.743L140.084 150.32L157.651 147.602Z" fill="#453852"/>
<path d="M168.965 82.2887L164.258 92.43L151.398 85.006L168.965 82.2887Z" fill="#453852"/>
<path d="M106.739 118.212L102.032 128.353L89.1722 120.929L106.739 118.212Z" fill="#453852"/>
<path d="M137.852 100.25L133.145 110.391L120.286 102.967L137.852 100.25Z" fill="#453852"/>
<path d="M153.408 91.2696L148.701 101.411L135.841 93.987L153.408 91.2696Z" fill="#453852"/>
<path d="M122.296 109.231L117.589 119.372L104.729 111.948L122.296 109.231Z" fill="#453852"/>
<path d="M84.1121 33.3033L79.4051 43.4447L66.5453 36.0207L84.1121 33.3033Z" fill="#453852"/>
<path d="M184.521 269.251L179.814 279.392L166.954 271.968L184.521 269.251Z" fill="#453852"/>
<path d="M21.8865 69.2262L17.1795 79.3675L4.31969 71.9435L21.8865 69.2262Z" fill="#453852"/>
<path d="M52.9988 51.2643L48.2918 61.4056L35.432 53.9816L52.9988 51.2643Z" fill="#453852"/>
<path d="M153.408 287.212L148.701 297.353L135.841 289.929L153.408 287.212Z" fill="#453852"/>
<path d="M292.001 207.202L287.294 217.343L274.434 209.919L292.001 207.202Z" fill="#453852"/>
<path d="M68.5555 42.2838L63.8485 52.4251L50.9886 45.0012L68.5555 42.2838Z" fill="#453852"/>
<path d="M168.965 278.231L164.258 288.372L151.398 280.948L168.965 278.231Z" fill="#453852"/>
<path d="M37.4432 60.2452L32.7362 70.3866L19.8763 62.9626L37.4432 60.2452Z" fill="#453852"/>
<path d="M137.852 296.192L133.145 306.333L120.286 298.909L137.852 296.192Z" fill="#453852"/>
<path d="M276.445 216.182L271.738 226.324L258.878 218.9L276.445 216.182Z" fill="#453852"/>
<path d="M283.516 94.5348L278.809 104.676L265.95 97.2521L283.516 94.5348Z" fill="#453852"/>
<path d="M82.6981 210.467L77.991 220.609L65.1312 213.185L82.6981 210.467Z" fill="#453852"/>
<path d="M221.291 130.458L216.584 140.599L203.724 133.175L221.291 130.458Z" fill="#453852"/>
<path d="M20.4725 246.39L15.7655 256.532L2.90563 249.108L20.4725 246.39Z" fill="#453852"/>
<path d="M252.403 112.497L247.696 122.638L234.836 115.214L252.403 112.497Z" fill="#453852"/>
<path d="M51.5848 228.429L46.8778 238.571L34.0179 231.147L51.5848 228.429Z" fill="#453852"/>
<path d="M190.178 148.42L185.471 158.561L172.611 151.137L190.178 148.42Z" fill="#453852"/>
<path d="M267.96 103.516L263.253 113.657L250.393 106.233L267.96 103.516Z" fill="#453852"/>
<path d="M67.1414 219.448L62.4344 229.589L49.5746 222.165L67.1414 219.448Z" fill="#453852"/>
<path d="M205.734 139.438L201.027 149.579L188.167 142.155L205.734 139.438Z" fill="#453852"/>
<path d="M4.91583 255.371L0.208812 265.512L-12.651 258.088L4.91583 255.371Z" fill="#453852"/>
<path d="M236.846 121.477L232.139 131.618L219.28 124.195L236.846 121.477Z" fill="#453852"/>
<path d="M36.0281 237.41L31.3211 247.551L18.4613 240.127L36.0281 237.41Z" fill="#453852"/>
<path d="M174.622 157.4L169.915 167.541L157.055 160.117L174.622 157.4Z" fill="#453852"/>
<path d="M185.935 92.0856L181.228 102.227L168.369 94.8029L185.935 92.0856Z" fill="#453852"/>
<path d="M123.71 128.008L119.003 138.15L106.143 130.726L123.71 128.008Z" fill="#453852"/>
<path d="M154.822 110.047L150.115 120.188L137.255 112.764L154.822 110.047Z" fill="#453852"/>
<path d="M170.379 101.067L165.672 111.208L152.812 103.784L170.379 101.067Z" fill="#453852"/>
<path d="M139.266 119.028L134.559 129.169L121.7 121.745L139.266 119.028Z" fill="#453852"/>
<path d="M50.1707 13.7086L45.4637 23.8499L32.6039 16.426L50.1707 13.7086Z" fill="#453852"/>
<path d="M150.58 249.656L145.873 259.797L133.013 252.373L150.58 249.656Z" fill="#453852"/>
<path d="M289.173 169.646L284.466 179.787L271.606 172.363L289.173 169.646Z" fill="#453852"/>
<path d="M88.3543 285.579L83.6473 295.72L70.7875 288.296L88.3543 285.579Z" fill="#453852"/>
<path d="M19.0584 31.6705L14.3514 41.8119L1.49157 34.3879L19.0584 31.6705Z" fill="#453852"/>
<path d="M119.468 267.617L114.761 277.758L101.901 270.334L119.468 267.617Z" fill="#453852"/>
<path d="M258.06 187.607L253.353 197.748L240.494 190.324L258.06 187.607Z" fill="#453852"/>
<path d="M57.242 303.54L52.535 313.681L39.6752 306.257L57.242 303.54Z" fill="#453852"/>
<path d="M34.6141 22.6896L29.9071 32.8309L17.0472 25.4069L34.6141 22.6896Z" fill="#453852"/>
<path d="M135.023 258.637L130.316 268.779L117.456 261.355L135.023 258.637Z" fill="#453852"/>
<path d="M273.616 178.627L268.909 188.768L256.049 181.344L273.616 178.627Z" fill="#453852"/>
<path d="M72.7977 294.559L68.0906 304.701L55.2308 297.277L72.7977 294.559Z" fill="#453852"/>
<path d="M3.50177 40.651L-1.20525 50.7923L-14.0651 43.3683L3.50177 40.651Z" fill="#453852"/>
<path d="M103.911 276.598L99.2039 286.74L86.3441 279.316L103.911 276.598Z" fill="#453852"/>
<path d="M242.504 196.588L237.797 206.73L224.937 199.306L242.504 196.588Z" fill="#453852"/>
<path d="M151.994 72.4913L147.287 82.6327L134.427 75.2087L151.994 72.4913Z" fill="#453852"/>
<path d="M89.7684 108.414L85.0614 118.556L72.2015 111.132L89.7684 108.414Z" fill="#453852"/>
<path d="M120.882 90.4532L116.175 100.595L103.315 93.1706L120.882 90.4532Z" fill="#453852"/>
<path d="M136.437 81.4723L131.73 91.6136L118.87 84.1896L136.437 81.4723Z" fill="#453852"/>
<path d="M105.325 99.4332L100.618 109.575L87.7582 102.151L105.325 99.4332Z" fill="#453852"/>
<path d="M33.2 3.91172L28.493 14.0531L15.6332 6.62909L33.2 3.91172Z" fill="#453852"/>
<path d="M133.609 239.859L128.902 250L116.042 242.576L133.609 239.859Z" fill="#453852"/>
<path d="M272.202 159.849L267.495 169.991L254.635 162.567L272.202 159.849Z" fill="#453852"/>
<path d="M71.3836 275.782L66.6766 285.923L53.8168 278.499L71.3836 275.782Z" fill="#453852"/>
<path d="M2.08771 21.8731L-2.61931 32.0145L-15.4791 24.5905L2.08771 21.8731Z" fill="#453852"/>
<path d="M102.497 257.82L97.7899 267.961L84.93 260.537L102.497 257.82Z" fill="#453852"/>
<path d="M241.09 177.81L236.383 187.951L223.523 180.528L241.09 177.81Z" fill="#453852"/>
<path d="M40.2713 293.743L35.5643 303.884L22.7045 296.46L40.2713 293.743Z" fill="#453852"/>
<path d="M17.6434 12.8927L12.9364 23.034L0.0765293 15.61L17.6434 12.8927Z" fill="#453852"/>
<path d="M118.053 248.839L113.346 258.981L100.486 251.557L118.053 248.839Z" fill="#453852"/>
<path d="M256.646 168.83L251.939 178.971L239.079 171.547L256.646 168.83Z" fill="#453852"/>
<path d="M55.8279 284.762L51.1209 294.904L38.2611 287.48L55.8279 284.762Z" fill="#453852"/>
<path d="M287.759 150.869L283.052 161.01L270.192 153.586L287.759 150.869Z" fill="#453852"/>
<path d="M86.9402 266.8L82.2332 276.942L69.3734 269.518L86.9402 266.8Z" fill="#453852"/>
<path d="M225.533 186.792L220.826 196.933L207.966 189.509L225.533 186.792Z" fill="#453852"/>
<path d="M24.7147 302.723L20.0076 312.865L7.14782 305.441L24.7147 302.723Z" fill="#453852"/>
<path d="M135.023 62.6939L130.316 72.8353L117.456 65.4113L135.023 62.6939Z" fill="#453852"/>
<path d="M235.432 298.641L230.725 308.783L217.866 301.359L235.432 298.641Z" fill="#453852"/>
<path d="M72.7977 98.6168L68.0906 108.758L55.2308 101.334L72.7977 98.6168Z" fill="#453852"/>
<path d="M103.911 80.6559L99.2039 90.7972L86.3441 83.3732L103.911 80.6559Z" fill="#453852"/>
<path d="M119.468 71.6749L114.761 81.8162L101.901 74.3923L119.468 71.6749Z" fill="#453852"/>
<path d="M88.3543 89.6368L83.6473 99.7782L70.7875 92.3542L88.3543 89.6368Z" fill="#453852"/>
<path d="M16.2293 -5.88515L11.5223 4.25619L-1.33753 -3.16779L16.2293 -5.88515Z" fill="#453852"/>
<path d="M116.638 230.061L111.931 240.202L99.0716 232.778L116.638 230.061Z" fill="#453852"/>
<path d="M255.231 150.052L250.524 160.194L237.664 152.77L255.231 150.052Z" fill="#453852"/>
<path d="M54.4129 265.984L49.7059 276.125L36.8461 268.701L54.4129 265.984Z" fill="#453852"/>
<path d="M286.345 132.09L281.638 142.232L268.778 134.808L286.345 132.09Z" fill="#453852"/>
<path d="M85.5262 248.023L80.8192 258.164L67.9593 250.74L85.5262 248.023Z" fill="#453852"/>
<path d="M224.119 168.013L219.412 178.155L206.552 170.731L224.119 168.013Z" fill="#453852"/>
<path d="M23.3006 283.946L18.5936 294.087L5.73376 286.663L23.3006 283.946Z" fill="#453852"/>
<path d="M0.673644 3.09532L-4.03338 13.2367L-16.8932 5.81268L0.673644 3.09532Z" fill="#453852"/>
<path d="M101.083 239.043L96.3758 249.184L83.516 241.76L101.083 239.043Z" fill="#453852"/>
<path d="M239.676 159.033L234.969 169.174L222.109 161.75L239.676 159.033Z" fill="#453852"/>
<path d="M38.8572 274.965L34.1502 285.107L21.2904 277.683L38.8572 274.965Z" fill="#453852"/>
<path d="M270.788 141.071L266.081 151.212L253.221 143.788L270.788 141.071Z" fill="#453852"/>
<path d="M69.9695 257.004L65.2625 267.145L52.4027 259.721L69.9695 257.004Z" fill="#453852"/>
<path d="M208.562 176.994L203.855 187.135L190.995 179.711L208.562 176.994Z" fill="#453852"/>
<path d="M7.74396 292.926L3.03694 303.068L-9.82288 295.644L7.74396 292.926Z" fill="#453852"/>
<path d="M118.053 52.8976L113.346 63.0389L100.486 55.6149L118.053 52.8976Z" fill="#453852"/>
<path d="M218.462 288.844L213.755 298.986L200.895 291.562L218.462 288.844Z" fill="#453852"/>
<path d="M55.8279 88.8199L51.1209 98.9613L38.2611 91.5373L55.8279 88.8199Z" fill="#453852"/>
<path d="M86.9402 70.8585L82.2332 80.9998L69.3734 73.5759L86.9402 70.8585Z" fill="#453852"/>
<path d="M102.497 61.878L97.7899 72.0194L84.93 64.5954L102.497 61.878Z" fill="#453852"/>
<path d="M202.906 297.825L198.199 307.966L185.339 300.542L202.906 297.825Z" fill="#453852"/>
<path d="M71.3836 79.8395L66.6766 89.9808L53.8168 82.5568L71.3836 79.8395Z" fill="#453852"/>
<path d="M99.6678 220.264L94.9608 230.406L82.1009 222.982L99.6678 220.264Z" fill="#453852"/>
<path d="M238.262 140.254L233.555 150.396L220.695 142.972L238.262 140.254Z" fill="#453852"/>
<path d="M37.4432 256.187L32.7362 266.328L19.8763 258.904L37.4432 256.187Z" fill="#453852"/>
<path d="M269.374 122.294L264.667 132.435L251.807 125.011L269.374 122.294Z" fill="#453852"/>
<path d="M68.5555 238.226L63.8485 248.368L50.9886 240.944L68.5555 238.226Z" fill="#453852"/>
<path d="M207.148 158.216L202.441 168.358L189.581 160.934L207.148 158.216Z" fill="#453852"/>
<path d="M6.32989 274.148L1.62287 284.289L-11.2369 276.865L6.32989 274.148Z" fill="#453852"/>
<path d="M284.93 113.313L280.223 123.454L267.364 116.03L284.93 113.313Z" fill="#453852"/>
<path d="M84.1121 229.246L79.4051 239.387L66.5453 231.963L84.1121 229.246Z" fill="#453852"/>
<path d="M222.705 149.236L217.998 159.377L205.138 151.953L222.705 149.236Z" fill="#453852"/>
<path d="M21.8865 265.169L17.1795 275.31L4.31969 267.886L21.8865 265.169Z" fill="#453852"/>
<path d="M253.817 131.274L249.11 141.415L236.25 133.991L253.817 131.274Z" fill="#453852"/>
<path d="M52.9988 247.207L48.2918 257.348L35.432 249.924L52.9988 247.207Z" fill="#453852"/>
<path d="M191.592 167.197L186.885 177.338L174.025 169.914L191.592 167.197Z" fill="#453852"/>
<path d="M202.906 101.883L198.199 112.024L185.339 104.6L202.906 101.883Z" fill="#453852"/>
<path d="M2.08771 217.815L-2.61931 227.956L-15.4791 220.532L2.08771 217.815Z" fill="#453852"/>
<path d="M140.68 137.806L135.973 147.948L123.114 140.524L140.68 137.806Z" fill="#453852"/>
<path d="M171.793 119.844L167.086 129.986L154.226 122.562L171.793 119.844Z" fill="#453852"/>
<path d="M187.349 110.864L182.642 121.005L169.783 113.581L187.349 110.864Z" fill="#453852"/>
<path d="M156.237 128.825L151.53 138.966L138.67 131.542L156.237 128.825Z" fill="#453852"/>
<path d="M101.083 43.1002L96.3758 53.2415L83.516 45.8176L101.083 43.1002Z" fill="#453852"/>
<path d="M201.492 279.047L196.785 289.189L183.925 281.765L201.492 279.047Z" fill="#453852"/>
<path d="M38.8572 79.0226L34.1502 89.1639L21.2904 81.7399L38.8572 79.0226Z" fill="#453852"/>
<path d="M69.9695 61.0616L65.2625 71.203L52.4027 63.779L69.9695 61.0616Z" fill="#453852"/>
<path d="M170.379 297.008L165.672 307.15L152.812 299.726L170.379 297.008Z" fill="#453852"/>
<path d="M85.5262 52.0807L80.8192 62.222L67.9593 54.798L85.5262 52.0807Z" fill="#453852"/>
<path d="M185.935 288.028L181.228 298.169L168.369 290.745L185.935 288.028Z" fill="#453852"/>
<path d="M54.4129 70.0426L49.7059 80.1839L36.8461 72.7599L54.4129 70.0426Z" fill="#453852"/>
<path d="M293.416 225.979L288.709 236.12L275.849 228.696L293.416 225.979Z" fill="#453852"/>
</g>
<defs>
<clipPath id="clip0_4407_78564">
<rect width="277" height="301" fill="white"/>
</clipPath>
</defs>
</svg>
