<svg width="22" height="16" viewBox="0 0 22 16" fill="none" xmlns="http://www.w3.org/2000/svg">
<path d="M21.8978 5.08991C19.1016 2.04353 15.1281 0.295898 11 0.295898C6.87192 0.295898 2.89837 2.04353 0.102169 5.08991C-0.0376412 5.24076 -0.033962 5.47623 0.113207 5.6234L2.29866 7.80849C2.44951 7.95933 2.69234 7.95933 2.84318 7.80849C2.86894 7.7831 2.88733 7.75366 2.90205 7.72055C4.97345 5.44643 7.9205 4.14068 11 4.14068C14.0795 4.14068 17.0266 5.4468 19.0979 7.72055C19.1127 7.75366 19.1311 7.7831 19.1568 7.80849C19.2304 7.88575 19.3297 7.92291 19.4291 7.92291C19.5284 7.92291 19.6278 7.88575 19.7013 7.80849L21.8868 5.6234C22.034 5.47623 22.0376 5.24113 21.8978 5.08991Z" fill="white"/>
<path d="M17.538 9.32465C15.886 7.44825 13.5092 6.37061 11 6.37061C8.4908 6.37061 6.11403 7.44861 4.45838 9.32465C4.43998 9.33568 4.41791 9.34709 4.39951 9.36512C4.24867 9.51596 4.24867 9.75879 4.39951 9.90927L6.50034 12.0101C6.53714 12.0506 6.58129 12.0767 6.62912 12.0947C6.65119 12.1058 6.67327 12.1058 6.69166 12.1094C6.7211 12.1131 6.74685 12.1242 6.77261 12.1242C6.77628 12.1242 6.77996 12.1205 6.78364 12.1205C6.78732 12.1205 6.791 12.1242 6.79468 12.1242C6.8094 12.1242 6.82411 12.1131 6.83883 12.1094C6.87194 12.1058 6.90506 12.0984 6.93449 12.0837C6.95657 12.0763 6.97128 12.0616 6.98968 12.0469C7.00808 12.0359 7.03015 12.0285 7.04487 12.0097C7.05223 12.0061 7.05223 11.9954 7.05958 11.9913C7.06326 11.984 7.07062 11.984 7.0743 11.9766C8.02354 10.7735 9.45475 10.0855 11 10.0855C12.5453 10.0855 13.9765 10.7735 14.9257 11.9766C14.9294 11.9843 14.9368 11.9843 14.9405 11.9913C14.9478 11.9991 14.9478 12.0061 14.9552 12.0097C14.9699 12.0285 14.992 12.0355 15.0104 12.0469C15.0288 12.0616 15.0435 12.0763 15.0656 12.0837C15.095 12.0984 15.1281 12.1061 15.1612 12.1094C15.1759 12.1131 15.1906 12.1242 15.2054 12.1242H15.2274C15.2789 12.1242 15.3268 12.1131 15.3746 12.0947C15.4224 12.0763 15.4629 12.0469 15.4997 12.0101L17.6005 9.90927C17.7514 9.75879 17.7514 9.51596 17.6005 9.36512C17.5821 9.34709 17.5601 9.33568 17.538 9.32465Z" fill="white"/>
<path d="M11.0001 11.6572C9.86318 11.6572 8.9397 12.5848 8.9397 13.7213C8.9397 14.8578 9.86318 15.7816 11.0001 15.7816C12.1369 15.7816 13.0604 14.8581 13.0604 13.7213C13.0604 12.5844 12.1369 11.6572 11.0001 11.6572Z" fill="white"/>
</svg>
