<svg width="40" height="21" viewBox="0 0 40 21" fill="none" xmlns="http://www.w3.org/2000/svg">
<rect width="40" height="21" rx="3" fill="white"/>
<path d="M24.418 5C21.9742 5 19.7902 6.26669 19.7902 8.607C19.7902 11.2909 23.6635 11.4763 23.6635 12.8246C23.6635 13.3923 23.0129 13.9005 21.9017 13.9005C20.3247 13.9005 19.146 13.1904 19.146 13.1904L18.6417 15.552C18.6417 15.552 19.9995 16.1518 21.8022 16.1518C24.4741 16.1518 26.5765 14.823 26.5765 12.4426C26.5765 9.60661 22.6871 9.42675 22.6871 8.17529C22.6871 7.73056 23.2212 7.24328 24.3292 7.24328C25.5794 7.24328 26.5994 7.75972 26.5994 7.75972L27.093 5.47878C27.093 5.47878 25.9831 5 24.418 5V5ZM2.05918 5.17215L2 5.51644C2 5.51644 3.02813 5.7046 3.95413 6.07995C5.14643 6.51036 5.23136 6.76092 5.43216 7.53915L7.6203 15.9743H10.5535L15.0723 5.17215H12.1459L9.24224 12.5166L8.05739 6.2911C7.94873 5.57859 7.39833 5.17215 6.7246 5.17215H2.05918V5.17215ZM16.2491 5.17215L13.9534 15.9743H16.744L19.0317 5.17215H16.2491V5.17215ZM31.8136 5.17215C31.1406 5.17215 30.7841 5.53242 30.5225 6.16199L26.434 15.9743H29.3605L29.9267 14.3389H33.492L33.8363 15.9743H36.4185L34.1658 5.17215H31.8136V5.17215ZM32.1942 8.09056L33.0616 12.1441H30.7376L32.1942 8.09056V8.09056Z" fill="#20225F"/>
</svg>
