<svg width="34" height="34" viewBox="0 0 34 34" fill="none" xmlns="http://www.w3.org/2000/svg">
<path fill-rule="evenodd" clip-rule="evenodd" d="M23.1086 5.44141C28.4093 5.44141 32.7064 9.73847 32.7064 15.0392V15.8525C32.7064 20.704 28.7735 24.6369 23.9219 24.6369C23.522 24.6369 23.2397 25.0289 23.3665 25.4083L24.2352 28.0065C24.6256 29.1741 23.2144 30.1019 22.2972 29.2808L17.3988 24.8954C17.2128 24.729 16.972 24.6369 16.7225 24.6369H11.1114C5.81074 24.6369 1.51367 20.3399 1.51367 15.0392C1.51367 9.73847 5.81073 5.44141 11.1114 5.44141H23.1086ZM9.91166 17.4386C11.2368 17.4386 12.3111 16.3644 12.3111 15.0392C12.3111 13.714 11.2368 12.6397 9.91166 12.6397C8.58649 12.6397 7.51222 13.714 7.51222 15.0392C7.51222 16.3644 8.58649 17.4386 9.91166 17.4386ZM19.5094 15.0392C19.5094 16.3644 18.4352 17.4386 17.11 17.4386C15.7848 17.4386 14.7106 16.3644 14.7106 15.0392C14.7106 13.714 15.7848 12.6397 17.11 12.6397C18.4352 12.6397 19.5094 13.714 19.5094 15.0392ZM24.3083 17.4386C25.6335 17.4386 26.7078 16.3644 26.7078 15.0392C26.7078 13.714 25.6335 12.6397 24.3083 12.6397C22.9832 12.6397 21.9089 13.714 21.9089 15.0392C21.9089 16.3644 22.9832 17.4386 24.3083 17.4386Z" fill="#DAD4ED"/>
</svg>
