<svg width="27" height="19" viewBox="0 0 27 19" fill="none" xmlns="http://www.w3.org/2000/svg">
<path fill-rule="evenodd" clip-rule="evenodd" d="M2.18919 0C0.980133 0 0 0.980135 0 2.18919V16.7838C0 17.9928 0.980134 18.973 2.18919 18.973H24.8108C26.0199 18.973 27 17.9928 27 16.7838V2.18919C27 0.980133 26.0199 0 24.8108 0H2.18919ZM6.50016 4.35914C6.08636 3.99337 5.45439 4.03232 5.08863 4.44612C4.72287 4.85993 4.76181 5.4919 5.17562 5.85766L9.40111 9.59259L5.12873 13.8898C4.73935 14.2815 4.74118 14.9147 5.13284 15.304C5.52449 15.6934 6.15766 15.6916 6.54705 15.2999L10.9022 10.9194L11.2561 11.2322C12.5376 12.365 14.4625 12.365 15.744 11.2322L16.0979 10.9194L20.4531 15.2999C20.8424 15.6916 21.4756 15.6934 21.8673 15.304C22.2589 14.9147 22.2608 14.2815 21.8714 13.8898L17.599 9.59259L21.8245 5.85766C22.2383 5.4919 22.2772 4.85993 21.9115 4.44612C21.5457 4.03232 20.9137 3.99337 20.4999 4.35914L15.4799 8.79636L14.4194 9.73372C13.8944 10.1978 13.1057 10.1978 12.5807 9.73372L11.5202 8.79636L6.50016 4.35914Z" fill="#783AFE"/>
</svg>
