<svg width="23" height="23" viewBox="0 0 23 23" fill="none" xmlns="http://www.w3.org/2000/svg">
<path d="M0 13.8621C0 12.4513 0.982954 11.2312 2.36139 10.9309L3.37316 10.7104C3.99787 10.5743 4.58808 11.0514 4.58602 11.6907L4.55309 21.9253C4.55128 22.4854 4.08998 22.9347 3.5301 22.9219L2.58078 22.9C1.15545 22.9 0 21.7446 0 20.3193V13.8621Z" fill="#783AFE"/>
<path d="M6.1499 18.6898V12.4285C6.1499 11.1381 7.51148 9.86661 8.64056 8.7375C10.7391 6.18927 10.3188 3.66009 9.90359 0.68643C9.85283 0.32304 10.1356 0 10.5025 0C12.304 0 13.8688 1.31058 14.1875 3.08358C14.5093 4.87386 14.6641 6.40122 14.1247 8.7375C15.8943 8.66364 16.8512 8.74038 18.4798 9.06012C22.6091 9.83433 21.9208 11.7484 21.0605 12.7699C22.9961 14.5765 21.652 16.1035 20.7379 16.6411C21.7702 18.4477 19.8603 19.1774 19 19.5C20 20.5 20 21.7857 17.1894 22.1252C13.2798 22.5975 11.9619 22.5162 9.39101 22.258C7.55876 22.0739 6.1499 20.5313 6.1499 18.6898Z" fill="#783AFE"/>
</svg>
