<svg width="31" height="27" viewBox="0 0 31 27" fill="none" xmlns="http://www.w3.org/2000/svg">
<path fill-rule="evenodd" clip-rule="evenodd" d="M27.3656 13.4856L21.5469 3.40734L9.9096 3.40734L4.09093 13.4856L9.9096 23.5638L21.5469 23.5638L27.3656 13.4856ZM24.4978 1.70367C23.8891 0.649435 22.7643 3.96253e-07 21.5469 0L9.9096 4.2146e-07C8.69228 3.82835e-07 7.56743 0.649433 6.95876 1.70367L1.14009 11.7819C0.531429 12.8361 0.531428 14.135 1.14009 15.1892L6.95876 25.2675C7.56742 26.3217 8.69228 26.9711 9.9096 26.9711H21.5469C22.7643 26.9711 23.8891 26.3217 24.4978 25.2675L30.3165 15.1892C30.9251 14.135 30.9251 12.8361 30.3165 11.7819L24.4978 1.70367Z" fill="#DAD4ED"/>
<path fill-rule="evenodd" clip-rule="evenodd" d="M21.9254 1.46593C22.7479 1.92287 23.0442 2.96007 22.5873 3.78257L11.2295 24.2266C10.7725 25.0491 9.73535 25.3454 8.91285 24.8885C8.09034 24.4316 7.794 23.3944 8.25095 22.5718L19.6087 2.12783C20.0657 1.30532 21.1029 1.00898 21.9254 1.46593Z" fill="#DAD4ED"/>
</svg>
