<svg width="27" height="22" viewBox="0 0 27 22" fill="none" xmlns="http://www.w3.org/2000/svg">
<path fill-rule="evenodd" clip-rule="evenodd" d="M0 3.64865C0 1.63356 1.63356 0 3.64865 0H23.3513C25.3664 0 27 1.63356 27 3.64865V13.1351C27 15.1502 25.3664 16.7838 23.3514 16.7838H14.6443C13.8993 16.7838 13.1722 17.0118 12.5607 17.4372L6.25456 21.8241C5.77072 22.1607 5.10811 21.8144 5.10811 21.2251V19.3378C5.10811 17.9273 3.96462 16.7838 2.55405 16.7838C1.14349 16.7838 0 15.6403 0 14.2297V3.64865ZM4.10833 5.10759C4.10833 4.55531 4.55604 4.10759 5.10833 4.10759H21.8921C22.4444 4.10759 22.8921 4.55531 22.8921 5.10759C22.8921 5.65988 22.4444 6.10759 21.8921 6.10759H5.10833C4.55604 6.10759 4.10833 5.65988 4.10833 5.10759ZM5.1084 9.10742C4.55611 9.10742 4.1084 9.55514 4.1084 10.1074C4.1084 10.6597 4.55611 11.1074 5.1084 11.1074H13.8652C14.4174 11.1074 14.8652 10.6597 14.8652 10.1074C14.8652 9.55514 14.4174 9.10742 13.8652 9.10742H5.1084Z" fill="#783AFE"/>
</svg>
