<svg width="24" height="25" viewBox="0 0 24 25" fill="none" xmlns="http://www.w3.org/2000/svg">
<path d="M13 11.8047C13 10.7001 13.8954 9.80469 15 9.80469V9.80469C16.1046 9.80469 17 10.7001 17 11.8047V22.8047C17 23.9093 16.1046 24.8047 15 24.8047V24.8047C13.8954 24.8047 13 23.9093 13 22.8047V11.8047Z" fill="#DAD4ED"/>
<path fill-rule="evenodd" clip-rule="evenodd" d="M17 13.9842L13 16.2953V11.8064C13 10.7018 13.8954 9.8064 15 9.8064C16.1046 9.8064 17 10.7018 17 11.8064V13.9842ZM10 18.0286L4.50083 21.2059C2.50083 22.3615 0 20.9182 0 18.6083V3.00448C0 0.694652 2.50083 -0.748672 4.50083 0.406883L15.6492 6.84817C15.4367 6.82061 15.22 6.8064 15 6.8064C12.2386 6.8064 10 9.04498 10 11.8064V18.0286Z" fill="#DAD4ED"/>
<path d="M20 11.8047C20 10.7001 20.8954 9.80469 22 9.80469V9.80469C23.1046 9.80469 24 10.7001 24 11.8047V22.8047C24 23.9093 23.1046 24.8047 22 24.8047V24.8047C20.8954 24.8047 20 23.9093 20 22.8047V11.8047Z" fill="#DAD4ED"/>
<path fill-rule="evenodd" clip-rule="evenodd" d="M22 9.80469C20.8954 9.80469 20 10.7001 20 11.8047V22.8047C20 23.9093 20.8954 24.8047 22 24.8047C23.1046 24.8047 24 23.9093 24 22.8047V11.8047C24 10.7001 23.1046 9.80469 22 9.80469Z" fill="#DAD4ED"/>
</svg>
