<svg width="27" height="30" viewBox="0 0 27 30" fill="none" xmlns="http://www.w3.org/2000/svg">
<path d="M2.60814 4.60938C2.22038 5.31986 2 6.13481 2 7.00124V23.0012C2 25.7627 4.23858 28.0012 7 28.0012H20C20.8664 28.0012 21.6814 27.7809 22.3919 27.3931C21.5438 28.947 19.895 30.0012 18 30.0012H5C2.23858 30.0012 0 27.7627 0 25.0012V9.00124C0 7.10624 1.0542 5.45746 2.60814 4.60938Z" fill="#DAD4ED"/>
<path fill-rule="evenodd" clip-rule="evenodd" d="M2.60814 4.60938C1.63732 5.13921 0.861555 5.98157 0.416044 7.00124C0.148447 7.6137 0 8.29013 0 9.00124V25.0012C0 27.7627 2.23858 30.0012 5 30.0012H18C18.7111 30.0012 19.3875 29.8528 20 29.5852C21.0197 29.1397 21.862 28.3639 22.3919 27.3931C21.6814 27.7809 20.8664 28.0012 20 28.0012H7C4.23858 28.0012 2 25.7627 2 23.0012V7.00124C2 6.13481 2.22038 5.31986 2.60814 4.60938Z" fill="#DAD4ED"/>
<path d="M9 6C9 5.44772 9.44772 5 10 5H12C12.5523 5 13 5.44772 13 6V8C13 8.55229 12.5523 9 12 9H10C9.44772 9 9 8.55229 9 8V6Z" fill="#DAD4ED"/>
<path d="M10 11C9.44772 11 9 11.4477 9 12V14C9 14.5523 9.44772 15 10 15H12C12.5523 15 13 14.5523 13 14V12C13 11.4477 12.5523 11 12 11H10Z" fill="#DAD4ED"/>
<path d="M9 18C9 17.4477 9.44772 17 10 17H12C12.5523 17 13 17.4477 13 18V20C13 20.5523 12.5523 21 12 21H10C9.44772 21 9 20.5523 9 20V18Z" fill="#DAD4ED"/>
<path d="M16 6C15.4477 6 15 6.44772 15 7C15 7.55228 15.4477 8 16 8H21C21.5523 8 22 7.55228 22 7C22 6.44772 21.5523 6 21 6H16Z" fill="#DAD4ED"/>
<path d="M15 13C15 12.4477 15.4477 12 16 12H21C21.5523 12 22 12.4477 22 13C22 13.5523 21.5523 14 21 14H16C15.4477 14 15 13.5523 15 13Z" fill="#DAD4ED"/>
<path d="M16 18C15.4477 18 15 18.4477 15 19C15 19.5523 15.4477 20 16 20H21C21.5523 20 22 19.5523 22 19C22 18.4477 21.5523 18 21 18H16Z" fill="#DAD4ED"/>
<path fill-rule="evenodd" clip-rule="evenodd" d="M15 19C15 19.5523 15.4477 20 16 20H21C21.5523 20 22 19.5523 22 19C22 18.4477 21.5523 18 21 18H16C15.4477 18 15 18.4477 15 19ZM15 13C15 13.5523 15.4477 14 16 14H21C21.5523 14 22 13.5523 22 13C22 12.4477 21.5523 12 21 12H16C15.4477 12 15 12.4477 15 13ZM13 18C13 17.4477 12.5523 17 12 17H10C9.44772 17 9 17.4477 9 18V20C9 20.5523 9.44772 21 10 21H12C12.5523 21 13 20.5523 13 20V18ZM13 6C13 5.44772 12.5523 5 12 5H10C9.44772 5 9 5.44772 9 6V8C9 8.55229 9.44772 9 10 9H12C12.5523 9 13 8.55229 13 8V6ZM9 12C9 11.4477 9.44772 11 10 11H12C12.5523 11 13 11.4477 13 12V14C13 14.5523 12.5523 15 12 15H10C9.44772 15 9 14.5523 9 14V12ZM15 7C15 6.44772 15.4477 6 16 6H21C21.5523 6 22 6.44772 22 7C22 7.55228 21.5523 8 21 8H16C15.4477 8 15 7.55228 15 7Z" fill="#DAD4ED"/>
<path fill-rule="evenodd" clip-rule="evenodd" d="M22 2H9C7.34315 2 6 3.34315 6 5V21C6 22.6569 7.34315 24 9 24H22C23.6569 24 25 22.6569 25 21V5C25 3.34315 23.6569 2 22 2ZM9 0C6.23858 0 4 2.23858 4 5V21C4 23.7614 6.23858 26 9 26H22C24.7614 26 27 23.7614 27 21V5C27 2.23858 24.7614 0 22 0H9Z" fill="#DAD4ED"/>
</svg>
