<svg width="30" height="25" viewBox="0 0 30 25" fill="none" xmlns="http://www.w3.org/2000/svg">
<path fill-rule="evenodd" clip-rule="evenodd" d="M26.9454 12.8033C29.8744 9.87437 29.8744 5.12563 26.9454 2.1967C24.0165 -0.732232 19.2678 -0.732232 16.3388 2.1967L15.2782 3.25736C14.8877 3.64788 14.2545 3.64788 13.864 3.25736L12.8033 2.1967C9.87437 -0.732233 5.12563 -0.732233 2.1967 2.1967C-0.732233 5.12563 -0.732233 9.87437 2.1967 12.8033L13.864 24.4706C14.2545 24.8611 14.8876 24.8611 15.2782 24.4706L26.9454 12.8033ZM12.8926 8.32422C12.8926 7.49579 13.5642 6.82422 14.3926 6.82422C15.221 6.82422 15.8926 7.49579 15.8926 8.32422V10.3242H17.8926C18.721 10.3242 19.3926 10.9958 19.3926 11.8242C19.3926 12.6526 18.721 13.3242 17.8926 13.3242H15.8926V15.3242C15.8926 16.1526 15.221 16.8242 14.3926 16.8242C13.5642 16.8242 12.8926 16.1526 12.8926 15.3242V13.3242H10.8926C10.0642 13.3242 9.39258 12.6526 9.39258 11.8242C9.39258 10.9958 10.0642 10.3242 10.8926 10.3242H12.8926V8.32422Z" fill="#DAD4ED"/>
</svg>
