<svg width="20" height="20" viewBox="0 0 20 20" fill="none" xmlns="http://www.w3.org/2000/svg">
<path d="M1 13.1035L17.6154 16.9999L19 15.5387" stroke="#8993A1" stroke-width="1.42236" stroke-linecap="round" stroke-linejoin="round"/>
<path d="M9.30529 14.5652C9.76683 14.0782 11.4591 12.2924 12.5361 11.1559L8.84375 8.7207" stroke="#8993A1" stroke-width="1.89648" stroke-linecap="round" stroke-linejoin="round"/>
<path d="M13.5156 5.26758L14.5 8.31221L17.2386 8.60262" stroke="#8993A1" stroke-width="1.89648" stroke-linecap="round" stroke-linejoin="round"/>
<path d="M17.6214 3.70465C17.6214 4.64611 16.8982 5.40931 16.006 5.40931C15.1139 5.40931 14.3906 4.64611 14.3906 3.70465C14.3906 2.7632 15.1139 2 16.006 2C16.8982 2 17.6214 2.7632 17.6214 3.70465Z" fill="#8993A1"/>
<path d="M4.30469 3.1875C7.49568 4.94489 9.28929 5.89255 12.5 7.5" stroke="#8993A1" stroke-width="0.948239"/>
<path d="M13 7L13.4 8L14 6.5L12.5 6L13 7Z" fill="#8993A1"/>
<path fill-rule="evenodd" clip-rule="evenodd" d="M14.3789 5.79792C13.9648 6.11531 13.5977 6.40437 13.2695 6.67781L10.1953 4.8321L11.2617 4.27937L11.8867 3.95906L12.4727 3.65046C12.793 3.47761 13.1914 3.49031 13.4727 3.72566C14.0352 4.19734 14.2852 4.60066 14.375 4.99812C14.4336 5.26081 14.4219 5.52156 14.3789 5.79792ZM9.19922 5.40241L12.4766 7.36726C12.3359 7.49616 12.1953 7.62507 12.0625 7.753L8.44531 5.94343C8.66797 5.75691 8.92188 5.5782 9.19922 5.40241ZM7.78125 6.67097C7.57031 6.99519 7.45703 7.3487 7.45703 7.74616C7.46094 8.99616 8.03125 9.44441 8.80469 9.60456C9.23438 9.69441 9.73047 9.69441 10.2266 9.69441C10.6367 9.23445 11 8.83406 11.3594 8.45906L7.78125 6.67097Z" fill="#8993A1"/>
</svg>
