<svg width="20" height="20" viewBox="0 0 20 20" fill="none" xmlns="http://www.w3.org/2000/svg">
<g clip-path="url(#clip0_4355_28900)">
<path fill-rule="evenodd" clip-rule="evenodd" d="M0.945906 19.4199C1.50607 17.5476 2.13312 15.8649 2.82531 14.3474L1.82459 13.3465C1.68981 13.2116 1.68981 12.9937 1.82459 12.8589C1.95938 12.7241 2.17724 12.7241 2.31202 12.8589L3.13624 13.6833C3.37134 13.1989 3.61299 12.7317 3.86222 12.2814L2.85875 11.2776C2.72396 11.1428 2.72396 10.9249 2.85875 10.7901C2.99353 10.6552 3.21139 10.6552 3.34618 10.7901L4.21762 11.6621C4.48409 11.2097 4.75745 10.7732 5.03909 10.3553L3.8929 9.20878C3.75812 9.07396 3.75812 8.85604 3.8929 8.72122C4.02769 8.5864 4.24555 8.5864 4.38033 8.72122L5.43793 9.77909C5.73852 9.36084 6.04877 8.96327 6.36591 8.57916L5.27177 7.48474C5.13699 7.34992 5.13699 7.132 5.27177 6.99718C5.40656 6.86236 5.62442 6.86236 5.7592 6.99718L6.81508 8.05333C7.15083 7.67231 7.4952 7.30716 7.84888 6.95925L6.65064 5.7607C6.51586 5.62588 6.51586 5.40796 6.65064 5.27314C6.78543 5.13832 7.00329 5.13832 7.13808 5.27314L8.34666 6.48204C8.7193 6.13895 9.10124 5.81208 9.49284 5.50037L8.37423 4.38147C8.23945 4.24665 8.23945 4.02873 8.37423 3.89391C8.50902 3.75909 8.72688 3.75909 8.86167 3.89391L10.0444 5.07695C10.4532 4.77179 10.8728 4.4825 11.3012 4.20596L10.4425 3.34705C10.3078 3.21223 10.3078 2.99431 10.4425 2.85949C10.5773 2.72467 10.7952 2.72467 10.93 2.85949L11.9021 3.83185C14.0824 2.51778 16.5048 1.52543 19.168 0.686512C18.7099 0.262054 18.0991 0 17.4269 0H16.1731C7.25528 0 0 7.25716 0 16.1773V17.4314C0 18.2327 0.369193 18.9489 0.945906 19.4199Z" fill="#CAC2E5"/>
<path fill-rule="evenodd" clip-rule="evenodd" d="M12.4184 4.34246L13.3498 5.27413C13.4846 5.40895 13.4846 5.62687 13.3498 5.76169C13.2826 5.82892 13.1943 5.86272 13.1061 5.86272C13.0178 5.86272 12.9296 5.82892 12.8624 5.76169L11.8144 4.71347C11.3839 4.98794 10.963 5.27585 10.5527 5.57928L11.2815 6.30855C11.4163 6.44337 11.4163 6.66129 11.2815 6.79611C11.2143 6.86335 11.126 6.89714 11.0378 6.89714C10.9495 6.89714 10.8613 6.86335 10.794 6.79611L9.99913 6.00098C9.60718 6.312 9.22524 6.63888 8.85225 6.98196L9.55789 7.68778C9.69268 7.8226 9.69268 8.04052 9.55789 8.17534C9.49067 8.24258 9.40242 8.27637 9.31417 8.27637C9.22593 8.27637 9.13768 8.24258 9.07046 8.17534L8.35344 7.45814C8.00011 7.80605 7.65608 8.1712 7.32067 8.5529L8.17902 9.41182C8.3138 9.54664 8.3138 9.76456 8.17902 9.89938C8.1118 9.96661 8.02355 10.0004 7.9353 10.0004C7.84705 10.0004 7.75881 9.96661 7.69159 9.89938L6.87254 9.08011C6.55609 9.46457 6.24756 9.86421 5.94835 10.2838L6.80015 11.1359C6.93493 11.2707 6.93493 11.4886 6.80015 11.6234C6.73293 11.6907 6.64468 11.7244 6.55643 11.7244C6.46818 11.7244 6.37993 11.6907 6.31271 11.6234L5.54985 10.8604C5.2696 11.2793 4.99899 11.7186 4.7346 12.173L5.76599 13.2047C5.90078 13.3395 5.90078 13.5574 5.76599 13.6923C5.69877 13.7595 5.61052 13.7933 5.52228 13.7933C5.43403 13.7933 5.34578 13.7595 5.27856 13.6923L4.38298 12.7965C4.13582 13.2492 3.89417 13.715 3.66149 14.2029L4.73184 15.2735C4.86662 15.4084 4.86662 15.6263 4.73184 15.7611C4.66462 15.8283 4.57637 15.8621 4.48812 15.8621C4.39987 15.8621 4.31163 15.8283 4.24441 15.7611L3.35572 14.8722C2.69524 16.3462 2.0975 17.9796 1.5625 19.7916C1.87309 19.9253 2.21471 19.9998 2.57356 19.9998H3.82764C12.7452 19.9998 20.0004 12.7427 20.0004 3.82249V2.56842C20.0004 2.0919 19.8674 1.64675 19.6402 1.26367C16.9907 2.08397 14.5835 3.05357 12.4184 4.34246Z" fill="#CAC2E5"/>
</g>
<defs>
<clipPath id="clip0_4355_28900">
<rect width="20" height="20" fill="white"/>
</clipPath>
</defs>
</svg>
