<svg width="20" height="20" viewBox="0 0 20 20" fill="none" xmlns="http://www.w3.org/2000/svg">
<path d="M9.80892 2.61836C9.86699 2.43043 10.133 2.43043 10.1911 2.61836L10.6646 4.15084C10.6905 4.23465 10.768 4.2918 10.8557 4.2918H12.4087C12.6 4.2918 12.6822 4.53459 12.5302 4.65073L11.2568 5.62351C11.1902 5.6744 11.1623 5.76141 11.1871 5.84149L11.6694 7.40216C11.7269 7.58821 11.5116 7.73835 11.3569 7.62014L10.1214 6.67634C10.0497 6.62158 9.95027 6.62158 9.87859 6.67634L8.64314 7.62014C8.4884 7.73835 8.27315 7.58821 8.33064 7.40216L8.81291 5.84149C8.83766 5.76141 8.80985 5.6744 8.74324 5.62351L7.46985 4.65073C7.31782 4.53459 7.39995 4.2918 7.59126 4.2918H9.14427C9.23198 4.2918 9.30946 4.23465 9.33535 4.15084L9.80892 2.61836Z" fill="#8993A1"/>
<path d="M2 12H6V18H2V12Z" fill="#8993A1"/>
<path d="M8 10H12V18H8V10Z" fill="#8993A1"/>
<rect x="14" y="14" width="4" height="4" fill="#8993A1"/>
</svg>
