<svg width="20" height="20" viewBox="0 0 20 20" fill="none" xmlns="http://www.w3.org/2000/svg">
<path d="M3.99711 19.75H1.92328C1.01871 19.75 0.413637 18.8189 0.781018 17.9923L4.6519 9.28284C4.86348 8.8068 5.33556 8.5 5.85651 8.5C6.69984 8.5 7.32629 9.28094 7.14334 10.1042L5.21735 18.7712C5.09026 19.3431 4.58299 19.75 3.99711 19.75Z" fill="#CAC2E5"/>
<path d="M11.1034 19.75H8.89663C8.15162 19.75 7.572 19.1024 7.65428 18.362L8.61201 9.74235C8.6906 9.03508 9.28842 8.5 10 8.5C10.7116 8.5 11.3095 9.03508 11.388 9.74235L12.3458 18.362C12.428 19.1024 11.8484 19.75 11.1034 19.75Z" fill="#CAC2E5"/>
<path d="M16.0024 19.75H18.0762C18.9808 19.75 19.5859 18.8189 19.2185 17.9923L15.3476 9.28284C15.1361 8.8068 14.664 8.5 14.143 8.5C13.2997 8.5 12.6732 9.28094 12.8562 10.1042L14.7822 18.7712C14.9093 19.3431 15.4165 19.75 16.0024 19.75Z" fill="#CAC2E5"/>
<path d="M13.7495 7.25H6.24946C5.5591 7.25 4.99443 6.68827 5.10083 6.00616C5.4383 3.84278 6.69548 1 9.99946 1C13.3035 1 14.5607 3.84278 14.8981 6.00616C15.0045 6.68827 14.4399 7.25 13.7495 7.25Z" fill="#CAC2E5"/>
</svg>
