<svg width="20" height="20" viewBox="0 0 20 20" fill="none" xmlns="http://www.w3.org/2000/svg">
<g clip-path="url(#clip0_4355_28908)">
<path fill-rule="evenodd" clip-rule="evenodd" d="M19.5923 15.6876C19.3295 15.4274 18.9792 15.284 18.6055 15.284C18.2318 15.284 17.8814 15.4274 17.6187 15.6876L17.5175 15.7878L11.5799 8.85547L8.91016 11.4803L15.9329 17.3567L15.6444 17.6421C15.1004 18.1811 15.1004 19.058 15.6444 19.5967C15.9075 19.8568 16.2578 20.0002 16.6315 20.0002C17.0052 20.0002 17.3556 19.8568 17.6183 19.5967L19.5923 17.6421C20.1366 17.1031 20.1366 16.2262 19.5923 15.6876Z" fill="#CAC2E5"/>
<path fill-rule="evenodd" clip-rule="evenodd" d="M6.63733 12.5724C6.08705 12.1025 5.37277 11.8164 4.59079 11.8164C3.84336 11.8164 3.157 12.0769 2.61719 12.5102C3.25331 13.1832 3.89291 14.3334 3.89291 15.0987C3.89291 16.0458 3.5363 16.8726 2.86145 17.5187C3.35764 17.8445 3.95188 18.0356 4.59079 18.0356C5.2639 18.0356 5.88676 17.8227 6.39866 17.4644C5.7594 16.8259 5.41988 16.0199 5.41988 15.0987C5.41988 14.3569 6.0211 13.2523 6.63733 12.5724Z" fill="#CAC2E5"/>
<path fill-rule="evenodd" clip-rule="evenodd" d="M6.12109 15.0972C6.12109 15.8511 6.39257 16.4896 6.92226 17.0037C7.42543 16.4522 7.73459 15.7243 7.73459 14.9244C7.73459 14.2337 7.50325 13.597 7.11697 13.0801C6.6309 13.6439 6.12109 14.5734 6.12109 15.0972Z" fill="#CAC2E5"/>
<path fill-rule="evenodd" clip-rule="evenodd" d="M2.13077 13.002C1.70785 13.532 1.45312 14.1991 1.45312 14.9254C1.45312 15.7584 1.78741 16.5144 2.32827 17.0731C2.90507 16.5483 3.19783 15.8852 3.19783 15.0982C3.19783 14.5485 2.63673 13.5537 2.13077 13.002Z" fill="#CAC2E5"/>
<path fill-rule="evenodd" clip-rule="evenodd" d="M4.98233 1.15295C4.19791 0.237697 2.92846 -0.194881 1.8122 0.0836C1.37324 0.192781 1.00161 0.392485 0.707806 0.676148C0.213706 1.15399 -0.0239226 1.82497 0.00189896 2.67043C0.0287674 3.55493 0.449939 4.40178 1.15759 4.99398L8.37438 11.0324L11.1265 8.32676L4.98233 1.15295Z" fill="#CAC2E5"/>
</g>
<defs>
<clipPath id="clip0_4355_28908">
<rect width="20" height="20" fill="white"/>
</clipPath>
</defs>
</svg>
