<svg width="27" height="27" viewBox="0 0 27 27" fill="none" xmlns="http://www.w3.org/2000/svg">
<path fill-rule="evenodd" clip-rule="evenodd" d="M18.5134 8.0772C18.893 8.22934 19.2547 7.87012 19.1027 7.49038C17.9982 4.72982 16.0123 2.17966 13.5433 0.114246C13.4576 0.0425177 13.3498 0.00218604 13.238 0.000892958C13.1866 0.000298196 13.1351 0 13.0836 0C10.7345 0 8.53001 0.61908 6.62437 1.70299C6.23846 1.92248 6.35072 2.49008 6.78022 2.60247C9.46345 3.30458 11.8418 4.61705 14.0169 5.81735L14.0846 5.85471C15.6459 6.71623 17.0909 7.50719 18.5134 8.0772ZM19.5436 10.0029C19.7348 10.0535 19.8829 10.2078 19.9136 10.4031C19.9684 10.7514 20.0084 11.1023 20.0329 11.4552C20.0562 11.7925 19.7292 12.0366 19.4045 11.9424C11.1923 9.55762 5.01661 9.84301 0.889198 11.1001C0.531598 11.209 0.173306 10.9159 0.24531 10.5491C0.76204 7.91662 2.06825 5.56722 3.9072 3.75759C4.01039 3.65605 4.15398 3.60652 4.29781 3.62293C7.36839 3.97334 10.0606 5.43615 12.8994 7.00258L13.0524 7.08706C15.0808 8.20676 17.2235 9.38953 19.5436 10.0029ZM21.4568 10.9918C21.4277 10.6675 21.6994 10.3905 22.0246 10.4093C22.1798 10.4183 22.3359 10.4242 22.4928 10.4267C23.4129 10.4415 24.344 10.3434 25.2928 10.1144C25.5693 10.0477 25.854 10.2111 25.9101 10.49C26.0787 11.3283 26.1672 12.1956 26.1672 13.0836C26.1672 13.2729 26.1632 13.4613 26.1552 13.6487C26.1409 13.9854 25.7932 14.1944 25.481 14.0675C24.2367 13.562 23.03 13.113 21.8609 12.7163C21.6529 12.6458 21.515 12.4489 21.5144 12.2293C21.5131 11.815 21.4936 11.4024 21.4568 10.9918ZM25.1685 8.06112C25.2781 8.32458 25.1327 8.62255 24.8564 8.69382C24.0402 8.90435 23.2684 8.98569 22.5322 8.97386C22.1604 8.96788 21.7927 8.93851 21.4278 8.88822C21.2298 8.86093 21.0727 8.71151 21.0221 8.5181C20.3827 6.07436 19.156 3.77765 17.5365 1.73056C17.2265 1.33868 17.5838 0.784296 18.0461 0.973941C21.2609 2.29273 23.8342 4.85439 25.1685 8.06112ZM0 13.0836C2.70274e-05 13.0626 0.0117966 13.0439 0.0309858 13.0355C3.47615 11.5205 9.90825 10.5599 19.5783 13.5503C19.8079 13.6213 19.9569 13.8481 19.9195 14.0855C19.7971 14.8608 19.5936 15.6415 19.3005 16.4239C19.2264 16.6217 19.0316 16.7444 18.8204 16.7452C17.5788 16.7494 16.3167 17.0447 15.0699 17.4326C14.058 17.7474 13.0183 18.1311 11.9356 18.5306C9.27504 19.5124 6.35486 20.59 2.94958 20.9769C2.77676 20.9965 2.60621 20.9229 2.50375 20.7824C0.929119 18.6222 0 15.9614 0 13.0836V13.0836ZM21.9667 14.3475C21.6691 14.241 21.351 14.4375 21.2954 14.7486C21.192 15.3283 21.0509 15.9089 20.8704 16.489C20.7848 16.764 20.9382 17.0579 21.2072 17.1607C21.4939 17.2701 21.778 17.4035 22.0591 17.5636C22.7223 17.9412 23.3376 18.4499 23.9138 19.0989C24.15 19.3651 24.5839 19.3378 24.7456 19.0207C25.1845 18.1605 25.5309 17.2453 25.7719 16.2882C25.8303 16.056 25.7074 15.8182 25.4869 15.7248C24.273 15.2104 23.0997 14.7528 21.9667 14.3475ZM15.7986 18.775C16.4435 18.5744 17.029 18.4225 17.5663 18.325C17.9552 18.2545 18.2173 18.6624 18.0046 18.9956C17.9503 19.0807 17.8947 19.1658 17.838 19.2508C16.3567 21.4728 14.0482 23.7024 10.6858 25.8111C10.5785 25.8784 10.4488 25.9024 10.325 25.8758C8.15692 25.4105 6.18828 24.408 4.56516 23.0145C4.25154 22.7452 4.41482 22.2461 4.82211 22.1757C7.97903 21.6294 10.7063 20.6159 13.0188 19.7566L13.0188 19.7566C13.0188 19.7566 13.0188 19.7566 13.0188 19.7566V19.7566C14.0233 19.3834 14.9495 19.0392 15.7986 18.775ZM18.8792 20.6116C17.8315 22.1832 16.4566 23.7134 14.7228 25.1812C14.3511 25.4959 14.578 26.0919 15.0596 26.0189C18.3143 25.5259 21.1755 23.8337 23.1787 21.407C23.3221 21.2332 23.3243 20.9833 23.1838 20.8072C22.3277 19.7348 21.4875 19.0611 20.8453 18.6954C20.7469 18.6394 20.647 18.5883 20.5455 18.5421C20.3168 18.4381 20.0572 18.5555 19.9449 18.7802C19.6381 19.3939 19.2836 20.005 18.8792 20.6116Z" fill="#DAD4ED"/>
</svg>
