<svg width="20" height="20" viewBox="0 0 20 20" fill="none" xmlns="http://www.w3.org/2000/svg">
<g clip-path="url(#clip0_92_1672)">
<path fill-rule="evenodd" clip-rule="evenodd" d="M7.47266 7.07129C7.55469 6.30664 7.85938 5.22559 8.48047 4.14453C9.15234 2.98145 10.1562 1.86426 11.5742 1.16211C12.1445 1.29199 12.6797 1.49414 13.1875 1.75488C12.9297 1.98828 12.6914 2.22754 12.4727 2.46973C12.332 2.62695 12.1953 2.78516 12.0664 2.94531C11.75 3.34277 11.4805 3.75586 11.2578 4.19434C10.9844 4.73145 10.7852 5.29395 10.6523 5.89941C10.5508 6.375 10.4883 6.87695 10.4609 7.41406C9.3125 7.42969 8.32812 7.29004 7.47266 7.07129ZM6.30859 6.70215L6.21484 6.66211C5.51953 6.37207 4.9375 6.02441 4.44922 5.66992C4.15234 5.45508 3.89844 5.22852 3.66406 5.01465C4.73047 2.74707 6.98047 1.13965 9.61328 0.994141C8.67578 1.7373 7.96484 2.63867 7.44141 3.5459C6.8125 4.64062 6.44531 5.77539 6.30859 6.70215ZM17 7.99414C17 9.94141 16.2109 11.7021 14.9297 12.9717C16.418 8.78711 14.9492 5.25488 12.8672 3.87598C13.2305 3.39062 13.6875 2.91797 14.2539 2.43066C15.9219 3.71094 17 5.72754 17 7.99414ZM12.2383 4.92188C13.9805 6.12988 15.5586 9.77148 12.9805 14.3564C12.7305 14.4746 12.4922 14.5498 12.2266 14.6387C13.2188 11.9326 12.5156 9.20898 11.6523 7.82422C11.6719 6.66211 11.8594 5.73633 12.2383 4.92188ZM10 15C10.2656 15 10.5234 14.9854 10.7812 14.957C11.25 14.0303 11.4648 13.0791 11.5039 12.1855C9.56641 12.3936 6.13281 12.2979 3.25 9.84961C4.0625 12.8184 6.77344 15 10 15ZM3 7.90918C3.00781 7.33496 3.08203 6.77637 3.21875 6.24316C3.38281 6.37891 3.55469 6.50488 3.74219 6.64062C4.17578 6.95801 4.67188 7.26562 5.23828 7.54004C5.80078 7.81152 6.42969 8.0498 7.13281 8.2334C7.6875 8.37695 8.28516 8.48633 8.93359 8.5498C9.17969 8.57422 9.43359 8.59277 9.69531 8.60352C10.0273 8.61719 10.3711 8.61914 10.7266 8.6084C11.0508 9.18262 11.3477 10.0195 11.4609 10.9873C9.47266 11.2178 5.73828 11.0938 3 7.90918Z" fill="#8993A1"/>
<path d="M22.3536 16.3536C22.5488 16.1583 22.5488 15.8417 22.3536 15.6464C22.1583 15.4512 21.8417 15.4512 21.6464 15.6464L22.3536 16.3536ZM18.2929 18.2929L17.9393 18.6464L18.2929 18.2929ZM19.7071 18.2929L20.0607 18.6464L19.7071 18.2929ZM15.2929 16.7071L14.9393 16.3536L15.2929 16.7071ZM16.7071 16.7071L17.0607 16.3536L16.7071 16.7071ZM2.06066 18.6464L3.64645 17.0607L2.93934 16.3536L1.35355 17.9393L2.06066 18.6464ZM4.35355 17.0607L5.93934 18.6464L6.64645 17.9393L5.06066 16.3536L4.35355 17.0607ZM8.06066 18.6464L9.64645 17.0607L8.93934 16.3536L7.35355 17.9393L8.06066 18.6464ZM10.3536 17.0607L11.9393 18.6464L12.6464 17.9393L11.0607 16.3536L10.3536 17.0607ZM14.0607 18.6464L15.6464 17.0607L14.9393 16.3536L13.3536 17.9393L14.0607 18.6464ZM-2.35355 16.3536L-0.0606606 18.6464L0.646446 17.9393L-1.64645 15.6464L-2.35355 16.3536ZM16.3536 17.0607L17.9393 18.6464L18.6464 17.9393L17.0607 16.3536L16.3536 17.0607ZM20.0607 18.6464L22.3536 16.3536L21.6464 15.6464L19.3536 17.9393L20.0607 18.6464ZM17.9393 18.6464C18.5251 19.2322 19.4749 19.2322 20.0607 18.6464L19.3536 17.9393C19.1583 18.1346 18.8417 18.1346 18.6464 17.9393L17.9393 18.6464ZM15.6464 17.0607C15.8417 16.8654 16.1583 16.8654 16.3536 17.0607L17.0607 16.3536C16.4749 15.7678 15.5251 15.7678 14.9393 16.3536L15.6464 17.0607ZM11.9393 18.6464C12.5251 19.2322 13.4749 19.2322 14.0607 18.6464L13.3536 17.9393C13.1583 18.1346 12.8417 18.1346 12.6464 17.9393L11.9393 18.6464ZM9.64645 17.0607C9.84171 16.8654 10.1583 16.8654 10.3536 17.0607L11.0607 16.3536C10.4749 15.7678 9.52513 15.7678 8.93934 16.3536L9.64645 17.0607ZM5.93934 18.6464C6.52513 19.2322 7.47487 19.2322 8.06066 18.6464L7.35355 17.9393C7.15829 18.1346 6.84171 18.1346 6.64645 17.9393L5.93934 18.6464ZM3.64645 17.0607C3.84171 16.8654 4.15829 16.8654 4.35355 17.0607L5.06066 16.3536C4.47487 15.7678 3.52513 15.7678 2.93934 16.3536L3.64645 17.0607ZM1.35355 17.9393C1.15829 18.1346 0.841709 18.1346 0.646446 17.9393L-0.0606606 18.6464C0.525126 19.2322 1.47487 19.2322 2.06066 18.6464L1.35355 17.9393Z" fill="#8993A1"/>
</g>
<defs>
<clipPath id="clip0_92_1672">
<rect width="20" height="20" fill="white"/>
</clipPath>
</defs>
</svg>
