<svg width="20" height="20" viewBox="0 0 20 20" fill="none" xmlns="http://www.w3.org/2000/svg">
<g clip-path="url(#clip0_92_1583)">
<path d="M9.99984 1C6.69965 1 3.93443 3.28475 3.1955 6.35838L3.19472 6.35964L3.19488 6.3612C3.06861 6.88708 3 7.43535 3 7.99992C3 9.68877 3.59825 11.2379 4.59425 12.4472L4.59441 12.4477L4.59488 12.4482C5.21631 13.2023 5.99315 13.8228 6.87557 14.2637L6.88168 14.2686L6.88623 14.2692C7.82426 14.736 8.88088 15 9.99984 15C13.8659 15 17 11.8659 17 7.99992C17 4.13395 13.8659 1 9.99984 1ZM14.6505 3.88064L14.1254 5.93793L12.1945 6.70568L10.3916 5.39592V3.40458L12.1132 2.15373C13.0986 2.51089 13.968 3.11102 14.6505 3.88064ZM7.88661 2.15373L9.60837 3.40458V5.39608L7.80546 6.70583L5.87441 5.93793L5.34963 3.88049C6.03216 3.11102 6.90142 2.51089 7.88661 2.15373ZM3.78843 7.80192L5.58492 6.66573L7.58787 7.46214L8.2668 9.55186L6.83453 11.3544L4.71127 11.2626C4.12367 10.3135 3.78326 9.19579 3.78326 7.99977C3.78326 7.9335 3.78624 7.86771 3.78843 7.80192ZM8.01725 13.8904L7.44782 11.8416L8.91205 9.99862H11.0881L12.5525 11.8415L11.9829 13.8904C11.3596 14.1008 10.6933 14.2166 10 14.2166C9.30666 14.2166 8.64026 14.1007 8.01725 13.8904ZM15.2886 11.2628L13.1655 11.3543L11.7332 9.55186L12.4121 7.4623L14.4149 6.66589L16.2116 7.80239C16.2138 7.86802 16.2166 7.9335 16.2166 7.99977C16.2167 9.19595 15.8763 10.3136 15.2886 11.2628Z" fill="#8993A1"/>
<path d="M22.3536 16.3536C22.5488 16.1583 22.5488 15.8417 22.3536 15.6464C22.1583 15.4512 21.8417 15.4512 21.6464 15.6464L22.3536 16.3536ZM18.2929 18.2929L17.9393 18.6464L18.2929 18.2929ZM19.7071 18.2929L20.0607 18.6464L19.7071 18.2929ZM15.2929 16.7071L14.9393 16.3536L15.2929 16.7071ZM16.7071 16.7071L17.0607 16.3536L16.7071 16.7071ZM2.06066 18.6464L3.64645 17.0607L2.93934 16.3536L1.35355 17.9393L2.06066 18.6464ZM4.35355 17.0607L5.93934 18.6464L6.64645 17.9393L5.06066 16.3536L4.35355 17.0607ZM8.06066 18.6464L9.64645 17.0607L8.93934 16.3536L7.35355 17.9393L8.06066 18.6464ZM10.3536 17.0607L11.9393 18.6464L12.6464 17.9393L11.0607 16.3536L10.3536 17.0607ZM14.0607 18.6464L15.6464 17.0607L14.9393 16.3536L13.3536 17.9393L14.0607 18.6464ZM-2.35355 16.3536L-0.0606606 18.6464L0.646446 17.9393L-1.64645 15.6464L-2.35355 16.3536ZM16.3536 17.0607L17.9393 18.6464L18.6464 17.9393L17.0607 16.3536L16.3536 17.0607ZM20.0607 18.6464L22.3536 16.3536L21.6464 15.6464L19.3536 17.9393L20.0607 18.6464ZM17.9393 18.6464C18.5251 19.2322 19.4749 19.2322 20.0607 18.6464L19.3536 17.9393C19.1583 18.1346 18.8417 18.1346 18.6464 17.9393L17.9393 18.6464ZM15.6464 17.0607C15.8417 16.8654 16.1583 16.8654 16.3536 17.0607L17.0607 16.3536C16.4749 15.7678 15.5251 15.7678 14.9393 16.3536L15.6464 17.0607ZM11.9393 18.6464C12.5251 19.2322 13.4749 19.2322 14.0607 18.6464L13.3536 17.9393C13.1583 18.1346 12.8417 18.1346 12.6464 17.9393L11.9393 18.6464ZM9.64645 17.0607C9.84171 16.8654 10.1583 16.8654 10.3536 17.0607L11.0607 16.3536C10.4749 15.7678 9.52513 15.7678 8.93934 16.3536L9.64645 17.0607ZM5.93934 18.6464C6.52513 19.2322 7.47487 19.2322 8.06066 18.6464L7.35355 17.9393C7.15829 18.1346 6.84171 18.1346 6.64645 17.9393L5.93934 18.6464ZM3.64645 17.0607C3.84171 16.8654 4.15829 16.8654 4.35355 17.0607L5.06066 16.3536C4.47487 15.7678 3.52513 15.7678 2.93934 16.3536L3.64645 17.0607ZM1.35355 17.9393C1.15829 18.1346 0.841709 18.1346 0.646446 17.9393L-0.0606606 18.6464C0.525126 19.2322 1.47487 19.2322 2.06066 18.6464L1.35355 17.9393Z" fill="#8993A1"/>
</g>
<defs>
<clipPath id="clip0_92_1583">
<rect width="20" height="20" fill="white"/>
</clipPath>
</defs>
</svg>
