<svg width="20" height="20" viewBox="0 0 20 20" fill="none" xmlns="http://www.w3.org/2000/svg">
<g clip-path="url(#clip0_92_1510)">
<path fill-rule="evenodd" clip-rule="evenodd" d="M1.84525 10.4543L2.98587 11.8273C3.01712 11.8673 3.07181 11.8732 3.11478 11.8478L3.14603 11.8156C3.66166 10.9777 4.63431 9.48746 4.89994 9.25504C5.15384 9.03824 5.48197 9.2775 5.88431 8.88102C5.72806 8.60465 5.51712 7.96109 5.93509 7.59684C6.05228 7.6857 6.35306 7.8068 6.61478 7.58121C6.80619 7.41324 6.77103 7.24332 6.73978 7.10563C6.72025 7.01188 6.70462 6.93277 6.76322 6.88004C6.86478 6.79313 6.86478 6.74332 6.86478 6.74332L7.37259 7.35367L7.8765 6.9191L7.36869 6.30973C7.814 5.94254 8.22416 5.54606 8.6265 5.14078C9.21244 4.54606 9.78275 3.93277 10.4351 3.36441L12.4038 1.61441L12.9077 1.17984L12.5054 0.716954L12.2046 0.356602L11.7046 0.791172L11.8413 0.957188L11.9585 1.09586L12.0288 1.17887L5.23197 7.06168L5.32572 7.17301L5.12259 7.34586C5.14212 7.66324 5.00931 8.28531 4.314 8.23844C3.95853 8.43863 2.97025 9.23551 1.85306 10.3156C1.814 10.3527 1.81009 10.4132 1.84525 10.4543ZM6.02103 7.47672C6.10306 7.56168 6.34916 7.66617 6.55228 7.49234C6.66556 7.39371 6.67728 7.28141 6.65384 7.18375C6.63822 7.10856 6.59916 7.04215 6.57181 6.9982C6.50931 6.90641 6.43119 6.88297 6.20462 7.07828C6.08353 7.18473 6.01322 7.26676 5.98587 7.33316C5.96634 7.38981 5.97806 7.4357 6.02103 7.47672Z" fill="#8993A1"/>
<path d="M6 18L10.5577 13.6232L7.94922 10.8899M7.94922 10.8899L4.44922 13.8718H1.44922M7.94922 10.8899L11.2969 6.91406L13.9492 9.89595L17.949 9.89589" stroke="#8993A1" stroke-width="1.6457" stroke-linecap="round" stroke-linejoin="round"/>
<ellipse cx="14.9908" cy="4.6768" rx="2.21739" ry="2.23637" fill="#8993A1"/>
<path d="M1.00391 18.9937H16.6099C16.859 18.9937 17.0947 18.8808 17.2509 18.6868L19.0039 16.5088" stroke="#8993A1" stroke-width="0.82285" stroke-linecap="round" stroke-linejoin="round"/>
<path d="M7.23123 8.67575C8.64469 7.56352 10 5.60302 11.5 6.1C9.53034 8.65051 8.01642 10.7614 5.5 12C6.11404 11.3025 5.12597 10.3324 7.23123 8.67575Z" fill="#8993A1"/>
<path d="M3.89062 6.84863L6.93268 4.25135L7.39676 4.7949L4.3547 7.39218L3.89062 6.84863Z" fill="#8993A1"/>
</g>
<defs>
<clipPath id="clip0_92_1510">
<rect width="20" height="20" fill="white"/>
</clipPath>
</defs>
</svg>
