<svg width="20" height="20" viewBox="0 0 20 20" fill="none" xmlns="http://www.w3.org/2000/svg">
<path fill-rule="evenodd" clip-rule="evenodd" d="M7.99371 13V15.0039H6.31793L6.24371 15.0098C6.19684 15.0166 6.14996 15.0293 6.10699 15.0479C6.04059 15.0752 5.98199 15.1162 5.93121 15.168L5.14996 16.4443L5.06403 16.5654L5.0484 16.5928L5.00153 16.7354L4.99371 16.8359V18.5C4.99371 18.8057 5.19293 19 5.49371 19H14.4937C14.7398 19 14.9156 18.8711 14.9742 18.6602C14.9859 18.6113 14.9937 18.5576 14.9937 18.5V16.9102L14.9976 16.8359C14.9976 16.5508 14.8414 16.3525 14.8414 16.3525L14.0562 15.168C13.9546 15.0645 13.814 15.0039 13.6695 15.0039H11.9937V13C15.5211 13 17.5523 10.0146 18.4468 6.5H1.54059C1.75934 7.35645 2.04449 8.18164 2.40387 8.93945C3.51324 11.292 5.32574 13 7.99371 13ZM18.8297 4.5C18.7867 4.83496 18.732 5.16895 18.6695 5.5H1.31793C1.25543 5.16895 1.20074 4.83496 1.15778 4.5H18.8297ZM1.05231 3.5H18.9351L18.9664 2.99902C18.9976 2.44824 18.5445 2 17.9937 2H1.99371C1.44293 2 0.989807 2.44824 1.02106 2.99902L1.05231 3.5ZM10.4976 8C10.4976 7.79785 10.3765 7.61523 10.189 7.53809C10.0015 7.46094 9.78668 7.50391 9.64215 7.64648L8.64215 8.64648C8.45074 8.8418 8.45074 9.1582 8.64215 9.35352C8.83746 9.54883 9.15777 9.54883 9.35309 9.35352L9.49762 9.20703V10.5H8.99762C8.72028 10.5 8.49762 10.7236 8.49762 11C8.49762 11.2764 8.72028 11.5 8.99762 11.5H9.99762H10.9976C11.275 11.5 11.4976 11.2764 11.4976 11C11.4976 10.7236 11.275 10.5 10.9976 10.5H10.4976V8Z" fill="#8993A1"/>
</svg>
