<svg width="20" height="20" viewBox="0 0 20 20" fill="none" xmlns="http://www.w3.org/2000/svg">
<path d="M4.69922 2V5H18.4492V2C18.4492 0.895431 17.5538 0 16.4492 0H6.69922C5.59465 0 4.69922 0.89543 4.69922 2Z" fill="#CAC2E5"/>
<path fill-rule="evenodd" clip-rule="evenodd" d="M10.177 6.25H1.94888C1.39659 6.25 0.944333 6.69909 1.00557 7.24797C1.3837 10.6374 3.56005 13.75 4.69887 13.75H16.4489C17.5534 13.75 18.4489 12.8546 18.4489 11.75V6.25H11.6924C11.9208 6.58738 12.0739 7.00474 12.0739 7.5C12.0739 8.31087 11.663 8.91278 11.1831 9.29668C10.719 9.66792 10.143 9.875 9.69887 9.875H4.94887C4.67273 9.875 4.44887 9.65114 4.44887 9.375C4.44887 9.09886 4.67273 8.875 4.94887 8.875H9.69887C9.87976 8.875 10.2412 8.76958 10.5584 8.51582C10.8598 8.27472 11.0739 7.93913 11.0739 7.5C11.0739 7.06048 10.86 6.72486 10.5593 6.48395C10.4342 6.38367 10.3021 6.30657 10.177 6.25Z" fill="#CAC2E5"/>
<path fill-rule="evenodd" clip-rule="evenodd" d="M4.69922 15H18.4492V20H4.69922V15ZM7.19922 17C6.92308 17 6.69922 17.2239 6.69922 17.5C6.69922 17.7761 6.92308 18 7.19922 18H15.9492C16.2254 18 16.4492 17.7761 16.4492 17.5C16.4492 17.2239 16.2254 17 15.9492 17H7.19922Z" fill="#CAC2E5"/>
</svg>
