<svg width="20" height="20" viewBox="0 0 20 20" fill="none" xmlns="http://www.w3.org/2000/svg">
<g clip-path="url(#clip0_92_1443)">
<path fill-rule="evenodd" clip-rule="evenodd" d="M19.0427 9.21498L19.281 8.25307H9.31615C9.13647 8.25307 8.92553 8.2101 8.74584 8.10267C8.69506 8.07045 8.64428 8.03236 8.5974 7.98842C8.50756 7.89857 8.44115 7.78236 8.406 7.6349L8.37475 7.45424L8.36303 7.26088C8.35912 7.12221 8.36693 6.97279 8.39037 6.81264C8.42162 6.56557 8.48412 6.29506 8.58178 6.00307H3.26147C2.99584 6.00307 2.74193 6.10853 2.55443 6.29603L1.8474 7.00307H1.10131C1.03881 7.00307 0.984122 7.03041 0.948965 7.0724C0.909903 7.11928 0.890372 7.18471 0.905997 7.25111L1.30443 8.83412C1.32006 8.89174 1.30443 8.95033 1.27318 8.99623C1.25365 9.02748 1.2224 9.05287 1.18334 9.06752L0.581778 9.30873C0.109122 9.49818 0.191153 10.1954 0.698965 10.2677L0.929434 10.2999C1.61693 10.3986 1.99975 11.1525 1.66772 11.7648L0.206778 14.4796C-0.406503 15.6203 0.417715 17.0031 1.71459 17.0031H4.7185C5.13647 17.0031 5.3435 16.5011 5.05053 16.2072C4.92553 16.0822 4.88256 15.8976 4.93725 15.7296L6.61693 10.6876C6.74975 10.2785 7.13256 10.0031 7.56615 10.0031H18.0349C18.5115 10.0031 18.9255 9.67787 19.0427 9.21498ZM19.699 6.55385L19.4021 7.75307H9.31615C9.06225 7.75307 8.92162 7.64467 8.89428 7.5265C8.87475 7.43959 8.86303 7.339 8.86303 7.22572C8.85912 7.089 8.87084 6.93275 8.90209 6.75795L8.95287 6.51478C8.98803 6.38002 9.02709 6.23549 9.08178 6.08119L9.0935 6.00307H17.6443C17.6951 6.00307 17.7458 5.99623 17.7966 5.98451L17.9138 5.94349L17.9997 5.89564L18.7693 5.38099C18.9255 5.27748 19.113 5.44935 19.031 5.61537C18.9841 5.70814 18.9958 5.80971 19.0466 5.88588C19.0935 5.95521 19.1755 6.00307 19.2693 6.00307C19.5544 6.00307 19.7693 6.27357 19.699 6.55385ZM4.58568 7.08412C4.62865 6.95326 4.55834 6.81166 4.42553 6.76771C4.29662 6.72377 4.15209 6.79506 4.10912 6.92592L3.60912 8.42592C3.58568 8.49623 3.5974 8.5685 3.63256 8.62807L3.656 8.65932L3.69115 8.69935C3.71068 8.71791 3.73803 8.73256 3.76928 8.74232C3.89818 8.78627 4.04272 8.71498 4.08568 8.58412L4.58568 7.08412ZM3.42553 6.76771C3.55834 6.81166 3.62865 6.95326 3.58568 7.08412L3.08568 8.58412C3.06225 8.65639 3.00756 8.7101 2.94115 8.73646L2.86303 8.75404C2.83178 8.756 2.80053 8.75209 2.76928 8.74232C2.63647 8.69838 2.56615 8.55678 2.60912 8.42592L3.10912 6.92592C3.13256 6.85365 3.18725 6.79994 3.25365 6.77357C3.30443 6.75209 3.36693 6.74818 3.42553 6.76771ZM5.5349 6.84193C5.50365 6.81068 5.4685 6.78627 5.42553 6.77162C5.36693 6.75209 5.30443 6.75599 5.25365 6.77748C5.18725 6.80385 5.13256 6.85756 5.10912 6.92982L4.60912 8.42982C4.58568 8.49916 4.5974 8.5724 4.63256 8.63197C4.64818 8.65932 4.66772 8.68373 4.69115 8.70326C4.71068 8.72182 4.73803 8.73646 4.76928 8.74623C4.89818 8.79017 5.04272 8.71889 5.08568 8.58803L5.58568 7.08803C5.61303 7.00014 5.5935 6.90736 5.5349 6.84193ZM6.42553 6.76967C6.55834 6.81361 6.62865 6.95521 6.58568 7.08607L6.08568 8.58607C6.06225 8.65736 6.00756 8.71107 5.94506 8.73744C5.89037 8.7599 5.82787 8.76381 5.76928 8.74428C5.63647 8.70033 5.56615 8.55873 5.60912 8.42787L6.10912 6.92787C6.13256 6.8556 6.18725 6.80189 6.24975 6.77553C6.30443 6.75404 6.36693 6.75014 6.42553 6.76967ZM7.58178 7.08607C7.62475 6.95521 7.55443 6.81361 7.42162 6.76967C7.29272 6.72572 7.14818 6.79701 7.10522 6.92787L6.60522 8.42787C6.58178 8.49721 6.5935 8.56947 6.62475 8.62904C6.656 8.68178 6.70287 8.72377 6.76537 8.74428C6.89428 8.78822 7.03881 8.71693 7.08178 8.58607L7.58178 7.08607Z" fill="#8993A1"/>
<path d="M5.84961 11.8525H8.84961C9.40189 11.8525 9.85251 11.3987 10.0033 10.8674C10.146 10.3647 10.4052 9.79693 10.8496 9.35254" stroke="#8993A1"/>
</g>
<defs>
<clipPath id="clip0_92_1443">
<rect width="20" height="20" fill="white"/>
</clipPath>
</defs>
</svg>
