<svg width="20" height="20" viewBox="0 0 20 20" fill="none" xmlns="http://www.w3.org/2000/svg">
<g clip-path="url(#clip0_5332_51357)">
<path d="M19.6002 0.399556C19.3344 0.199778 19.001 0 18.6015 0C18.2681 0 17.8685 0.199778 17.6672 0.399556L14.3998 3.66556C14.0003 3.39933 13.534 3.266 13.0678 3.266C12.3993 3.266 11.8001 3.46644 11.3334 3.93289L0.39936 14.934C0.199569 15.0669 0 15.3996 0 15.8662C0 16.2 0.0660045 16.5333 0.26624 16.9329C0.598929 17.6004 1.19964 18.1993 1.46632 18.5327C2.06614 19.0667 3.13288 20 4.1325 20C4.4663 20 4.80054 19.8671 5.067 19.5993L16.0682 8.66622C16.8676 7.79978 16.9996 6.53289 16.334 5.59956L19.6002 2.33356C19.8671 2.13267 20 1.73311 20 1.39978C20 0.999333 19.8671 0.666 19.6002 0.399556ZM4.3994 18.9333C4.33296 19.0004 4.26606 19.0669 4.1325 19.0669C3.66691 19.0669 2.86641 18.5991 2.13348 17.8669C1.3332 17.0664 0.666045 15.9996 1.06674 15.6L9.33307 7.33333C10.1333 8.06622 12.133 9.734 12.934 10.4664L4.3994 18.9333ZM18.9337 1.66622L15.735 4.86711L15.135 4.266L18.3357 1.13244C18.4012 0.999111 18.4686 0.999111 18.6015 0.999111C18.7344 0.999111 18.8019 0.999111 18.9337 1.13244C19.001 1.20044 19.001 1.26622 19.001 1.39978C19.001 1.53333 19.001 1.59978 18.9337 1.66622Z" fill="#8993A1"/>
<circle cx="2" cy="7" r="2" fill="#8993A1"/>
</g>
<defs>
<clipPath id="clip0_5332_51357">
<rect width="20" height="20" fill="white"/>
</clipPath>
</defs>
</svg>
