<svg width="20" height="20" viewBox="0 0 20 20" fill="none" xmlns="http://www.w3.org/2000/svg">
<path fill-rule="evenodd" clip-rule="evenodd" d="M7.40328 5.87402L5.20406 3.79492L4.10249 4.89453L5.33687 6.12695C6.09468 6.8877 6.28609 8.05078 5.80171 9.0127L5.05953 10.4941L11.0517 15.5303C11.4111 15.834 11.8681 16 12.3369 16H17.0009C17.5517 16 18.0009 15.5527 18.0009 15V13C18.0009 12.8008 17.9423 12.6152 17.8408 12.459C17.6611 12.1826 17.3525 12 17.0009 12H14.4775C14.1103 12 13.7587 11.8994 13.4541 11.7207C13.0361 11.4727 12.7119 11.0752 12.5634 10.5879L11.3056 6.49902C11.1377 5.95508 10.5439 5.66699 9.99703 5.83301C8.74703 6.21289 8.02828 6.27637 7.65718 6.11328L7.61812 6.07715C7.56734 6.05078 7.52437 6.02051 7.48921 5.98633C7.45406 5.95312 7.42671 5.91504 7.40328 5.87402ZM7.50093 1.5L5.91109 3.08789L7.48531 4.57715C7.80562 3.49902 8.37984 2.16016 7.50093 1.5ZM4.27437 9.83398L4.90718 8.56543C5.19624 7.98828 5.08296 7.29102 4.62984 6.83398L3.39546 5.60254L3.03999 5.95801C2.21187 6.78711 2.27046 8.14844 3.1689 8.90332L4.27437 9.83398ZM9.12984 9.83496L7.81343 11.3379L8.18843 11.667L9.50484 10.165L9.12984 9.83496ZM8.56734 11.9961L9.88374 10.4932L10.2587 10.8232L8.94234 12.3252L8.56734 11.9961ZM10.6337 11.1523L9.31734 12.6553L9.69234 12.9844L11.0087 11.4824L10.6337 11.1523Z" fill="#8993A1"/>
<path fill-rule="evenodd" clip-rule="evenodd" d="M3.85547 12L2.64062 11H0L1 12H3.85547Z" fill="#8993A1"/>
<path fill-rule="evenodd" clip-rule="evenodd" d="M5.07031 13H2L3 14H6.28516L5.07031 13Z" fill="#8993A1"/>
<path fill-rule="evenodd" clip-rule="evenodd" d="M7.5 15H4L5 16H8.71484L7.5 15Z" fill="#8993A1"/>
</svg>
