<svg width="20" height="20" viewBox="0 0 20 20" fill="none" xmlns="http://www.w3.org/2000/svg">
<path d="M4 16.5C5.933 16.5 7.5 14.933 7.5 13C7.5 11.067 5.933 9.5 4 9.5C2.067 9.5 0.5 11.067 0.5 13C0.5 14.933 2.067 16.5 4 16.5Z" stroke="#CAC2E5"/>
<path d="M16 16.5C17.933 16.5 19.5 14.933 19.5 13C19.5 11.067 17.933 9.5 16 9.5C14.067 9.5 12.5 11.067 12.5 13C12.5 14.933 14.067 16.5 16 16.5Z" stroke="#CAC2E5"/>
<path d="M11 13H16L13.5 6M11 13L6 6M11 13L13.5 6M13.5 6H6M13.5 6V4.5M6 6L4 13M6 6L6.5 4H9.5M13.5 4.5H15M13.5 4.5H12" stroke="#CAC2E5" stroke-linecap="round" stroke-linejoin="round"/>
</svg>
