<svg width="20" height="20" viewBox="0 0 20 20" fill="none" xmlns="http://www.w3.org/2000/svg">
<g clip-path="url(#clip0_92_1654)">
<path fill-rule="evenodd" clip-rule="evenodd" d="M19.9565 5.64793L18.4537 2.94296C18.6738 2.53643 18.6199 2.04343 18.2889 1.71239C17.9685 1.39235 17.478 1.32997 17.0622 1.55007L14.353 0.0448258C14.2148 -0.0324388 14.0422 -0.00798351 13.9305 0.104015L11.3585 2.67608C11.2684 2.7661 11.2333 2.89724 11.267 3.01987L12.1775 6.35784L10.1077 8.42733C9.75149 8.39862 9.38359 8.50849 9.12451 8.76793L8.23242 9.66001L10.3413 11.7688L11.233 10.8768C11.4669 10.6432 11.5956 10.3316 11.5956 9.99955C11.5956 9.95986 11.5878 9.92193 11.5842 9.88259L13.6431 7.82374L16.9814 8.73426C17.0122 8.74241 17.0434 8.74666 17.0746 8.74666C17.1675 8.74666 17.2575 8.71016 17.3252 8.64282L19.8973 6.07076C20.0089 5.95911 20.0334 5.78651 19.9565 5.64793ZM11.233 9.12235L10.8786 8.76793C10.8601 8.74914 10.8378 8.73638 10.8183 8.71937L12.8226 6.71475L12.8244 6.71368L17.3124 2.2256C17.4617 2.09482 17.658 2.08454 17.7877 2.21391C17.938 2.36383 17.8894 2.5616 17.7888 2.67608L13.2872 7.17727L11.2823 9.18225C11.2652 9.16276 11.2518 9.14078 11.233 9.12235Z" fill="#8993A1"/>
<path fill-rule="evenodd" clip-rule="evenodd" d="M5.6582 12.2323L7.76703 14.3411L8.55173 13.5561L6.44326 11.4473L5.6582 12.2323Z" fill="#8993A1"/>
<path fill-rule="evenodd" clip-rule="evenodd" d="M3.30333 14.5876C3.06977 14.8212 2.94111 15.1327 2.94111 15.4648C2.94111 15.7615 3.04886 16.0386 3.23741 16.2616L0.103935 19.3947C-0.0346451 19.5329 -0.0346451 19.7573 0.103935 19.8958C0.173048 19.965 0.263781 19.9997 0.354514 19.9997C0.445247 19.9997 0.53598 19.965 0.605093 19.8958L3.73857 16.7627C3.96115 16.9509 4.23831 17.0587 4.53496 17.0587C4.8667 17.0587 5.17824 16.93 5.41216 16.6965L6.05155 16.0567L3.94272 13.9482L3.30333 14.5876Z" fill="#8993A1"/>
<path fill-rule="evenodd" clip-rule="evenodd" d="M6.94531 10.9468L9.05414 13.0556L9.83884 12.2709L7.73001 10.1621L6.94531 10.9468Z" fill="#8993A1"/>
<path fill-rule="evenodd" clip-rule="evenodd" d="M4.44336 13.4466L6.55219 15.5551L7.26636 14.8412L5.15753 12.7324L4.44336 13.4466Z" fill="#8993A1"/>
</g>
<defs>
<clipPath id="clip0_92_1654">
<rect width="20" height="20" fill="white"/>
</clipPath>
</defs>
</svg>
