<svg width="20" height="20" viewBox="0 0 20 20" fill="none" xmlns="http://www.w3.org/2000/svg">
<path fill-rule="evenodd" clip-rule="evenodd" d="M3 2H5.64453C5.87109 2 6.08984 2.08984 6.25 2.25C6.34766 2.34961 6.47266 2.42188 6.60547 2.46289C6.68359 2.4873 6.76953 2.5 6.85547 2.5H7.64453C7.70703 2.5 7.76953 2.49219 7.83203 2.47852L7.96484 2.43848C8.07031 2.39551 8.16797 2.33203 8.25 2.25C8.41016 2.08984 8.62891 2 8.85547 2H11.293C11.4258 2 11.5508 2.05273 11.6445 2.14648C11.8398 2.3418 12.1602 2.3418 12.3555 2.14648C12.4062 2.09668 12.4648 2.05762 12.5312 2.0332C12.5859 2.01172 12.6445 2 12.707 2H15.6445C15.7305 2 15.8164 2.0127 15.8984 2.03809C16.0312 2.0791 16.1523 2.15137 16.25 2.25C16.4102 2.41016 16.6289 2.5 16.8555 2.5H17.0859C17.7812 2.5 18.2734 3.18262 18.0508 3.84277L18.0117 4.00293L18 4.16602V7.79297C18 7.92578 17.9492 8.05273 17.8555 8.14648C17.6602 8.3418 17.6602 8.6582 17.8555 8.85352C17.9492 8.94727 18 9.07422 18 9.20703V10.4414C18 10.582 18.0117 10.7217 18.0391 10.8594C18.0781 11.0811 18.1484 11.2969 18.25 11.5C18.4141 11.8291 18.5 12.1914 18.5 12.5586V16.9062C18.5 17.04 18.4648 17.1641 18.4062 17.2725C18.3594 17.3643 18.2969 17.4443 18.2188 17.5098C18.0195 17.6777 17.7383 17.7461 17.4609 17.6543L17.4023 17.6338C17.3086 17.6035 17.2148 17.5938 17.1211 17.6025C16.9648 17.6162 16.8125 17.6846 16.6992 17.7998C16.5703 17.9277 16.3984 18 16.2148 18H14.207C14.0742 18 13.9492 17.9473 13.8555 17.8535C13.6602 17.6582 13.3398 17.6582 13.1445 17.8535C13.1133 17.8857 13.0781 17.9121 13.0391 17.9336C13.0039 17.9541 12.9648 17.9697 12.9258 17.9805C12.8867 17.9932 12.8398 18 12.793 18H11.3555C11.2305 18 11.1094 18.0273 10.9961 18.0781C10.9414 18.1035 10.8906 18.1348 10.8398 18.1709L10.75 18.25C10.5898 18.4102 10.3711 18.5 10.1445 18.5H8.35547C8.23047 18.5 8.10938 18.4736 8 18.4238C7.90625 18.3818 7.82422 18.3232 7.75 18.25C7.58984 18.0898 7.37109 18 7.14453 18H3.09766C3.03516 18 2.96875 18.0107 2.90625 18.0312L2.46484 18.1777C2.10938 18.2969 1.78906 17.9248 1.95703 17.5889C1.98438 17.5303 2 17.4658 2 17.4004V16.2754C2 16.0947 1.95703 15.916 1.875 15.7529L1.69922 15.4014C1.64453 15.292 1.625 15.1719 1.63672 15.0557C1.64453 14.9707 1.67188 14.8877 1.71875 14.8125C1.74609 14.7656 1.77734 14.7217 1.81641 14.6826C1.93359 14.5654 2 14.4072 2 14.2422V12.3535C2 12.127 1.91016 11.9102 1.75 11.75C1.63281 11.6348 1.55469 11.4902 1.51953 11.333C1.50781 11.2725 1.5 11.21 1.5 11.1465V9.85352C1.5 9.62695 1.58984 9.41016 1.75 9.25C1.91016 9.08984 2 8.87305 2 8.64648V8.20703C2 8.07422 1.94922 7.94727 1.85547 7.85352C1.66016 7.6582 1.66016 7.3418 1.85547 7.14648C1.94922 7.05273 2 6.92578 2 6.79297V3C2 2.44727 2.44922 2 3 2ZM4.52344 5.61328L12.1992 14.6475C12.3906 14.8711 12.668 15 12.9609 15H14.2773C14.7109 15 15.0938 14.7246 15.2266 14.3164L15.7734 12.6836C15.8359 12.4971 15.8398 12.3018 15.793 12.1211C15.7383 11.9053 15.6094 11.708 15.4219 11.5674L6.37891 4.78516C6.14062 4.60449 5.83203 4.54199 5.53906 4.61523L4.78125 4.80469C4.73828 4.81543 4.69922 4.83105 4.66406 4.85059C4.53906 4.91699 4.45312 5.03027 4.42188 5.15625C4.37891 5.30664 4.40625 5.47754 4.52344 5.61328ZM14.25 7.82031L11.3203 5.72852C11.1875 5.63281 11.2188 5.42773 11.3711 5.37598L13.4141 4.69531C13.7734 4.5752 14.168 4.66895 14.4375 4.9375L14.6211 5.12109C14.8594 5.3584 14.9609 5.69727 14.8945 6.02441L14.5625 7.69629C14.5312 7.83887 14.3672 7.9043 14.25 7.82031ZM4.57812 14.4326L5.55078 15.1631C5.82812 15.3721 6.19922 15.4209 6.52344 15.291L8.21875 14.6123C8.35156 14.5596 8.38672 14.3867 8.28516 14.2852L5.45703 11.458C5.34766 11.3477 5.19922 11.3184 5.06641 11.3555C4.94531 11.3896 4.83984 11.4795 4.79688 11.6143L4.22656 13.3164C4.09375 13.7246 4.23047 14.1738 4.57812 14.4326Z" fill="#8993A1"/>
</svg>
