<svg width="20" height="20" viewBox="0 0 20 20" fill="none" xmlns="http://www.w3.org/2000/svg">
<g clip-path="url(#clip0_92_1591)">
<path fill-rule="evenodd" clip-rule="evenodd" d="M6.26628 8.73828L6.20378 8.75488L5.48112 8.92871L4.778 9.07715L4.28972 9.16504C3.42253 9.31152 2.56706 9.40234 1.75066 9.42676C0.977218 9.44922 0.402999 10.2588 0.723312 10.9648L3.17253 16.3418C4.24675 18.7051 6.87175 19.9453 9.37956 19.2734C11.6374 18.6689 13.2038 16.6807 13.3171 14.4082C12.5319 14.5049 11.7194 14.4541 10.9147 14.2393C8.32878 13.5459 6.50847 11.3203 6.26628 8.73828ZM5.86003 11.9326C5.89909 12.0771 5.903 12.2227 5.87956 12.3613C5.81316 12.7334 5.53972 13.0537 5.153 13.1572C4.61784 13.3008 4.07097 12.9834 3.92644 12.4502C3.89909 12.3438 3.88737 12.2373 3.89519 12.1338C3.903 12.0107 3.93425 11.8916 3.98112 11.7822C4.05144 11.6289 4.15691 11.4932 4.29362 11.3906C4.39519 11.3164 4.50847 11.2598 4.63347 11.2256C5.16862 11.083 5.7155 11.3994 5.86003 11.9326ZM11.3874 15.7363C11.3171 15.8623 11.196 15.9443 11.0632 15.9746C10.946 16.001 10.8171 15.9844 10.7038 15.9189C10.4967 15.8008 10.1803 15.7246 9.77409 15.7178C9.37175 15.7109 8.91862 15.7725 8.47331 15.8916C8.028 16.0117 7.60612 16.1846 7.26237 16.3906C7.04753 16.5195 6.87566 16.6533 6.74675 16.7861C6.66472 16.8691 6.60222 16.9512 6.55534 17.0303C6.41862 17.2695 6.11394 17.3516 5.87566 17.2139C5.7155 17.1221 5.62566 16.959 5.62175 16.79C5.62175 16.7021 5.64519 16.6123 5.69206 16.5303C5.92644 16.123 6.31706 15.791 6.74675 15.5332C7.18425 15.2715 7.69597 15.0654 8.2155 14.9258C8.73503 14.7861 9.28191 14.71 9.78972 14.7178C10.2897 14.7266 10.7975 14.8184 11.2038 15.0537C11.4421 15.1914 11.5241 15.4971 11.3874 15.7363Z" fill="#8993A1"/>
<path fill-rule="evenodd" clip-rule="evenodd" d="M9.48931 0.931439C8.80572 0.564251 7.90728 0.978314 7.83306 1.7498L7.26275 7.62968C7.00885 10.2146 8.6651 12.6014 11.1729 13.2732C13.6807 13.9451 16.3096 12.7059 17.3838 10.3416L19.8448 4.93046C20.1651 4.23222 19.6065 3.43144 18.8409 3.40507C15.8799 3.30156 12.212 2.39628 9.48931 0.931439ZM10.5713 5.86406C11.1026 6.00761 11.6534 5.69023 11.794 5.15702C11.9385 4.62382 11.6221 4.07499 11.087 3.93242C10.5557 3.78984 10.0049 4.10624 9.86431 4.63945C9.71978 5.17265 10.0362 5.72148 10.5713 5.86406ZM16.6221 6.45195C16.4815 6.98515 15.9307 7.30253 15.3995 7.15898C15.2198 7.11113 15.0635 7.0164 14.9424 6.8914C14.7042 6.64726 14.5987 6.28691 14.6924 5.93437C14.8331 5.40117 15.3838 5.08476 15.9151 5.22734C16.4503 5.36992 16.7667 5.91874 16.6221 6.45195ZM10.2276 8.51152C10.0909 8.27226 9.78228 8.19023 9.544 8.3289C9.30572 8.46659 9.22369 8.77226 9.36041 9.01152C9.50494 9.26152 9.70806 9.4832 9.94635 9.67656C10.0948 9.79863 10.2549 9.90898 10.419 10.0086C10.8526 10.2703 11.3643 10.4764 11.8838 10.616C12.4073 10.7557 12.9503 10.8318 13.4581 10.824C13.962 10.8152 14.4659 10.7234 14.8721 10.4891C15.1143 10.3504 15.1963 10.0447 15.0557 9.80546C14.919 9.5662 14.6143 9.48417 14.3721 9.62284C14.169 9.74101 13.8526 9.81718 13.4424 9.82402C13.0401 9.83085 12.5909 9.76933 12.1456 9.65019C11.7003 9.53105 11.2745 9.35722 10.9307 9.15117C10.5831 8.9412 10.3448 8.71659 10.2276 8.51152Z" fill="#8993A1"/>
</g>
<defs>
<clipPath id="clip0_92_1591">
<rect width="20" height="20" fill="white"/>
</clipPath>
</defs>
</svg>
