<svg width="20" height="20" viewBox="0 0 20 20" fill="none" xmlns="http://www.w3.org/2000/svg">
<rect width="3.47742" height="1.15628" rx="0.578141" transform="matrix(0.867092 0.498149 -0.501854 0.864952 14.9863 0)" fill="#8993A1"/>
<path fill-rule="evenodd" clip-rule="evenodd" d="M3.70816 14.8148L4.26675 13.8489C4.58706 13.2952 4.39956 12.5882 3.84487 12.2689C3.28628 11.9505 2.57925 12.1399 2.25503 12.6946L1.38784 14.1917C0.587062 15.5726 1.05972 17.3372 2.44253 18.1321L3.36441 18.6624C4.80191 19.4876 6.64175 18.9954 7.47378 17.5618L12.3488 9.1546L10.8722 8.30596L5.73941 16.0628C5.39175 16.5901 4.68862 16.7562 4.14175 16.4407C3.80191 16.2454 3.59487 15.9095 3.55191 15.5491C3.52456 15.303 3.57144 15.0462 3.70816 14.8148ZM11.5128 7.33917L12.9308 8.15362L15.8292 3.15557L14.7082 2.51007L11.5128 7.33917ZM16.6925 1.67022L16.4113 2.15167L15.3488 1.54132L15.6769 1.0462C15.8527 0.782526 16.2003 0.699518 16.4738 0.856745C16.6339 0.947565 16.7316 1.09991 16.7628 1.2669C16.7863 1.40069 16.7667 1.54327 16.6925 1.67022Z" fill="#8993A1"/>
<circle cx="15" cy="17" r="2" fill="#8993A1"/>
</svg>
