<svg width="20" height="20" viewBox="0 0 20 20" fill="none" xmlns="http://www.w3.org/2000/svg">
<g clip-path="url(#clip0_4355_28862)">
<path fill-rule="evenodd" clip-rule="evenodd" d="M5.04157 0.651269C5.08983 0.550438 5.17572 0.474606 5.27961 0.438774L6.50666 0.0221166C6.7169 -0.0503817 6.94185 0.0612824 7.01875 0.270444L9.59892 7.27969L8.38292 10.5977L5.02357 0.972929C4.98676 0.867931 4.9933 0.7521 5.04157 0.651269ZM8.90245 12.0862L10.1326 8.72953L11.0876 11.3239L9.85073 14.8031L8.90245 12.0862ZM10.3765 16.3095L11.1809 18.6142C11.4697 19.4433 12.2435 20 13.1074 20H18.4986C19.0278 20 19.4958 19.6567 19.6635 19.1459L19.9359 18.3125C20.0618 17.9267 20.0005 17.5159 19.7673 17.1859C19.5342 16.8559 19.171 16.6667 18.7718 16.6667H13.905C13.3961 16.6667 12.9348 16.3409 12.7556 15.8551L11.6275 12.7905L10.3765 16.3095Z" fill="#CAC2E5"/>
<path d="M14.9584 0.651269C14.9102 0.550438 14.8243 0.474606 14.7204 0.438774L13.4933 0.0221166C13.2831 -0.0503817 13.0581 0.0612824 12.9812 0.270444L7.24438 15.8551C7.06523 16.3409 6.60386 16.6667 6.09505 16.6667H1.2282C0.829004 16.6667 0.465797 16.8559 0.232657 17.1859C-0.000482097 17.5159 -0.0618349 17.9267 0.0641422 18.3125L0.336547 19.1459C0.504244 19.6567 0.972159 20 1.50143 20H6.89263C7.75647 20 8.53033 19.4433 8.8191 18.6142L14.9764 0.972929C15.0132 0.867931 15.0067 0.7521 14.9584 0.651269Z" fill="#CAC2E5"/>
<path d="M3 13C4.10457 13 5 12.1046 5 11C5 9.89543 4.10457 9 3 9C1.89543 9 1 9.89543 1 11C1 12.1046 1.89543 13 3 13Z" fill="#CAC2E5"/>
</g>
<defs>
<clipPath id="clip0_4355_28862">
<rect width="20" height="20" fill="white"/>
</clipPath>
</defs>
</svg>
