<svg width="20" height="20" viewBox="0 0 20 20" fill="none" xmlns="http://www.w3.org/2000/svg">
<g clip-path="url(#clip0_4355_28866)">
<path d="M1.5346 8.94009C2.10931 8.42857 2.70954 7.8848 3.27292 7.36914L4.14215 7.58644C4.25483 8.77008 4.44415 9.80675 4.7453 10.8041C5.00489 11.6638 5.34484 12.4853 5.78154 13.3393L4.94115 14.5159C3.52921 14.3724 2.23305 14.1381 0.738514 13.7896C0.292705 12.701 0.0333033 11.5162 0 10.2751C0.452874 9.89411 0.983167 9.43089 1.5346 8.94009Z" fill="#CAC2E5"/>
<path d="M0.0703125 8.78223C0.308311 8.57459 0.557408 8.35477 0.812181 8.12801C1.45721 7.55391 2.13535 6.93821 2.75663 6.36798L3.27676 4.7498L2.31224 3.60156C1.11165 5.04184 0.308257 6.82481 0.0703125 8.78223Z" fill="#CAC2E5"/>
<path d="M1.35742 15.043C2.42315 16.8661 4.04932 18.3215 5.9996 19.1731C6.03663 18.9808 6.07746 18.7733 6.12165 18.555C6.22171 18.0609 6.3398 17.5081 6.47081 16.9515L5.32735 15.6447C3.95041 15.5268 2.70877 15.3315 1.35742 15.043Z" fill="#CAC2E5"/>
<path d="M7.0332 19.5572C7.97015 19.8476 8.96605 20.0041 9.99849 20.0041C11.4332 20.0041 12.7975 19.7019 14.031 19.1579L14.1991 17.7291C13.3351 17.7159 12.5438 17.637 11.7705 17.4799C10.9603 17.3153 10.1801 17.0671 9.36596 16.7285L7.49932 17.3284C7.38414 17.8249 7.27881 18.3191 7.18742 18.7704C7.12989 19.0545 7.07814 19.3203 7.0332 19.5572Z" fill="#CAC2E5"/>
<path d="M4.02849 3.95424L3.05859 2.79961C4.36585 1.53961 6.01528 0.632199 7.8538 0.230469C7.70319 0.434456 7.54677 0.644869 7.38637 0.859432C6.72978 1.73773 6.00995 2.68097 5.3555 3.5296L4.02849 3.95424Z" fill="#CAC2E5"/>
<path d="M9.35263 0.0205205C9.02773 0.472198 8.653 0.980571 8.25689 1.51044C7.64935 2.32312 6.98862 3.19025 6.375 3.98743L6.61898 4.96335C8.62753 5.10584 10.2754 5.44764 11.572 5.85481C11.8579 5.9446 12.1276 6.03784 12.381 6.13317L13.8632 5.36457L13.5763 0.6589C12.4654 0.233232 11.2592 0 9.99853 0C9.78154 0 9.56618 0.00690954 9.35263 0.0205205Z" fill="#CAC2E5"/>
<path d="M14.6953 1.16992L14.9537 5.40695L16.6569 7.17824L19.5056 6.89017C18.6979 4.42068 16.955 2.3744 14.6953 1.16992Z" fill="#CAC2E5"/>
<path d="M19.7896 7.95312L17.0558 8.22958L16.0801 9.97188C16.5656 11.2923 17.0243 12.9661 17.2092 14.7843H18.7835C19.5588 13.3633 19.9994 11.7335 19.9994 10.0008C19.9994 9.29905 19.9271 8.61413 19.7896 7.95312Z" fill="#CAC2E5"/>
<path d="M5.78701 10.4895C5.48325 9.48341 5.29826 8.41882 5.19531 7.13993L6.2037 6.02539C8.28819 6.14629 9.96461 6.4888 11.2469 6.89148C11.4541 6.95656 11.6506 7.02305 11.8364 7.09025L12.6311 9.27566C11.3057 10.7274 10.186 11.8796 8.80955 13.2155L6.67819 12.7011C6.30113 11.9472 6.01067 11.2302 5.78701 10.4895Z" fill="#CAC2E5"/>
<path d="M9.86584 15.7591C10.5961 16.0578 11.2829 16.2718 11.9864 16.4147C12.9098 16.6022 13.878 16.6705 15.0295 16.6351L16.1799 15.5307C16.0622 13.6148 15.595 11.8267 15.095 10.4437L13.2899 10.166C12.0096 11.5632 10.9062 12.6955 9.5625 13.9997L9.86584 15.7591Z" fill="#CAC2E5"/>
</g>
<defs>
<clipPath id="clip0_4355_28866">
<rect width="20" height="20" fill="white"/>
</clipPath>
</defs>
</svg>
