<svg width="21" height="21" viewBox="0 0 21 21" fill="none" xmlns="http://www.w3.org/2000/svg">
<g clip-path="url(#clip0_92_1706)">
<path d="M7.22339 10.1671L4.74414 7.49696L6.19037 3.5945L10.1158 2.46484L12.6984 5.75112L11.4588 9.0374L7.22339 10.1671Z" fill="#8993A1"/>
<path d="M1.43924 9.03952L4.33169 7.80717L7.01754 10.58L6.81094 14.4824L4.12509 15.8175L1.33594 12.8393L1.43924 9.03952Z" fill="#8993A1"/>
<path d="M14.4553 12.8393L11.976 9.14222L13.1124 5.85594L16.9345 5.54785L19.0006 8.83413L17.6576 12.5312L14.4553 12.8393Z" fill="#8993A1"/>
<path d="M11.3546 16.2268L7.01593 14.7891L4.33008 16.2268L4.84659 19.205L9.18527 20.7454L11.8711 18.9996L11.3546 16.2268Z" fill="#8993A1"/>
<path d="M14.4556 13.2474L11.873 16.1229L12.3896 18.793H16.1084L18.691 15.6094L17.658 13.042L14.4556 13.2474Z" fill="#8993A1"/>
<path d="M19.3115 8.52556L20.7577 8.32017C20.4272 5.85546 18.4851 3.52768 17.5554 2.67188H16.9355L17.2455 5.23928L19.3115 8.52556Z" fill="#8993A1"/>
<path d="M20.8597 8.93555L20.5498 9.55172L20.6531 12.1191L19.93 14.4811L19.7383 15.3126C20.996 13.3581 21.1845 10.1476 20.8597 8.93555Z" fill="#8993A1"/>
<path d="M5.98422 3.1839L4.02148 2.56773L4.9512 1.54076C7.33695 0.163313 9.32296 -0.00859923 10.4262 0.000321519L11.5625 0.616499L10.1163 2.05433L5.98422 3.1839Z" fill="#8993A1"/>
<path d="M17.0395 2.25932H16.7295L14.4569 1.02696L11.5645 0C14.1753 0.193255 16.268 1.6205 17.0395 2.25932Z" fill="#8993A1"/>
<path d="M19.4788 15.749L19.1077 15.9183L16.4219 19.1019C17.9302 18.1194 18.9942 16.6139 19.4788 15.749Z" fill="#8993A1"/>
<path d="M10.1168 20.8489L9.91016 20.9516C12.2893 21.2479 14.9506 20.1486 15.9017 19.4111H15.4885L12.9059 20.5408L10.1168 20.8489Z" fill="#8993A1"/>
<path d="M4.12707 18.8959C2.55688 17.91 0.993581 15.3358 0.408203 14.1719L2.16434 16.6366L4.12707 18.8959Z" fill="#8993A1"/>
<path d="M0.40735 13.3528C-0.419065 10.2309 0.200747 7.67031 0.613954 6.78027L1.02697 8.8342L0.923664 12.8394L0.40735 13.3528Z" fill="#8993A1"/>
<path d="M1.0267 5.85514L0.716797 6.16323C1.31265 4.59497 2.49788 3.31566 3.09274 2.87695L1.0267 5.85514Z" fill="#8993A1"/>
</g>
<defs>
<clipPath id="clip0_92_1706">
<rect width="21" height="21" fill="white"/>
</clipPath>
</defs>
</svg>
