<svg width="20" height="20" viewBox="0 0 20 20" fill="none" xmlns="http://www.w3.org/2000/svg">
<path d="M9.9998 2C6.69965 2 3.93443 4.28475 3.1955 7.35838L3.19472 7.35964L3.19488 7.3612C3.06861 7.88708 3 8.43535 3 8.99992C3 10.6888 3.59825 12.2379 4.59425 13.4472L4.59488 13.4482C5.21631 14.2023 5.99315 14.8228 6.87557 15.2637L6.88168 15.2686L6.88623 15.2692C7.82426 15.736 8.88088 16 9.9998 16C13.8659 16 17 12.8659 17 8.99992C17 5.13395 13.8659 2 9.9998 2ZM14.6505 4.88064L14.1254 6.93793L12.1945 7.70568L10.3916 6.39592V4.40458L12.1132 3.15373C13.0986 3.51089 13.968 4.11102 14.6505 4.88064ZM7.88661 3.15373L9.6084 4.40458V6.39608L7.80546 7.70583L5.87441 6.93793L5.34963 4.88049C6.03216 4.11102 6.90142 3.51089 7.88661 3.15373ZM3.78843 8.80192L5.58492 7.66573L7.58787 8.46214L8.2668 10.5519L6.83453 12.3544L4.71127 12.2626C4.12367 11.3135 3.78326 10.1958 3.78326 8.99977C3.78326 8.9335 3.78624 8.86771 3.78843 8.80192ZM8.01725 14.8904L7.44782 12.8416L8.91205 10.9986H11.0881L12.5525 12.8415L11.9829 14.8904C11.3596 15.1008 10.6933 15.2166 10 15.2166C9.3067 15.2166 8.64026 15.1007 8.01725 14.8904ZM15.2886 12.2628L13.1655 12.3543L11.7332 10.5519L12.4121 8.4623L14.4149 7.66589L16.2116 8.80239C16.2138 8.86802 16.2166 8.9335 16.2166 8.99977C16.2167 10.196 15.8763 11.3137 15.2886 12.2628Z" fill="#CAC2E5"/>
<path d="M19 11H17L19 18H1L3 11H1" stroke="#CAC2E5" stroke-linecap="round" stroke-linejoin="round"/>
</svg>
