<svg width="20" height="20" viewBox="0 0 20 20" fill="none" xmlns="http://www.w3.org/2000/svg">
<path d="M18.9247 0.18C18.845 0.0675 18.7122 0 18.5716 0H16.8573C16.6773 0 16.5179 0.108333 16.4553 0.2725L11.2486 14.0119C11.0532 14.5275 10.478 14.7837 9.94744 14.6335C9.02677 14.3727 7.8839 14.1667 6.57148 14.1667C3.52259 14.1667 1 14.3233 1 16.25C1 18.3617 3.07345 20 4.85718 20C6.40691 20 11.6244 18.3825 11.8447 18.3133C11.969 18.275 12.0684 18.1833 12.1138 18.065L18.971 0.565C19.0225 0.436667 19.0045 0.293333 18.9247 0.18ZM5.04918 18.2892C4.98747 18.3192 4.92147 18.3333 4.85718 18.3333C4.70032 18.3333 4.54946 18.2492 4.47403 18.1033L3.61688 16.4367C3.51145 16.2308 3.59717 15.9808 3.80888 15.8775C4.02146 15.775 4.27774 15.8575 4.38403 16.0642L5.24118 17.7308C5.34575 17.9358 5.2609 18.1867 5.04918 18.2892ZM6.76348 17.8725C6.70177 17.9025 6.63577 17.9167 6.57148 17.9167C6.41462 17.9167 6.26376 17.8325 6.18833 17.6867L5.33118 16.02C5.22575 15.8142 5.31147 15.5642 5.52318 15.4608C5.7349 15.3592 5.99205 15.4417 6.09833 15.6475L6.95548 17.3142C7.06006 17.5192 6.9752 17.77 6.76348 17.8725ZM8.52321 17.43C8.45121 17.4775 8.36807 17.5 8.28578 17.5C8.14778 17.5 8.01235 17.435 7.92921 17.3142L7.07206 16.0642C6.94091 15.8725 6.99406 15.6142 7.1912 15.4867C7.38577 15.3592 7.6532 15.41 7.78521 15.6025L8.64236 16.8525C8.7735 17.0442 8.72036 17.3025 8.52321 17.43Z" fill="#CAC2E5"/>
<path d="M3.57172 9.12417V11.25C3.57172 11.48 3.76373 11.6667 4.0003 11.6667C4.23687 11.6667 4.42887 11.48 4.42887 11.25V9.12417C5.40603 8.93083 6.14318 8.08917 6.14318 7.08333C6.14318 5.935 5.18231 5 4.0003 5C2.81829 5 1.85742 5.935 1.85742 7.08333C1.85742 8.08917 2.59457 8.93083 3.57172 9.12417Z" fill="#CAC2E5"/>
</svg>
