<svg width="20" height="20" viewBox="0 0 20 20" fill="none" xmlns="http://www.w3.org/2000/svg">
<g clip-path="url(#clip0_92_1347)">
<path d="M10.0005 -6.84597e-06C10.6342 -6.84597e-06 11.2511 0.0650942 11.8518 0.177473L10.1722 1.9993L6.35379 2.83059L4.83594 1.44882C6.34444 0.535128 8.10722 -6.84597e-06 10.0005 -6.84597e-06Z" fill="#8993A1"/>
<path d="M12.6492 0.366218C14.6723 0.92146 16.4412 2.08642 17.7344 3.66495L16.4411 5.67953L12.9548 4.92088L10.8301 2.33898L12.6492 0.366218Z" fill="#8993A1"/>
<path d="M4.21654 1.85155L5.82226 3.31295L4.35326 6.7472L1.75561 8.69752L0.236328 7.86771C0.775257 5.39473 2.22483 3.26891 4.21654 1.85155Z" fill="#8993A1"/>
<path d="M10.2201 2.72166L12.4467 5.4294L11.1786 8.62038L7.27236 9.27284L5.0625 6.90199L6.50507 3.52921L10.2201 2.72166Z" fill="#8993A1"/>
<path d="M18.1906 4.27536C19.328 5.90088 20 7.87709 20 10.0148C20 10.6824 19.9314 11.3329 19.8075 11.9638L17.6381 9.93236L16.9824 6.1559L18.1906 4.27536Z" fill="#8993A1"/>
<path d="M13.1135 5.68653L16.2958 6.37951L16.9235 9.9939L14.185 11.3645L11.8496 8.86781L13.1135 5.68653Z" fill="#8993A1"/>
<path d="M4.6019 7.45411L6.74055 9.74821L5.64676 13.188L2.97519 12.7423L2.18555 9.26899L4.6019 7.45411Z" fill="#8993A1"/>
<path d="M0.108857 8.61227L1.47329 9.35834L2.28243 12.9266L1.47186 15.2277C0.544428 13.7082 7.14286e-05 11.9281 0 10.015C0 9.53787 0.0442857 9.07152 0.108857 8.61227Z" fill="#8993A1"/>
<path d="M11.298 9.32617L13.7046 11.8969L12.5787 15.6022L8.87616 16.2476L6.29102 13.5176L7.41552 9.97444L11.298 9.32617Z" fill="#8993A1"/>
<path d="M17.3075 10.6016L19.6108 12.7588C19.2981 13.8605 18.8044 14.8835 18.1599 15.7947L14.5913 17.0228L13.2324 15.9093L14.4044 12.0546L17.3075 10.6016Z" fill="#8993A1"/>
<path d="M2.85604 13.4473L5.68804 13.9195L8.32475 16.7026L7.57561 18.329L4.19389 18.1598C3.34154 17.5496 2.59218 16.809 1.96875 15.9663L2.85604 13.4473Z" fill="#8993A1"/>
<path d="M12.6124 16.3222L14.0564 17.5056L12.9264 19.5915C12.2862 19.787 11.6177 19.9179 10.9299 19.9813L8.25 18.5716L8.99636 16.9523L12.6124 16.3222Z" fill="#8993A1"/>
<path d="M17.3002 16.8467C16.3611 17.8526 15.2222 18.6697 13.9395 19.2205L14.7486 17.7241L17.3002 16.8467Z" fill="#8993A1"/>
<path d="M5.47656 18.9394L7.61528 19.047L9.42885 19.9998C8.01163 19.9197 6.67492 19.5492 5.47656 18.9394Z" fill="#8993A1"/>
</g>
<defs>
<clipPath id="clip0_92_1347">
<rect width="20" height="20" fill="white"/>
</clipPath>
</defs>
</svg>
