<svg width="20" height="20" viewBox="0 0 20 20" fill="none" xmlns="http://www.w3.org/2000/svg">
<path d="M4.5 11.4003C4.75563 11.4003 7 11.3666 7 10.2001C7 9.0336 4.75563 9 4.5 9C4.24437 9 2 9.0336 2 10.2001C2 11.3666 4.24437 11.4003 4.5 11.4003Z" fill="#8993A1"/>
<path d="M7 11.7998C7 11.7108 6.89789 11.6735 6.8195 11.7156C6.20995 12.0432 5.33829 12.1998 4.5 12.1998C3.66356 12.1998 2.79376 12.0439 2.18448 11.7178C2.10467 11.675 2 11.7108 2 11.8014C2.00125 12.9663 4.24437 12.9999 4.5 12.9999C4.75563 12.9999 7 12.9663 7 11.7998Z" fill="#8993A1"/>
<path d="M17.9584 0.651269C17.9102 0.550438 17.8243 0.474606 17.7204 0.438774L16.4933 0.0221166C16.2831 -0.0503817 16.0581 0.0612824 15.9812 0.270444L10.2444 15.8551C10.0652 16.3409 9.60386 16.6667 9.09505 16.6667H4.2282C3.829 16.6667 3.4658 16.8559 3.23266 17.1859C2.99952 17.5159 2.93817 17.9267 3.06414 18.3125L3.33655 19.1459C3.50424 19.6567 3.97216 20 4.50143 20H9.89263C10.7565 20 11.5303 19.4433 11.8191 18.6142L17.9764 0.972929C18.0132 0.867931 18.0067 0.7521 17.9584 0.651269Z" fill="#8993A1"/>
</svg>
