<svg width="20" height="20" viewBox="0 0 20 20" fill="none" xmlns="http://www.w3.org/2000/svg">
<path fill-rule="evenodd" clip-rule="evenodd" d="M4.00977 4.2832C2.16211 5.93164 1 8.33008 1 11C1 13.1895 1.78333 15.1977 3.0833 16.7577C3.27158 16.9836 3.6116 16.9881 3.81964 16.7802C4.00764 16.5923 4.02409 16.293 3.8578 16.0856L3.43945 15.5639C2.5 14 2 13.0332 2 11C2 8.9668 2.75977 7.10938 4.00977 5.69727V4.2832ZM9 3.0625C7.49805 3.25 6.125 3.85156 5 4.75391V3.51562C6.16797 2.73242 7.53125 2.2168 9 2.05469V3.0625ZM17.2263 16.0098C16.829 16.0098 16.5997 15.5417 16.8088 15.2038C17.5648 13.9823 18 12.5422 18 11C18 6.74999 14.6851 3.27356 10.5001 3.01538C10.2245 2.99838 10 2.77614 10 2.5C10 2.22386 10.2242 1.99856 10.5 2.01365C15.2381 2.27307 19 6.19707 19 11C19 12.7632 18.4928 14.4097 17.6161 15.7984C17.532 15.9317 17.3839 16.0098 17.2263 16.0098Z" fill="#8993A1"/>
<path fill-rule="evenodd" clip-rule="evenodd" d="M4.00977 7.73478C4.00977 7.6336 3.88012 7.59845 3.83216 7.68755C3.3014 8.67349 3 9.80166 3 11C3 12.1983 3.3014 13.3265 3.83216 14.3125C3.88012 14.4015 4.00977 14.3664 4.00977 14.2652V7.73478ZM13.6074 17C12.5547 17.6348 11.3184 18 10 18C8.04102 18 6.27148 17.1953 5 15.8984V6.10156C6.05078 5.0293 7.44336 4.29297 9 4.07031V15C9 16.1055 9.89453 17 11 17H13.6074ZM14.4816 16.0098C14.7426 16.0098 14.9957 15.9099 15.1716 15.7171C16.3075 14.4725 17 12.8166 17 11C17 7.30275 14.1318 4.27386 10.4996 4.01757C10.2243 3.99814 9.9998 4.22359 9.99956 4.49956L9.99023 15C9.99023 15.5586 10.4414 16.0098 11 16.0098H14.4816Z" fill="#8993A1"/>
<path d="M4.3282 1.9923L3.51823 0.77735C3.29672 0.445073 3.53491 0 3.93426 0H8C8.55228 0 9 0.447715 9 1V16C9 16.5523 9.44772 17 10 17H17.7929C18.2383 17 18.4614 17.5386 18.1464 17.8536L16.2929 19.7071C16.1054 19.8946 15.851 20 15.5858 20H3.20711C2.76165 20 2.53857 19.4614 2.85355 19.1464L5 17V4.2111C5 3.4214 4.76625 2.64937 4.3282 1.9923Z" fill="#8993A1"/>
</svg>
