<svg width="20" height="20" viewBox="0 0 20 20" fill="none" xmlns="http://www.w3.org/2000/svg">
<path d="M1 10V13.5L6 16H14L19 13.5V10" stroke="#8993A1" stroke-linecap="round" stroke-linejoin="round"/>
<path d="M6 16V12M6 12H14M6 12L1 9.5M14 12V16M14 12L19 9.5M19 9.5V6.11803C19 5.73926 18.786 5.393 18.4472 5.22361L14 3M19 9.5L14 7M14 3H6M14 3V7M6 3L1.55279 5.22361C1.214 5.393 1 5.73926 1 6.11803V9.5M6 3V7M1 9.5L6 7M6 7H14" stroke="#8993A1"/>
<path d="M11.0279 9H8.97214C8.66165 9 8.35542 9.07229 8.07771 9.21115L7.12048 9.68976C6.81523 9.84239 6.74921 10.2492 6.99053 10.4905L7.20711 10.7071C7.39464 10.8946 7.649 11 7.91421 11H12.0858C12.351 11 12.6054 10.8946 12.7929 10.7071L13.0095 10.4905C13.2508 10.2492 13.1848 9.84239 12.8795 9.68976L11.9223 9.21115C11.6446 9.07229 11.3384 9 11.0279 9Z" fill="#8993A1"/>
</svg>
