<svg width="20" height="20" viewBox="0 0 20 20" fill="none" xmlns="http://www.w3.org/2000/svg">
<g clip-path="url(#clip0_4355_28883)">
<path d="M4.26844 4.2105L3.12944 4.21046C2.57505 4.21045 2.12648 3.75944 2.12948 3.20506L2.14681 0.000124716L19.9919 0V11.5789H2.14681L2.12892 8.37391C2.12583 7.81946 2.57444 7.36833 3.1289 7.36833H4.26847C4.81845 7.36833 5.26521 7.81246 5.26845 8.36244L5.2812 10.5262H9.47312V8.36833C9.47312 7.81605 9.92084 7.36833 10.4732 7.36833H11.6311C12.1833 7.36833 12.6311 7.81605 12.6311 8.36833V10.5262H16.8416V8.36833C16.8416 7.81605 17.2893 7.36833 17.8416 7.36833H18.9916L18.9655 4.21044L17.8475 4.21048C17.2929 4.21051 16.8442 3.75919 16.8475 3.20459L16.8602 1.05254H12.6413L12.6343 3.21374C12.6325 3.76477 12.1853 4.21051 11.6343 4.2105L10.4917 4.21046C9.93943 4.21045 9.49173 3.76274 9.49173 3.21047V1.05254H5.2812L5.26845 3.21639C5.26521 3.76638 4.81844 4.21051 4.26844 4.2105Z" fill="#CAC2E5"/>
<path fill-rule="evenodd" clip-rule="evenodd" d="M0 0H1.04035C1.07186 6.66518 1.03089 13.329 1.04665 20H0.000126851L0 0Z" fill="#CAC2E5"/>
<path d="M5.78906 5.21094C5.78906 4.65865 6.23678 4.21094 6.78906 4.21094H7.94696C8.49924 4.21094 8.94696 4.65865 8.94696 5.21094V6.36883C8.94696 6.92112 8.49924 7.36883 7.94696 7.36883H6.78906C6.23678 7.36883 5.78906 6.92112 5.78906 6.36883V5.21094Z" fill="#CAC2E5"/>
<path d="M5.78906 5.21094C5.78906 4.65865 6.23678 4.21094 6.78906 4.21094H7.94696C8.49924 4.21094 8.94696 4.65865 8.94696 5.21094V6.36883C8.94696 6.92112 8.49924 7.36883 7.94696 7.36883H6.78906C6.23678 7.36883 5.78906 6.92112 5.78906 6.36883V5.21094Z" fill="#CAC2E5"/>
<path d="M13.1582 5.21094C13.1582 4.65865 13.6059 4.21094 14.1582 4.21094H15.3161C15.8684 4.21094 16.3161 4.65865 16.3161 5.21094V6.36883C16.3161 6.92112 15.8684 7.36883 15.3161 7.36883H14.1582C13.6059 7.36883 13.1582 6.92112 13.1582 6.36883V5.21094Z" fill="#CAC2E5"/>
<path d="M13.1582 5.21094C13.1582 4.65865 13.6059 4.21094 14.1582 4.21094H15.3161C15.8684 4.21094 16.3161 4.65865 16.3161 5.21094V6.36883C16.3161 6.92112 15.8684 7.36883 15.3161 7.36883H14.1582C13.6059 7.36883 13.1582 6.92112 13.1582 6.36883V5.21094Z" fill="#CAC2E5"/>
</g>
<defs>
<clipPath id="clip0_4355_28883">
<rect width="20" height="20" fill="white"/>
</clipPath>
</defs>
</svg>
