<svg width="20" height="20" viewBox="0 0 20 20" fill="none" xmlns="http://www.w3.org/2000/svg">
<path d="M8.38197 3H7.66667C7.29848 3 7 2.70152 7 2.33333C7 1.59695 7.59695 1 8.33333 1H17C18.1046 1 19 1.89543 19 3V17C19 18.1046 18.1046 19 17 19H10H6.32573C5.66135 19 5.18169 18.3641 5.36421 17.7253L6.47204 13.8478C6.8119 12.6584 7.58063 11.6371 8.62967 10.9815L10.1673 10.0205C10.6296 9.7315 10.7753 9.12546 10.4948 8.65796L9.90276 7.67127C9.72551 7.37585 9.93831 7 10.2828 7C10.6123 7 10.8266 6.65325 10.6793 6.35855L9.27639 3.55279C9.107 3.214 8.76074 3 8.38197 3Z" fill="#8993A1"/>
<path d="M5.10631 2.57474L5.20981 2.16075C5.35721 1.57115 4.91128 1 4.30353 1H3C1.89543 1 1 1.89543 1 3V17.1779C1 18.1842 1.8158 19 2.82214 19C3.22447 19 3.57792 18.7403 3.69374 18.355C4.27467 16.4223 6.01583 10.6401 6.89149 7.84505C6.96011 7.62605 6.92595 7.38892 6.79865 7.19797C6.46038 6.69057 5.69176 6.7706 5.46528 7.3368L5.13681 8.15796C5.04655 8.38364 4.91138 8.58862 4.73951 8.76049C4.59092 8.90908 4.53579 9.12468 4.56633 9.33259C4.77071 10.7242 3.92846 11.5 3 11.5C1.24898 11.5 1.5 9.5 2.5 9C3.0896 8.7052 4.5 8.1 4.5 6.5C4.5 5.49724 5.02371 4.70396 5.5788 4.16941C5.88257 3.87688 5.81593 3.27198 5.41585 3.13862C5.1812 3.0604 5.04632 2.8147 5.10631 2.57474Z" fill="#8993A1"/>
</svg>
