<svg width="20" height="20" viewBox="0 0 20 20" fill="none" xmlns="http://www.w3.org/2000/svg">
<circle cx="3" cy="8" r="3" fill="#8993A1"/>
<circle cx="10" cy="8" r="3" fill="#8993A1"/>
<circle cx="17" cy="8" r="3" fill="#8993A1"/>
<path d="M16.5 14.042C16.5 15.6988 15.1569 17.042 13.5 17.042C11.8431 17.042 10.5 15.6988 10.5 14.042C10.5 12.3851 11.8431 11.042 13.5 11.042C15.1569 11.042 16.5 12.3851 16.5 14.042Z" fill="#8993A1"/>
<path d="M9.5 14.083C9.5 15.7399 8.15685 17.083 6.5 17.083C4.84315 17.083 3.5 15.7399 3.5 14.083C3.5 12.4262 4.84315 11.083 6.5 11.083C8.15685 11.083 9.5 12.4262 9.5 14.083Z" fill="#8993A1"/>
</svg>
