<svg width="20" height="20" viewBox="0 0 20 20" fill="none" xmlns="http://www.w3.org/2000/svg">
<g clip-path="url(#clip0_92_1486)">
<path fill-rule="evenodd" clip-rule="evenodd" d="M10 17.5C11.6382 17.5 13.1528 16.9754 14.3863 16.0837C14.5265 15.9823 14.5434 15.7822 14.4277 15.6533L11.3662 12.2412C11.1318 12.0068 11 11.6895 11 11.3574V5C11 4.86572 11.1855 4.87549 11.2393 5L12.5894 8.71094C12.7773 9.15039 13.0483 9.54834 13.3853 9.88525L16.3436 13.1854C16.4829 13.3408 16.7342 13.3097 16.8212 13.1199C17.2566 12.1694 17.5 11.114 17.5 10C17.5 8.35693 16.9702 6.83838 16.0742 5.60303C15.6909 5.07324 15.6567 4.34082 16.084 3.84521L16.0986 3.82812C16.5698 3.28369 17.4072 3.24219 17.8516 3.80615C19.1968 5.51025 20 7.66113 20 10C20 15.5225 15.5225 20 10 20C4.47754 20 0 15.5225 0 10C0 7.66113 0.803223 5.51025 2.14844 3.80615C2.59277 3.24219 3.43018 3.28369 3.90137 3.82812L3.91602 3.84521C4.34326 4.34082 4.30908 5.07324 3.92578 5.60303C3.02979 6.83838 2.5 8.35693 2.5 10C2.5 11.1129 2.74294 12.1673 3.17755 13.1171C3.26476 13.3077 3.51743 13.3382 3.6563 13.1812L6.61475 9.83643C6.95166 9.49951 7.22266 9.10156 7.41064 8.66211L8.76074 4.95117C8.81445 4.82666 9 4.86572 9 5V11.3086C9 11.6406 8.86816 11.958 8.63379 12.1924L5.56928 15.6535C5.45505 15.7825 5.47242 15.9815 5.61204 16.0825C6.8458 16.9749 8.361 17.5 10 17.5ZM14.8975 1.28174C15.5273 1.63574 15.6152 2.47559 15.1416 3.02246L15.1245 3.04443C14.7021 3.53271 13.9795 3.6084 13.4009 3.31543C12.3804 2.79297 11.2256 2.5 10 2.5C8.77441 2.5 7.61963 2.79297 6.59912 3.31543C6.02051 3.6084 5.29785 3.53271 4.87549 3.04443L4.8584 3.02246C4.38477 2.47559 4.47266 1.63574 5.10254 1.28174C6.55029 0.466309 8.22021 0 10 0C11.7798 0 13.4497 0.466309 14.8975 1.28174Z" fill="#8993A1"/>
</g>
<defs>
<clipPath id="clip0_92_1486">
<rect width="20" height="20" fill="white"/>
</clipPath>
</defs>
</svg>
