<svg width="20" height="20" viewBox="0 0 20 20" fill="none" xmlns="http://www.w3.org/2000/svg">
<g clip-path="url(#clip0_92_1404)">
<path fill-rule="evenodd" clip-rule="evenodd" d="M13.3627 12.5724C13.9129 12.1025 14.6272 11.8164 15.4092 11.8164C16.1566 11.8164 16.843 12.0769 17.3828 12.5102C16.7467 13.1832 16.1071 14.3334 16.1071 15.0987C16.1071 16.0458 16.4637 16.8726 17.1386 17.5187C16.6424 17.8445 16.0481 18.0356 15.4092 18.0356C14.7361 18.0356 14.1132 17.8227 13.6013 17.4644C14.2406 16.8259 14.5801 16.0199 14.5801 15.0987C14.5801 14.3569 13.9789 13.2523 13.3627 12.5724Z" fill="#8993A1"/>
<path fill-rule="evenodd" clip-rule="evenodd" d="M13.8789 15.0972C13.8789 15.8511 13.6074 16.4896 13.0777 17.0037C12.5746 16.4522 12.2654 15.7243 12.2654 14.9244C12.2654 14.2337 12.4968 13.597 12.883 13.0801C13.3691 13.6439 13.8789 14.5734 13.8789 15.0972Z" fill="#8993A1"/>
<path fill-rule="evenodd" clip-rule="evenodd" d="M17.8692 13.002C18.2921 13.532 18.5469 14.1991 18.5469 14.9254C18.5469 15.7584 18.2126 16.5144 17.6717 17.0731C17.0949 16.5483 16.8022 15.8852 16.8022 15.0982C16.8022 14.5485 17.3633 13.5537 17.8692 13.002Z" fill="#8993A1"/>
<path d="M6.67311 11.9933L8.00645 13.3266L13.5298 9.37754L18.882 4.92918C19.5368 4.38488 19.7307 3.46127 19.3498 2.69962C18.9064 1.81274 18.1864 1.09317 17.2995 0.649729C16.5384 0.26919 15.6147 0.461275 15.0692 1.11435L10.6079 6.45562L6.67311 11.9933Z" fill="#8993A1"/>
<rect width="1.88561" height="3.77121" transform="matrix(0.707114 0.707099 -0.707114 0.707099 6.00195 12.667)" fill="#8993A1"/>
<rect width="5.65682" height="2.82841" rx="1.4142" transform="matrix(0.707114 0.707099 -0.707114 0.707099 2 14)" fill="#8993A1"/>
</g>
<defs>
<clipPath id="clip0_92_1404">
<rect width="20" height="20" fill="white"/>
</clipPath>
</defs>
</svg>
