<svg width="20" height="20" viewBox="0 0 20 20" fill="none" xmlns="http://www.w3.org/2000/svg">
<g clip-path="url(#clip0_92_1363)">
<path d="M15.233 15.8209C15.0702 15.6582 15.0702 15.3945 15.233 15.2317C15.3958 15.069 15.6595 15.069 15.8223 15.2317L19.5333 18.9317C19.6664 18.7201 19.7634 18.4832 19.8045 18.225C20.5963 13.2417 18.9543 8.15 15.3996 4.59999C12.4366 1.63333 8.48588 0 4.281 0C3.44336 0 2.60154 0.0666554 1.7764 0.199992C1.51541 0.241267 1.27644 0.338669 1.06337 0.472285L4.76756 4.17908C4.93035 4.34184 4.93035 4.60551 4.76756 4.76827C4.68617 4.84965 4.57954 4.89034 4.47292 4.89034C4.36629 4.89034 4.25966 4.84965 4.17827 4.76827L0.47252 1.05993C0.337075 1.27355 0.238563 1.51337 0.196975 1.775C-0.599009 6.75832 1.04711 11.85 4.59773 15.4C7.5649 18.3667 11.5156 20 15.7205 20C16.5581 20 17.3999 19.9333 18.225 19.8C18.4884 19.7581 18.7301 19.6588 18.9453 19.5222L15.233 15.8209ZM14.8301 11.6128L13.5165 12.9263L14.0974 13.5071C14.2602 13.6698 14.2602 13.9335 14.0974 14.0963C14.016 14.1777 13.9093 14.2183 13.8027 14.2183C13.6961 14.2183 13.5895 14.1777 13.5081 14.0963L12.9272 13.5155L11.6134 14.8291C11.532 14.9105 11.4254 14.9512 11.3188 14.9512C11.2121 14.9512 11.1055 14.9105 11.0241 14.8291C10.8613 14.6663 10.8613 14.4027 11.0241 14.2399L12.3379 12.9263L10.976 11.5646L9.6622 12.8782C9.58081 12.9596 9.47418 13.0003 9.36755 13.0003C9.26093 13.0003 9.1543 12.9596 9.07291 12.8782C8.91012 12.7155 8.91012 12.4518 9.07291 12.289L10.3867 10.9754L9.02478 9.61375L7.71098 10.9273C7.62958 11.0087 7.52296 11.0494 7.41633 11.0494C7.30971 11.0494 7.20308 11.0087 7.12169 10.9273C6.9589 10.7646 6.9589 10.5009 7.12169 10.3381L8.43549 9.02456L7.07356 7.66286L5.75976 8.97644C5.67836 9.05782 5.57174 9.09851 5.46511 9.09851C5.35848 9.09851 5.25186 9.05782 5.17046 8.97644C5.00768 8.81368 5.00768 8.55001 5.17046 8.38725L6.48427 7.07367L5.90342 6.49292C5.74063 6.33016 5.74063 6.06649 5.90342 5.90373C6.06621 5.74097 6.32992 5.74097 6.49271 5.90373L7.07356 6.48448L8.38736 5.1709C8.55015 5.00814 8.81387 5.00814 8.97666 5.1709C9.13945 5.33366 9.13945 5.59733 8.97666 5.76009L7.66285 7.07367L9.02478 8.43536L10.3386 7.12179C10.5014 6.95902 10.7651 6.95902 10.9279 7.12179C11.0907 7.28455 11.0907 7.54822 10.9279 7.71098L9.61408 9.02456L10.976 10.3863L12.2898 9.07267C12.4526 8.90991 12.7163 8.90991 12.8791 9.07267C13.0419 9.23543 13.0419 9.4991 12.8791 9.66187L11.5653 10.9754L12.9272 12.3371L14.2408 11.0236C14.4036 10.8608 14.6673 10.8608 14.8301 11.0236C14.9929 11.1863 14.9929 11.45 14.8301 11.6128Z" fill="#8993A1"/>
</g>
<defs>
<clipPath id="clip0_92_1363">
<rect width="20" height="20" fill="white"/>
</clipPath>
</defs>
</svg>
