<svg width="20" height="20" viewBox="0 0 20 20" fill="none" xmlns="http://www.w3.org/2000/svg">
<path fill-rule="evenodd" clip-rule="evenodd" d="M10 6C11.104 6 12 5.104 12 4C12 2.896 11.104 2 10 2C8.896 2 8 2.896 8 4C8 5.104 8.896 6 10 6Z" fill="#8993A1"/>
<path fill-rule="evenodd" clip-rule="evenodd" d="M7.33398 10C8.43798 10 9.33398 9.104 9.33398 8C9.33398 6.896 8.43798 6 7.33398 6C6.22998 6 5.33398 6.896 5.33398 8C5.33398 9.104 6.22998 10 7.33398 10Z" fill="#8993A1"/>
<path fill-rule="evenodd" clip-rule="evenodd" d="M10.666 8C10.666 9.104 11.562 10 12.666 10C13.77 10 14.666 9.104 14.666 8C14.666 6.896 13.77 6 12.666 6C11.562 6 10.666 6.896 10.666 8Z" fill="#8993A1"/>
<path fill-rule="evenodd" clip-rule="evenodd" d="M6.66602 12C6.66602 10.896 5.77002 10 4.66602 10C3.56202 10 2.66602 10.896 2.66602 12C2.66602 13.104 3.56202 14 4.66602 14C5.77002 14 6.66602 13.104 6.66602 12Z" fill="#8993A1"/>
<path fill-rule="evenodd" clip-rule="evenodd" d="M12 12C12 10.896 11.104 10 10 10C8.896 10 8 10.896 8 12C8 13.104 8.896 14 10 14C11.104 14 12 13.104 12 12Z" fill="#8993A1"/>
<path fill-rule="evenodd" clip-rule="evenodd" d="M17.334 12C17.334 10.896 16.438 10 15.334 10C14.23 10 13.334 10.896 13.334 12C13.334 13.104 14.23 14 15.334 14C16.438 14 17.334 13.104 17.334 12Z" fill="#8993A1"/>
<path fill-rule="evenodd" clip-rule="evenodd" d="M2 14C0.896 14 7.12077e-09 14.896 7.12077e-09 16C7.12077e-09 17.104 0.896 18 2 18C3.104 18 4 17.104 4 16C4 14.896 3.104 14 2 14Z" fill="#8993A1"/>
<path fill-rule="evenodd" clip-rule="evenodd" d="M7.33398 14C6.22998 14 5.33398 14.896 5.33398 16C5.33398 17.104 6.22998 18 7.33398 18C8.43798 18 9.33398 17.104 9.33398 16C9.33398 14.896 8.43798 14 7.33398 14Z" fill="#8993A1"/>
<path fill-rule="evenodd" clip-rule="evenodd" d="M12.666 14C11.562 14 10.666 14.896 10.666 16C10.666 17.104 11.562 18 12.666 18C13.77 18 14.666 17.104 14.666 16C14.666 14.896 13.77 14 12.666 14Z" fill="#8993A1"/>
<path fill-rule="evenodd" clip-rule="evenodd" d="M18 14C16.896 14 16 14.896 16 16C16 17.104 16.896 18 18 18C19.104 18 20 17.104 20 16C20 14.896 19.104 14 18 14Z" fill="#8993A1"/>
</svg>
