<svg width="20" height="20" viewBox="0 0 20 20" fill="none" xmlns="http://www.w3.org/2000/svg">
<path fill-rule="evenodd" clip-rule="evenodd" d="M1.81738 5.4541C0.813477 4.4502 0.813477 2.82129 1.81738 1.81738C2.8252 0.813477 4.4502 0.813477 5.4541 1.81738L18.1846 14.5449C19.1885 15.5488 19.1885 17.1768 18.1846 18.1816C17.1768 19.1855 15.5518 19.1855 14.5479 18.1816L1.81738 5.4541ZM6.81738 8.63672C6.71973 8.53809 6.66113 8.41602 6.6416 8.28809C6.60645 8.09082 6.66504 7.88086 6.81738 7.72852L7.72754 6.81934C7.97754 6.56836 8.3877 6.56836 8.6377 6.81934C8.8877 7.07031 8.8877 7.47656 8.6377 7.72852L7.72754 8.63672C7.47754 8.88867 7.07129 8.88867 6.81738 8.63672ZM11.3604 12.2734C11.1104 12.5244 11.1104 12.9307 11.3604 13.1816C11.6143 13.4336 12.0205 13.4336 12.2705 13.1816L13.1807 12.2734C13.2939 12.1602 13.3564 12.0156 13.3682 11.8682C13.3799 11.6875 13.3174 11.502 13.1807 11.3643C12.9307 11.1133 12.5205 11.1133 12.2705 11.3643L11.3604 12.2734Z" fill="#8993A1"/>
</svg>
