<svg width="20" height="20" viewBox="0 0 20 20" fill="none" xmlns="http://www.w3.org/2000/svg">
<g clip-path="url(#clip0_981_43)">
<path fill-rule="evenodd" clip-rule="evenodd" d="M9.98242 20C15.5053 20 19.9824 15.5228 19.9824 10C19.9824 4.47715 15.5053 0 9.98242 0C4.45957 0 -0.0175781 4.47715 -0.0175781 10C-0.0175781 15.5228 4.45957 20 9.98242 20ZM7.01386 6.0926L2.28118 6.0926L1.37731 8.8744L5.20614 11.6562L3.74322 16.1571L6.11 17.8765L9.93882 15.0947L13.769 17.8603L16.1385 16.1388L14.6715 11.6562L18.5003 8.8744L17.5965 6.0926L12.8638 6.0926L11.4013 1.59155L8.47634 1.59155L7.01386 6.0926Z" fill="#8993A1"/>
<path d="M7.25195 11.032L8.29422 8H11.6105L12.6528 11.032L9.99974 13.0218L7.25195 11.032Z" fill="#8993A1"/>
</g>
<defs>
<clipPath id="clip0_981_43">
<rect width="20" height="20" fill="white"/>
</clipPath>
</defs>
</svg>
