<svg width="20" height="20" viewBox="0 0 20 20" fill="none" xmlns="http://www.w3.org/2000/svg">
<g clip-path="url(#clip0_92_1555)">
<path d="M6.88069 9.68328L4.51953 7.14026L5.89687 3.42355L9.63538 2.34766L12.0949 5.47752L10.9143 8.60739L6.88069 9.68328Z" fill="#8993A1"/>
<path d="M1.37182 8.60771L4.1265 7.43401L6.68443 10.0748L6.48766 13.7916L3.92974 15.0631L1.27344 12.2266L1.37182 8.60771Z" fill="#8993A1"/>
<path d="M13.7679 12.2266L11.4067 8.70552L12.4889 5.57565L16.1291 5.28223L18.0967 8.41209L16.8177 11.9332L13.7679 12.2266Z" fill="#8993A1"/>
<path d="M10.815 15.4543L6.68292 14.085L4.125 15.4543L4.61691 18.2907L8.74894 19.7578L11.3069 18.0951L10.815 15.4543Z" fill="#8993A1"/>
<path d="M13.7662 12.6175L11.3066 15.3561L11.7985 17.8991H15.3403L17.7998 14.8671L16.816 12.4219L13.7662 12.6175Z" fill="#8993A1"/>
<path d="M18.3917 8.11902L19.769 7.9234C19.4542 5.576 17.6046 3.35901 16.7192 2.54395H16.1289L16.4241 4.98915L18.3917 8.11902Z" fill="#8993A1"/>
<path d="M19.8669 8.50977L19.5717 9.09662L19.6701 11.5418L18.9814 13.7914L18.7988 14.5833C19.9967 12.7219 20.1762 9.66412 19.8669 8.50977Z" fill="#8993A1"/>
<path d="M5.69933 3.03236L3.83008 2.44551L4.71551 1.46743C6.98763 0.15554 8.87905 -0.00818994 9.92974 0.000306216L11.0119 0.587156L9.63459 1.95655L5.69933 3.03236Z" fill="#8993A1"/>
<path d="M16.2259 2.15178H15.9308L13.7664 0.978083L11.0117 0C13.4982 0.184057 15.4912 1.54337 16.2259 2.15178Z" fill="#8993A1"/>
<path d="M18.548 15L18.1946 15.1612L15.6367 18.1933C17.0732 17.2575 18.0865 15.8237 18.548 15Z" fill="#8993A1"/>
<path d="M9.63622 19.8547L9.43945 19.9525C11.7053 20.2347 14.2398 19.1877 15.1456 18.4854H14.7521L12.2925 19.5612L9.63622 19.8547Z" fill="#8993A1"/>
<path d="M3.93041 17.9972C2.43501 17.0583 0.946168 14.6065 0.388672 13.498L2.06116 15.8454L3.93041 17.9972Z" fill="#8993A1"/>
<path d="M0.387948 12.7158C-0.399105 9.74242 0.191185 7.30373 0.584712 6.45605L0.978052 8.41222L0.87967 12.2267L0.387948 12.7158Z" fill="#8993A1"/>
<path d="M0.976786 5.5757L0.681641 5.86912C1.24911 4.37551 2.37789 3.15708 2.94442 2.73926L0.976786 5.5757Z" fill="#8993A1"/>
<path d="M10.5 10L13 3.5" stroke="#E5E5E5"/>
<path d="M3.5 6.5L7.5 10.5" stroke="#E5E5E5"/>
<path d="M4 4L11.5 1.5" stroke="#E5E5E5"/>
<path d="M15 4L19 9.5" stroke="#E5E5E5"/>
<path d="M12 12.5L18 12" stroke="#E5E5E5"/>
<path d="M18.5 15L15 19" stroke="#E5E5E5"/>
<path d="M11.5 19L10.5 14" stroke="#E5E5E5"/>
<path d="M7.5 13.5L3 16" stroke="#E5E5E5"/>
<path d="M1.5 7L1 13" stroke="#E5E5E5"/>
</g>
<defs>
<clipPath id="clip0_92_1555">
<rect width="20" height="20" fill="white"/>
</clipPath>
</defs>
</svg>
