<svg width="20" height="20" viewBox="0 0 20 20" fill="none" xmlns="http://www.w3.org/2000/svg">
<g clip-path="url(#clip0_92_1541)">
<path d="M9.0817 1.14456C9.42813 0.336494 10.5738 0.336634 10.92 1.14478L13.0403 6.09381C13.1978 6.46155 13.5594 6.7 13.9595 6.7H18.865C19.7128 6.7 20.176 7.68886 19.6332 8.34018L15.8386 12.8937C15.6268 13.1479 15.5544 13.4904 15.6453 13.8086L16.9137 18.2479C17.1737 19.158 16.1412 19.8865 15.3709 19.3364L10.5812 15.9152C10.2335 15.6668 9.76646 15.6668 9.41876 15.9152L4.62907 19.3364C3.85885 19.8865 2.82628 19.158 3.08631 18.2479L4.35469 13.8086C4.4456 13.4904 4.37323 13.1479 4.16139 12.8937L0.36682 8.34018C-0.175953 7.68886 0.287204 6.7 1.13504 6.7H6.04069C6.44067 6.7 6.80218 6.46166 6.95979 6.09403L9.0817 1.14456Z" fill="#8993A1"/>
</g>
<defs>
<clipPath id="clip0_92_1541">
<rect width="20" height="20" fill="white"/>
</clipPath>
</defs>
</svg>
