<svg width="20" height="20" viewBox="0 0 20 20" fill="none" xmlns="http://www.w3.org/2000/svg">
<g clip-path="url(#clip0_92_1507)">
<rect x="1" y="1" width="2" height="18" fill="#8993A1"/>
<circle cx="8.5" cy="15.5" r="1.5" fill="#8993A1"/>
<path d="M13.83 11.094C13.4355 10.9015 13.0943 10.7873 12.6275 10.7243C12.5274 10.7108 12.4898 10.5543 12.5698 10.4926C12.897 10.24 13.2827 9.84629 13.5215 9.52752C13.5793 9.45026 13.7203 9.47854 13.7382 9.57338C13.8217 10.014 13.9353 10.3742 14.1253 10.8144C14.2031 10.9944 14.0062 11.1799 13.83 11.094Z" fill="#E5E5E5"/>
<path fill-rule="evenodd" clip-rule="evenodd" d="M12.8447 11.4668C13.0791 11.5713 13.3135 11.7275 13.5479 11.9609L16.376 14.7891C16.7666 15.1797 17.3994 15.1797 17.79 14.7891C18.1807 14.3984 18.1807 13.7656 17.79 13.375L14.9619 10.5459C14.2549 9.83887 14.2158 9.15039 14.2549 8.4248C14.6064 6.65722 13.7314 5.07226 12.8408 4.18262C11.9502 3.29199 8.9502 1.70703 6.8291 3.8291C4.70801 5.95019 6.12207 8.77832 7.18457 9.83887C8.24317 10.8994 9.65723 11.6074 11.4268 11.2539C11.8994 11.2539 12.3721 11.2539 12.8447 11.4668ZM12.4854 9.48535C13.6572 8.31445 13.501 6.25586 12.1338 4.88965C10.7666 3.52246 8.70801 3.36426 7.53613 4.53613C6.36426 5.70703 6.52442 7.76562 7.8916 9.13183C9.25488 10.499 11.3135 10.6572 12.4854 9.48535Z" fill="#8993A1"/>
<path d="M8.94922 10.1934L13.1919 5.95072L13.5454 6.30427L9.30277 10.5469L8.94922 10.1934Z" fill="#8993A1"/>
<path d="M7.00586 4.35937L12.6627 10.0162L13.0163 9.66268L7.35941 4.00582L7.00586 4.35937Z" fill="#8993A1"/>
<path d="M8.41797 3.65137L13.368 8.6014L13.7216 8.24785L8.77152 3.29781L8.41797 3.65137Z" fill="#8993A1"/>
<path d="M6.29883 5.77344L11.2489 10.7235L11.6024 10.3699L6.65238 5.41988L6.29883 5.77344Z" fill="#8993A1"/>
<path d="M7.71289 8.95508L11.9555 4.71244L12.3091 5.06599L8.06644 9.30863L7.71289 8.95508Z" fill="#8993A1"/>
<path d="M6.61328 7.93359L10.8559 3.69095L11.2095 4.04451L6.96683 8.28715L6.61328 7.93359Z" fill="#8993A1"/>
</g>
<defs>
<clipPath id="clip0_92_1507">
<rect width="20" height="20" fill="white"/>
</clipPath>
</defs>
</svg>
