<svg width="20" height="20" viewBox="0 0 20 20" fill="none" xmlns="http://www.w3.org/2000/svg">
<path fill-rule="evenodd" clip-rule="evenodd" d="M1.69942 6H7.08614C7.35177 6 7.60567 6.10547 7.79317 6.29297L8.34395 6.84473C8.42989 6.92871 8.56661 6.92188 8.64083 6.83203L10.7268 4.32812C10.8361 4.19824 10.7424 4 10.5744 4H4.0002C3.06661 4 1.69552 4.87207 1.51973 5.80078C1.5002 5.91016 1.59005 6 1.69942 6ZM1.84005 7.3418L7.16036 12.6582C7.28536 12.7842 7.19552 13 7.01583 13H3.91427C3.64864 13 3.39473 12.8945 3.20723 12.707L2.65645 12.1553C2.57052 12.0713 2.4338 12.0781 2.35958 12.168L0.27364 14.6719C0.164265 14.8018 0.258015 15 0.425984 15H9.69161C10.5666 15 11.0197 13.9551 10.4221 13.3164L4.79708 7.31641C4.60567 7.11426 4.34395 7 4.06661 7H1.98458C1.80489 7 1.71505 7.21582 1.84005 7.3418Z" fill="#8993A1"/>
<path d="M16.0858 6H11.2C11.0895 6 10.9988 5.9101 11.013 5.80055C11.1332 4.87127 12.0666 4 13 4H19.573C19.7426 4 19.8352 4.19777 19.7266 4.32804L17.6402 6.83175C17.5649 6.9221 17.4283 6.9283 17.3451 6.84514L16.7929 6.29289C16.6054 6.10536 16.351 6 16.0858 6Z" fill="#8993A1"/>
<path d="M13.0591 7H11.3848C11.1583 7 10.9577 7.15691 10.9065 7.37754C9.31366 14.2464 15.4327 16.702 18.5635 13.5101C18.7451 13.325 18.5879 13.0318 18.3288 13.0401C13.5771 13.1915 12.4741 10.2779 13.5459 7.82211C13.706 7.45515 13.4595 7 13.0591 7Z" fill="#8993A1"/>
</svg>
