<svg width="20" height="20" viewBox="0 0 20 20" fill="none" xmlns="http://www.w3.org/2000/svg">
<g clip-path="url(#clip0_4355_28890)">
<path fill-rule="evenodd" clip-rule="evenodd" d="M6.29318 6.96029C7.19408 6.96029 8.04135 6.61349 8.67849 5.98358C9.99359 4.68307 9.99359 2.56791 8.67849 1.2674C8.04135 0.637818 7.19408 0.291016 6.29318 0.291016C5.39227 0.291016 4.54534 0.637818 3.9082 1.2674C2.5931 2.56791 2.5931 4.68307 3.9082 5.98358C4.54534 6.61349 5.39227 6.96029 6.29318 6.96029ZM6.29318 1.62487C6.4797 1.62487 6.63047 1.77393 6.63047 1.95834C6.63047 2.14241 6.4797 2.2918 6.29318 2.2918C5.54911 2.2918 4.94401 2.89003 4.94401 3.62565C4.94401 3.80973 4.79325 3.95912 4.60672 3.95912C4.42054 3.95912 4.26943 3.80973 4.26943 3.62565C4.26943 2.52222 5.17742 1.62487 6.29318 1.62487Z" fill="#CAC2E5"/>
<path fill-rule="evenodd" clip-rule="evenodd" d="M4.0195 11.1353C4.28494 11.6992 4.35611 12.2768 4.22491 12.8046C3.97396 13.8117 3.36245 14.5703 2.30033 15.1919C1.91076 15.4203 1.40246 15.7288 0.922834 16.0936L0.386543 16.5018C0.160558 16.6735 0.0205828 16.9333 0.00203189 17.214C-0.0161818 17.4951 0.0887155 17.7703 0.290078 17.969L2.05343 19.713C2.24063 19.8978 2.48887 19.9995 2.75297 19.9995C3.06935 19.9995 3.35874 19.8554 3.54763 19.6046L4.10281 18.8667C4.37163 18.5089 4.63842 18.1017 4.91804 17.6215C5.52583 16.5778 6.26416 15.9695 7.24062 15.7071C7.75836 15.5677 8.34592 15.6267 8.921 15.8725C9.77839 16.2393 10.6577 16.4251 11.5357 16.4251C11.6557 16.4251 11.7758 16.4214 11.8962 16.4144L3.409 8.02344C3.34424 9.07051 3.54156 10.1206 4.0195 11.1353Z" fill="#CAC2E5"/>
<path fill-rule="evenodd" clip-rule="evenodd" d="M18.0037 1.97644C16.7145 0.701942 14.9013 0 12.8974 0C11.6363 0 10.3583 0.275775 9.15013 0.794645C9.15283 0.797646 9.1562 0.79998 9.15924 0.802981C10.7371 2.36293 10.7371 4.90192 9.15924 6.46186C8.3946 7.21783 7.37834 7.63399 6.29699 7.63399C5.31008 7.63399 4.37983 7.28385 3.64319 6.6486C3.59192 6.82634 3.54942 7.00508 3.51367 7.18381L12.7399 16.3054C14.2398 16.0119 15.7148 15.1776 17.0626 13.8451C20.5715 10.3764 21.0022 4.94127 18.0037 1.97644Z" fill="#CAC2E5"/>
</g>
<defs>
<clipPath id="clip0_4355_28890">
<rect width="20" height="20" fill="white"/>
</clipPath>
</defs>
</svg>
