<svg width="20" height="20" viewBox="0 0 20 20" fill="none" xmlns="http://www.w3.org/2000/svg">
<g clip-path="url(#clip0_4355_28894)">
<path d="M8.92447 0.01561C4.67715 0.0616308 0.159139 4.55001 0.00213206 8.78121C-0.0276451 9.55815 0.253885 10.0752 0.884621 10.4948C2.04593 11.2636 3.33177 11.7049 4.67174 12.027C6.37446 12.4358 8.11236 12.7228 9.7068 13.5132C11.7371 14.523 13.0094 16.0741 13.1447 18.3941C13.1961 19.2902 13.586 19.431 14.2979 19.0872C16.4148 18.0639 17.9984 16.4965 19.0379 14.3876C19.4033 13.6486 19.3465 13.2073 18.3449 13.1478C16.1387 13.0205 14.6092 11.8267 13.6049 9.90466C12.8821 8.52404 12.5492 7.01889 12.2135 5.51374C11.8508 3.88135 11.4285 2.27063 10.4566 0.860226C10.0587 0.28632 9.5931 -0.0818457 8.92447 0.01561Z" fill="#CAC2E5"/>
<path d="M11.4766 0.0585938C12.979 2.40836 13.2957 4.89077 13.921 7.27302C14.1403 8.1041 14.4299 8.90811 14.882 9.64445C15.64 10.8735 16.693 11.691 18.144 11.9184C19.3405 12.1052 19.9062 11.6288 19.9793 10.4133C20.1282 7.95792 19.4514 5.7408 17.9382 3.81605C16.3573 1.81009 14.3298 0.507973 11.4766 0.0585938Z" fill="#CAC2E5"/>
<path d="M0.0859375 11.4922C0.935942 16.6763 5.14536 20.1197 10.1263 19.9979C11.7126 19.9573 12.2107 19.3265 11.8317 17.8024C11.2551 15.496 9.46847 14.5485 7.41113 13.9746C4.99377 13.2978 2.44917 13.0352 0.0859375 11.4922Z" fill="#CAC2E5"/>
</g>
<defs>
<clipPath id="clip0_4355_28894">
<rect width="20" height="20" fill="white"/>
</clipPath>
</defs>
</svg>
