<svg width="20" height="20" viewBox="0 0 20 20" fill="none" xmlns="http://www.w3.org/2000/svg">
<g clip-path="url(#clip0_92_1688)">
<path d="M18.92 2.81871C18.1382 2.0132 17.2564 1.62432 16.3334 1.67314C16.2734 1.67591 16.2111 1.68063 16.145 1.68867V0.554754C16.145 0.248807 15.9017 -1.26973e-08 15.6028 -1.26973e-08H4.39738C4.09848 -1.26973e-08 3.85521 0.248807 3.85521 0.554754V1.68839C3.78989 1.68091 3.72845 1.67591 3.66757 1.67314C2.72797 1.62654 1.85978 2.01542 1.08015 2.81871C0.0309565 3.89937 -0.276522 5.51953 0.257345 7.15189C0.912157 9.15511 2.57714 10.7298 4.71704 11.3741C5.50967 12.7449 6.80103 13.7765 8.27975 14.2217V15.8393H6.60287C6.45923 15.8393 6.31947 15.8993 6.21818 16.0033L4.87285 17.3896C4.84241 17.4209 4.81501 17.4581 4.78512 17.5111C4.78401 17.5128 4.77211 17.5366 4.77128 17.5383C4.74831 17.5871 4.73364 17.6295 4.72451 17.6803C4.7187 17.713 4.71482 17.7466 4.71482 17.781V19.4452C4.71482 19.7512 4.95809 20 5.25699 20H14.7423C15.0412 20 15.2845 19.7512 15.2845 19.4452L15.2831 17.8559C15.2867 17.8312 15.2898 17.8068 15.2898 17.781C15.2898 17.6062 15.212 17.4454 15.0905 17.3524L13.7809 16.0033C13.6799 15.8993 13.5398 15.8393 13.3962 15.8393H11.7193V14.2217C13.198 13.7768 14.4894 12.7452 15.2823 11.3741C17.4216 10.7301 19.0866 9.15539 19.7423 7.15189C20.2767 5.51953 19.9692 3.89965 18.92 2.81871ZM18.2043 6.62293C17.8681 7.65089 17.0746 8.60757 16.0539 9.22917C16.1145 8.86997 16.145 8.50743 16.145 8.14795V3.37152C16.2344 3.35127 16.3201 3.33962 16.4048 3.33574L16.4668 3.33435C16.9138 3.33435 17.3397 3.54959 17.7698 3.99257C18.385 4.62665 18.5436 5.58527 18.2043 6.62293ZM2.23036 3.99284C2.661 3.54932 3.08278 3.3338 3.51978 3.3338C3.54247 3.3338 3.56544 3.33435 3.58952 3.33574C3.67559 3.33934 3.76305 3.35127 3.85521 3.3718V8.14823C3.85521 8.50827 3.88565 8.87052 3.94654 9.22917C2.92585 8.60784 2.13211 7.65117 1.79612 6.62293C1.45682 5.58582 1.61512 4.62721 2.23036 3.99284Z" fill="#8993A1"/>
</g>
<defs>
<clipPath id="clip0_92_1688">
<rect width="20" height="20" fill="white"/>
</clipPath>
</defs>
</svg>
