<svg width="20" height="20" viewBox="0 0 20 20" fill="none" xmlns="http://www.w3.org/2000/svg">
<g clip-path="url(#clip0_4355_28898)">
<path fill-rule="evenodd" clip-rule="evenodd" d="M6.10725 8.8874C6.18773 7.74293 6.64016 6.05323 7.60567 4.37653C8.53505 2.76258 9.91644 1.20178 11.8415 0.168464C12.8976 0.365059 13.8954 0.727641 14.8067 1.22812C13.5914 2.31965 12.6681 3.4328 12.0254 4.69293C11.3176 6.08053 10.9689 7.6093 10.9093 9.4221C9.04691 9.47028 7.46021 9.25649 6.10725 8.8874ZM4.93668 8.51062C3.72289 8.05729 2.72975 7.48127 1.9154 6.88902C1.51309 6.59643 1.15254 6.29849 0.828803 6.00679C2.35481 2.50626 5.82624 0.0487193 9.87727 0C8.43497 1.07532 7.34788 2.41949 6.56576 3.77771C5.6041 5.44771 5.08212 7.17647 4.93668 8.51062ZM20 9.99926C20 12.984 18.6924 15.6633 16.6188 17.4955C19.0654 11.2416 16.767 6.02756 13.7178 4.20409C14.267 3.41939 14.9733 2.66688 15.8625 1.89705C18.3694 3.71415 20 6.66628 20 9.99926ZM12.8651 19.5828C13.4977 19.3939 14.1041 19.1441 14.6774 18.8402C18.2403 12.1738 15.7767 6.84209 13.0974 5.23213L13.0943 5.23815C12.4405 6.52015 12.1203 7.97449 12.1009 9.81948C13.3387 11.7463 14.3752 15.6928 12.8651 19.5828ZM10 19.9993C10.4812 19.9993 10.9544 19.9653 11.4175 19.8996C12.1075 18.4856 12.3904 17.0391 12.4133 15.692C9.6856 16.0338 4.49334 15.9963 0.240336 12.1883C1.23857 16.6583 5.22912 19.9993 10 19.9993ZM0.00323849 10.2563C0.0010838 10.1709 0 10.0852 0 9.99926C0 9.0341 0.136735 8.10087 0.39189 7.21789C0.644615 7.43126 0.91673 7.64651 1.2096 7.8595C3.32511 9.39806 6.48082 10.7878 11.1821 10.6141C11.7212 11.5128 12.2125 12.8908 12.3657 14.4885C9.60704 14.8545 4.10115 14.8189 0.00323849 10.2563Z" fill="#CAC2E5"/>
</g>
<defs>
<clipPath id="clip0_4355_28898">
<rect width="20" height="20" fill="white"/>
</clipPath>
</defs>
</svg>
