<svg width="20" height="20" viewBox="0 0 20 20" fill="none" xmlns="http://www.w3.org/2000/svg">
<g clip-path="url(#clip0_92_1414)">
<path d="M3.33398 10.3924V4C3.33398 2.89543 4.22941 2 5.33398 2H14.6673C15.7719 2 16.6673 2.89543 16.6673 4V10.3924" stroke="#8993A1" stroke-width="2"/>
<circle cx="12.5" cy="6.5" r="1.5" fill="#8993A1"/>
<path fill-rule="evenodd" clip-rule="evenodd" d="M20.002 11.2092C20.002 11.1833 19.981 11.1614 19.9551 11.1614C19.6777 11.1526 19.4043 11.0676 19.1621 10.9065L18.0605 10.1653C17.2168 9.59985 16.1152 9.59985 15.2715 10.1653L14.1699 10.9065C13.9004 11.0872 13.5879 11.1721 13.2754 11.1604C13.002 11.1506 12.7324 11.0657 12.498 10.9065L11.3926 10.1653C10.5488 9.59985 9.44727 9.59985 8.60742 10.1653L7.50195 10.9065C6.99805 11.2463 6.33398 11.2463 5.83008 10.9065L4.72461 10.1653C3.88477 9.59985 2.7832 9.59985 1.93945 10.1653L0.833984 10.9065C0.726852 10.9793 0.61183 11.0365 0.492605 11.0781C0.231887 11.1691 0.00195312 11.3852 0.00195312 11.6614C0.00195312 11.9375 0.228029 12.1664 0.498566 12.111C0.811718 12.0469 1.11562 11.9219 1.39258 11.7366L2.49805 10.9963C3.00195 10.6565 3.66211 10.6565 4.16992 10.9963L5.27148 11.7366C6.11523 12.303 7.2168 12.303 8.06055 11.7366L9.16211 10.9963C9.66992 10.6565 10.3301 10.6565 10.834 10.9963L11.9395 11.7366C12.7832 12.303 13.8848 12.303 14.7246 11.7366L15.8301 10.9963C16.334 10.6565 16.998 10.6565 17.502 10.9963L18.6074 11.7366C18.8853 11.9238 19.1903 12.0487 19.5057 12.1121C19.7761 12.1665 20.002 11.9377 20.002 11.6619V11.2092Z" fill="#8993A1"/>
<path fill-rule="evenodd" clip-rule="evenodd" d="M20 14.9202C20 14.644 19.7701 14.4282 19.5092 14.3376C19.3893 14.2959 19.2734 14.2385 19.1641 14.1653L18.0625 13.4241C17.2188 12.8586 16.1172 12.8586 15.2734 13.4241L14.1719 14.1653C13.6641 14.5051 13.0039 14.5051 12.5 14.1653L11.3945 13.4241C10.5508 12.8586 9.44922 12.8586 8.60938 13.4241L7.50391 14.1653C7.19922 14.3713 6.83594 14.4524 6.48438 14.4084C6.25391 14.3801 6.03125 14.2991 5.83203 14.1653L4.72656 13.4241C3.88672 12.8586 2.78516 12.8586 1.94141 13.4241L0.835938 14.1653C0.726572 14.2385 0.610683 14.2959 0.49077 14.3376C0.229924 14.4282 0 14.644 0 14.9202C0 15.1963 0.226036 15.4251 0.496671 15.3702C0.811334 15.3064 1.11727 15.1815 1.39453 14.9954L2.5 14.2551C3.00391 13.9153 3.66406 13.9153 4.17188 14.2551L5.27344 14.9954C6.11719 15.5618 7.21875 15.5618 8.0625 14.9954L9.16406 14.2551C9.67188 13.9153 10.332 13.9153 10.8359 14.2551L11.9414 14.9954C12.7852 15.5618 13.8867 15.5618 14.7266 14.9954L15.832 14.2551C16.125 14.0569 16.4727 13.9739 16.8125 14.0071C17.0547 14.0315 17.293 14.1135 17.5039 14.2551L18.6094 14.9954C18.884 15.1815 19.189 15.3064 19.5033 15.3702C19.774 15.4252 20 15.1963 20 14.9202Z" fill="#8993A1"/>
<path fill-rule="evenodd" clip-rule="evenodd" d="M20 17.9202C20 17.644 19.7701 17.4282 19.5092 17.3376C19.3893 17.2959 19.2734 17.2385 19.1641 17.1653L18.0625 16.4241C17.2188 15.8586 16.1172 15.8586 15.2734 16.4241L14.1719 17.1653C13.6641 17.5051 13.0039 17.5051 12.5 17.1653L11.3945 16.4241C10.5508 15.8586 9.44922 15.8586 8.60938 16.4241L7.50391 17.1653C7 17.5051 6.33594 17.5051 5.83203 17.1653L4.72656 16.4241C3.88672 15.8586 2.78516 15.8586 1.94141 16.4241L0.835938 17.1653C0.726572 17.2385 0.610683 17.2959 0.49077 17.3376C0.229924 17.4282 0 17.644 0 17.9202C0 18.1963 0.226036 18.4251 0.496671 18.3702C0.811334 18.3064 1.11727 18.1815 1.39453 17.9954L2.5 17.2551C3.00391 16.9153 3.66406 16.9153 4.17188 17.2551L5.27344 17.9954C6.11719 18.5618 7.21875 18.5618 8.0625 17.9954L9.16406 17.2551C9.67188 16.9153 10.332 16.9153 10.8359 17.2551L11.9414 17.9954C12.7852 18.5618 13.8867 18.5618 14.7266 17.9954L15.832 17.2551C16.3359 16.9153 17 16.9153 17.5039 17.2551L18.6094 17.9954C18.884 18.1815 19.189 18.3064 19.5033 18.3702C19.774 18.4252 20 18.1963 20 17.9202Z" fill="#8993A1"/>
</g>
<defs>
<clipPath id="clip0_92_1414">
<rect width="20" height="20" fill="white"/>
</clipPath>
</defs>
</svg>
