<svg width="20" height="20" viewBox="0 0 20 20" fill="none" xmlns="http://www.w3.org/2000/svg">
<path fill-rule="evenodd" clip-rule="evenodd" d="M3 9C3 8.30078 3.35938 7.68555 3.90234 7.32812C4.08203 7.20898 4.28516 7.11816 4.5 7.06348C4.66016 7.02246 4.82812 7 5 7H15C16.1055 7 17 7.89551 17 9V12.1807C17 12.457 16.8867 12.7119 16.6992 12.8955C16.5625 13.0273 16.3906 13.1221 16.1953 13.1611L12.6562 13.8691C12.2578 13.9482 11.8516 13.7803 11.6289 13.4424L10.832 12.248C10.4375 11.6543 9.5625 11.6543 9.16797 12.248L8.37109 13.4424C8.14844 13.7803 7.74219 13.9482 7.34375 13.8691L3.80469 13.1611C3.33594 13.0674 3 12.6572 3 12.1807V9ZM5.85547 8.14648C6.04688 8.3418 6.04688 8.6582 5.85547 8.85352L4.85547 9.85352C4.79688 9.91113 4.73047 9.95117 4.66016 9.97461C4.58594 9.99902 4.50391 10.0059 4.42578 9.99414C4.32422 9.97852 4.22266 9.93164 4.14453 9.85352C4.05469 9.76074 4.00781 9.64062 4.00391 9.51953C3.99609 9.38477 4.04297 9.24902 4.14453 9.14648L5.14453 8.14648C5.23047 8.05859 5.34375 8.01074 5.46094 8.00195C5.60156 7.99023 5.74609 8.03906 5.85547 8.14648ZM5.85547 11.8535L8.35547 9.35352C8.54688 9.1582 8.54688 8.8418 8.35547 8.64648C8.27344 8.56348 8.16797 8.51562 8.05859 8.50293C7.91016 8.48633 7.75781 8.53418 7.64453 8.64648L5.14453 11.1465C4.95312 11.3418 4.95312 11.6582 5.14453 11.8535C5.33984 12.0488 5.66016 12.0488 5.85547 11.8535Z" fill="#8993A1"/>
<path fill-rule="evenodd" clip-rule="evenodd" d="M1.5 8C1.77539 8 2 8.22461 2 8.5V9.23774C2 9.39166 1.8334 9.48789 1.70007 9.41098L0.303407 8.60539C0.207999 8.55035 0.17375 8.42681 0.246127 8.34379C0.429184 8.13381 0.698662 8 1 8H1.5ZM0.299974 9.46805C0.16664 9.3911 0 9.48732 0 9.64127V10.3828C0 10.7598 0.214844 11.1074 0.552734 11.2773L1.71065 11.8555C1.84363 11.9219 2 11.8252 2 11.6766V10.7379C2 10.5593 1.90467 10.3942 1.74993 10.3049L0.299974 9.46805Z" fill="#8993A1"/>
<path fill-rule="evenodd" clip-rule="evenodd" d="M18.5 8C18.2246 8 18 8.22461 18 8.5V9.23774C18 9.39166 18.1666 9.48789 18.2999 9.41098L19.6966 8.60539C19.792 8.55035 19.8263 8.42681 19.7539 8.34379C19.5708 8.13381 19.3013 8 19 8H18.5ZM19.7 9.46805C19.8334 9.3911 20 9.48732 20 9.64127V10.3828C20 10.7598 19.7852 11.1074 19.4473 11.2773L18.2893 11.8555C18.1564 11.9219 18 11.8252 18 11.6766V10.7379C18 10.5593 18.0953 10.3942 18.2501 10.3049L19.7 9.46805Z" fill="#8993A1"/>
</svg>
